<?xml version="1.0" encoding="UTF-8"?>
<svg width="312px" height="97px" viewBox="0 0 312 97" version="1.1" xmlns="http://www.w3.org/2000/svg" xmlns:xlink="http://www.w3.org/1999/xlink">
    <title>Group 50</title>
    <defs>
        <polygon id="path-1" points="0 0 10 0 10 16 0 16"></polygon>
        <polygon id="path-3" points="0 0 3 0 3 16 0 16"></polygon>
        <polygon id="path-5" points="0 0 10 0 10 16 0 16"></polygon>
        <polygon id="path-7" points="0 0 3 0 3 16 0 16"></polygon>
        <polygon id="path-9" points="0 0 52 0 52 74 0 74"></polygon>
    </defs>
    <g id="Symbols" stroke="none" stroke-width="1" fill="none" fill-rule="evenodd">
        <g id="FOOTER" transform="translate(-257.000000, -96.000000)">
            <g id="Group-50" transform="translate(257.000000, 96.000000)">
                <path d="M133.257021,40.2712064 C129.703746,40.2712064 125.453574,42.9562555 124.335581,46.4804236 C123.017006,50.6370671 126.840939,52.9385377 130.46879,52.6592715 C133.550824,52.4215981 135.20499,50.0158153 135.828597,47.1201612 C136.386629,44.5321621 137.027594,40.2712064 133.257021,40.2712064 M139.856328,58.7615357 C138.688832,58.7595551 137.446118,58.5892225 136.441918,57.9343002 C135.721234,57.4642351 135.239706,57.1354536 134.416802,56.8759935 C133.412601,56.5597558 133.203661,57.8517748 128.9072,58.7615357 C123.32238,59.944621 116.905656,56.6568058 116.120682,50.4258019 C115.486789,45.3924077 117.387183,41.6160417 120.948173,38.7718835 C127.545551,33.5021364 134.524165,35.0615378 135.638943,33.7800822 C137.199247,31.9856481 136.313339,28.6384146 133.338026,28.2858657 C130.162129,27.9102097 125.798808,30.8923505 124.621026,31.5367095 C123.363526,32.2246419 121.717717,32.6762213 120.348353,31.6931778 C117.701558,29.7917907 120.287921,26.5072766 122.072595,25.3776678 C128.259806,21.4613385 140.112199,19.3975413 143.565826,28.0693189 C144.546882,30.5338598 144.597028,33.1825977 144.701177,35.8029468 C144.82847,39.0088967 145.00398,42.2155068 144.998194,45.4254179 C144.991122,49.1674533 145.318998,58.6327959 139.856328,58.7615357" id="Fill-1" fill="#FEFEFE"></path>
                <path d="M106.491586,90 L10.5084138,90 C10.2281172,90 10,89.7334259 10,89.4050677 L10,88.5949323 C10,88.2665741 10.2274483,88 10.5084138,88 L106.491586,88 C106.772552,88 107,88.2658799 107,88.5949323 L107,89.4050677 C107,89.7334259 106.772552,90 106.491586,90" id="Fill-3" fill="#FEFEFE"></path>
                <path d="M309.668862,90 L213.331138,90 C213.147841,90 213,89.8174245 213,89.5925026 L213,88.4074974 C213,88.1818813 213.147841,88 213.331138,88 L309.668862,88 C309.85149,88 310,88.1818813 310,88.4074974 L310,89.5925026 C310,89.8174245 309.85149,90 309.668862,90" id="Fill-5" fill="#FEFEFE"></path>
                <g id="Group-9" transform="translate(114.000000, 81.000000)">
                    <mask id="mask-2" fill="white">
                        <use xlink:href="#path-1"></use>
                    </mask>
                    <g id="Clip-8"></g>
                    <path d="M5.12024297,7.04001133 C6.07970745,7.04001133 6.5600595,6.90259689 6.5600595,5.48595309 C6.5600595,4.06860098 6.07970745,3.93118653 5.12024297,3.93118653 L4.03991571,3.93118653 C3.65997273,3.93118653 3.4399405,4.1599745 3.4399405,4.61684212 L3.4399405,6.35435574 C3.4399405,6.78855706 3.65997273,7.04001133 4.03991571,7.04001133 L5.12024297,7.04001133 Z M5,0 C8.56018346,0 10,1.73680529 10,5.48595309 C10,9.23439257 8.56018346,10.9711979 5,10.9711979 L4.03991571,10.9711979 C3.65997273,10.9711979 3.4399405,11.1999858 3.4399405,11.6568535 L3.4399405,15.3146277 C3.4399405,15.7714954 3.23974216,16.0002833 2.83996529,16.0002833 L0.599975208,16.0002833 C0.22003223,16.0002833 0,15.7488291 0,15.3146277 L0,0.708321897 C0,0.251454273 0.19957853,0.0226663007 0.599975208,0 L5,0 Z" id="Fill-7" fill="#FEFEFE" mask="url(#mask-2)"></path>
                </g>
                <g id="Group-12" transform="translate(128.000000, 81.000000)">
                    <mask id="mask-4" fill="white">
                        <use xlink:href="#path-3"></use>
                    </mask>
                    <g id="Clip-11"></g>
                    <path d="M2.47055606,0 C2.82333637,0 3,0.228787973 3,0.685655596 L3,15.3146277 C3,15.7488291 2.82333637,16.0002833 2.47055606,16.0002833 L0.528896992,16.0002833 C0.193618961,16.0002833 0,15.7488291 0,15.3146277 L0,0.685655596 C0,0.228787973 0.193618961,0 0.528896992,0 L2.47055606,0 Z" id="Fill-10" fill="#FEFEFE" mask="url(#mask-4)"></path>
                </g>
                <path d="M143.668495,93.068709 C144.076632,93.068709 144.280068,93.2975031 144.280068,93.7543829 L144.280068,96.3143262 C144.280068,96.748539 144.076632,97 143.668495,97 L133.536478,97 C133.04684,97 132.862989,96.6571631 133.108124,96.1776164 L138.673563,85.2054188 C138.755696,85.0453338 138.694412,84.931291 138.530778,84.931291 L134.637056,84.931291 C134.249769,84.931291 134.025483,84.67983 134.025483,84.2456171 L134.025483,81.6856738 C134.025483,81.228794 134.249769,81 134.637056,81 L144.463919,81 C144.952925,81 145.136776,81.3428369 144.892273,81.8223836 L139.224484,92.7945812 C139.142983,92.9546662 139.204267,93.068709 139.366637,93.068709 L143.668495,93.068709 Z" id="Fill-13" fill="#FEFEFE"></path>
                <path d="M156.668495,93.068709 C157.076632,93.068709 157.280068,93.2975031 157.280068,93.7543829 L157.280068,96.3143262 C157.280068,96.748539 157.076632,97 156.668495,97 L146.536478,97 C146.04684,97 145.862989,96.6571631 146.108124,96.1776164 L151.673563,85.2054188 C151.755696,85.0453338 151.694412,84.931291 151.530778,84.931291 L147.637056,84.931291 C147.249769,84.931291 147.025483,84.67983 147.025483,84.2456171 L147.025483,81.6856738 C147.025483,81.228794 147.249769,81 147.637056,81 L157.463919,81 C157.952925,81 158.136776,81.3428369 157.892273,81.8223836 L152.224484,92.7945812 C152.142983,92.9546662 152.204267,93.068709 152.366637,93.068709 L156.668495,93.068709 Z" id="Fill-15" fill="#FEFEFE"></path>
                <g id="Group-19" transform="translate(161.000000, 81.000000)">
                    <mask id="mask-6" fill="white">
                        <use xlink:href="#path-5"></use>
                    </mask>
                    <g id="Clip-18"></g>
                    <path d="M9.37504035,0 C9.79146491,0 10,0.228787973 10,0.685655596 L10,3.24553093 C10,3.67973225 9.79146491,3.93118653 9.37504035,3.93118653 L4.33275228,3.93118653 C3.93698754,3.93118653 3.70779263,4.1599745 3.70779263,4.61684212 L3.70779263,5.34853864 C3.70779263,5.78273997 3.93698754,6.03419424 4.33275228,6.03419424 L7.56214087,6.03419424 C7.97921105,6.03419424 8.18710052,6.26298221 8.18710052,6.71984984 L8.18710052,9.27972517 C8.18710052,9.71463482 7.97921105,9.96608909 7.56214087,9.96608909 L4.33275228,9.96608909 C3.93698754,9.96608909 3.70779263,10.1941687 3.70779263,10.6517447 L3.70779263,11.3827329 C3.70779263,11.8169342 3.93698754,12.0683885 4.33275228,12.0683885 L9.37504035,12.0683885 C9.79146491,12.0683885 10,12.2971765 10,12.7540441 L10,15.3146277 C10,15.7714954 9.79146491,16.0002833 9.37504035,16.0002833 L0.624314029,16.0002833 C0.228549293,16.0002833 0,15.7488291 0,15.3146277 L0,0.685655596 C0,0.228787973 0.228549293,0 0.624314029,0 L9.37504035,0 Z" id="Fill-17" fill="#FEFEFE" mask="url(#mask-6)"></path>
                </g>
                <path d="M177.237794,84.931291 C176.865586,84.931291 176.59652,85.2280857 176.59652,85.6396317 L176.59652,87.3311493 C176.59652,87.7426952 176.865586,88.0401983 177.237794,88.0401983 L178.292278,88.0401983 C179.283979,88.0401983 179.780471,87.9027802 179.780471,86.4853905 C179.780471,85.0680007 179.283979,84.931291 178.292278,84.931291 L177.237794,84.931291 Z M183.894623,95.7660705 C184.183549,96.3603683 183.852981,97 183.212347,97 L180.855455,97 C180.64853,97 180.462746,96.8859571 180.380104,96.67983 L178.230136,92.0855321 C178.189136,92.0168231 178.126994,91.9714893 178.064853,91.9714893 L177.237794,91.9714893 C176.865586,91.9714893 176.59652,92.268284 176.59652,92.67983 L176.59652,96.2916593 C176.59652,96.7032052 176.328094,97 175.955886,97 L173.640634,97 C173.268426,97 173,96.7032052 173,96.2916593 L173,81.7083407 C173,81.2967948 173.268426,81 173.640634,81 L178.167995,81 C181.847797,81 183.33599,82.7368514 183.33599,86.4853905 C183.33599,88.6111209 182.860639,90.0972198 181.765155,90.9656455 C181.682513,91.0343545 181.662013,91.1483974 181.703014,91.2631486 L183.894623,95.7660705 Z" id="Fill-20" fill="#FEFEFE"></path>
                <g id="Group-24" transform="translate(187.000000, 81.000000)">
                    <mask id="mask-8" fill="white">
                        <use xlink:href="#path-7"></use>
                    </mask>
                    <g id="Clip-23"></g>
                    <path d="M2.47055606,0 C2.82333637,0 3,0.228787973 3,0.685655596 L3,15.3146277 C3,15.7488291 2.82333637,16.0002833 2.47055606,16.0002833 L0.528896992,16.0002833 C0.193618961,16.0002833 0,15.7488291 0,15.3146277 L0,0.685655596 C0,0.228787973 0.193618961,0 0.528896992,0 L2.47055606,0 Z" id="Fill-22" fill="#FEFEFE" mask="url(#mask-8)"></path>
                </g>
                <path d="M199.490008,86.7939488 C199.490008,85.7242436 199.347078,85.1897363 198,85.1897363 C196.652922,85.1897363 196.510625,85.7242436 196.510625,86.7939488 L196.510625,89.2227114 C196.510625,89.6467262 196.734505,89.8911908 197.122186,89.8911908 L198.877814,89.8911908 C199.285732,89.8690923 199.490008,89.6467262 199.490008,89.2006129 L199.490008,86.7939488 Z M203,96.242436 C203,96.7327463 202.795725,97 202.387807,97 L200.102201,97 C199.714521,97 199.490008,96.7776339 199.490008,96.3315206 L199.490008,94.3930683 C199.490008,93.9476456 199.285732,93.7245889 198.877814,93.7245889 L197.122186,93.7245889 C196.734505,93.7245889 196.510625,93.9476456 196.510625,94.3930683 L196.510625,96.3315206 C196.510625,96.7776339 196.30635,97 195.897799,97 L193.612193,97 C193.224513,97 193,96.7327463 193,96.242436 L193,86.7939488 C193,83.986059 193.40855,81 198,81 C202.592082,81 203,83.986059 203,86.7939488 L203,96.242436 Z" id="Fill-25" fill="#FEFEFE"></path>
                <g id="Group-29">
                    <mask id="mask-10" fill="white">
                        <use xlink:href="#path-9"></use>
                    </mask>
                    <g id="Clip-28"></g>
                    <path d="M15.0298935,74 C10.456599,74 10.1126428,69.2639957 9.81498842,65.6903915 C9.44457406,61.2459998 9.39364208,56.7692066 9.40885553,52.3106393 C9.43928242,43.4326563 9.37909009,34.0956535 11.0373558,25.3425508 C11.7246067,21.7115692 13.7645316,18.4667042 17.7147361,18.5929346 C21.0967516,18.7009393 20.5021042,21.637991 20.4022246,24.2537289 C20.2937461,27.1023517 19.8664467,30.2047856 20.1601324,33.0453081 C20.6899572,38.1613539 27.2191718,40.9951261 31.615858,40.2924208 C35.7942643,39.624817 39.2999717,36.425854 40.9602217,32.5410614 C43.2422388,27.1995559 42.5622639,20.1880284 39.5493399,15.2785416 C36.1792306,9.7885298 29.9800817,7.72226565 23.8993331,8.86576499 C18.2756493,9.92286059 13.3233416,13.1467997 8.77981257,16.5354459 C6.66911216,18.1096138 3.77657286,20.0928493 1.34903588,17.7471231 C-0.541400278,15.9198193 -0.331057836,13.1549 1.27164573,11.2486178 C3.52257444,8.57145229 6.84307462,6.48021207 9.81300406,4.77711359 C15.000128,1.80293528 20.7395663,-0.0398942211 26.7217582,-4.6665689e-05 C32.4241551,0.0390841862 38.377243,1.17920837 43.0841512,4.64683297 C47.4213065,7.84174581 50.0069311,12.7046556 51.1657989,17.9597573 C53.3995298,28.0865442 51.3033814,38.2140061 42.9809644,45.0790523 C37.8308818,49.3263355 26.7640913,52.4274193 19.4583295,45.1060535 C19.4570066,50.2423501 19.7718588,54.3478772 19.9312692,59.4855238 C20.0245343,62.4826531 20.1389659,65.4818075 20.3380636,68.4748866 C20.4147923,69.6332366 20.7660245,70.8779903 20.0635601,71.8750083 C19.0211082,73.3539971 16.7152788,74 15.0298935,74" id="Fill-27" fill="#FEFEFE" mask="url(#mask-10)"></path>
                </g>
                <path d="M94.1666501,35.0250385 C93.8619381,39.0177839 93.584073,42.4595555 93.7894516,46.4615388 C93.9847625,50.2543501 96.8385849,53.0910403 101.090458,51.4460371 C105.941688,49.569427 105.875242,43.1886885 105.707449,39.0448377 C105.57657,35.8247753 105.131583,31.0197559 101.791161,29.3199852 C100.420629,28.622525 98.5990685,28.6192258 97.1882654,29.1873556 C94.8116462,30.1447963 94.1773888,32.7208462 94.1666501,35.0250385 M89.8349075,73 C85.7957958,73 85.6420974,68.904978 85.3548359,65.8630748 C84.9514617,61.5799958 84.9622004,57.2553464 85.0487816,52.9590705 C85.1407321,48.3830187 85.366917,43.8102661 85.671629,39.244112 C85.894458,35.9039571 85.714584,32.0563784 86.5575757,28.8046433 C87.6703785,24.5103469 94.5472045,22.3467025 98.3305998,22.0425122 C103.820114,21.6010733 109.198213,24.6317591 111.794305,29.5377354 C114.401137,34.4648268 114.393754,40.5882242 113.329275,45.9132044 C112.343324,50.8435951 110.123759,55.1451498 105.251723,57.6334398 C100.534728,60.0432079 94.5539162,56.3724687 93.7021992,58.7248298 C93.3310412,59.7508948 93.6599154,61.3629056 93.6954875,62.4331804 C93.7458254,63.9356563 94.576736,70.1633098 93.798848,71.3431195 C93.00955,72.5420649 91.1960438,73 89.8349075,73" id="Fill-30" fill="#FEFEFE"></path>
                <path d="M68.257021,40.2712064 C64.703746,40.2712064 60.453574,42.9562555 59.3355813,46.4804236 C58.0170058,50.6370671 61.8409392,52.9385377 65.4687899,52.6592715 C68.5508236,52.4215981 70.2049898,50.0158153 70.8285969,47.1201612 C71.3866289,44.5321621 72.0275942,40.2712064 68.257021,40.2712064 M74.8563277,58.7615357 C73.6888322,58.7595551 72.4461182,58.5892225 71.4419178,57.9343002 C70.7212336,57.4642351 70.239706,57.1354536 69.4168018,56.8759935 C68.4126014,56.5597558 68.2036608,57.8517748 63.9072004,58.7615357 C58.3223804,59.944621 51.9056557,56.6568058 51.1206821,50.4258019 C50.4867887,45.3924077 52.3871833,41.6160417 55.948173,38.7718835 C62.545551,33.5021364 69.5241651,35.0615378 70.6389432,33.7800822 C72.1992469,31.9856481 71.313339,28.6384146 68.3380257,28.2858657 C65.1621294,27.9102097 60.798808,30.8923505 59.6210263,31.5367095 C58.3635256,32.2246419 56.7177171,32.6762213 55.3483529,31.6931778 C52.7015584,29.7917907 55.2879209,26.5072766 57.0725945,25.3776678 C63.2598062,21.4613385 75.1121995,19.3975413 78.5658259,28.0693189 C79.5468821,30.5338598 79.5970279,33.1825977 79.7011767,35.8029468 C79.8284697,39.0088967 80.0039797,42.2155068 79.9981937,45.4254179 C79.9911219,49.1674533 80.3189978,58.6327959 74.8563277,58.7615357" id="Fill-32" fill="#FEFEFE"></path>
                <path d="M274.846203,9.24070294 C279.876105,8.49006129 285.16208,9.50695336 289.517304,12.1253022 C290.026795,12.4317538 290.158812,13.1072653 289.788634,13.5705674 L280.132178,25.6328976 C279.639935,26.248437 278.653458,26.0573166 278.430556,25.3027208 L274.040172,10.47969 C273.871005,9.90896513 274.25445,9.32901373 274.846203,9.24070294" id="Fill-34" fill="#FEFEFE"></path>
                <path d="M208.999247,19 C202.293352,19 202.373939,9 208.999247,9 C215.61861,9 215.715051,19 208.999247,19" id="Fill-36" fill="#FEFEFE"></path>
                <path d="M207.549967,60 C201.600495,59.9993336 202.176204,52.0894526 202.060065,48.2821268 C201.886212,42.6054594 202.094978,36.8934711 202.618674,31.2354637 C202.762601,29.6820108 202.627224,27.3814877 203.344011,25.939329 C205.027676,22.5525217 211.540746,23.921373 211.542883,27.5807509 C211.547158,32.9808491 211.151002,38.3829465 211.227953,43.7950405 C211.274266,47.0079089 211.352642,50.2267753 211.608434,53.432313 C211.701061,54.5945704 212.082255,55.9121064 211.983928,57.0710315 C211.8115,59.0929861 209.460924,60 207.549967,60" id="Fill-38" fill="#FEFEFE"></path>
                <path d="M220.675087,60 C215.592017,60 215.965166,53.9731882 215.637901,50.3503748 C215.136544,44.8098784 214.863936,39.2088447 215.068392,33.6468239 C215.233712,29.1670732 215.952346,22.3028306 222.113705,23.9736565 C223.403872,24.3234268 224.051655,25.226776 224.601595,25.5664568 C226.227125,26.5700285 228.526079,24.6267853 229.802076,23.9306079 C233.061233,22.150815 237.226611,23.0548368 240.045141,25.5308071 C244.076914,29.0729043 243.953431,35.8080009 243.993917,40.7094939 C244.036428,45.9331792 243.885953,51.502599 242.574868,56.5917572 C241.989164,58.8645917 240.571465,60.129146 238.028243,59.4450759 C233.819679,58.3137035 234.663821,53.4828372 234.86018,50.289165 C235.06801,46.901774 235.856146,43.5036207 235.833204,40.1095033 C235.817684,37.775459 235.974231,35.042542 234.604441,33.0185826 C232.673238,30.1652639 228.219732,29.8397084 225.627926,31.9665811 C223.116418,34.0275355 223.241926,37.2447498 223.277014,40.18013 C223.322899,43.9347799 224.16839,47.6914477 224.423455,51.4373534 C224.644106,54.6787826 225.637373,60 220.675087,60" id="Fill-40" fill="#FEFEFE"></path>
                <path d="M263.01746,30.0334694 C257.288022,30.0334694 255.390919,35.6353958 255.390919,40.4886193 C255.390919,45.3418427 257.288022,50.9431019 263.01746,50.9431019 C268.746898,50.9431019 270.644001,45.3418427 270.644001,40.4886193 C270.644001,35.6353958 268.746898,30.0334694 263.01746,30.0334694 M263.01746,59 C247.024535,59 242.267061,36.7150762 252.123835,26.5408568 C257.203736,21.2972668 265.735348,20.4858382 271.723664,24.6771068 C277.75011,28.8943999 279.737519,36.9059221 278.764886,43.874465 C277.63037,52.0034308 271.677507,59 263.01746,59" id="Fill-42" fill="#FEFEFE"></path>
                <path d="M296.312488,60 C290.501497,60 284.940686,58.9305075 282.353935,54.3597714 C280.862891,51.7242126 284.400191,48.5595504 287.055841,49.5188407 C288.569629,50.0652046 289.677376,51.3092946 291.28749,51.7892717 C292.652775,52.1962232 294.101007,52.308417 295.521814,52.2971313 C297.99217,52.2772152 300.32339,51.1771847 300.519386,48.4520037 C300.712038,45.7779405 298.886529,44.0001 296.385402,43.4397948 C291.49352,42.3430837 285.196886,42.4001764 282.81951,37.0513862 C280.529096,31.8984372 283.829594,25.7682734 288.688029,23.4161866 C293.533086,21.0707384 301.780987,21.6051527 305.890222,25.269708 C308.228131,27.3542558 307.408692,31.0327524 304.017219,31.2810393 C302.64792,31.3806196 301.640512,30.5063045 300.443128,29.9858314 C299.090553,29.3983076 297.639645,29.0232218 296.170675,28.870532 C293.812699,28.6255644 290.741643,29.1805586 290.203824,31.9170255 C289.632558,34.8241066 292.638727,36.4240302 294.969278,37.1469833 C298.006887,38.0896768 301.34217,38.1932404 304.177762,39.7579789 C306.812676,41.2118514 308.440181,43.8932172 308.883681,46.8122479 C309.901123,53.5013891 304.122241,60 296.312488,60" id="Fill-44" fill="#FEFEFE"></path>
                <path d="M175.442007,74 C170.884983,74 164.957942,73.1856387 161.460829,69.7750827 C156.526918,64.9637986 161.013193,60.3169914 163.887451,62.5039995 C168.544978,66.0462707 175.277367,67.6649642 180.700569,64.7324611 C182.772785,63.6125472 184.522995,61.8821965 185.680103,59.8148687 C186.462309,58.4168149 188.152348,54.7434971 185.831519,53.9157637 C184.555394,53.4604434 182.66038,54.4600084 181.371692,54.7033808 C179.575198,55.0423637 177.749612,55.234922 175.920719,55.234922 C172.905625,55.2335848 169.872678,54.711404 167.098923,53.4911993 C161.954749,51.2279701 158.413997,46.7262503 156.674367,41.4081632 C153.363714,31.2861467 154.843491,18.0524409 162.179559,10.0111243 C165.753371,6.09376546 170.902835,3.22277406 176.244709,3.01951803 C181.556168,2.81693061 187.946714,4.16483901 191.689794,8.30952362 C193.488272,10.2999618 193.839372,13.2612149 191.33076,14.7608967 C189.144817,16.066683 186.65538,16.1703168 184.691602,14.6412164 C180.001676,10.9892939 173.283834,10.3888863 169.08386,15.1660716 C165.168866,19.6183146 164.633951,26.3190775 164.998937,31.9875138 C165.326894,37.0776063 166.55409,41.5572622 171.17459,44.446306 C175.81691,47.3487218 183.584745,46.6119187 186.579342,41.5171459 C189.248626,36.9766469 188.223097,32.0543743 188.337486,26.9796596 C188.396994,24.3366626 190.498964,23.0275334 193.018816,23.1231439 C196.193261,23.2434929 197.007204,25.4432045 197.321277,28.25469 C198.039345,34.6806561 198.259526,42.3836585 197.629398,48.8316885 C196.712307,58.2229194 193.350741,68.6812444 183.91138,72.4815972 C181.226888,73.5627321 178.321554,74 175.442007,74" id="Fill-46" fill="#FEFEFE"></path>
                <path d="M311.10992,57.453202 C311.294459,57.5602329 311.440125,57.7066726 311.547364,57.8925213 C311.654602,58.0783699 311.708668,58.2807882 311.708668,58.5002239 C311.708668,58.718764 311.655049,58.9202866 311.547811,59.1061352 C311.441019,59.2915361 311.2958,59.4384236 311.112154,59.5459024 C310.928954,59.6538289 310.726988,59.7080161 310.506702,59.7080161 C310.289544,59.7080161 310.088919,59.6542768 309.903485,59.5472459 C309.718052,59.4397671 309.571046,59.2933274 309.46202,59.1070309 C309.352994,58.9207344 309.298481,58.718764 309.298481,58.5002239 C309.298481,58.2821317 309.352547,58.0797134 309.460679,57.8943126 C309.568811,57.7089118 309.715371,57.5620242 309.900357,57.4540976 C310.084897,57.3461711 310.286416,57.2924317 310.503575,57.2924317 C310.723414,57.2924317 310.92538,57.3461711 311.10992,57.453202 L311.10992,57.453202 Z M309.747096,57.2010748 C309.516533,57.3345275 309.334227,57.5167936 309.200179,57.7469772 C309.066577,57.9776086 309,58.2288401 309,58.5002239 C309,58.7716077 309.066577,59.0228392 309.200626,59.2530228 C309.334674,59.4836543 309.516533,59.6654725 309.747096,59.7998209 C309.977212,59.9332736 310.228329,60 310.5,60 C310.771671,60 311.022788,59.9332736 311.253351,59.7998209 C311.483467,59.6654725 311.665326,59.4836543 311.799374,59.2530228 C311.933423,59.0228392 312,58.7716077 312,58.5002239 C312,58.2951187 311.96202,58.101657 311.885612,57.919391 C311.809205,57.7375728 311.701519,57.5768025 311.562556,57.4379758 C311.423146,57.2991491 311.262735,57.1912226 311.080429,57.114644 C310.89857,57.0385132 310.705094,57 310.5,57 C310.228329,57 309.977212,57.0671742 309.747096,57.2010748 L309.747096,57.2010748 Z M310.152815,58.6497985 L310.235478,58.6497985 C310.29714,58.6497985 310.349419,58.6596507 310.391868,58.6793551 C310.43387,58.6986117 310.476765,58.7362293 310.519214,58.79176 C310.561662,58.8472906 310.613047,58.932378 310.673369,59.0474698 L310.803396,59.3040752 L311.206881,59.3040752 L311.01832,58.9829825 C310.947721,58.8598298 310.890527,58.7725034 310.848079,58.7205553 C310.80563,58.6690551 310.74933,58.630094 310.680071,58.60412 C310.815013,58.5853112 310.920465,58.5351545 310.996872,58.4527541 C311.072833,58.3703538 311.11126,58.2727273 311.11126,58.1594268 C311.11126,58.0685177 311.091153,57.9883565 311.050938,57.919391 C311.010724,57.8499776 310.950402,57.7971339 310.871314,57.7595163 C310.792225,57.7218988 310.693923,57.70309 310.576854,57.70309 L309.826184,57.70309 L309.826184,59.3040752 L310.152815,59.3040752 L310.152815,58.6497985 Z M310.440125,57.9605911 C310.550492,57.9605911 310.631814,57.9789521 310.684987,58.015674 C310.737712,58.0519481 310.764075,58.1012091 310.764075,58.1639051 C310.764075,58.2548142 310.733691,58.3157188 310.673369,58.3461711 C310.613047,58.3770712 310.524576,58.3922974 310.409294,58.3922974 L310.152815,58.3922974 L310.152815,57.9605911 L310.440125,57.9605911 Z" id="Fill-48" fill="#FEFEFE"></path>
            </g>
        </g>
    </g>
</svg>