<?xml version="1.0" encoding="UTF-8"?>
<svg width="409px" height="97px" viewBox="0 0 409 97" version="1.1" xmlns="http://www.w3.org/2000/svg" xmlns:xlink="http://www.w3.org/1999/xlink">
    <title>000_logo</title>
    <g id="Symbols" stroke="none" stroke-width="1" fill="none" fill-rule="evenodd">
        <g id="Nav" transform="translate(-142.000000, -75.000000)">
            <g id="000_logo" transform="translate(142.000000, 75.000000)">
                <g id="Group-4" fill="#B12028">
                    <path d="M175.026914,52.9149252 C170.194544,52.9149252 164.41249,56.4764495 162.891771,61.151005 C161.098215,66.6644934 166.299615,69.7172286 171.234299,69.3459264 C175.427425,69.0315454 177.676584,65.8404476 178.525703,61.9995708 C179.283877,58.5659005 180.155732,52.9149252 175.026914,52.9149252 Z M184.003439,77.4410164 C182.415385,77.4383893 180.725018,77.2124554 179.359956,76.3437482 C178.379665,75.7202406 177.723806,75.2841356 176.604473,74.9399804 C175.238538,74.5196382 174.955206,76.2334083 169.11019,77.4410164 C161.513592,79.010294 152.785419,74.6492437 151.717681,66.3842653 C150.855444,59.7069544 153.440404,54.6987523 158.284142,50.9261812 C167.258918,43.9362408 176.751386,46.0046746 178.266858,44.3040402 C180.390092,41.9238525 179.184186,37.4848638 175.137098,37.0172331 C170.817173,36.5180768 164.882959,40.4745476 163.28004,41.3292434 C161.569559,42.2417363 159.330893,42.8407239 157.469128,41.5367874 C153.868024,39.0147342 157.386052,34.6580625 159.813606,33.1597178 C168.22959,27.9641131 184.352356,25.2275103 189.049182,36.7299993 C190.383636,39.9981598 190.451846,43.5123957 190.593511,46.9872245 C190.767533,51.2405621 191.005391,55.4938997 190.99752,59.7516158 C190.987901,64.7142808 191.43476,77.2702524 184.003439,77.4410164 L184.003439,77.4410164 Z" id="Fill-1"></path>
                    <path d="M19.870759,96 C13.8237379,96 13.3690089,89.8559983 12.9754935,85.2199742 C12.4857853,79.4542804 12.4184505,73.6465524 12.4385635,67.8624687 C12.4787895,56.3450926 12.3992119,44.2322317 14.5915303,32.8768625 C15.5009883,28.1664028 18.1970065,23.9568509 23.4193941,24.1206092 C27.8906043,24.2607232 27.1053223,28.0709501 26.9724016,31.4643376 C26.828987,35.159846 26.2640737,39.1846225 26.6532168,42.8696224 C27.3527998,49.5066505 35.9847803,53.1828933 41.7983156,52.2712762 C47.3223983,51.4051961 51.9571361,47.2551927 54.1512035,42.2154649 C57.1690299,35.2859487 56.2691912,26.1899188 52.2859401,19.8208588 C47.831345,12.6986858 39.6357294,10.0181286 31.5957711,11.5015862 C24.1618266,12.8729526 17.6146036,17.0553575 11.6069341,21.452312 C8.81647217,23.4935987 4.99325074,26.0664432 1.78391345,23.0233409 C-0.716221513,20.6527861 -0.437262768,17.065866 1.68159943,14.5928528 C4.65657639,11.1197754 9.04733458,8.40681684 12.97287,6.1982689 C19.8314075,2.33900213 27.4183858,-0.0516940945 35.3280467,0 C42.8660542,0.0507643152 50.7363636,1.52984341 56.959155,6.02838059 C62.6939871,10.1731298 66.1123248,16.4817655 67.6444117,23.2991905 C70.5975267,36.4366355 67.8263033,49.5749561 56.8227363,58.4809564 C50.0140441,63.990942 35.3831389,68.013967 25.7245203,58.5159849 C25.7236458,65.1792844 26.1398977,70.5053702 26.3506471,77.1704212 C26.4739486,81.0594622 26.6252335,84.9493789 26.8875771,88.8322899 C26.9898911,90.3350132 27.4542394,91.9498278 26.5255429,93.2432558 C25.1473642,95.1619428 22.0980566,96 19.870759,96" id="Fill-3"></path>
                </g>
                <path d="M123.01109,45.3667179 C122.61269,50.6903785 122.24771,55.2794074 122.517707,60.6153851 C122.772753,65.6724668 126.512257,69.4547204 132.083695,67.2613828 C138.441379,64.7583561 138.354311,56.2515847 138.133565,50.7264503 C137.962068,46.4321539 137.379859,40.0263412 133.001861,37.7599803 C131.205985,36.8300333 128.819984,36.8256343 126.97046,37.5831408 C123.857139,38.8597284 123.026041,42.2935819 123.01109,45.3667179 Z M117.335874,96 C112.042348,96 111.84095,90.5399707 111.465416,86.4840997 C110.935976,80.7733278 110.950927,75.0071286 111.063499,69.2787607 C111.183986,63.1773583 111.481247,57.0803548 111.880526,50.9921494 C112.17163,46.5386095 111.936812,41.4085046 113.040546,37.0728577 C114.498706,31.3462494 123.509749,28.46227 128.467317,28.0566829 C135.661376,27.4680978 142.708564,31.5090122 146.110351,38.0503138 C149.52621,44.619769 149.515657,52.7842989 148.120818,59.8842726 C146.828878,66.457247 143.920473,72.1935331 137.537284,75.5112531 C131.355495,78.7242771 123.518543,73.8299582 122.403376,76.9664398 C121.91615,78.3345264 122.34709,80.4838741 122.393702,81.9100274 C122.460542,83.9142083 123.548445,92.2177464 122.53002,93.790826 C121.494884,95.3894199 119.118558,96 117.335874,96 L117.335874,96 Z" id="Fill-5" fill="#B12028"></path>
                <path d="M91.2081105,53.1971731 C86.429495,53.1971731 80.7136588,56.7530246 79.2101285,61.4201342 C77.4359799,66.9248404 82.5794544,69.9727131 87.4583628,69.6020022 C91.6032303,69.2881221 93.8278327,66.1021072 94.6664897,62.2673483 C95.4160933,58.8391474 96.278959,53.1971731 91.2081105,53.1971731 Z M100.083176,77.6841981 C98.5130719,77.6815751 96.8409456,77.4560011 95.4913131,76.5886776 C94.5221023,75.9661631 93.8736562,75.5307528 92.7669749,75.1871458 C91.4164778,74.7674731 91.1363491,76.4785135 85.3582621,77.6841981 C77.8466625,79.250976 69.2180064,74.8968722 68.1623361,66.6450587 C67.3098457,59.9783837 69.8647233,54.978159 74.6545785,51.2115969 C83.5270503,44.2327904 92.9122268,46.2979296 94.4114342,44.600004 C96.5098058,42.2236076 95.3175295,37.7916896 91.3170494,37.3248037 C87.0450865,36.8264425 81.1779462,40.7766113 79.5940086,41.6299457 C77.9028611,42.5409851 75.6886339,43.1390186 73.8479115,41.8371591 C70.2883748,39.3191231 73.7666396,34.969391 76.1658902,33.4734328 C84.4876151,28.286104 100.427285,25.5538602 105.071023,37.0380274 C106.39126,40.3009823 106.457834,43.8096205 106.598762,47.2789144 C106.769952,51.5254771 107.005987,55.7720397 106.997341,60.022974 C106.988695,64.9777342 107.429638,77.513706 100.083176,77.6841981 L100.083176,77.6841981 Z" id="Fill-6" fill="#B12028"></path>
                <path d="M358.11114,11.3256448 C364.712787,10.3100813 371.649654,11.6858622 377.366671,15.2291891 C378.035368,15.6429042 378.208638,16.5577138 377.721916,17.1836362 L365.048877,33.5039825 C364.401947,34.3358708 363.108087,34.0772989 362.814661,33.0572772 L357.052368,13.0019041 C356.831211,12.2297549 357.334475,11.4451228 358.11114,11.3256448" id="Fill-7" fill="#B12028"></path>
                <path d="M271.499183,25 C262.781302,25 262.886068,11 271.499183,11 C280.104569,11 280.229086,25 271.499183,25" id="Fill-8" fill="#B12028"></path>
                <path d="M270.659626,78 C263.520117,77.9991299 264.210982,67.6723409 264.071612,62.7016656 C263.863839,55.2904609 264.114363,47.8331428 264.742811,40.44717 C264.915527,38.4181808 264.752217,35.4147201 265.613233,33.5319017 C267.633671,29.1102367 275.448656,30.8973481 275.452076,35.6748692 C275.456351,42.7249974 274.980954,49.7777357 275.074152,56.8435251 C275.128874,61.0381033 275.222928,65.2413823 275.529884,69.4255198 C275.641038,70.9429113 276.099334,72.6630277 275.980485,74.176069 C275.773568,76.815843 272.95282,78 270.659626,78" id="Fill-9" fill="#B12028"></path>
                <path d="M288.436588,78 C281.775878,78 282.264843,70.1814334 281.83512,65.4815674 C281.178156,58.2938963 280.821822,51.0276904 281.089736,43.8120959 C281.305482,38.0005274 282.247159,29.095564 290.321711,31.263122 C292.012309,31.7168781 292.860261,32.8887904 293.581771,33.3294574 C295.710935,34.6313884 298.723418,32.1104242 300.395448,31.2072751 C304.667038,28.8983546 310.124346,30.0711396 313.817666,33.2832092 C319.100786,37.8783623 318.93986,46.615785 318.992028,52.9744786 C319.047733,59.7511514 318.850556,66.9763447 317.133431,73.5784959 C316.365942,76.5270379 314.507345,78.1675407 311.17478,77.2800985 C305.660883,75.812372 306.767023,69.5453023 307.023442,65.4030326 C307.295777,61.0085794 308.329411,56.5992917 308.299348,52.1961124 C308.279012,49.168163 308.483263,45.6227572 306.688329,42.9970801 C304.157736,39.2954775 298.322874,38.8731353 294.926646,41.6323214 C291.635638,44.3059919 291.799216,48.4796754 291.846079,52.2877362 C291.90532,57.1586334 293.013228,62.0321484 293.347457,66.8917017 C293.637476,71.0967991 294.93814,78 288.436588,78" id="Fill-10" fill="#B12028"></path>
                <path d="M343.022946,39.421924 C335.503048,39.421924 333.012219,46.6892637 333.012219,52.9853163 C333.012219,59.2805032 335.503048,66.5478429 343.022946,66.5478429 C350.541967,66.5478429 353.032796,59.2805032 353.032796,52.9853163 C353.032796,46.6892637 350.541967,39.421924 343.022946,39.421924 Z M343.022946,77 C322.032202,77 315.788009,48.0899255 328.725043,34.8909823 C335.391545,28.08851 346.590179,27.0358494 354.448977,32.472287 C362.358699,37.9442172 364.968055,48.3375085 363.691472,57.37775 C362.202418,67.9234001 354.389275,77 343.022946,77 L343.022946,77 Z" id="Fill-11" fill="#B12028"></path>
                <path d="M388.553373,78 C381.019801,78 373.812268,76.592773 370.4591,70.5786465 C368.525413,67.110806 373.111632,62.9467768 376.554113,64.2090009 C378.515548,64.9279008 379.951505,66.5648613 382.039539,67.1964101 C383.809339,67.7318727 385.686662,67.8794961 387.528433,67.8646464 C390.730721,67.8384411 393.752648,66.3910326 394.006715,62.805268 C394.25558,59.2867638 391.889199,56.9483736 388.64789,56.2102564 C382.306613,54.7672154 374.144376,54.8423374 371.062618,47.805329 C368.092719,41.0242594 372.371108,32.9582545 378.669896,29.8634034 C384.950474,26.7772874 395.642111,27.4804641 400.967986,32.3022474 C403.999451,35.0459469 402.937224,39.8852005 398.540906,40.2118938 C396.765903,40.343794 395.459148,39.1925059 393.907863,38.5085464 C392.154539,37.7354888 390.273747,37.2410813 388.369543,37.0401736 C385.312931,36.7187214 381.331099,37.4481035 380.633931,41.0495913 C379.894274,44.874698 383.790262,46.9789871 386.811322,47.9311146 C390.749798,49.1715009 395.072411,49.3068952 398.749016,51.3657617 C402.164617,53.2787519 404.274329,56.8068647 404.849232,60.6476946 C406.168128,69.4491962 398.676177,78 388.553373,78" id="Fill-12" fill="#B12028"></path>
                <path d="M229.097527,97 C223.056817,97 215.200038,95.9333015 210.564327,91.4659541 C204.024023,85.1638502 209.97095,79.0771878 213.781014,81.9418601 C219.954949,86.581736 228.879283,88.7019963 236.068183,84.8608307 C238.815076,83.3930255 241.135122,81.1273859 242.668965,78.419478 C243.705842,76.5882246 245.946129,71.7766961 242.869679,70.6924821 C241.17807,70.0960767 238.666074,71.405366 236.957812,71.7241494 C234.576412,72.1681693 232.156447,72.4203935 229.732099,72.4195178 C225.735344,72.418642 221.714924,71.7346588 218.038084,70.1363625 C211.219059,67.1718515 206.525501,61.2752331 204.219479,54.3092889 C199.830936,41.0508744 201.792502,23.7165856 211.517939,13.1827187 C216.254445,8.05240678 223.080482,4.29181282 230.161575,4.02557608 C237.20235,3.76021512 245.673543,5.5249093 250.635304,10.9538618 C253.019334,13.5619309 253.484745,17.440755 250.159375,19.4051268 C247.261727,21.1155227 243.961775,21.2512684 241.358625,19.2483624 C235.141742,14.4648588 226.236691,13.6775337 220.669282,19.9358487 C215.480512,25.7676594 214.770562,34.544714 215.254379,41.9695663 C215.689114,48.63687 217.315864,54.5045876 223.440716,58.2888276 C229.594492,62.0905831 239.891395,61.125475 243.860979,54.4511651 C247.399335,48.5037516 246.039912,42.0562684 246.191544,35.4099835 C246.270427,31.9471543 249.056761,30.2323795 252.397032,30.3584916 C256.605019,30.5161318 257.683968,33.3974439 258.100296,37.0800935 C259.052155,45.4972031 259.344023,55.5870501 258.508737,64.0330604 C257.293057,76.3342488 252.837026,90.03318 240.324377,95.0111065 C236.765863,96.4272407 232.914603,97 229.097527,97" id="Fill-13" fill="#B12028"></path>
                <path d="M407.219211,72.9064039 C407.588235,73.1204657 407.880417,73.4133453 408.094862,73.7841469 C408.309308,74.1558442 408.41653,74.5606807 408.41653,74.9995522 C408.41653,75.4366323 408.309308,75.8405732 408.095756,76.2113748 C407.88131,76.5821764 407.590916,76.8759516 407.224572,77.0918047 C406.857334,77.3076579 406.453462,77.4151366 406.012956,77.4151366 C405.579598,77.4151366 405.177513,77.3085535 404.806701,77.0935961 C404.43589,76.8795343 404.141921,76.5857591 403.923902,76.2131661 C403.705882,75.8414689 403.596873,75.4366323 403.596873,74.9995522 C403.596873,74.5633677 403.704989,74.1594268 403.921221,73.7886252 C404.137453,73.4169279 404.430529,73.1240484 404.800447,72.9081953 C405.170365,72.6923421 405.57245,72.5848634 406.007595,72.5848634 C406.447208,72.5848634 406.850186,72.6914465 407.219211,72.9064039 Z M404.493969,72.4012539 C404.032911,72.6690551 403.669248,73.0335871 403.401191,73.4939543 C403.134028,73.9552172 403,74.4567846 403,74.9995522 C403,75.5432154 403.134028,76.0447828 403.401191,76.5060457 C403.669248,76.9664129 404.032911,77.3309449 404.493969,77.5987461 C404.955026,77.8656516 405.456292,78 405.999553,78 C406.542815,78 407.044974,77.8656516 407.506031,77.5987461 C407.966195,77.3309449 408.330752,76.9664129 408.597915,76.5060457 C408.865972,76.0447828 409,75.5432154 409,74.9995522 C409,74.5902373 408.923157,74.2024183 408.770365,73.8387819 C408.617573,73.4742499 408.402234,73.153605 408.124348,72.875056 C407.846463,72.5974026 407.524795,72.3815495 407.161132,72.229288 C406.796575,72.0761308 406.40968,72 405.999553,72 C405.456292,72 404.955026,72.1334528 404.493969,72.4012539 Z M405.305287,75.299597 L405.471482,75.299597 C405.594788,75.299597 405.698436,75.3184057 405.783321,75.3578146 C405.868206,75.3972235 405.95309,75.4724586 406.037975,75.5835199 C406.122859,75.6945813 406.225614,75.8647559 406.34624,76.0940439 L406.606255,76.6081505 L407.413105,76.6081505 L407.036039,75.9659651 C406.894862,75.7196597 406.781385,75.5450067 406.695607,75.4411106 C406.610722,75.3372145 406.499032,75.2601881 406.359643,75.2073444 C406.63038,75.1706225 406.841251,75.070309 406.994043,74.9046126 C407.145942,74.7407076 407.221891,74.5445589 407.221891,74.3188536 C407.221891,74.1370354 407.181683,73.9767129 407.101266,73.8378863 C407.020849,73.6999552 406.901117,73.5933721 406.74207,73.518137 C406.583917,73.4429019 406.388235,73.40618 406.153239,73.40618 L404.653016,73.40618 L404.653016,76.6081505 L405.305287,76.6081505 L405.305287,75.299597 Z M405.879821,73.9211823 C406.100521,73.9211823 406.264036,73.9570085 406.369471,74.0304523 C406.474907,74.1030004 406.527625,74.2024183 406.527625,74.3269145 C406.527625,74.5087326 406.466865,74.6305419 406.34624,74.6923421 C406.225614,74.7532468 406.04959,74.7836991 405.818168,74.7836991 L405.305287,74.7836991 L405.305287,73.9211823 L405.879821,73.9211823 L405.879821,73.9211823 Z" id="Fill-14" fill="#9E262C"></path>
            </g>
        </g>
    </g>
</svg>