<?xml version="1.0" encoding="UTF-8"?>
<svg width="208px" height="49px" viewBox="0 0 208 49" version="1.1" xmlns="http://www.w3.org/2000/svg" xmlns:xlink="http://www.w3.org/1999/xlink">
    <title>Group 26</title>
    <defs>
        <polygon id="path-1" points="0 0 36 0 36 48 0 48"></polygon>
    </defs>
    <g id="Desktop" stroke="none" stroke-width="1" fill="none" fill-rule="evenodd">
        <g id="mobile" transform="translate(-31.000000, -24.000000)">
            <g id="Group-26" transform="translate(31.000000, 24.000000)">
                <path d="M88.3063241,26.3454098 C85.9783164,26.3454098 83.1937209,28.1596321 82.4612429,30.5408268 C81.5973486,33.3493697 84.1026843,34.9044174 86.479552,34.715724 C88.4988154,34.5551338 89.5825795,32.9296049 89.9911497,30.9730819 C90.3567569,29.2244338 90.7766996,26.3454098 88.3063241,26.3454098 M92.6300078,38.8388755 C91.865097,38.8375372 91.050905,38.7224476 90.3929806,38.2799326 C89.9208082,37.962321 89.6053247,37.7401713 89.0661805,37.5648605 C88.4082561,37.3511864 88.271364,38.2241721 85.4564416,38.8388755 C81.7974217,39.6382574 77.5933606,37.4167607 77.0790676,33.2066229 C76.6637581,29.8056809 77.9088442,27.2540822 80.2419064,25.3323537 C84.5643265,21.7717138 89.1365219,22.8253634 89.8668938,21.959515 C90.8891618,20.7470595 90.3087393,18.4854153 88.3593961,18.2472066 C86.2786365,17.993385 83.4199087,20.008345 82.6482586,20.4437226 C81.8243789,20.9085418 80.7460905,21.2136631 79.8489209,20.5494445 C78.1148141,19.2647235 79.8093275,17.0454571 80.9785964,16.282208 C85.0322868,13.6360395 92.7976479,12.241582 95.0603687,18.1008911 C95.7031297,19.7661215 95.7359838,21.5558093 95.8042192,23.3263154 C95.8876181,25.4924978 96.0026074,27.6591262 95.9988166,29.8279851 C95.9941833,32.3563874 96.2089985,38.7518891 92.6300078,38.8388755" id="Fill-1" fill="#FEFEFE"></path>
                <g id="Group-5">
                    <mask id="mask-2" fill="white">
                        <use xlink:href="#path-1"></use>
                    </mask>
                    <g id="Clip-4"></g>
                    <path d="M10.4053109,48 C7.23918393,48 7.00106041,44.9279991 6.79499198,42.6099871 C6.53855127,39.7271402 6.50329067,36.8232762 6.51382306,33.9312344 C6.53488783,28.1725463 6.49321621,22.1161159 7.64124633,16.4384312 C8.11703544,14.0832014 9.52929108,11.9784254 12.2640481,12.0603046 C14.6054434,12.1303616 14.1937645,14.035475 14.1246171,15.7321688 C14.0495166,17.579923 13.7536939,19.5923113 13.9570147,21.4348112 C14.3238165,24.7533253 18.844042,26.5914467 21.8879017,26.1356381 C24.7806445,25.7025981 27.2076727,23.6275963 28.3570766,21.1077325 C29.9369345,17.6429743 29.4661827,13.0949594 27.3803122,9.91042941 C25.0471597,6.34934289 20.7554412,5.00906429 16.5456921,5.75079312 C12.6523726,6.43647632 9.22385187,8.52767874 6.07833178,10.7257181 C4.61707765,11.7467994 2.61455044,13.0332216 0.933947916,11.5116705 C-0.374815577,10.326393 -0.229193887,8.53293301 0.880370124,7.29642639 C2.43870538,5.55988771 4.7375132,4.20340842 6.79361819,3.09869659 C10.384704,1.16950107 14.3581613,-0.0258470467 18.4996788,0 C22.447492,0.0253821582 26.5688605,0.764921705 29.8274893,3.0141903 C32.8301353,5.08656488 34.6201831,8.24088276 35.4224761,11.6495952 C36.9689052,18.2183177 35.5177256,24.7874781 29.7560523,29.2404782 C26.1906105,31.995471 18.5289863,34.0069835 13.4711512,29.2579924 C13.4702353,32.5896422 13.6882099,35.2526851 13.798571,38.5852106 C13.8631391,40.5292932 13.942361,42.4746894 14.0801979,44.4161449 C14.1333177,45.1675066 14.3764785,45.9749139 13.890157,46.6216279 C13.1684595,47.5809714 11.5721161,48 10.4053109,48" id="Fill-3" fill="#FEFEFE" mask="url(#mask-2)"></path>
                </g>
                <path d="M62.6896449,21.9387519 C62.5005133,24.6788713 62.3280453,27.0408714 62.4555217,29.7873306 C62.5767492,32.3902402 64.3480872,34.3369884 66.9871809,33.2080647 C69.9982889,31.920195 69.9570465,27.5412568 69.8528992,24.6974376 C69.7716643,22.4875909 69.4954655,19.1900286 67.4221002,18.0235193 C66.5714247,17.5448701 65.4408011,17.5426059 64.5651302,17.932499 C63.0899873,18.5895661 62.6963103,20.3574435 62.6896449,21.9387519 M60.0009771,48 C57.4939422,48 57.3985432,45.1896908 57.220243,43.1021101 C56.9698728,40.1627422 56.9765382,37.1948456 57.0302782,34.2464209 C57.087351,31.1059932 57.2277416,27.9678297 57.4168732,24.8341945 C57.5551808,22.5419314 57.4435349,19.9014362 57.9667711,17.6698532 C58.6574763,14.7227871 62.9258511,13.2379331 65.2741654,13.029175 C68.6814499,12.7262268 72.0195805,14.8061092 73.6309482,18.1729556 C75.2489813,21.5542929 75.2443989,25.7566244 74.5836881,29.4110227 C73.9717183,32.7946241 72.5940573,35.7466714 69.570035,37.4543215 C66.6422449,39.1080838 62.930017,36.5889491 62.401365,38.2033146 C62.1709911,38.9074768 62.3751199,40.0137587 62.3971991,40.7482611 C62.4284433,41.7793719 62.944181,46.0532518 62.4613539,46.8629252 C61.9714448,47.6857308 60.8458203,48 60.0009771,48" id="Fill-6" fill="#FEFEFE"></path>
                <path d="M46.3063241,26.3454098 C43.9783164,26.3454098 41.1937209,28.1596321 40.4612429,30.5408268 C39.5973486,33.3493697 42.1026843,34.9044174 44.479552,34.715724 C46.4988154,34.5551338 47.5825795,32.9296049 47.9911497,30.9730819 C48.3567569,29.2244338 48.7766996,26.3454098 46.3063241,26.3454098 M50.6300078,38.8388755 C49.865097,38.8375372 49.050905,38.7224476 48.3929806,38.2799326 C47.9208082,37.962321 47.6053247,37.7401713 47.0661805,37.5648605 C46.4082561,37.3511864 46.271364,38.2241721 43.4564416,38.8388755 C39.7974217,39.6382574 35.5933606,37.4167607 35.0790676,33.2066229 C34.6637581,29.8056809 35.9088442,27.2540822 38.2419064,25.3323537 C42.5643265,21.7717138 47.1365219,22.8253634 47.8668938,21.959515 C48.8891618,20.7470595 48.3087393,18.4854153 46.3593961,18.2472066 C44.2786365,17.993385 41.4199087,20.008345 40.6482586,20.4437226 C39.8243789,20.9085418 38.7460905,21.2136631 37.8489209,20.5494445 C36.1148141,19.2647235 37.8093275,17.0454571 38.9785964,16.282208 C43.0322868,13.6360395 50.7976479,12.241582 53.0603687,18.1008911 C53.7031297,19.7661215 53.7359838,21.5558093 53.8042192,23.3263154 C53.8876181,25.4924978 54.0026074,27.6591262 53.9988166,29.8279851 C53.9941833,32.3563874 54.2089985,38.7518891 50.6300078,38.8388755" id="Fill-8" fill="#FEFEFE"></path>
                <path d="M180.581765,6.16990796 C184.039822,5.64004327 187.67393,6.35784943 190.668146,8.20609564 C191.018422,8.42241441 191.109183,8.89924612 190.854686,9.22628289 L184.215872,17.7408689 C183.877455,18.1753673 183.199253,18.0404588 183.046007,17.5078029 L180.027618,7.04448709 C179.911316,6.64162245 180.174934,6.23224498 180.581765,6.16990796" id="Fill-10" fill="#FEFEFE"></path>
                <path d="M137.499473,13 C132.805346,13 132.861757,6 137.499473,6 C142.133027,6 142.200535,13 137.499473,13" id="Fill-12" fill="#FEFEFE"></path>
                <path d="M136.884977,39 C132.720346,38.9995557 133.123343,33.7263018 133.042045,31.1880846 C132.920348,27.4036396 133.066484,23.5956474 133.433072,19.8236425 C133.533821,18.7880072 133.439057,17.2543251 133.940808,16.292886 C135.119373,14.0350145 139.678522,14.947582 139.680018,17.3871673 C139.683011,20.9872327 139.405701,24.588631 139.459567,28.1966936 C139.491986,30.338606 139.54685,32.4845169 139.725904,34.621542 C139.790743,35.3963802 140.057578,36.2747376 139.98875,37.0473544 C139.86805,38.3953241 138.222647,39 136.884977,39" id="Fill-14" fill="#FEFEFE"></path>
                <path d="M146.522468,39 C143.367459,39 143.599069,34.9278299 143.395939,32.479983 C143.084752,28.7364043 142.915546,24.9519221 143.04245,21.1937999 C143.145062,18.1669414 143.591111,13.5289396 147.415403,14.657876 C148.216196,14.8942073 148.618268,15.5045784 148.959611,15.7340924 C149.96856,16.4121814 151.395497,15.0991793 152.187496,14.6287891 C154.210421,13.4262264 156.795828,14.0370519 158.54526,15.7100048 C161.04774,18.1033137 160.971095,22.6540547 160.996224,25.9658743 C161.02261,29.4953914 160.929212,33.2585128 160.115435,36.6971333 C159.751895,38.2328322 158.871944,39.0872608 157.293392,38.6250513 C154.68118,37.8606104 155.20513,34.5965116 155.327008,32.438625 C155.456006,30.1498473 155.945194,27.8537978 155.930954,25.5604752 C155.921321,23.9834183 156.018488,22.1368527 155.168274,20.7693126 C153.969596,18.8413945 151.205351,18.6214246 149.596644,20.0585007 C148.037777,21.4510375 148.115678,23.624831 148.137457,25.6081959 C148.165937,28.1451216 148.690725,30.6834106 148.849041,33.214428 C148.985997,35.4045828 149.602507,39 146.522468,39" id="Fill-16" fill="#FEFEFE"></path>
                <path d="M174.511458,19.4280199 C170.751514,19.4280199 169.506541,23.2131053 169.506541,26.4923103 C169.506541,29.7715154 170.751514,33.5561499 174.511458,33.5561499 C178.271402,33.5561499 179.516376,29.7715154 179.516376,26.4923103 C179.516376,23.2131053 178.271402,19.4280199 174.511458,19.4280199 M174.511458,39 C164.016101,39 160.894009,23.9426191 167.362517,17.0681465 C170.696202,13.5251803 176.295072,12.9769177 180.224904,15.808856 C184.179759,18.6583783 185.483997,24.071569 184.845706,28.7800439 C184.10118,34.2725884 180.194614,39 174.511458,39" id="Fill-18" fill="#FEFEFE"></path>
                <path d="M197.011567,38 C193.352795,38 189.851543,37.2963865 188.222848,34.2893233 C187.284043,32.555403 189.511231,30.4733884 191.183307,31.1045004 C192.136433,31.4639504 192.833903,32.2824307 193.847679,32.5982051 C194.707303,32.8659363 195.619153,32.939748 196.513735,32.9323232 C198.069144,32.9192205 199.536949,32.1955163 199.660354,30.402634 C199.781654,28.6433819 198.632259,27.47375 197.057475,27.1051282 C193.977401,26.3836077 190.012854,26.4211687 188.515988,22.9022277 C187.073875,19.5121297 189.151967,15.4791273 192.210981,13.9317017 C195.261573,12.3886437 200.454696,12.740232 203.041991,15.1511237 C204.514008,16.5225367 203.998065,18.9426002 201.862693,19.1059469 C201.000542,19.1714602 200.366248,18.5962529 199.61234,18.2538364 C198.760718,17.8673076 197.847184,17.6205406 196.922277,17.5200868 C195.437625,17.3589239 193.503997,17.7240517 193.16537,19.5243589 C192.805685,21.4369122 194.698458,22.4894936 196.165842,22.9651206 C198.07841,23.5853137 200.178403,23.6534476 201.963776,24.6828809 C203.622796,25.6393759 204.647521,27.4034323 204.926762,29.3238473 C205.567374,33.7245981 201.928818,38 197.011567,38" id="Fill-20" fill="#FEFEFE"></path>
                <path d="M115.78647,49 C112.713128,49 108.715821,48.4723856 106.357303,46.2627297 C103.029782,43.1455597 106.05541,40.1349521 107.993862,41.551887 C111.134985,43.8468796 115.675433,44.8956106 119.332942,42.995679 C120.730483,42.270101 121.910857,41.1490287 122.691232,39.8096333 C123.218766,38.9038519 124.35856,36.5239559 122.79335,35.9876779 C121.932707,35.6926816 120.654675,36.3402871 119.78556,36.497965 C118.573971,36.7175877 117.342761,36.8423439 116.109322,36.8423439 C114.075886,36.8414775 112.030411,36.5031632 110.159739,35.712608 C106.690412,34.2462905 104.302463,31.3296833 103.129224,27.8841621 C100.896458,21.3262359 101.894447,12.7522856 106.842028,7.54241853 C109.252274,5.00441143 112.725168,3.14433249 116.327827,3.01264548 C119.909974,2.88139166 124.219877,3.75468443 126.74428,6.43997305 C127.957207,7.7295527 128.193995,9.64811106 126.502141,10.6197359 C125.0279,11.4657383 123.348978,11.5328813 122.024569,10.5421965 C118.861595,8.17616224 114.330958,7.78716576 111.498417,10.8822435 C108.858073,13.7667954 108.497316,18.1081347 108.743469,21.7806427 C108.96465,25.0784492 109.792294,27.9807614 112.908445,29.8525363 C116.039311,31.7329747 121.278084,31.2556093 123.297696,27.9547706 C125.097911,25.0130389 124.406275,21.8239608 124.483421,18.5361175 C124.523554,16.8237533 125.941162,15.975585 127.640597,16.0375299 C129.781502,16.1155024 130.33044,17.5406677 130.542256,19.3621935 C131.026535,23.5254955 131.175029,28.5161731 130.750059,32.69377 C130.131556,38.7782295 127.864453,45.5540457 121.498373,48.0162461 C119.687901,48.7166997 117.72849,49 115.78647,49" id="Fill-22" fill="#FEFEFE"></path>
                <path d="M206.813219,35.6042693 C207.059271,35.7475743 207.253492,35.9422302 207.396476,36.1900284 C207.539461,36.4378265 207.611549,36.7077176 207.611549,37.0002986 C207.611549,37.2916853 207.540057,37.5603821 207.397072,37.8081803 C207.254683,38.0553814 207.061059,38.2512315 206.816198,38.3945365 C206.571933,38.5384386 206.302645,38.6106882 206.008931,38.6106882 C205.719388,38.6106882 205.451888,38.5390357 205.204644,38.3963278 C204.9574,38.2530228 204.761392,38.0577698 204.616025,37.8093745 C204.470657,37.5609793 204.397973,37.2916853 204.397973,37.0002986 C204.397973,36.7095089 204.470061,36.4396179 204.614237,36.1924168 C204.758413,35.9452157 204.953825,35.7493656 205.200474,35.6054635 C205.446526,35.4621585 205.715218,35.3899089 206.004761,35.3899089 C206.297879,35.3899089 206.567167,35.4615614 206.813219,35.6042693 L206.813219,35.6042693 Z M204.996125,35.2680997 C204.688708,35.4460367 204.445635,35.6890581 204.2675,35.9959695 C204.08877,36.3034781 204,36.6384535 204,37.0002986 C204,37.3621436 204.08877,37.697119 204.2675,38.0040305 C204.446231,38.311539 204.688708,38.5539633 204.996125,38.7330945 C205.302946,38.9110315 205.637768,39 206,39 C206.362222,39 206.697044,38.9110315 207.004461,38.7330945 C207.311281,38.5539633 207.553759,38.311539 207.73249,38.0040305 C207.91122,37.697119 208,37.3621436 208,37.0002986 C208.000586,36.7268249 207.949349,36.468876 207.847473,36.2258546 C207.745597,35.9834304 207.602016,35.76907 207.416732,35.5839678 C207.230853,35.3988655 207.016972,35.2549634 206.773898,35.1528586 C206.53142,35.0513509 206.273453,35 206,35 C205.637768,35 205.302946,35.0895656 204.996125,35.2680997 L204.996125,35.2680997 Z M205.537083,37.1997313 L205.6473,37.1997313 C205.729516,37.1997313 205.799221,37.2128676 205.855819,37.2391402 C205.911821,37.2648156 205.969015,37.3149724 206.025613,37.3890133 C206.082211,37.4630542 206.150724,37.576504 206.231153,37.7299597 L206.404522,38.0721003 L206.942501,38.0721003 L206.691086,37.6439767 C206.596955,37.4797731 206.520697,37.3633378 206.464099,37.2940737 C206.407501,37.2254068 206.332434,37.1734587 206.24009,37.1388267 C206.420012,37.1137483 206.560613,37.0468727 206.662489,36.9370055 C206.76377,36.8271384 206.815006,36.6969697 206.815006,36.5459024 C206.815006,36.4246903 206.788197,36.3178086 206.734577,36.2258546 C206.680958,36.1339006 206.60053,36.0628452 206.495079,36.0126885 C206.389628,35.9625317 206.258558,35.9374534 206.102467,35.9374534 L205.101576,35.9374534 L205.101576,38.0721003 L205.537083,38.0721003 L205.537083,37.1997313 Z M205.920162,36.2807882 C206.067317,36.2807882 206.175747,36.3052694 206.246643,36.354232 C206.316944,36.4025974 206.352094,36.4682788 206.352094,36.5518734 C206.352094,36.6730855 206.311582,36.7542917 206.231153,36.7948948 C206.150724,36.8360949 206.032762,36.8563965 205.879054,36.8563965 L205.537083,36.8563965 L205.537083,36.2807882 L205.920162,36.2807882 Z" id="Fill-24" fill="#FEFEFE"></path>
            </g>
        </g>
    </g>
</svg>