<?xml version="1.0" encoding="UTF-8"?>
<svg width="155px" height="150px" viewBox="0 0 155 150" version="1.1" xmlns="http://www.w3.org/2000/svg" xmlns:xlink="http://www.w3.org/1999/xlink">
    <title>Group 6</title>
    <defs>
        <polygon id="path-1" points="0 0 17 0 17 18 0 18"></polygon>
        <polygon id="path-3" points="0 0 2 0 2 2 0 2"></polygon>
        <polygon id="path-5" points="0 0 34 0 34 11 0 11"></polygon>
        <polygon id="path-7" points="0 0 5 0 5 15 0 15"></polygon>
        <polygon id="path-9" points="0 50 66 50 66 0 0 0"></polygon>
        <polygon id="path-11" points="0 0 65 0 65 25 0 25"></polygon>
        <polygon id="path-13" points="0 0 20 0 20 20 0 20"></polygon>
        <polygon id="path-15" points="0 0 31 0 31 21 0 21"></polygon>
    </defs>
    <g id="Desktop" stroke="none" stroke-width="1" fill="none" fill-rule="evenodd" opacity="0.2">
        <g id="papa-menu" transform="translate(0.000000, -518.000000)">
            <g id="Group-6" transform="translate(-3.000000, 518.000000)">
                <g id="Group-47" transform="translate(114.795983, 2.782241)">
                    <g id="Group-3" transform="translate(26.107822, 0.217759)">
                        <mask id="mask-2" fill="white">
                            <use xlink:href="#path-1"></use>
                        </mask>
                        <g id="Clip-2"></g>
                        <path d="M15.4392707,18 L14.8696029,16.8572595 L15.1541021,17.4282958 L14.8394794,16.8732886 C14.8434959,16.870617 15.1989526,16.6328522 15.4325766,15.7585989 C15.7398358,14.6065081 16.0745408,12.3163519 14.8609006,9.92668176 C13.4578173,7.16633891 11.6376917,4.96634633 9.29408754,3.20114281 C6.80789904,1.3290787 4.62160619,1.29034173 3.79890138,1.27698416 C2.91594968,1.24225446 1.70364828,1.54079626 0.955917387,2.3816556 L0,1.53278171 C1.03490776,0.37200846 2.63145045,0.0173648473 3.82099191,0 C5.29168553,0.026047271 7.53822528,0.279841193 10.0652478,2.18262773 C12.5675021,4.06604579 14.5094603,6.41163593 16.0015751,9.34963452 C17.4080054,12.1179919 17.0237641,14.7594523 16.6696462,16.0871953 C16.2880825,17.5157879 15.5778386,17.9312085 15.4392707,18" id="Fill-1" fill="#414042" mask="url(#mask-2)"></path>
                    </g>
                    <path d="M10.717486,13.079987 C12.5813434,13.079987 16.6207401,13.8652102 21.3984765,19.5573972 C25.9975153,25.0355563 26.3369022,28.7680933 26.1214954,30.5232581 C27.4423338,30.1715435 29.8727596,29.3311093 32.0746186,27.5343658 C34.9898828,25.1568842 37.0435199,23.4814687 38.7376838,20.4291859 C40.5440533,17.1744628 41.1556423,14.6115813 40.5579058,12.8121114 C40.0017269,11.1387406 38.7903234,8.05510345 36.9271586,6.19905925 C35.2039044,4.48274661 31.8134985,1.59337042 28.4584166,1.52589029 C24.7646404,1.44341459 22.0917954,2.38200176 20.4045577,3.08952063 C18.6674509,3.8168064 15.243799,6.60871131 13.4935323,8.72513337 L13.2982117,8.96165461 C12.0030004,10.5259666 10.934278,11.8176316 10.580346,13.0813502 C10.6246741,13.079987 10.6703874,13.079987 10.717486,13.079987 L10.717486,13.079987 Z M24.1031823,32.217759 L24.6344267,31.1162653 C24.6759843,31.018794 26.1762129,27.2957997 20.3775453,20.386244 C14.5179266,13.4064817 10.0089293,14.4404953 9.96460117,14.4493564 L9.10782241,14.6647475 L9.13414221,13.7963669 C9.20617535,11.8428514 10.5588746,10.2083328 12.2717395,8.13826078 L12.4670601,7.90310277 C14.2013964,5.80440277 17.7427948,2.78756412 19.8857806,1.89055561 C21.6852238,1.13668675 24.5256843,0.139480483 28.485429,0.222637807 C32.1168688,0.296252487 35.5924677,3.01522433 37.8684378,5.28296545 C39.9234601,7.32986253 41.2242123,10.6248011 41.8164079,12.4072306 C42.5422802,14.592496 41.9154534,17.4205267 39.8985256,21.0535474 C38.083152,24.3246294 35.8369648,26.1574986 32.9930411,28.4777243 C29.4183967,31.3943652 25.5002096,32.0085024 25.3353645,32.0337223 L24.1031823,32.217759 Z" id="Fill-4" fill="#414042"></path>
                    <path d="M22.6355053,33.217759 C22.5466467,33.217759 22.4577882,33.2138015 22.3675627,33.2032481 L21.1030377,33.0667135 L21.9553959,32.1551642 C21.9800029,32.1274615 24.7975012,28.8024829 18.7722107,21.764029 C12.7161614,14.6879786 8.42497894,16.542078 8.38191674,16.5631847 L7.10782241,17.1488981 L7.46325645,15.8350006 C7.48171168,15.7664035 7.94856062,14.149096 10.0893672,13.217759 L10.6266194,14.3680789 C10.1515681,14.5745296 9.78929883,14.819896 9.51657156,15.0613049 C11.5698867,14.9392813 15.2787042,15.7024236 19.7790459,20.9613115 C24.3484239,26.2986903 24.2691348,29.8222046 23.6772004,31.6110048 C24.3012606,31.241636 24.8610692,30.6724124 25.0825319,30.4033008 L26.1078224,31.1849115 C25.9301054,31.4019157 24.3914861,33.217759 22.6355053,33.217759" id="Fill-6" fill="#414042"></path>
                    <path d="M7.82696447,18.4897735 C6.95370542,18.4897735 6.20766702,18.7188137 5.63517415,19.1728993 C4.57523266,20.0171523 4.195645,21.5751585 4.56762708,23.5606177 C4.96450015,25.6772425 6.15719361,27.9796295 7.92791128,30.0436548 C9.69793752,32.1063486 11.8205862,33.6696813 13.9038241,34.4433579 C15.8570757,35.1704275 17.5178582,35.1058435 18.5784911,34.2622564 C19.6398154,33.4180034 20.0187116,31.8599972 19.6467296,29.8745379 C19.2512393,27.7579132 18.0578544,25.456192 16.2878282,23.3921666 C14.517802,21.3288071 12.3951533,19.7661401 10.3119154,18.9917977 C9.41099967,18.656893 8.57231146,18.4897735 7.82696447,18.4897735 M16.3936149,36.217759 C15.482328,36.2184197 14.4825397,36.0226702 13.4274381,35.6311712 C11.1360838,34.7789285 8.8212214,33.0824328 6.90876335,30.8532854 C4.99699672,28.624138 3.70266503,26.1146827 3.26776405,23.7869947 C2.80728066,21.3281413 3.34865978,19.3413504 4.79441169,18.1921543 C6.23808934,17.0449557 8.36557792,16.9044688 10.7876099,17.8039844 C13.0796556,18.6562271 15.3945181,20.3527228 17.3069761,22.5818702 C19.2187428,24.8110176 20.5116916,27.320473 20.9479754,29.6481609 C21.4084588,32.1070144 20.8663883,34.0938053 19.4206364,35.2430013 C18.6061477,35.8921706 17.5731715,36.217759 16.3936149,36.217759" id="Fill-8" fill="#414042"></path>
                    <polygon id="Fill-10" fill="#414042" points="18.7384111 35.217759 18.1078224 34.0527457 20.4772337 32.217759 21.1078224 33.3827723"></polygon>
                    <polygon id="Fill-12" fill="#414042" points="6.13546581 18.217759 5.10782241 17.4561864 7.0808701 15.217759 8.10782241 15.9799657"></polygon>
                    <path d="M13.2835401,29.3123521 C13.5958712,29.0783013 14.2187225,29.2934638 14.6740921,29.7935933 C15.1294617,30.2937228 15.2444357,30.8882939 14.9321047,31.1231659 C14.6197737,31.3572167 13.9969223,31.1420542 13.5415527,30.6419247 C13.0861832,30.1417951 12.9712091,29.5464028 13.2835401,29.3123521" id="Fill-14" fill="#414042"></path>
                    <path d="M14.2835401,25.3123521 C14.5958712,25.0783013 15.2187225,25.2934638 15.6740921,25.7935933 C16.1294617,26.2937228 16.2444357,26.8882939 15.9321047,27.1231659 C15.6197737,27.3572167 14.9969223,27.1420542 14.5415527,26.6419247 C14.0861832,26.1417951 13.9712091,25.5464028 14.2835401,25.3123521" id="Fill-16" fill="#414042"></path>
                    <path d="M11.2835401,25.3123521 C11.5958712,25.0783013 12.2187225,25.2934638 12.6740921,25.7935933 C13.1294617,26.2937228 13.2444357,26.8882939 12.9321047,27.1231659 C12.6197737,27.3572167 11.9969223,27.1420542 11.5415527,26.6419247 C11.0861832,26.1417951 10.9712091,25.5464028 11.2835401,25.3123521" id="Fill-18" fill="#414042"></path>
                    <path d="M9.28354015,24.3123521 C9.59587115,24.0783013 10.2187225,24.2934638 10.6740921,24.7935933 C11.1294617,25.2937228 11.2444357,25.8882939 10.9321047,26.1231659 C10.6197737,26.3572167 9.99692227,26.1420542 9.54155272,25.6419247 C9.08618316,25.1417951 8.97120914,24.5464028 9.28354015,24.3123521" id="Fill-20" fill="#414042"></path>
                    <path d="M13.2835401,23.3123521 C13.5958712,23.0783013 14.2187225,23.2934638 14.6740921,23.7935933 C15.1294617,24.2937228 15.2444357,24.8882939 14.9321047,25.1231659 C14.6197737,25.3572167 13.9969223,25.1420542 13.5415527,24.6419247 C13.0861832,24.1417951 12.9712091,23.5464028 13.2835401,23.3123521" id="Fill-22" fill="#414042"></path>
                    <path d="M11.2835401,23.3123521 C11.5958712,23.0783013 12.2187225,23.2934638 12.6740921,23.7935933 C13.1294617,24.2937228 13.2444357,24.8882939 12.9321047,25.1231659 C12.6197737,25.3572167 11.9969223,25.1420542 11.5415527,24.6419247 C11.0861832,24.1417951 10.9712091,23.5464028 11.2835401,23.3123521" id="Fill-24" fill="#414042"></path>
                    <path d="M11.2835401,28.3123521 C11.5958712,28.0783013 12.2187225,28.2934638 12.6740921,28.7935933 C13.1294617,29.2937228 13.2444357,29.8882939 12.9321047,30.1231659 C12.6197737,30.3572167 11.9969223,30.1420542 11.5415527,29.6419247 C11.0861832,29.1417951 10.9712091,28.5464028 11.2835401,28.3123521" id="Fill-26" fill="#414042"></path>
                    <path d="M16.2835401,28.3123521 C16.5958712,28.0783013 17.2187225,28.2934638 17.6740921,28.7935933 C18.1294617,29.2937228 18.2444357,29.8882939 17.9321047,30.1231659 C17.6197737,30.3572167 16.9969223,30.1420542 16.5415527,29.6419247 C16.0861832,29.1417951 15.9712091,28.5464028 16.2835401,28.3123521" id="Fill-28" fill="#414042"></path>
                    <path d="M8.28354015,25.3123521 C8.59587115,25.0783013 9.21872255,25.2934638 9.6740921,25.7935933 C10.1294617,26.2937228 10.2444357,26.8882939 9.93210467,27.1231659 C9.61977367,27.3572167 8.99692227,27.1420542 8.54155272,26.6419247 C8.08618316,26.1417951 7.97120914,25.5464028 8.28354015,25.3123521" id="Fill-30" fill="#414042"></path>
                    <path d="M12.2835401,30.3123521 C12.5958712,30.0783013 13.2187225,30.2934638 13.6740921,30.7935933 C14.1294617,31.2937228 14.2444357,31.8882939 13.9321047,32.1231659 C13.6197737,32.3572167 12.9969223,32.1420542 12.5415527,31.6419247 C12.0861832,31.1417951 11.9712091,30.5464028 12.2835401,30.3123521" id="Fill-32" fill="#414042"></path>
                    <path d="M8.28354015,22.3123521 C8.59587115,22.0783013 9.21872255,22.2934638 9.6740921,22.7935933 C10.1294617,23.2937228 10.2444357,23.8882939 9.93210467,24.1231659 C9.61977367,24.3572167 8.99692227,24.1420542 8.54155272,23.6419247 C8.08618316,23.1417951 7.97120914,22.5464028 8.28354015,22.3123521" id="Fill-34" fill="#414042"></path>
                    <path d="M5.10782241,33.217759 C5.10782241,33.769707 4.66049062,34.217759 4.10735837,34.217759 C3.5551542,34.217759 3.10782241,33.769707 3.10782241,33.217759 C3.10782241,32.6658109 3.5551542,32.217759 4.10735837,32.217759 C4.66049062,32.217759 5.10782241,32.6658109 5.10782241,33.217759" id="Fill-36" fill="#414042"></path>
                    <path d="M11.1078224,40.217759 C11.1078224,40.769707 10.6604906,41.217759 10.1073584,41.217759 C9.5551542,41.217759 9.10782241,40.769707 9.10782241,40.217759 C9.10782241,39.6658109 9.5551542,39.217759 10.1073584,39.217759 C10.6604906,39.217759 11.1078224,39.6658109 11.1078224,40.217759" id="Fill-38" fill="#414042"></path>
                    <path d="M5.10782241,44.217759 C5.10782241,44.769707 4.66049062,45.217759 4.10735837,45.217759 C3.5551542,45.217759 3.10782241,44.769707 3.10782241,44.217759 C3.10782241,43.6658109 3.5551542,43.217759 4.10735837,43.217759 C4.66049062,43.217759 5.10782241,43.6658109 5.10782241,44.217759" id="Fill-40" fill="#414042"></path>
                    <path d="M15.1078224,49.217759 C15.1078224,49.769707 14.6604906,50.217759 14.1073584,50.217759 C13.5551542,50.217759 13.1078224,49.769707 13.1078224,49.217759 C13.1078224,48.6658109 13.5551542,48.217759 14.1073584,48.217759 C14.6604906,48.217759 15.1078224,48.6658109 15.1078224,49.217759" id="Fill-42" fill="#414042"></path>
                    <g id="Group-46" transform="translate(0.107822, 56.217759)">
                        <mask id="mask-4" fill="white">
                            <use xlink:href="#path-3"></use>
                        </mask>
                        <g id="Clip-45"></g>
                        <path d="M2,1.00018556 C2,1.55223604 1.55266821,2.00037113 0.999535963,2.00037113 C0.447331787,2.00037113 0,1.55223604 0,1.00018556 C0,0.44813509 0.447331787,0 0.999535963,0 C1.55266821,0 2,0.44813509 2,1.00018556" id="Fill-44" fill="#414042" mask="url(#mask-4)"></path>
                    </g>
                </g>
                <g id="Group-3" transform="translate(38.500000, 106.500000) rotate(-90.000000) translate(-38.500000, -106.500000) translate(21.500000, 101.000000)">
                    <mask id="mask-6" fill="white">
                        <use xlink:href="#path-5"></use>
                    </mask>
                    <g id="Clip-2"></g>
                    <path d="M14.0282536,7.46714953 C14.0282536,7.53296575 14.0312451,7.59818365 14.0384246,7.66340154 C14.1395367,8.48251434 14.4871469,9.2519658 15.034588,9.8688433 C15.6203201,10.4737542 16.3897291,10.8662582 17.2231559,10.9859241 C18.2193192,11.1097782 19.1281313,10.402553 19.252577,9.40573643 C19.2615514,9.3315436 19.2663378,9.25615411 19.2663378,9.18076462 C19.2663378,9.11554672 19.262748,9.0497305 19.2555685,8.98451261 C19.1550547,8.16539981 18.8074445,7.39654668 18.2600034,6.77907085 C18.1457288,6.65820833 18.0230781,6.54572243 17.8920512,6.44280979 L20.696266,6.44280979 C20.490452,6.74436775 20.3797672,7.10157034 20.3791689,7.46714953 C20.3791689,7.53296575 20.383357,7.59818365 20.3905366,7.66340154 C20.4910503,8.48251434 20.8380622,9.2519658 21.3855033,9.8688433 C21.9712354,10.4737542 22.7412428,10.8662582 23.5746695,10.9859241 C24.5714312,11.1097782 25.4802433,10.402553 25.6040906,9.40573643 C25.6136633,9.3315436 25.6178514,9.25615411 25.6178514,9.18076462 C25.6178514,9.11554672 25.6142616,9.0497305 25.6070821,8.98451261 C25.50597,8.16539981 25.1589581,7.39654668 24.611517,6.77907085 C24.4972424,6.65761 24.3739934,6.5451241 24.2435648,6.44280979 L26.8497435,6.44280979 C26.771965,6.64504509 26.7306826,6.86044363 26.7288877,7.07763716 C26.7288877,7.14285506 26.7324774,7.20867128 26.7390587,7.27388917 C26.8383759,8.09240364 27.1829946,8.86125678 27.7280425,9.47992926 C28.3137746,10.0842418 29.0837819,10.4767459 29.9166104,10.5964117 C30.9133721,10.7208642 31.8221842,10.013639 31.9460315,9.01682239 C31.9556042,8.94203123 31.9603906,8.86724007 31.9603906,8.79185058 C31.9597923,8.72603436 31.9568008,8.66081646 31.9496213,8.59559857 C31.910732,8.28626233 31.8365433,7.98231105 31.7294482,7.68972803 C32.3247531,7.55809558 32.8817669,7.29004406 33.3568142,6.90771165 C34.1232318,6.25852437 34.2183609,5.11092879 33.5686111,4.34446897 C33.5039951,4.26788282 33.4333961,4.19727997 33.3568142,4.13206207 C32.8781771,3.74554135 32.3157786,3.47569484 31.7144908,3.3440624 C31.8287654,3.04011112 31.9077405,2.72359493 31.9496213,2.40169377 C31.9568008,2.33647588 31.9597923,2.27065965 31.9603906,2.20484343 C31.9603906,1.20084688 31.1461093,0.386520721 30.1415698,0.386520721 C30.0661845,0.386520721 29.9913974,0.391307355 29.9166104,0.400282295 C29.0837819,0.519948153 28.3137746,0.912452166 27.7280425,1.51676475 C27.1806014,2.1348389 26.8335895,2.90369204 26.7324774,3.72280484 C26.7252979,3.78862106 26.7223064,3.85383895 26.7223064,3.91965518 C26.7217081,4.16018355 26.7701701,4.39891694 26.8635043,4.6208971 L24.1454442,4.6208971 C24.3111723,4.50123124 24.4655327,4.36600883 24.6061324,4.21762316 C25.1547701,3.60194232 25.5035768,2.83368751 25.6064838,2.01517305 C25.6136633,1.94995515 25.6172531,1.88473726 25.6172531,1.81892104 C25.6172531,0.814326163 24.8035701,0 23.7990306,0 C23.7236453,0 23.6488583,0.00478663432 23.5740712,0.0143599029 C22.7412428,0.133427432 21.9712354,0.525931445 21.3855033,1.13024403 C20.8380622,1.74771985 20.490452,2.51717132 20.3899383,3.33628412 C20.3390831,3.79639934 20.4695117,4.25830955 20.7537024,4.62388875 L17.8046999,4.62388875 C17.970428,4.50362456 18.1247884,4.36900047 18.2653881,4.22061481 C18.8134275,3.60373731 19.1604393,2.83428584 19.2609531,2.01517305 C19.2681327,1.94995515 19.2717225,1.88473726 19.2717225,1.81892104 C19.2717225,0.814326163 18.4574412,0 17.4535,0 C17.3781146,0 17.3027293,0.00478663432 17.2285406,0.0143599029 C16.3957121,0.133427432 15.6257047,0.525931445 15.0399726,1.13024403 C14.4925315,1.74771985 14.1449214,2.51717132 14.0438093,3.33628412 C13.994749,3.79639934 14.1251776,4.25771122 14.4075734,4.62388875 L11.4591692,4.62388875 C11.6248973,4.50422289 11.7792578,4.36900047 11.9198574,4.22061481 C12.4672985,3.60373731 12.8149087,2.83428584 12.9160207,2.01517305 C12.922602,1.94995515 12.9261918,1.88473726 12.9261918,1.81892104 C12.9261918,0.814326163 12.1119105,0 11.107371,0 C11.032584,0 10.9577969,0.00478663432 10.8830099,0.0143599029 C10.0501814,0.133427432 9.28017407,0.525931445 8.69444198,1.13024403 C8.14700086,1.74771985 7.7993907,2.51717132 7.69887692,3.33628412 C7.64802173,3.79639934 7.77904863,4.25830955 8.06264108,4.62388875 L0.909410392,4.62388875 C0.407439787,4.62388875 0,5.03075267 0,5.53334927 C0,6.03534754 0.407439787,6.44280979 0.909410392,6.44280979 L8.00041826,6.44280979 C7.79400603,6.74436775 7.68332122,7.10157034 7.68332122,7.46714953 C7.68332122,7.53296575 7.68691099,7.59818365 7.69409055,7.66340154 C7.79460433,8.48251434 8.14161619,9.2519658 8.68965561,9.8688433 C9.27419111,10.4731559 10.0436002,10.8662582 10.8758303,10.9859241 C11.872592,11.1097782 12.7814041,10.4019547 12.9052514,9.4051381 C12.9142259,9.33094527 12.9190122,9.25615411 12.9190122,9.18076462 C12.9190122,9.11554672 12.9154225,9.0497305 12.9088412,8.98451261 C12.8077291,8.16539981 12.460119,7.39654668 11.9126778,6.77907085 C11.7984032,6.65820833 11.6757525,6.54572243 11.5447256,6.44280979 L14.3471455,6.44280979 C14.140135,6.74436775 14.0294502,7.10157034 14.0282536,7.46714953" id="Fill-1" fill="#414042" mask="url(#mask-6)"></path>
                </g>
                <g id="Group-12" transform="translate(5.500000, 0.000000)">
                    <g id="Group-3" transform="translate(31.000000, 0.000000)">
                        <mask id="mask-8" fill="white">
                            <use xlink:href="#path-7"></use>
                        </mask>
                        <g id="Clip-2"></g>
                        <path d="M2.55714497,15 C2.37337487,15 2.18911602,14.9336179 2.04884469,14.8013147 C1.76781329,14.5367084 1.76781329,14.1075298 2.04884469,13.8424624 C4.48037725,11.5490536 3.51265173,9.95680555 2.31276984,8.52221495 C2.2404348,8.43647142 2.12508973,8.33136646 1.98921716,8.20321216 C1.29421429,7.55091598 0.00195858825,6.337599 0,4.54436075 C-0.00195141386,3.14480514 0.795200266,1.68255534 2.36848737,0.198639167 C2.64951877,-0.0664281829 3.10454526,-0.0664281829 3.38508791,0.198639167 C3.66611932,0.463245531 3.66611932,0.892424145 3.38508791,1.15749149 C2.09185472,2.37726229 1.43644061,3.51636042 1.43790686,4.54343878 C1.43937311,5.77381227 2.38021737,6.65706278 3.00288521,7.24205489 C3.18958781,7.41722984 3.34305539,7.56474558 3.44129419,7.68229719 C4.3875147,8.81355854 6.6044859,11.4633101 3.06544524,14.8013147 C2.92517392,14.9336179 2.74091507,15 2.55714497,15" id="Fill-1" fill="#414042" mask="url(#mask-8)"></path>
                    </g>
                    <path d="M37.7962178,19 C37.4634778,19 37.1645011,18.7889631 37.0925705,18.4819601 C36.6521793,16.5932912 37.8901679,15.1689035 38.5551586,14.4033951 C38.6535126,14.2901016 38.8066709,14.1483737 38.9935925,13.9795442 C39.6169907,13.4157426 40.5594279,12.5640423 40.5608958,11.3782373 C40.5618745,10.3892519 39.9061809,9.29141598 38.6109415,8.11538533 C38.3300698,7.86036395 38.3300698,7.44673171 38.6109415,7.19126604 C38.8923025,6.93624465 39.3478628,6.93624465 39.6287345,7.19126604 C41.2043563,8.6214295 42.0019537,10.0307114 42,11.3795702 C41.9980391,13.1078509 40.7042676,14.2772173 40.0089389,14.905885 C39.8729069,15.0293971 39.7569373,15.1302505 39.6845174,15.2128881 C38.933895,16.0774727 38.2229079,17.0211407 38.5008437,18.2113886 C38.5830501,18.5641534 38.334963,18.9106981 37.9459508,18.9857828 C37.8955505,18.9951128 37.8456395,19 37.7962178,19" id="Fill-4" fill="#414042"></path>
                    <path d="M25.7962178,19 C25.4634778,19 25.1645011,18.7889631 25.0925705,18.4819601 C24.6521793,16.5932912 25.8901679,15.1689035 26.5551586,14.4033951 C26.6535126,14.2901016 26.8066709,14.1483737 26.9935925,13.9795442 C27.6169907,13.4157426 28.5594279,12.5640423 28.5608958,11.3782373 C28.5618745,10.3892519 27.9061809,9.29141598 26.6109415,8.11538533 C26.3300698,7.86036395 26.3300698,7.44673171 26.6109415,7.19126604 C26.8923025,6.93624465 27.3478628,6.93624465 27.6287345,7.19126604 C29.2043563,8.6214295 30.0019537,10.0307114 30,11.3795702 C29.9980391,13.1078509 28.7042676,14.2772173 28.0089389,14.905885 C27.8729069,15.0293971 27.7569373,15.1302505 27.6845174,15.2128881 C26.933895,16.0774727 26.2229079,17.0211407 26.5008437,18.2113886 C26.5830501,18.5641534 26.334963,18.9106981 25.9459508,18.9857828 C25.8955505,18.9951128 25.8456395,19 25.7962178,19" id="Fill-6" fill="#414042"></path>
                    <mask id="mask-10" fill="white">
                        <use xlink:href="#path-9"></use>
                    </mask>
                    <g id="Clip-9"></g>
                    <path d="M2.37734082,48.6294322 L61.6226592,48.6294322 L61.6226592,42.3705678 L2.37734082,42.3705678 L2.37734082,48.6294322 Z M1,50 L63,50 L63,41 L1,41 L1,50 Z" id="Fill-8" fill="#414042" mask="url(#mask-10)"></path>
                    <path d="M5.37733042,39.6295031 L64.6226696,39.6295031 L64.6226696,33.3704969 L5.37733042,33.3704969 L5.37733042,39.6295031 Z M4,41 L66,41 L66,32 L4,32 L4,41 Z" id="Fill-10" fill="#414042" mask="url(#mask-10)"></path>
                    <path d="M2.37736163,31.629574 L61.6231065,31.629574 L61.6231065,25.3699601 L2.37736163,25.3699601 L2.37736163,31.629574 Z M1,33 L63,33 L63,24 L1,24 L1,33 Z" id="Fill-11" fill="#414042" mask="url(#mask-10)"></path>
                </g>
                <g id="Group-28" transform="translate(94.000000, 35.500000) rotate(-90.000000) translate(-94.000000, -35.500000) translate(61.500000, 23.000000)">
                    <g id="Group-3">
                        <mask id="mask-12" fill="white">
                            <use xlink:href="#path-11"></use>
                        </mask>
                        <g id="Clip-2"></g>
                        <path d="M27.8775518,15.6905238 L27.8775518,19.0031277 C27.8775518,20.1861317 28.4117029,21.390321 29.3430433,22.3089908 C30.2748728,23.2252532 31.5505744,23.7510328 32.8438853,23.7510328 L58.9703313,23.6094767 C60.2323366,23.6730325 61.4444488,23.1790308 62.4022032,22.2362869 C63.030271,21.5217659 63.7982355,20.3180581 63.7248631,18.8211271 L63.5096374,6.00741677 C63.5096374,4.81382011 62.9754863,3.60914933 62.0431676,2.69192399 C61.1123163,1.77566161 59.8366148,1.24988204 58.5423256,1.24988204 L32.4168579,1.39095659 C31.1436021,1.32547489 29.941273,1.81995805 28.9840076,2.76270201 C28.1553886,3.70689041 27.6623261,4.97463547 27.6623261,6.20867671 L27.7513512,9.44520626 L1.64349296,9.59061416 C1.4943024,9.59061416 1.44930066,9.61324387 1.37103676,9.69028117 C1.29277286,9.76731847 1.26978284,9.81161491 1.26978284,9.95509688 L1.3416878,15.3895969 C1.3416878,15.5027454 1.40821211,15.6274495 1.44245257,15.6625978 L0.993902598,16.1050808 L1.44343087,15.6635608 C1.52120561,15.7405981 1.56620736,15.7622648 1.71197387,15.7622648 L27.8775518,15.6905238 Z M32.8473093,25 C31.2164854,25 29.6130537,24.3413311 28.4454542,23.1925124 C27.2778547,22.0408047 26.60772,20.5149847 26.60772,19.0031277 L26.60772,16.9438244 L1.71393047,17.0126765 C1.23896643,17.0126765 0.868191211,16.8648612 0.545841778,16.5475638 C0.258221951,16.2649332 0.0718560419,15.8137835 0.0718560419,15.3982636 L-4.89149367e-05,9.9632821 C-4.89149367e-05,9.4895027 0.15060909,9.1245385 0.473447672,8.80675964 C0.796286254,8.48898078 1.16706147,8.34068398 1.64006891,8.34068398 L26.4467899,8.2029798 L26.3929835,6.22552862 C26.3924943,4.67804187 26.9990395,3.11177727 28.0560913,1.91192133 C29.3014656,0.683657885 30.8520691,0.0572483432 32.4437611,0.141989373 L58.5389015,-4.81483121e-05 C60.1702147,-4.81483121e-05 61.7736463,0.659102246 62.9422241,1.80840246 C64.1093345,2.95818415 64.7784908,4.48496713 64.7784908,5.99682414 L64.9937166,18.7806825 C65.0861658,20.6705038 64.1406401,22.1683978 63.3310979,23.0880305 C62.0867019,24.316294 60.538055,24.9219997 58.943428,24.858444 L32.8473093,25 Z" id="Fill-1" fill="#414042" mask="url(#mask-12)"></path>
                    </g>
                    <path d="M5,12.0704051 C4.48752834,12.0704051 4.07070707,12.4872694 4.07070707,12.9997938 C4.07070707,13.5127306 4.48752834,13.9295949 5,13.9295949 C5.51247166,13.9295949 5.92929293,13.5127306 5.92929293,12.9997938 C5.92929293,12.4872694 5.51247166,12.0704051 5,12.0704051 M5,15 C3.89713461,15 3,14.1031852 3,12.9997938 C3,11.8968148 3.89713461,11 5,11 C6.10286539,11 7,11.8968148 7,12.9997938 C7,14.1031852 6.10286539,15 5,15" id="Fill-4" fill="#414042"></path>
                    <path d="M60,5.5 C60,6.32854359 59.3287071,7 58.5003652,7 C57.6720234,7 57,6.32854359 57,5.5 C57,4.67145641 57.6720234,4 58.5003652,4 C59.3287071,4 60,4.67145641 60,5.5" id="Fill-6" fill="#414042"></path>
                    <path d="M60,8.5 C60,8.77604674 59.7759377,9 59.4997565,9 C59.2235753,9 59,8.77604674 59,8.5 C59,8.22395326 59.2235753,8 59.4997565,8 C59.7759377,8 60,8.22395326 60,8.5" id="Fill-8" fill="#414042"></path>
                    <path d="M61,11.5 C61,11.7760467 60.7759377,12 60.4997565,12 C60.2235753,12 60,11.7760467 60,11.5 C60,11.2239533 60.2235753,11 60.4997565,11 C60.7759377,11 61,11.2239533 61,11.5" id="Fill-10" fill="#414042"></path>
                    <path d="M61,4 C61,4.5525974 60.5525974,5 60,5 C59.4480519,5 59,4.5525974 59,4 C59,3.44805195 59.4480519,3 60,3 C60.5525974,3 61,3.44805195 61,4" id="Fill-12" fill="#414042"></path>
                    <path d="M60,3.5 C60,3.77604674 59.7759377,4 59.4997565,4 C59.2235753,4 59,3.77604674 59,3.5 C59,3.22395326 59.2235753,3 59.4997565,3 C59.7759377,3 60,3.22395326 60,3.5" id="Fill-14" fill="#414042"></path>
                    <path d="M58,8 C58,8.5525974 57.5525974,9 57,9 C56.4480519,9 56,8.5525974 56,8 C56,7.44805195 56.4480519,7 57,7 C57.5525974,7 58,7.44805195 58,8" id="Fill-16" fill="#414042"></path>
                    <path d="M59,9.5 C59,9.77604674 58.7759377,10 58.4997565,10 C58.2235753,10 58,9.77604674 58,9.5 C58,9.22395326 58.2235753,9 58.4997565,9 C58.7759377,9 59,9.22395326 59,9.5" id="Fill-18" fill="#414042"></path>
                    <path d="M33,20.5 C33,20.7760467 32.7759377,21 32.4997565,21 C32.2235753,21 32,20.7760467 32,20.5 C32,20.2239533 32.2235753,20 32.4997565,20 C32.7759377,20 33,20.2239533 33,20.5" id="Fill-20" fill="#414042"></path>
                    <path d="M33,16.5 C33,16.7760467 32.7759377,17 32.4997565,17 C32.2235753,17 32,16.7760467 32,16.5 C32,16.2239533 32.2235753,16 32.4997565,16 C32.7759377,16 33,16.2239533 33,16.5" id="Fill-22" fill="#414042"></path>
                    <path d="M33,20 C33,20.5525974 32.5525974,21 32,21 C31.4480519,21 31,20.5525974 31,20 C31,19.4480519 31.4480519,19 32,19 C32.5525974,19 33,19.4480519 33,20" id="Fill-24" fill="#414042"></path>
                    <path d="M33,21.5 C33,21.7760467 32.7759377,22 32.4997565,22 C32.2235753,22 32,21.7760467 32,21.5 C32,21.2239533 32.2235753,21 32.4997565,21 C32.7759377,21 33,21.2239533 33,21.5" id="Fill-26" fill="#414042"></path>
                </g>
                <g id="Group-12" transform="translate(10.500000, 103.500000) rotate(-270.000000) translate(-10.500000, -103.500000) translate(-35.500000, 93.000000)">
                    <path d="M1.73397991,3.75658062 L1.73397991,19.2460755 L12.2660201,19.2453745 L12.2660201,16.2688903 L5.85659855,16.2688903 L5.85659855,3.75658062 L1.73397991,3.75658062 Z M12.2667129,19.8931068 C12.2667129,19.9008179 12.2660201,19.907127 12.2660201,19.9141371 L13.1326637,19.8931068 L12.2667129,19.8931068 Z M1.05923104,21 C0.844475234,21 0.541046069,20.9803717 0.284724628,20.7231014 C0,20.4384918 0,20.0971004 0,19.8931068 L0,3.10744628 C0,2.90415367 0,2.5634633 0.284031867,2.27885364 C0.565985452,1.99564601 0.90405265,1.99424399 1.06477312,2.00195509 L6.47177,2.00195509 C7.17215102,2.00195509 7.59057846,2.4155504 7.59057846,3.10744628 L7.59057846,14.5142647 L12.8562522,14.5142647 C13.5614825,14.5142647 14,14.9481893 14,15.6463943 L14,19.8931068 C14,20.5857037 13.5808798,21 12.8811915,21 L1.11880845,21 L1.05923104,21 Z" id="Fill-1" fill="#414042"></path>
                    <g id="Group-5" transform="translate(16.500000, 0.500000)">
                        <mask id="mask-14" fill="white">
                            <use xlink:href="#path-13"></use>
                        </mask>
                        <g id="Clip-4"></g>
                        <path d="M10,7.67645974 C8.5782934,7.67645974 7.69616256,8.55205919 7.69616256,9.96220584 C7.69616256,11.5101654 8.53573145,12.3989894 10,12.3989894 C11.3997391,12.3989894 12.3038374,11.442651 12.3038374,9.96220584 C12.3038374,8.50960166 11.4642686,7.67645974 10,7.67645974 M10,14.1411399 C7.59456305,14.1411399 5.97789524,12.4616316 5.97789524,9.96220584 C5.97789524,7.59084866 7.63163314,5.93430916 10,5.93430916 C12.4054369,5.93430916 14.0221048,7.55256729 14.0221048,9.96220584 C14.0221048,12.4226542 12.3683669,14.1411399 10,14.1411399 M10,1.74215058 C5.27836892,1.74215058 1.71826732,5.28700591 1.71826732,9.98726274 C1.71826732,14.7800909 5.2014828,18.2581278 10,18.2581278 C14.643372,18.2581278 18.2817327,14.6367098 18.2817327,10.0123196 C18.2817327,4.64039868 14.0145534,1.74215058 10,1.74215058 M10,20.0002784 C4.29875747,20.0002784 0,15.6960598 0,9.98726274 C0,4.29377823 4.29875747,0 10,0 C14.8472575,0 20,3.50935806 20,10.0123196 C20,15.6132328 15.6071943,20.0002784 10,20.0002784" id="Fill-3" fill="#414042" mask="url(#mask-14)"></path>
                    </g>
                    <path d="M46.924791,1.74218696 C42.1598581,1.74218696 38.7013733,5.23073711 38.7013733,10.0375861 C38.7013733,14.9551054 41.97633,18.257813 46.8513797,18.257813 C50.4186219,18.257813 52.8289574,16.0270063 54.0246089,13.7314679 L50.2840347,12.553073 C49.4907855,13.7064105 48.3705844,14.2674184 46.9744115,14.2674184 C44.4600768,14.2674184 42.7702589,12.5781304 42.7702589,10.0626436 C42.7702589,7.46293589 44.3914237,5.7833925 46.9003206,5.7833925 C48.430401,5.7833925 49.5451642,6.32908749 50.290832,7.4490151 L53.9675113,6.07851326 C53.2347584,4.49919955 51.319269,1.74218696 46.924791,1.74218696 M46.8513797,20 C41.0512125,20 37,15.9031113 37,10.0375861 C37,4.22147978 41.1742443,0 46.924791,0 C51.0229051,0 54.3243715,2.21688592 55.75725,5.93025684 C56.0413787,6.79891418 55.6077086,7.306327 55.1536465,7.49008144 L50.3234592,9.29003967 C49.9115406,9.43203174 49.3507604,9.36312383 49.0577952,8.72624765 C48.6880201,8.00515069 48.1795793,7.52557945 46.9003206,7.52557945 C44.7870287,7.52557945 44.4716322,9.11533375 44.4716322,10.0626436 C44.4716322,11.6043711 45.4069457,12.5252314 46.9744115,12.5252314 C47.9437117,12.5252314 48.6010142,12.1458899 49.042841,11.3315236 C49.336486,10.6208673 49.9523246,10.6466207 50.2881131,10.7329296 L50.331616,10.7461544 L55.0727582,12.2398552 C55.5519704,12.3185077 55.7790015,12.6094522 55.8734844,12.7834621 C56.0420584,13.0931997 56.0420584,13.4669729 55.8741642,13.8115125 C54.6261732,16.7794251 51.5836854,20 46.8513797,20" id="Fill-6" fill="#414042"></path>
                    <path d="M66.5368619,12.4864423 L66.9003787,12.4864423 C66.8438602,12.3419508 66.7822036,12.1912668 66.7211893,12.0392067 C66.6588905,12.1912668 66.5965917,12.3419508 66.5368619,12.4864423 L66.5368619,12.4864423 Z M69.3203985,14.2086433 L64.0423405,14.2086433 L64.5632099,12.9894103 C64.5644944,12.98597 65.1868403,11.5293581 65.6023798,10.4676897 C65.8040481,9.96403361 65.9581895,9.51335775 65.9614007,9.5051011 L66.71284,7.31983925 L67.4687751,9.50303693 C67.4713441,9.50991748 67.6286968,9.96196944 67.827796,10.4621852 C68.2677413,11.5045882 68.8554053,13.0155564 68.8554053,13.0155564 L69.3203985,14.2086433 Z M70.7943755,18.277799 L74.8945364,18.277799 C73.2799054,15.1891213 71.5355387,11.754352 69.9087048,8.55145723 C68.8476982,6.46183499 67.8361454,4.46991653 66.9395563,2.72913805 C66.908728,2.72844999 66.8772575,2.72776194 66.8451447,2.72776194 C66.2272946,3.96832463 65.4745709,5.48686143 64.6634018,7.12236754 C62.8798575,10.7195177 60.8779463,14.757711 59.0687117,18.277799 L62.5908424,18.277799 C62.6980991,18.0349157 62.7822346,17.8140501 62.8708659,17.5856159 C62.9800494,17.3042015 63.0937287,17.0097141 63.2388785,16.6780717 L63.4553187,16.1806082 L69.90164,16.1806082 L70.1212914,16.6698151 C70.3216752,17.1198029 70.5008646,17.5574057 70.687761,18.0190904 L70.7943755,18.277799 Z M75.9902247,20 L70.5137097,20 C69.9176963,20 69.6171206,19.6023044 69.4905963,19.3669896 L69.2157108,18.7078332 C69.1039583,18.4339874 68.9960593,18.1683983 68.8830223,17.9028092 L64.490635,17.9028092 C64.4437503,18.0197785 64.400077,18.1333075 64.3564036,18.2440843 C64.2260256,18.5832953 64.1007858,18.9039288 63.9408641,19.2486442 C63.6935956,19.7261542 63.4193524,20 62.7546176,20 L57.9794459,20 C57.4393088,20 57.1958939,19.648404 57.1168964,19.49772 C56.9910143,19.258965 56.9036675,18.8660858 57.1991052,18.3438522 C59.1059626,14.6600072 61.3044041,10.2261825 63.2433743,6.31390323 C64.1296873,4.52564896 64.9479211,2.87569371 65.6357771,1.50646478 C65.9132316,1.0516606 66.2850977,0.951204606 67.2638955,1.01932203 C67.5002456,1.03514728 67.9395485,1.06473364 68.1572733,1.52848253 C69.0891864,3.33256205 70.1765254,5.47378839 71.3216675,7.72854377 C73.1026428,11.2376229 75.0255566,15.0239881 76.7840529,18.3665581 C76.9407633,18.7023288 77.1315133,19.1103452 76.8726842,19.5582689 C76.6183509,20 76.1777634,20 75.9902247,20 L75.9902247,20 Z" id="Fill-8" fill="#414042"></path>
                    <path d="M79.7341515,3.75738958 L79.7341515,19.2461578 L90.2658485,19.2454568 L90.2658485,16.2691122 L83.8564854,16.2691122 L83.8564854,3.75738958 L79.7341515,3.75738958 Z M90.267927,19.8931587 C90.2658485,19.9008695 90.2658485,19.9071782 90.2658485,19.914188 L91.1332706,19.8931587 L90.267927,19.8931587 Z M79.058643,21 C78.843866,21 78.5410996,20.9803727 78.28406,20.7231144 C78,20.4385181 78,20.0971428 78,19.8931587 L78,3.1082857 C78,2.90500263 78,2.56432824 78.28406,2.27973194 C78.5660415,1.99653759 78.8951353,1.99233173 79.0648785,2.00284637 L84.4724106,2.00284637 C85.1721681,2.00284637 85.5906369,2.41642228 85.5906369,3.1082857 L85.5906369,14.514569 L90.8575246,14.514569 C91.5628248,14.514569 92,14.9484732 92,15.6466454 L92,19.8931587 C92,20.5857231 91.5815312,21 90.8824665,21 L79.1182264,21 L79.058643,21 Z" id="Fill-10" fill="#414042"></path>
                </g>
                <g id="Group-8" transform="translate(50.079764, 68.937895) scale(-1, 1) rotate(-368.000000) translate(-50.079764, -68.937895) translate(34.579764, 58.437895)">
                    <g id="Group-3" transform="translate(0.000000, 0.000000)">
                        <mask id="mask-16" fill="white">
                            <use xlink:href="#path-15"></use>
                        </mask>
                        <g id="Clip-2"></g>
                        <path d="M28.2327374,20.0602092 L26.6670844,20.0216081 C27.9388163,16.736874 27.9388163,13.0901637 26.6667234,9.80579373 C25.3942693,6.32222762 23.0226806,3.52437706 20.1101907,2.04369759 L21.2735979,0.992364188 C28.0431691,3.29786879 31.6781848,10.7016303 29.3921727,17.5289246 C29.0964463,18.4120155 28.7075606,19.2605112 28.2327374,20.0602092 L28.2327374,20.0602092 Z M0.927331602,19.3795919 L4.7208624,15.9513783 C6.04422909,17.5216414 8.37934842,17.7120977 9.93597428,16.3774469 C11.4926001,15.0427961 11.6818073,12.6877655 10.3584406,11.1178666 C10.316555,11.0683406 10.2739473,11.0202714 10.2295342,10.9729304 L12.180823,9.20966183 C12.7173914,11.4649122 14.9651288,12.8541872 17.2009505,12.3126795 C19.4371332,11.7715359 20.8143012,9.50463241 20.2777329,7.24974622 C19.9502312,5.87394517 18.957977,4.75669859 17.637499,4.27819076 L19.3623892,2.7195808 C22.2109676,4.04804088 24.5580026,6.73445811 25.7983204,10.1284406 C27.0404435,13.5271571 26.985559,17.1032202 25.6632756,19.996481 L0.927331602,19.3795919 Z M9.53733941,11.5989235 C10.5974771,12.7125285 10.5613689,14.482352 9.45681805,15.5515293 C8.35262833,16.6210707 6.59776828,16.5846546 5.5376306,15.4706855 C5.49357856,15.4248012 5.45133193,15.377096 5.41052963,15.3279343 L9.53733941,11.5989235 Z M16.8185643,5.01816634 C17.9411692,5.22209661 18.8720394,6.01123395 19.2641748,7.09133609 C19.8845142,8.78359322 19.0269437,10.6623009 17.3489942,11.2879298 C15.6710447,11.9131946 13.8078599,11.0483118 13.1878816,9.35605464 C13.1871594,9.35423383 13.1864373,9.35241303 13.1857151,9.35022806 C13.084251,9.06472567 13.0239502,8.76611348 13.0066183,8.46349552 L16.8185643,5.01816634 Z M21.3057342,0.0156838299 C21.2884023,0.0127705403 21.2710703,0.0109497342 21.2537384,0.0102214118 C21.2219631,0.00330234887 21.1898268,-0.000339263207 21.1576905,-7.10542736e-15 C21.1273596,0.00111738162 21.0973897,0.00512315491 21.0681421,0.0124063791 C21.041422,0.0178687972 21.015424,0.0255161825 20.9905094,0.0357126963 C20.958012,0.0499149834 20.92732,0.0681230438 20.8987945,0.0899727162 C20.8850733,0.0972559404 20.8720744,0.104903326 20.8590754,0.113643195 L18.96231,1.82775 L18.9565327,1.83284826 L16.396098,4.14672857 C16.3910428,4.15073434 16.3870709,4.15546844 16.3823769,4.15947421 L0.309880843,18.6844081 C-0.0721442466,19.0278121 -0.105724902,19.6184816 0.235136804,20.0037642 C0.405928739,20.1971338 0.648937137,20.3103879 0.906027745,20.3162145 L28.4840506,21.0001092 C28.5132983,20.9979243 28.5421849,20.992826 28.5703493,20.9848145 C28.5927364,20.9822653 28.6154846,20.9782596 28.6375106,20.9727972 C28.6898676,20.9505833 28.7396969,20.9225429 28.7862765,20.8897684 C28.8115523,20.8675546 28.8343005,20.8424274 28.8537989,20.8154795 C28.8657147,20.8038264 28.8769082,20.7914449 28.8873796,20.7786992 C32.9506389,14.2252541 30.9766019,5.59099192 24.4789256,1.49345001 C23.4870325,0.867821055 22.4207564,0.37146933 21.3057342,0.0156838299 L21.3057342,0.0156838299 Z" id="Fill-1" fill="#414042" mask="url(#mask-16)"></path>
                    </g>
                    <path d="M22.9678311,16.3108347 C21.9801486,16.6490973 20.900549,16.1512768 20.5171359,15.1803141 C20.1524465,14.1910554 20.6588413,13.0941483 21.6478004,12.7295055 C22.6367596,12.3648626 23.7342319,12.8711928 24.0989212,13.860026 C24.4636106,14.8488592 23.9572158,15.9461918 22.9682567,16.3108347 C22.9682567,16.3108347 22.9678311,16.3108347 22.9678311,16.3108347 M23.5648663,11.7968366 C22.060576,11.1028663 20.2784069,11.7593937 19.5839227,13.2634924 C18.889864,14.7671656 19.546475,16.5491077 21.0503397,17.2435035 C22.55463,17.9374738 24.3367991,17.2809464 25.0312833,15.7772732 C25.3644826,15.0547952 25.3972493,14.2293493 25.1223493,13.483044 C24.8491514,12.7354623 24.2882873,12.1282915 23.5648663,11.7968366" id="Fill-4" fill="#414042"></path>
                    <path d="M15.5012488,16.3752105 C14.9840821,16.552653 14.4185529,16.291754 14.2176925,15.7832155 C14.0269727,15.2649274 14.2917963,14.6904817 14.8101331,14.4993898 C15.3280798,14.3086879 15.9025795,14.5734867 16.0936894,15.0913848 C16.2844092,15.6096729 16.0195855,16.1841186 15.5016388,16.3752105 C15.5012488,16.3752105 15.5012488,16.3752105 15.5012488,16.3752105 Z M15.9934542,13.6223169 C14.9907124,13.1594065 13.8023211,13.596968 13.3393672,14.5996156 C12.8764133,15.6018732 13.3140159,16.7901529 14.3167576,17.2530634 C15.3194994,17.7159738 16.5075007,17.2784123 16.9704546,16.2757647 C17.1927661,15.7941351 17.2149972,15.2438683 17.0312978,14.7462494 C16.8495484,14.2478504 16.4755191,13.8434375 15.9934542,13.6223169 L15.9934542,13.6223169 Z" id="Fill-6" fill="#414042"></path>
                </g>
            </g>
        </g>
    </g>
</svg>