<?xml version="1.0" encoding="UTF-8"?>
<svg width="257px" height="511px" viewBox="0 0 257 511" version="1.1" xmlns="http://www.w3.org/2000/svg" xmlns:xlink="http://www.w3.org/1999/xlink">
    <title>Group 3</title>
    <defs>
        <polygon id="path-1" points="0 0 479 0 479 548 0 548"></polygon>
    </defs>
    <g id="Desktop" stroke="none" stroke-width="1" fill="none" fill-rule="evenodd" opacity="0.65">
        <g id="mobile" transform="translate(-133.000000, -3834.000000)">
            <g id="Group-3" transform="translate(80.000000, 3810.000000)">
                <mask id="mask-2" fill="white">
                    <use xlink:href="#path-1"></use>
                </mask>
                <g id="Clip-2"></g>
                <path d="M449.14357,220.64099 C449.001991,220.36525 448.849351,220.097262 448.683438,219.834811 C448.760864,219.645447 448.839396,219.454976 448.915716,219.263398 L453.93071,219.263398 L451.697522,200.565131 L439.602473,192.99834 L434.339716,198.025887 L429.380027,190.806817 C429.288221,190.221008 429.168764,189.641843 429.007276,189.079289 L431.332268,183.967581 L427.411194,175.37867 C427.44327,175.059742 427.470922,174.741921 427.480877,174.425208 L431.034731,174.595746 L431.034731,161.923891 L407.959566,152.367122 L411.335341,145.609833 L403.982081,40.7312136 L382.403451,17.6266447 L366.156155,16.9024121 L364.926187,22.4360361 L350.468538,25.1325289 L341.335586,30.5199775 C340.40205,30.6030317 339.465195,30.7026967 338.521704,30.8300465 C338.384549,30.8477647 338.246288,30.8732346 338.109134,30.8920603 L332.882878,28.2011044 L332.882878,12 L318.571232,12 L274.123169,77.1742857 L272.747198,97.2922258 L254.397232,118.107821 L260.009512,121.622675 L258.017452,129.818462 L257.933389,138.016465 L260.322535,139.119424 C260.28714,139.819294 260.24179,140.519164 260.189804,141.217927 L259.348073,143.673009 L255.101809,143.673009 L251.135385,152.496686 L252.606479,154.786767 L244.853923,158.142157 L233.818504,172.389826 L229.014772,181.87683 L229.014772,190.187786 C228.921861,190.256444 228.830056,190.325102 228.739357,190.394868 L227.274899,187.017331 L222.853874,187.191191 L222.703446,184.055065 L218.516911,187.361729 L217.021483,187.421528 L217.072363,188.503447 L214.415544,190.603057 L207.147454,186.561086 L193.149936,194.880902 L198.06317,199.036933 L192.126807,209.291358 L89.0760987,209.291358 L89.0760987,272.19771 L80.6377691,287.411023 L84.6937863,318.835408 L79.927662,322.009185 L87.0674467,337.27676 L90.9940517,333.077541 L91.8391014,335.274601 L89.5893226,393.941867 L68.4553387,448.282564 L67.713155,448.201725 L67.4786648,450.794123 L66.2011356,454.077532 L67.172279,454.177197 L62.0721168,510.443644 L65.0707158,513.942994 C65.0596549,514.11021 65.0253662,514.260815 65.0010323,514.418064 L53,520.069071 L53,535 L71.8974781,535 L77.7365058,524.973698 L94.0070298,524.973698 L100.049577,518.461142 C100.34822,518.317181 100.649076,518.178758 100.945507,518.021508 C102.537164,517.173248 104.072412,516.233075 105.582219,515.25082 L110.221143,518.348188 L154.665888,515.728105 L160.816832,511.1114 L173.487047,515.237532 L179.597065,517.77899 L183.77254,511.506738 L200.929038,504.855758 L203.294956,501.697484 L210.426998,506.797011 L222.679112,495.300096 L228.708387,494.286835 L228.708387,491.334535 L233.338462,491.334535 L240.790163,486.050074 L244.042056,481.167595 L244.767648,481.884076 L242.261257,498.989917 L258.946564,498.989917 L261.732794,491.334535 L268.08394,491.334535 L276.979083,487.163 L281.661144,487.163 L281.661144,500.026433 L292.658957,489.625834 L292.658957,481.932801 L289.849499,478.654929 L292.862477,472.129084 L287.197105,453.540448 L278.840625,448.310249 L264.420583,448.310249 L264.420583,462.101674 L275.450472,462.101674 L276.399494,460.051897 L277.070888,460.534719 L276.412767,467.793655 L279.502065,468.238826 L277.911513,472.747007 L267.300831,475.525447 L257.641382,473.761376 L255.185872,463.562321 L251.909645,455.368748 L246.778512,457.067483 L251.367663,454.511629 L248.970775,443.813141 L231.127397,430.167891 L225.852473,434.861007 L200.455634,420.965487 L195.894135,416.903583 L202.975297,420.559075 L233.225642,425.071686 C233.767624,425.265479 234.351637,425.347426 234.945605,425.327493 L239.093427,425.946523 L250.793604,391.245375 L250.528144,371.962406 L240.179604,361.084522 L248.363534,356.505467 L253.318799,356.505467 L261.011626,348.427063 L260.10353,340.803795 L260.951898,338.616701 L265.233556,339.046368 L273.08566,334.336642 L266.783183,325.813067 L280.3991,318.412385 L284.642046,327.663515 L294.14443,327.10982 L294.496166,316.149989 L296.1199,310.944152 L310.076492,317.652716 L315.414463,307.373929 L314.904557,299.707474 L316.089175,298.717468 L322.451381,308.960818 L340.306927,294.654456 L335.495453,290.180604 L343.683807,273.2453 L342.05233,268.483527 L349.850236,270.556559 L367.858421,281.160919 L368.924688,265.493576 C369.518656,265.55559 370.112624,265.624248 370.711017,265.656362 L373.136663,278.170968 L385.659768,268.464701 L388.031216,264.905552 C388.312162,264.867901 388.593108,264.826928 388.874054,264.782632 L390.835144,271.658412 L398.888556,264.854612 L405.087061,264.512429 L407.057,256.834899 C407.499435,256.472783 407.934126,256.101808 408.355545,255.718651 L408.355545,256.415199 L424.910333,251.743124 L425.560712,246.741047 L432.070028,248.423171 L438.854759,244.614859 L444.316611,246.667959 L451.8933,234.224226 L458,232.86546 L458,220.853609 L449.14357,220.64099 Z" id="Fill-1" fill="#F1F0F2" mask="url(#mask-2)"></path>
            </g>
        </g>
    </g>
</svg>