<?xml version="1.0" encoding="UTF-8"?>
<svg width="579px" height="869px" viewBox="0 0 579 869" version="1.1" xmlns="http://www.w3.org/2000/svg" xmlns:xlink="http://www.w3.org/1999/xlink">
    <title>Group 3</title>
    <defs>
        <polygon id="path-1" points="0 0 823 0 823 941 0 941"></polygon>
    </defs>
    <g id="Desktop" stroke="none" stroke-width="1" fill="none" fill-rule="evenodd" opacity="0.65">
        <g id="in-the-news" transform="translate(0.000000, -1188.000000)">
            <g id="Group-3" transform="translate(-208.000000, 1167.000000)">
                <mask id="mask-2" fill="white">
                    <use xlink:href="#path-1"></use>
                </mask>
                <g id="Clip-2"></g>
                <path d="M771.780061,379.24017 C771.536755,378.76672 771.27444,378.30658 770.989316,377.855946 C771.122374,377.530806 771.257333,377.203764 771.38849,376.874821 L780.00685,376.874821 L776.169075,344.769574 L755.383509,331.777264 L746.339364,340.409649 L737.816046,328.014381 C737.658277,327.008537 737.452987,326.014102 737.175466,325.048187 L741.171009,316.271296 L734.43257,301.523988 C734.487694,300.976383 734.535214,300.430679 734.552322,299.886877 L740.659686,300.179693 L740.659686,278.4219 L701.004588,262.012764 L706.805919,250.410382 L694.169207,70.3319881 L657.085931,30.6610457 L629.164651,29.417526 L627.050929,38.9188536 L602.205191,43.5487781 L586.510045,52.79912 C584.905745,52.9417255 583.295743,53.1128521 581.674336,53.3315138 C581.438633,53.3619363 581.201029,53.4056686 580.965326,53.4379926 L571.983908,48.8175751 L571.983908,21 L547.38908,21 L471.00426,132.90537 L468.639629,167.448219 L437.104873,203.188955 L446.74968,209.224019 L443.326287,223.296327 L443.181824,237.372439 L447.287615,239.266239 C447.226789,240.467928 447.148855,241.669617 447.059516,242.869404 L445.612985,247.084822 L438.315702,247.084822 L431.499328,262.235228 L434.027431,266.167336 L420.704519,271.928598 L401.739947,296.392092 L393.484646,312.68144 L393.484646,326.951495 C393.324976,327.069382 393.167207,327.187269 393.011339,327.307058 L390.494642,321.507769 L382.897027,321.806289 L382.638515,316.421507 L375.443876,322.099106 L372.873955,322.201782 L372.961394,324.059456 L368.395602,327.664522 L355.905253,320.724389 L331.850261,335.009655 L340.293744,342.145633 L330.091994,359.752656 L152.997444,359.752656 L152.997444,467.763946 L138.496018,493.885467 L145.466359,547.841675 L137.275686,553.291106 L149.545538,579.505795 L156.293481,572.295662 L157.745715,576.068053 L153.879428,676.800759 L117.560286,770.104671 L116.284829,769.965868 L115.881854,774.41706 L113.686396,780.05473 L115.355324,780.225857 L106.590601,876.836314 L111.743749,882.844758 C111.72474,883.13187 111.665815,883.390462 111.623996,883.660461 L91,893.363338 L91,919 L123.475666,919 L133.510143,901.784667 L161.47134,901.784667 L171.85557,890.602496 C172.368794,890.355313 172.885819,890.117637 173.395241,889.847638 C176.130535,888.39116 178.768885,886.776866 181.363517,885.090319 L189.335595,890.408553 L265.714712,885.909825 L276.285223,877.982862 L298.059221,885.067502 L308.559401,889.43123 L315.735031,878.661664 L345.218792,867.241817 L349.284666,861.819006 L361.541212,870.574983 L382.596696,850.834582 L392.958116,849.094795 L392.958116,844.025646 L400.914987,844.025646 L413.720873,834.952135 L419.309311,826.568834 L420.556255,827.799044 L416.248976,857.170068 L444.922984,857.170068 L449.711172,844.025646 L460.625733,844.025646 L475.912201,836.863048 L483.958411,836.863048 L483.958411,858.949784 L502.858355,841.091776 L502.858355,827.882706 L498.030249,822.254543 L503.208108,811.049555 L493.472061,779.132548 L479.111297,770.152206 L454.330187,770.152206 L454.330187,793.832321 L473.285255,793.832321 L474.916167,790.312817 L476.06997,791.141831 L474.938977,803.605549 L480.247993,804.369915 L477.5146,812.11054 L459.279946,816.881168 L442.680005,813.852228 L438.460165,796.340276 L432.829909,782.27177 L424.011962,785.188527 L431.898502,780.800081 L427.779405,762.430594 L397.11523,739.001465 L388.050175,747.059625 L344.405237,723.200778 L336.566218,716.22642 L348.735326,722.502962 L400.721102,730.251193 C401.652509,730.583939 402.656147,730.724643 403.676892,730.690418 L410.805001,731.753304 L430.911972,672.170834 L430.455773,639.061645 L412.671615,620.384131 L426.73585,612.521815 L435.251565,612.521815 L448.471832,598.651056 L446.911251,585.561775 L448.369187,581.806497 L455.727297,582.544243 L469.221283,574.457561 L458.390358,559.822437 L481.789565,547.115338 L489.081146,562.999687 L505.411169,562.048983 L506.015633,543.230765 L508.80605,534.292253 L532.790712,545.810973 L541.964114,528.162119 L541.087831,514.998683 L543.123619,513.298826 L554.057189,530.886835 L584.742274,506.322566 L576.473667,498.640884 L590.545505,469.562677 L587.741782,461.386629 L601.142628,464.946062 L632.090027,483.153929 L633.922427,456.252832 C634.943172,456.359311 635.963917,456.477198 636.992266,456.532339 L641.160784,478.020132 L662.681972,461.354305 L666.757349,455.243185 C667.24016,455.178537 667.722971,455.108185 668.205781,455.032129 L671.575951,466.837961 L685.415888,455.155721 L696.068135,454.568186 L699.453512,441.385736 C700.213843,440.763976 700.960869,440.127005 701.685085,439.469118 L701.685085,440.665103 L730.134795,432.643069 L731.252483,424.054417 L742.438862,426.942653 L754.098548,420.403716 L763.484843,423.928924 L776.505522,402.562821 L787,400.229795 L787,379.60524 L771.780061,379.24017 Z" id="Fill-1" fill="#F1F0F2" mask="url(#mask-2)"></path>
            </g>
        </g>
    </g>
</svg>