<?xml version="1.0" encoding="UTF-8"?>
<svg width="390px" height="178px" viewBox="0 0 390 178" version="1.1" xmlns="http://www.w3.org/2000/svg" xmlns:xlink="http://www.w3.org/1999/xlink">
    <title>Group 15</title>
    <defs>
        <polygon id="path-1" points="0 0 42 0 42 28 0 28"></polygon>
        <polygon id="path-3" points="0 0 35 0 35 2 0 2"></polygon>
        <polygon id="path-5" points="0 0 57 0 57 44 0 44"></polygon>
        <polygon id="path-7" points="0 0 44 0 44 35 0 35"></polygon>
        <polygon id="path-9" points="0.259336061 0.0789054562 35.2593361 0.0789054562 35.2593361 11.0789055 0.259336061 11.0789055"></polygon>
        <polygon id="path-11" points="-0.495907974 -0.108528619 27.504092 -0.108528619 27.504092 26.8914714 -0.495907974 26.8914714"></polygon>
        <polygon id="path-13" points="0 0 74 0 74 29 0 29"></polygon>
        <polygon id="path-15" points="0 0 42 0 42 34 0 34"></polygon>
        <polygon id="path-17" points="7.88300411e-16 0 32 0 32 33 7.88300411e-16 33"></polygon>
        <polygon id="path-19" points="0 0 14 0 14 14 0 14"></polygon>
    </defs>
    <g id="Desktop" stroke="none" stroke-width="1" fill="none" fill-rule="evenodd" opacity="0.2">
        <g id="mobile" transform="translate(0.000000, -3298.000000)">
            <g id="Group-15" transform="translate(-18.502088, 3298.000000)">
                <g id="Group-12" transform="translate(201.380709, 0.000000)" fill="#414042">
                    <path d="M2.18619586,116.341432 L2.92955353,117.220312 L0.121378344,118.559643 L0.121378344,122 L4.42210827,122 L5.75174331,119.689462 L9.45510097,119.689462 L11.7307214,117.2067 L13.1456119,118.163111 L23.2624002,117.558844 L24.6615243,116.49531 L28.2568528,117.680762 L28.9021083,115.098571 L30.1213783,114.028527 L30.1213783,103.015003 L14.8080937,102.987187 L14.0991886,103.51629 L13.294517,103.072411 L3.47028345,102 L2.18619586,116.341432 Z M1.48546594,119.437339 L5.13159732,117.697926 L3.59758272,115.88394 L4.70356813,103.517474 L12.7631302,104.352558 L14.2083856,105.15154 L15.254809,104.369722 L28.7572908,104.395171 L28.7572908,113.396443 L27.68459,114.33865 L27.2921813,115.907614 L24.4104294,114.957713 L22.7724732,116.204125 L13.5216703,116.755127 L11.5210864,115.403959 L8.86064842,118.306927 L4.96867761,118.306927 L3.63904258,120.616873 L1.48546594,120.616873 L1.48546594,119.437339 Z" id="Fill-1"></path>
                    <path d="M34.6783167,112.228571 L35.8015277,113.586995 L35.9073149,113.44335 L35.9073149,111.922365 L35.3055725,111.741478 L34.6783167,112.228571 Z M29.1817393,116.070936 L28.9701649,116.864828 L29.2769477,116.42798 L33.4798102,114.882167 L34.2340106,113.926897 L32.6540479,112.016355 L34.995056,110.19803 L37.3609552,110.913892 L37.3609552,113.877833 L37.1244897,114.198818 L38.5426602,112.936749 L37.9651867,110.069754 L34.8911357,109.971034 L34.8500653,107.382463 L34.0187026,106.661872 L34.0187026,105.380887 L30.4810548,105.380887 L30.4810548,115.001576 L29.1817393,116.070936 Z M29.2184536,119 L27.1213783,118.172414 L27.8842906,115.31133 L29.0274144,114.370246 L29.0274144,104 L35.4723429,104 L35.4723429,106.052414 L36.2943715,106.765911 L36.3242408,108.635074 L39.1742719,108.726108 L40.1213783,113.423251 L36.6963628,116.472906 L34.9670535,115.298916 L34.3933136,116.02601 L30.2315215,117.556453 L29.2184536,119 Z" id="Fill-2"></path>
                    <path d="M51.8723687,103.888723 L52.1543155,103.888723 L52.3474791,103.476609 L51.8723687,103.476609 L51.8723687,103.888723 Z M54.7908181,105.398822 L54.9899805,105.427203 L54.8346098,104.924034 L54.7908181,105.398822 Z M46.9113048,112.380517 L48.2100597,112.380517 L48.8615368,110.617946 L51.0157304,110.617946 L53.0955379,109.657727 L55.0727649,109.657727 L54.7674225,109.307696 L55.6252606,107.478312 L55.427298,106.83856 L54.7002352,108.871931 L51.1986958,109.773615 L47.7361491,109.151601 L46.979092,106.022019 L46.7385374,105.437255 L44.8662906,106.049217 L44.8662906,103.3418 L45.8225102,102.818528 L45.6023517,101.851805 L42.7534893,99.707275 L41.6460982,100.677546 L34.6424197,96.8845608 L29.4509992,92.3335698 L27.5289618,91.5152547 L10.7531271,90.4438768 L6.09560585,102.233764 L14.5678073,103.141952 L15.3938515,103.585403 L16.1221141,103.056809 L36.665238,103.084599 L36.665238,105.136299 L37.4576885,105.849369 L37.486483,107.71955 L40.2339646,107.810605 L40.7798616,110.617946 L42.7570886,110.617946 L44.0174508,109.73873 L45.4283846,107.448158 L47.366019,109.331938 L46.9113048,112.380517 Z M54.5022725,114 L54.5022725,111.038929 L53.4074791,111.038929 L51.3276715,111.999149 L49.8423517,111.999149 L49.1908747,113.761719 L45.2892108,113.761719 L45.8753002,109.823873 L45.7055323,109.658909 L44.9454757,110.78291 L43.2028045,111.999149 L42.1206087,111.999149 L42.1206087,112.679107 L39.8266415,113.058701 L39.0683846,109.154557 L36.1049437,109.055816 L36.0653512,106.466652 L35.2639024,105.745897 L35.2639024,104.463436 L16.5822272,104.438011 L15.5066302,105.219077 L14.0213104,104.420865 L4.12137834,103.422804 L9.8191033,89 L27.9734779,90.1990918 L30.2986392,91.2278984 L35.5140552,95.8007663 L41.4523348,98.9989357 L42.6863019,97.9186888 L46.8585147,101.060096 L47.418809,103.522728 L46.3456115,104.11104 L47.5453851,103.720212 L48.3114406,105.605766 L48.8855323,107.954283 L51.1441061,108.359893 L53.625238,107.720732 L53.9971678,106.682465 L53.2749041,106.580176 L53.429075,104.909252 L53.2719047,104.798094 L53.0499465,105.269926 L50.4710331,105.269926 L50.4710331,102.095407 L53.8429969,102.095407 L55.7968283,103.299229 L57.1213783,107.578237 L56.4171112,109.080649 L57.0739873,109.835107 L57.0739873,111.605955 L54.5022725,114 Z" id="Fill-3"></path>
                    <path d="M10.7898658,89.0054295 L19.4162211,89.521073 L18.952355,85.9500054 L21.012853,84.5846146 L20.9405233,82.2701322 L22.0111215,79.3761424 L21.808479,76.0351038 L24.0644463,73.4681217 L23.8540328,72.6337491 L25.7136816,69.192775 L26.9809447,65.1941727 L27.3934029,61.8519514 L30.012214,62.1795506 L34.3406346,56.0166649 L32.5048965,54.0102677 L34.0644669,49.6846576 L33.3848075,48.3819482 L10.6487931,48.3819482 L10.6487931,61.8401247 L8.72996556,65.2586281 L9.7282341,72.8945275 L8.89494886,73.4426943 L9.17470316,74.0322546 L10.2022622,72.9459736 L11.3033464,75.7725513 L10.7898658,89.0054295 Z M21.0164396,91 L9.34147976,90.3022256 L9.89680399,76.0049457 L9.69954135,75.4987636 L8.78495999,76.4655951 L7.12137834,72.9507042 L8.23142905,72.2204064 L7.28636165,64.9854317 L9.25241268,61.4829588 L9.25241268,47 L34.2360257,47 L35.5833893,49.5847221 L34.1009306,53.6956779 L36.1213783,55.9043114 L30.6763316,63.6543382 L28.6092581,63.3959252 L28.3324927,65.5489732 L26.9946933,69.7267498 L25.3388826,72.8146973 L25.5959218,73.8329749 L23.236541,76.5146758 L23.4230438,79.580744 L22.3446747,82.4954306 L22.4325463,85.3066337 L20.4473667,86.6223524 L21.0164396,91 Z" id="Fill-4"></path>
                    <path d="M35.4981906,93.4650866 L42.4380186,94.4599049 L44.7197618,87.7477064 L44.6676727,84.06456 L38.7714232,77.916072 L39.8694859,75.3228848 L38.29843,42.7620625 L37.766163,43.1788991 L35.9580118,42.1817023 L35.0712992,42.7043833 L35.6119484,43.158087 L33.6289693,46.556405 L34.62465,48.4723072 L33.3601415,52.3659531 L35.4760377,54.7391267 L29.8318518,62.5888549 L27.7381084,62.3254332 L27.3854591,64.416157 L25.9497152,69.0114679 L24.3636911,71.9501359 L24.649882,73.0139314 L22.3866993,75.527438 L22.572903,78.6046551 L21.492802,81.5349983 L21.5808147,84.3624703 L19.5667019,85.7027693 L19.7511093,88.691981 L26.8478035,89.2134726 L28.980464,90.1292049 L35.4981906,93.4650866 Z M43.390591,96 L34.9611337,94.7524635 L28.3823372,91.383877 L26.4029504,90.5359327 L18.4309195,89.9960075 L18.1213783,84.9915902 L20.1594402,83.6364254 L20.0863957,81.3090384 L21.1587132,78.3989127 L20.9551465,75.0327047 L23.1033738,72.6470438 L22.8698708,71.7765036 L24.6852068,68.4150527 L26.0275495,64.0974346 L26.5795745,60.780581 L29.1792409,61.106439 L33.6900393,54.8318892 L31.7842958,52.6941896 L33.1146641,48.5953959 L32.0351619,46.5171594 L33.8145743,43.4684845 L32.6686135,42.506371 L35.9352602,40.5797655 L37.630851,41.5157153 L39.5653334,40 L41.2824783,75.5714407 L40.4155237,77.6175671 L46.0591109,83.5020387 L46.1213783,87.9659361 L43.390591,96 Z" id="Fill-5"></path>
                    <path d="M62.1414676,0 L51.6275584,15.1818613 L51.3022984,19.8677465 L46.9616547,24.7163693 L48.2893953,25.535442 L47.8184964,27.4440188 L47.7984711,29.3543906 L48.4835804,29.6655065 L48.1328336,30.6718471 L47.1285325,30.6718471 L46.1903758,32.7270074 L46.5380885,33.2600927 L44.7048598,34.0420707 L42.094284,37.3608405 L40.9583012,39.5703623 L40.9583012,41.7027033 L40.5462647,40.7681588 L38.1213783,40.8620919 L39.774379,75.619131 L38.6584215,78.2319069 L42.3564339,82 L45.5350011,80.2481777 L46.7067868,80.2481777 L48.5266652,78.3659261 L48.3118479,76.5907701 L48.5121013,76.0816169 L49.5248979,76.1809347 L51.3823997,75.0842508 L49.8914223,73.0990916 L53.1118607,71.3747911 L54.1155549,73.5298676 L56.3632474,73.4012331 L56.4469897,70.8482872 L56.8305053,69.6355332 L60.1322587,71.1982927 L61.3950686,68.8032979 L61.2743098,67.0179709 L61.5546645,66.7876254 L63.0589921,69.1736456 L67.2831247,65.8411149 L66.1447146,64.7988764 L68.0811041,60.8536865 L67.6951612,59.7450367 L69.5399196,60.2272664 L73.7992483,62.6976469 L74.1597043,57.4882492 L75.0481012,62.0012258 L78.0100307,59.7402503 L78.7163789,58.6962168 L79.2340036,60.4839371 L81.138838,58.8996388 L82.6055423,58.8194666 L83.3222066,56.0678852 L83.3780348,56.0337821 L83.3780348,56.9336252 L87.2945054,55.8453176 L87.448033,54.6798293 L88.9875567,55.072314 L90.5926179,54.1844369 L91.8845556,54.6624786 L93.6765199,51.7643136 L95.1213783,51.4478129 L95.1213783,48.649564 L92.2850623,48.5831527 L92.2486526,48.2798147 L94.1589485,48.2798147 L93.6304009,43.924191 L90.7692049,42.1615994 L89.5245999,43.3324724 L88.1865432,41.4143227 L88.813397,40.0579767 L87.7799682,37.8293094 L88.7430049,37.8741819 L88.7430049,34.9227682 L83.2851901,32.6970924 L84.0831694,31.1223669 L82.3439992,6.69258327 L77.2393586,1.3108752 L73.396921,1.14215461 L73.1056434,2.43149101 L69.6861653,3.05910766 L67.0907601,4.56682354 L65.5263565,3.7740761 L65.5263565,0 L62.1414676,0 Z M42.3752455,43.0482799 L42.3752455,39.9006238 L43.2569672,38.1637591 L45.6017522,35.1818321 L48.6346807,33.8895042 L47.7990779,32.6079457 L48.0448434,32.0688775 L49.1456302,32.0688775 L50.2409555,28.9242129 L49.2160223,28.4593338 L49.2160223,27.6935099 L49.9084135,24.8856882 L49.1304595,24.4058517 L52.6840467,20.4367298 L53.0159818,15.6557149 L62.889687,1.39762869 L64.1088053,1.39762869 L64.1088053,4.62725183 L67.1496225,6.16787421 L70.0733218,4.40947065 L74.2853178,3.63586881 L74.5225877,2.59063879 L76.5991546,2.68217869 L80.9646782,7.28549852 L82.6425588,30.8399694 L81.336664,33.4150524 L87.3254537,35.8567145 L87.3254537,36.4089453 L85.5243869,36.3239867 L87.2550616,40.0591733 L86.563884,41.5561198 L89.3018938,45.4761811 L90.9518603,43.9217978 L92.3020535,44.7540331 L92.5617761,46.8815877 L90.659369,46.8815877 L91.0186114,49.9514647 L93.7038272,50.0148845 L93.7038272,50.3271971 L92.7796275,50.5294225 L91.2850091,52.9477509 L90.4748932,52.6480026 L88.7903375,53.5777608 L86.2507606,52.9309985 L86.0104565,54.7492321 L84.7961928,55.0872715 L84.7961928,53.5221189 L82.0915586,55.1758199 L81.4901916,57.479873 L80.5878378,57.5289336 L79.9961801,58.0225311 L79.1988075,55.2691547 L77.039712,58.7123709 L76.0269154,59.4865711 L75.4055231,56.0900223 L72.8368184,56.0900223 L72.5406861,60.3469264 L70.1746621,58.9744263 L65.4911604,57.7227828 L66.5512897,60.7627449 L64.4110058,65.1195651 L65.1137131,65.7621393 L63.4206619,67.0981431 L61.8981294,64.6857977 L59.8118533,66.399927 L59.9538511,68.5071395 L59.5078322,69.351939 L55.9669884,67.6749042 L55.0652414,70.5216154 L54.9893878,72.0550582 L53.7684491,69.4345044 L47.7814799,72.6384006 L49.3137217,74.6774069 L49.1996379,74.7456131 L47.5806197,74.5852687 L46.8621349,76.4112801 L47.0393288,77.8783116 L46.0993515,78.850549 L45.1654426,78.850549 L42.6167633,80.2559556 L40.3284133,77.9243807 L41.2046735,75.8686221 L39.604467,42.2028821 L39.6323811,42.2028821 L40.3769596,43.8936777 L42.3752455,43.0482799 Z" id="Fill-6"></path>
                    <g id="Group-11" transform="translate(27.121378, 77.000000)">
                        <path d="M14.8361896,15.2727874 C13.901183,15.7372217 12.6454163,15.7023289 11.8283972,15.0002632 C11.6339253,14.8257996 11.4809565,14.5622993 11.4596121,14.3036118 C11.4548689,14.2476632 11.4649482,14.1911129 11.4756204,14.1357658 C11.4981507,14.021462 11.514752,13.9011423 11.5538835,13.7958625 C11.6333324,13.5798886 11.8870945,13.4950631 12.0892741,13.6003429 C12.302126,13.7104355 12.4882972,13.8830943 12.720122,13.9841629 C13.2679635,14.2272088 13.8857675,14.2572887 14.3749118,13.8716639 C14.5681979,13.7134435 14.7614839,13.3109739 14.8112877,13.0498801 L14.6334171,13.1383151 C13.8608656,13.5293543 12.7758548,13.3771498 12.07208,12.8621812 C10.9070273,11.8809737 10.8115701,10.3553193 11.1020921,8.90546628 C11.3469607,7.85327007 12.1438211,6.86364012 13.2495836,6.67353492 C14.1703605,6.45154498 15.4498433,6.6837621 15.8951128,7.61984975 C15.9632965,7.76363185 15.9710043,7.9314779 15.905785,8.0764632 C15.8559813,8.18595417 15.7818685,8.28702276 15.7172422,8.37786417 C15.5630876,8.56435979 15.4160479,8.68227314 15.191338,8.7009227 C15.0792795,8.71054828 14.8984443,8.62632446 14.8000226,8.57157897 C14.3814337,8.33755706 13.9409074,7.96336264 13.422711,8.18414938 C12.8090573,8.44103204 12.6934414,9.12685462 12.6347441,9.74770452 C12.586719,10.310801 12.5902764,10.8925469 12.8671617,11.3738259 C13.0177588,11.636123 13.2596629,11.840065 13.5454417,11.9285 C13.6924814,11.9742215 13.8496005,11.9898631 13.9990118,11.9441416 C14.3932917,11.8256266 14.7656343,11.5067793 14.8314464,11.0826521 C14.9091166,10.5652772 14.876507,10.0665519 14.9446907,9.55218493 C14.9939016,9.36508772 15.1658432,9.21468803 15.3419351,9.15212176 C15.366837,9.14309778 15.3923318,9.13888659 15.4178266,9.1358786 C15.6561732,9.11301784 15.9591462,9.12444822 16.1553968,9.2772543 C16.4660775,9.59429684 16.4559982,9.99436001 16.469042,10.4389415 C16.5152884,12.0782981 16.5265535,14.4281428 14.8361896,15.2727874 M9.5878201,12.0602501 C8.86862983,12.7177975 7.91168582,12.9957362 7.01166041,12.5649915 C6.93339733,12.5276923 6.8693639,12.477158 6.81007369,12.4422653 C6.70453711,12.3796991 6.56994833,12.4548989 6.55927609,12.5782266 C6.48753494,13.4234729 6.61145148,14.2416472 6.63872498,15.0688455 C6.64228239,15.2848194 6.49287106,15.4472511 6.3072927,15.5615548 C5.9717101,15.7089465 5.47545103,15.7306041 5.16892064,15.4827454 C5.1309749,15.4520639 5.10014399,15.4117567 5.07702081,15.3690432 C4.84460318,14.9382985 4.86535475,14.4425812 4.82740902,13.9757405 C4.81732968,12.4452733 4.83333804,10.8498334 5.20390186,9.29409907 C5.23591857,9.15813775 5.30588102,9.03180201 5.4108247,8.9409606 C5.65984359,8.72618985 6.01973517,8.63655164 6.34820294,8.71295468 C7.02529716,8.98126772 6.63042435,9.72303898 6.644654,10.277713 C6.65176882,10.5400101 6.61975211,10.8757022 6.8984161,11.0507674 C7.14565629,11.2348566 7.53222846,11.3106581 7.82630791,11.2480918 C8.42276744,11.078441 8.7198114,10.5339941 8.8045964,9.93239534 C8.87218724,9.34282857 8.73937717,8.71415787 8.22177362,8.31168831 C7.13379824,7.60180179 5.91241989,8.32372029 4.91575143,9.02458283 C4.84460318,9.07511712 4.76337559,9.11061145 4.67740478,9.11963543 C4.45328778,9.14430098 4.20189729,9.0883523 4.05307886,8.91148226 C3.86631469,8.72438505 3.82421864,8.47472157 3.85979277,8.21061972 C4.28608939,7.37499906 5.33256162,6.87146091 6.18930518,6.66210454 C7.22273356,6.45816257 8.59945227,6.56223915 9.43900167,7.29919762 C9.79592874,7.61022417 10.1510771,8.08669038 10.2998955,8.55292941 C10.7416076,9.6640823 10.4291482,11.2306454 9.5878201,12.0602501 M10.4997035,0 C4.70112087,0 0,4.77007648 0,10.6543138 C0,16.5379496 4.70112087,21.3080261 10.4997035,21.3080261 C16.2988791,21.3080261 21,16.5379496 21,10.6543138 C21,4.77007648 16.2988791,0 10.4997035,0" id="Fill-7"></path>
                        <polygon id="Fill-9" points="6.2424292 19.6853338 10.5000593 24 14.7570965 19.6853338"></polygon>
                    </g>
                </g>
                <g id="Group-8" transform="translate(169.688787, 87.136705) scale(-1, 1) rotate(-270.000000) translate(-169.688787, -87.136705) translate(148.573403, 73.020865)">
                    <g id="Group-3" transform="translate(-0.021322, -0.070859)">
                        <mask id="mask-2" fill="white">
                            <use xlink:href="#path-1"></use>
                        </mask>
                        <g id="Clip-2"></g>
                        <path d="M38.2508054,26.7469456 L36.1295983,26.6954774 C37.8525899,22.315832 37.8525899,17.4535515 36.1291091,13.0743916 C34.405139,8.42963683 31.1920189,4.69916942 27.2460648,2.72493013 L28.8222939,1.32315225 C37.9939711,4.39715839 42.918831,14.2688404 39.8216533,23.3718995 C39.4209917,24.5493541 38.8941144,25.6806815 38.2508054,26.7469456 L38.2508054,26.7469456 Z M1.25638475,25.8394558 L6.39600713,21.2685044 C8.18895554,23.3621885 11.3526656,23.6161303 13.4616426,21.8365958 C15.5706195,20.0570614 15.8269647,16.9170207 14.0340163,14.8238221 C13.9772681,14.7577875 13.9195415,14.6936951 13.8593689,14.6305739 L16.5030506,12.2795491 C17.2300141,15.2865496 20.2753357,17.1389163 23.3045135,16.416906 C26.3341805,15.6953812 28.200021,12.6728432 27.4730574,9.66632829 C27.0293455,7.8319269 25.6850011,6.34226479 23.8959664,5.70425435 L26.2329144,3.62610773 C30.0922787,5.39738784 33.2721326,8.97927748 34.9525631,13.5045874 C36.6354396,18.0362095 36.56108,22.8042936 34.7695992,26.6619746 L1.25638475,25.8394558 Z M12.9215566,15.4652314 C14.3578722,16.950038 14.3089513,19.3098026 12.8124632,20.7353723 C11.3164642,22.1614276 8.93891186,22.1128728 7.5025963,20.6275806 C7.44291289,20.5664015 7.38567552,20.5027947 7.33039498,20.4372457 L12.9215566,15.4652314 Z M22.7864419,6.69088845 C24.3073905,6.96279548 25.5685695,8.0149786 26.0998497,9.45511479 C26.9403096,11.7114576 25.7784399,14.2164012 23.5050889,15.0505731 C21.231738,15.8842595 18.7074232,14.7310824 17.8674525,12.4747395 C17.8664741,12.4723118 17.8654957,12.469884 17.8645173,12.4669707 C17.7270497,12.0863009 17.6453519,11.6881513 17.6218699,11.2846607 L22.7864419,6.69088845 Z M28.8658335,0.0209117732 C28.8423515,0.017027387 28.8188695,0.0145996456 28.7953875,0.0136285491 C28.7523371,0.00440313182 28.7087976,-0.000452350942 28.6652581,-5.95788067e-15 C28.6241646,0.00148984216 28.5835603,0.00683087321 28.5439344,0.0165418387 C28.507733,0.0238250629 28.47251,0.0340215767 28.4387546,0.0476169284 C28.3947259,0.0665533112 28.3531432,0.0908307251 28.3144957,0.119963622 C28.2959058,0.129674587 28.2782943,0.139871101 28.2606828,0.15152426 L25.6908716,2.437 L25.6830443,2.44379767 L22.2140682,5.52897142 C22.2072193,5.53431245 22.201838,5.54062458 22.1954783,5.54596561 L0.419838561,24.9125442 C-0.0977438179,25.3704162 -0.14324019,26.1579755 0.318572444,26.6716856 C0.549967969,26.9295117 0.879205153,27.0805172 1.22752146,27.088286 L38.5912944,28.0001457 C38.6309203,27.9972324 38.670057,27.9904347 38.7082152,27.9797526 C38.7385461,27.9763538 38.7693662,27.9710128 38.7992079,27.9637295 C38.8701432,27.9341111 38.9376539,27.8967239 39.0007618,27.8530245 C39.0350063,27.8234061 39.0658265,27.7899033 39.0922437,27.7539727 C39.1083876,27.7384351 39.123553,27.7219265 39.1377401,27.7049323 C44.6428011,18.9670055 41.9682993,7.45465589 33.164996,1.99126668 C31.8211408,1.15709474 30.3765087,0.495292439 28.8658335,0.0209117732 L28.8658335,0.0209117732 Z" id="Fill-1" fill="#414042" mask="url(#mask-2)"></path>
                    </g>
                    <path d="M31.2493952,22.5182448 C30.097099,22.9128845 28.8375661,22.3320939 28.3902508,21.1993041 C27.9647799,20.045169 28.5555738,18.7654441 29.7093594,18.3400274 C30.8631451,17.9146107 32.1435295,18.5053293 32.5690004,19.658968 C32.9944713,20.8126068 32.4036774,22.0928281 31.2498917,22.5182448 C31.2498917,22.5182448 31.2493952,22.5182448 31.2493952,22.5182448 M31.9459362,17.2519137 C30.1909309,16.4422817 28.1117337,17.2082303 27.3015021,18.9630121 C26.4917669,20.7172976 27.2578131,22.79623 29.012322,23.6063584 C30.7673273,24.4159904 32.8465246,23.6500418 33.6567562,21.8957564 C34.0454886,21.0528655 34.0837164,20.0898452 33.7629998,19.2191557 C33.4442689,18.346977 32.7899275,17.638611 31.9459362,17.2519137" id="Fill-4" fill="#414042"></path>
                    <path d="M20.9118355,22.6010414 C20.2653771,22.8228446 19.5584657,22.4967208 19.3073902,21.8610477 C19.0689904,21.2131876 19.40002,20.4951305 20.0479409,20.2562656 C20.6953743,20.0178882 21.4134989,20.3488867 21.6523862,20.9962593 C21.8907861,21.6441194 21.5597565,22.3621765 20.912323,22.6010414 C20.9118355,22.6010414 20.9118355,22.6010414 20.9118355,22.6010414 Z M21.5270923,19.1599244 C20.2736651,18.5812864 18.7881759,19.1282383 18.2094835,20.3815478 C17.6307911,21.6343698 18.1777944,23.1197195 19.4312216,23.6983575 C20.6846488,24.2769956 22.1696504,23.7300437 22.7483428,22.4767342 C23.0262322,21.8746971 23.0540211,21.1868637 22.8243967,20.56484 C22.59721,19.9418414 22.1296734,19.4363253 21.5270923,19.1599244 L21.5270923,19.1599244 Z" id="Fill-6" fill="#414042"></path>
                </g>
                <g id="Group-13" transform="translate(46.731394, 64.690623)">
                    <g id="Group-3" transform="translate(65.770693, 18.309377)">
                        <mask id="mask-4" fill="white">
                            <use xlink:href="#path-3"></use>
                        </mask>
                        <g id="Clip-2"></g>
                        <path d="M0.8431185,2 L34.1564365,2 C34.6222532,2 35.0000494,1.55262386 35.0000494,1.00029317 C35.0000494,0.447376136 34.6222532,0 34.1564365,0 L0.8431185,0 C0.37730171,0 0,0.447376136 0,1.00029317 C0,1.55262386 0.37730171,2 0.8431185,2" id="Fill-1" fill="#414042" mask="url(#mask-4)"></path>
                    </g>
                    <path d="M66.6344043,31.309377 L89.9069823,31.309377 C90.3841763,31.309377 90.7706933,30.8620009 90.7706933,30.3096702 C90.7706933,29.7567532 90.3841763,29.309377 89.9069823,29.309377 L66.6344043,29.309377 C66.1572103,29.309377 65.7706933,29.7567532 65.7706933,30.3096702 C65.7706933,30.8620009 66.1572103,31.309377 66.6344043,31.309377" id="Fill-4" fill="#414042"></path>
                    <path d="M63.613159,42.309377 L89.9277336,42.309377 C90.3931897,42.309377 90.7706933,41.8608282 90.7706933,41.3096702 C90.7706933,40.7567532 90.3931897,40.309377 89.9277336,40.309377 L63.613159,40.309377 C63.148197,40.309377 62.7706933,40.7567532 62.7706933,41.3096702 C62.7706933,41.8608282 63.148197,42.309377 63.613159,42.309377" id="Fill-6" fill="#414042"></path>
                    <g id="Group-10" transform="translate(-0.229307, 0.309377)">
                        <mask id="mask-6" fill="white">
                            <use xlink:href="#path-5"></use>
                        </mask>
                        <g id="Clip-9"></g>
                        <path d="M33.9270224,14.623953 L36.3539568,15.7051116 C34.8126856,16.3714644 33.3760747,17.2839387 32.1300246,18.4435208 L30.3794328,17.6637252 C30.7630227,17.2163662 31.159942,16.7783786 31.5973431,16.3754103 C32.3220664,15.7085643 33.103563,15.1290198 33.9270224,14.623953 M30.6045512,15.3006636 C28.3518861,17.3746929 26.7306386,20.0233342 25.9150781,22.9585418 C25.8681784,23.1282127 25.7338972,23.2608914 25.5655521,23.3250112 C25.4539803,23.3679222 25.3280917,23.3807461 25.2031905,23.3560847 L25.2026968,23.3555914 C24.6813699,23.2520133 24.7899797,22.4865214 24.8042964,22.4002063 C24.9445018,21.5410008 25.3670925,20.5431979 25.7072385,19.7412071 C26.1777162,18.633414 26.4610889,17.9645951 26.2186917,17.4151377 C26.1145251,17.179374 25.9234706,17.0023047 25.6805797,16.9164828 C24.579178,16.5278181 23.4491429,16.1628284 22.4524015,15.8402565 C21.6570819,15.5827908 20.947169,15.3534392 20.409057,15.1620662 C14.3224675,13.0036947 12.3462636,11.4209219 11.038997,10.3733028 C10.0916237,9.6152094 9.34369745,9.01642902 7.71850053,8.72788988 C7.17002125,8.63121693 6.55242668,8.70766747 5.89879341,8.78905031 C4.75345415,8.93011389 3.56911411,9.076603 2.64790589,8.3698054 C1.1550154,7.22452695 1.22857383,4.97096225 2.07276786,3.33640032 C2.62124713,2.27497085 3.69006588,1.16619137 4.89365947,1.53611335 C9.07266673,2.81653663 18.1494804,7.42379159 25.4431193,11.1259708 L28.9280115,12.8917317 C30.3335205,13.6019819 31.6664584,12.8108421 33.0778916,11.9762981 C33.9541748,11.4579141 34.9484478,10.8724509 36.0607105,10.5725675 C36.4166543,10.4778675 36.7765475,10.6741727 36.8797268,11.0204197 C36.9784629,11.3513766 36.7795096,11.6961438 36.4867569,11.8135324 C34.2908651,12.5578154 32.3171296,13.7243028 30.6045512,15.3006636 M30.0575529,23.8157744 C33.0487644,17.1152542 40.9367949,14.0942247 47.6434474,17.0836876 C54.3491126,20.0711775 57.3719196,27.9529818 54.3816955,34.6525155 C52.8863366,38.0025289 50.1661559,40.4321765 46.9824089,41.6514393 C43.7976746,42.8707022 40.1488805,42.8785938 36.795801,41.3846023 C30.0901359,38.3971124 27.0673288,30.5148148 30.0575529,23.8157744 M38.3484269,14.9923953 L35.5611056,13.7504439 C36.0143045,13.5457537 36.4778707,13.3598063 36.9537789,13.2 C38.012724,12.8463546 38.6085966,11.6995964 38.283261,10.6031477 C37.952495,9.49288853 36.8101178,8.85859564 35.6830447,9.15995875 C34.369854,9.50965833 33.2877059,10.1518429 32.3314463,10.7175769 C31.0202303,11.4934266 30.246139,11.9166173 29.5875689,11.5851672 L26.1066262,9.82137925 C18.7631255,6.09453861 9.62312073,1.45522375 5.32365537,0.13682181 C4.63645182,-0.0737871043 3.93591888,-0.0372881356 3.27438672,0.215738499 C2.29739258,0.589113084 1.40531153,1.43845395 0.771425488,2.66610169 C-0.316646812,4.77317729 -0.473143599,7.82034795 1.75582484,9.52988073 C3.15343494,10.6021612 4.77566978,10.4019101 6.07799951,10.2406242 C6.62006094,10.173545 7.13151416,10.1104116 7.46376128,10.1691059 C8.72067238,10.3915523 9.21879623,10.7905748 10.1227256,11.5151287 C11.5075,12.6239082 13.5997189,14.2994081 19.9198194,16.5411353 C20.4673114,16.7354677 21.1900599,16.9692584 22.001671,17.2321496 C22.8591944,17.5093445 23.8164413,17.8195857 24.7687514,18.1480764 C24.6714963,18.4341494 24.4982144,18.844023 24.3589964,19.1700475 C23.9882422,20.0445431 23.5261571,21.1321137 23.359293,22.1654291 C23.1445419,23.4862972 23.7848458,24.5659761 24.9173493,24.7903955 C25.9841934,25.0049502 27.0426448,24.3716438 27.3270049,23.3501659 C27.7757607,21.7323738 28.5226996,20.2304905 29.4740223,18.8622724 L31.0523196,19.5651242 C30.1217314,20.6369115 29.3283865,21.8581473 28.7206656,23.2199534 C25.4011564,30.6563716 28.7562106,39.4042866 36.1994347,42.7207605 C43.6421652,46.0357546 52.3995675,42.6847547 55.7190766,35.2483365 C59.038092,27.8119182 55.6835316,19.0640032 48.2398137,15.7475294 C45.0057114,14.3063133 41.5247686,14.1277643 38.3484269,14.9923953" id="Fill-8" fill="#414042" mask="url(#mask-6)"></path>
                    </g>
                    <path d="M43.3715219,26.3707554 C41.748403,26.0389755 40.1638524,27.0854297 39.8320725,28.7085488 C39.5002927,30.3312033 40.5467467,31.9162189 42.1694009,32.2479987 C43.7925198,32.5797786 45.3770705,31.5333244 45.709315,29.9102053 C46.0410948,28.2875508 44.9946408,26.7025352 43.3715219,26.3707554" id="Fill-11" fill="#414042"></path>
                </g>
                <g id="Group-12" transform="translate(0.000000, 68.072352)">
                    <path d="M19.9230181,7.2645058 C18.7108333,7.33448454 17.9068782,7.99554585 17.9436556,8.5458641 C17.9855819,9.16480228 18.983722,9.65261526 20.07969,9.59010997 C21.1763936,9.52692528 22.1009787,8.92768985 22.0590524,8.30875167 C22.0237461,7.75843342 21.1359384,7.19452706 19.9230181,7.2645058 M20.169427,10.9190266 C18.2091888,11.0318079 16.6005431,10.0256087 16.5063928,8.62875154 C16.4122425,7.23189435 17.8730429,6.0490498 19.8332811,5.93626853 C21.7935192,5.82348726 23.4036361,6.82968644 23.4977863,8.22654363 C23.5919366,9.62340083 22.1296652,10.8062454 20.169427,10.9190266" id="Fill-3" fill="#414042"></path>
                    <g id="Group-9" transform="translate(0.502088, -0.072352)">
                        <mask id="mask-8" fill="white">
                            <use xlink:href="#path-7"></use>
                        </mask>
                        <g id="Clip-8"></g>
                        <path d="M42.5588794,23.1205231 C42.5829216,23.5888016 42.6013069,23.9263316 42.6097924,24.0890566 C41.1382654,24.4351138 36.9492573,25.4171485 31.7893666,26.6279931 C19.9506809,29.404977 3.91167312,33.1682593 2.19618803,33.5732953 L1.91899505,29.1086612 C3.31061693,29.0056257 4.36635445,27.7542775 4.27654959,26.3053854 C4.18674472,24.8557828 2.98463233,23.7451313 1.59088908,23.8161903 L1.36955898,20.2419248 C1.33844548,19.7445122 1.46289947,19.6770062 1.82494743,19.5284929 L22.7940303,14.6232933 C22.7947374,14.6339522 22.7954445,14.644611 22.7961517,14.6559804 C22.9156558,16.5859416 24.6127556,18.0554408 26.5778558,17.9325088 C28.542956,17.8095768 30.0356968,16.1389808 29.9246781,14.2090196 C29.884372,13.5069571 29.5944508,13.0564434 29.5902081,13.0493375 L40.7352042,10.4663445 L41.7739707,10.2354029 C41.8248837,10.4109185 41.8680183,10.60562 41.8793323,10.7868204 C42.0511637,13.5588302 42.4188686,20.5062642 42.5588794,23.1205231 M5.22763263,15.5221891 C5.45744823,15.307591 5.62432972,15.1533931 5.68089971,15.0972565 C5.71413458,15.0645694 5.84000282,15.0581741 5.86758069,15.06528 C6.35691115,15.1953179 6.90210448,15.2464803 7.44305505,15.2130826 C8.07381049,15.1732896 8.68547356,15.0212235 9.21298877,14.7718065 C10.2708477,14.2701303 10.8697825,13.4387405 10.8146267,12.5490824 C10.7806848,12.0033497 10.4957134,11.505937 10.0169898,11.1200869 C9.97314807,11.0845574 9.89324296,11.0042608 9.99224045,10.9076206 C12.2564545,8.71474124 19.4090232,1.80781086 19.582976,1.63655878 C19.6897518,1.53281271 19.8997679,1.46104316 20.1423118,1.44612078 C24.6565974,1.16330614 33.370498,1.75806959 41.0109829,8.9215228 C41.0244183,8.93431341 41.0378536,8.94710402 41.051289,8.96060523 L40.4276048,9.10840785 L28.435473,11.886813 C27.7835038,11.5066476 26.9780885,11.3197625 26.1747946,11.3702144 C26.0008419,11.3808732 25.8254749,11.4021909 25.6543507,11.434878 C24.7456951,11.6075513 23.5329758,11.9720837 23.0273815,13.1395823 L2.80148697,17.8252098 C3.5368969,17.0968555 4.74254492,15.9755452 5.22763263,15.5221891 M24.2273725,13.9006237 C24.3334413,13.4764018 24.6099271,13.0507586 25.9117441,12.8034735 C26.0255912,12.7821558 26.1436811,12.767944 26.2610639,12.7601275 C26.867777,12.7224663 27.4652976,12.8816383 27.9023008,13.1971401 L27.9023008,13.1971401 C28.1759582,13.3939734 28.509014,13.7450046 28.5436631,14.2957115 C28.6157899,15.4596572 27.6951132,16.4672732 26.4930008,16.5425957 C25.2894742,16.6179182 24.252829,15.7332342 24.1807023,14.5692885 C24.1545387,14.1763325 24.1821165,14.11309 24.2273725,13.9006237 M42.8346581,9.1183561 C42.7710169,8.97908055 42.4839241,8.39923948 41.9549947,7.90395857 C38.1690478,4.35456379 33.6993111,1.95916644 28.6723599,0.786693686 C25.8268891,0.122292461 22.928384,-0.122860932 20.0560425,0.0569182226 C19.475493,0.0931582894 18.9642416,0.299939847 18.6163362,0.641022829 C18.4586473,0.79593135 10.1810428,8.79716963 8.54687708,10.3732572 C8.32483985,10.5892765 8.17775786,10.811691 8.11270237,11.0355267 C8.00734075,11.3915321 8.20109298,11.7681445 8.5504127,11.8896553 C9.06873528,12.0708557 9.35512088,12.3998586 9.37209188,12.672725 C9.39047713,12.9640667 9.1316694,13.271752 8.62183232,13.5133524 C8.2527131,13.6888681 7.81429564,13.7961671 7.35607868,13.8245907 C6.96150297,13.8494613 6.56904863,13.8139318 6.22255741,13.7215552 C6.21265766,13.7194234 5.90222982,13.6199409 5.66180734,13.6355738 C5.33016574,13.6561809 5.01266665,13.8110895 4.71850267,14.0960359 C4.66405405,14.1493301 4.50565807,14.2957115 4.28503509,14.5010719 C2.60137061,16.0700536 1.41905772,17.1949169 1.1234795,17.5878729 C0.758603031,18.0703632 0.554951049,18.4505286 0.48494568,18.5869618 C0.343520693,18.806534 -0.0630761452,19.5476789 0.00834347331,20.6974127 L0.230380703,24.2780735 C0.274929574,25.000743 0.774866904,25.2956377 1.25076199,25.2657929 C1.34693098,25.2593976 1.42471472,25.2430541 1.47774909,25.2316846 L1.50320559,25.2267105 C1.54704733,25.2160517 1.59513183,25.2103669 1.64675195,25.206814 C2.29164989,25.167021 2.84957147,25.6978314 2.89270609,26.3913668 C2.93584071,27.0841916 2.44651025,27.6803762 1.80302656,27.7208798 C1.75777057,27.7237222 1.71180744,27.7237222 1.67150132,27.7208798 C1.62695245,27.7173269 1.58169646,27.7166163 1.53573334,27.7194586 C1.00114688,27.7535669 0.472924556,28.1848948 0.513937803,28.849296 L0.8229514,33.8291075 C0.866793146,34.5382759 1.42754322,35.0413733 2.12688978,34.9973168 C2.2096234,34.9923426 2.29447839,34.9788414 2.37791913,34.9596555 C2.88846334,34.8367235 20.4697106,30.713883 32.1040372,27.9845085 C37.4046457,26.7409768 41.6820445,25.7376244 43.0305317,25.4207015 C43.5014769,25.3155342 44.0516201,25.0021642 43.9964644,24.1089532 C43.9936359,24.0698707 43.9738364,23.6783359 43.9398944,23.0466218 C43.802005,20.4295205 43.4335929,13.4785336 43.2610544,10.7001284 C43.2165056,9.96111531 42.9004207,9.25763166 42.8346581,9.1183561" id="Fill-7" fill="#414042" mask="url(#mask-8)"></path>
                    </g>
                    <path d="M19.9230181,7.2645058 C21.1359384,7.19452706 22.022275,7.75843342 22.0590524,8.30875167 C22.1009787,8.92768985 21.1763936,9.52692528 20.07969,9.59010997 C18.983722,9.65261526 17.9863175,9.16480228 17.9443912,8.5458641 C17.9068782,7.99554585 18.7108333,7.33448454 19.9230181,7.2645058 M20.169427,10.9190266 C22.1296652,10.8062454 23.5919366,9.62340083 23.4977863,8.22654363 C23.4036361,6.82968644 21.7935192,5.82348726 19.8332811,5.93626853 C17.8730429,6.0490498 16.4122425,7.23189435 16.5063928,8.62875154 C16.6005431,10.0256087 18.2099244,11.0318079 20.169427,10.9190266" id="Fill-10" fill="#414042"></path>
                </g>
                <g id="Group-3" transform="translate(283.856924, 82.410617) rotate(-270.000000) translate(-283.856924, -82.410617) translate(266.186970, 76.686548)">
                    <mask id="mask-10" fill="white">
                        <use xlink:href="#path-9"></use>
                    </mask>
                    <g id="Clip-2"></g>
                    <path d="M14.7001853,7.54605499 C14.7001853,7.61187121 14.7032648,7.6770891 14.7106555,7.742307 C14.8147415,8.56141979 15.1725755,9.33087126 15.7361178,9.94774876 C16.3390773,10.5526597 17.131116,10.9451637 17.9890554,11.0648295 C19.0145176,11.1886837 19.9500595,10.4814585 20.0781653,9.48464189 C20.0874037,9.41044905 20.0923308,9.33505956 20.0923308,9.25967007 C20.0923308,9.19445218 20.0886355,9.12863596 20.0812448,9.06341807 C19.9777747,8.24430527 19.6199407,7.47545213 19.0563984,6.85797631 C18.9387628,6.73711379 18.8125046,6.62462788 18.677624,6.52171524 L21.5643157,6.52171524 C21.3524485,6.82327321 21.2385082,7.18047579 21.2378923,7.54605499 C21.2378923,7.61187121 21.2422036,7.6770891 21.2495943,7.742307 C21.3530643,8.56141979 21.7102824,9.33087126 22.2738248,9.94774876 C22.8767843,10.5526597 23.6694389,10.9451637 24.5273782,11.0648295 C25.5534564,11.1886837 26.4889982,10.4814585 26.6164881,9.48464189 C26.6263424,9.41044905 26.6306537,9.33505956 26.6306537,9.25967007 C26.6306537,9.19445218 26.6269583,9.12863596 26.6195676,9.06341807 C26.5154817,8.24430527 26.1582636,7.47545213 25.5947212,6.85797631 C25.4770856,6.73651546 25.3502116,6.62402955 25.2159469,6.52171524 L27.8987779,6.52171524 C27.8187118,6.72395054 27.7762152,6.93934909 27.7743675,7.15654262 C27.7743675,7.22176051 27.7780628,7.28757674 27.7848377,7.35279463 C27.8870759,8.1713091 28.2418305,8.94016223 28.8029092,9.55883472 C29.4058687,10.1631473 30.1985234,10.5556513 31.0558468,10.6753172 C32.0819249,10.7997697 33.0174668,10.0925444 33.1449567,9.09572785 C33.154811,9.02093669 33.1597382,8.94614553 33.1597382,8.87075604 C33.1591223,8.80493981 33.1560428,8.73972192 33.1486521,8.67450403 C33.108619,8.36516779 33.0322482,8.06121651 32.9220034,7.76863348 C33.5348171,7.63700104 34.1082138,7.36894952 34.597233,6.9866171 C35.3861923,6.33742982 35.4841193,5.18983425 34.8152592,4.42337443 C34.7487428,4.34678828 34.6760674,4.27618542 34.597233,4.21096753 C34.1045184,3.82444681 33.5255787,3.5546003 32.906606,3.42296785 C33.0242416,3.11901658 33.1055395,2.80250038 33.1486521,2.48059922 C33.1560428,2.41538133 33.1591223,2.34956511 33.1597382,2.28374889 C33.1597382,1.27975234 32.3215074,0.465426177 31.2874226,0.465426177 C31.2098201,0.465426177 31.1328334,0.470212811 31.0558468,0.479187751 C30.1985234,0.598853609 29.4058687,0.991357623 28.8029092,1.5956702 C28.2393669,2.21374436 27.8821488,2.9825975 27.7780628,3.8017103 C27.7706721,3.86752652 27.7675927,3.93274441 27.7675927,3.99856063 C27.7669768,4.23908901 27.8168641,4.47782239 27.9129435,4.69980256 L25.1149404,4.69980256 C25.2855428,4.5801367 25.4444433,4.44491428 25.5891782,4.29652862 C26.1539523,3.68084778 26.5130181,2.91259297 26.6189517,2.0940785 C26.6263424,2.02886061 26.6300378,1.96364272 26.6300378,1.8978265 C26.6300378,0.893231619 25.792423,0.0789054562 24.7583382,0.0789054562 C24.6807356,0.0789054562 24.603749,0.0836920905 24.5267623,0.0932653591 C23.6694389,0.212332888 22.8767843,0.604836902 22.2738248,1.20914948 C21.7102824,1.82662531 21.3524485,2.59607678 21.2489784,3.41518957 C21.1966275,3.8753048 21.3308922,4.33721501 21.6234415,4.7027942 L18.5877036,4.7027942 C18.758306,4.58253002 18.9172065,4.44790593 19.0619414,4.29952026 C19.6260996,3.68264277 19.9833177,2.9131913 20.0867878,2.0940785 C20.0941785,2.02886061 20.0978739,1.96364272 20.0978739,1.8978265 C20.0978739,0.893231619 19.2596432,0.0789054562 18.2261743,0.0789054562 C18.1485717,0.0789054562 18.0709692,0.0836920905 17.9945984,0.0932653591 C17.137275,0.212332888 16.3446203,0.604836902 15.7416608,1.20914948 C15.1781185,1.82662531 14.8202845,2.59607678 14.7161986,3.41518957 C14.6656953,3.8753048 14.7999601,4.33661668 15.0906617,4.7027942 L12.0555397,4.7027942 C12.2261421,4.58312835 12.3850426,4.44790593 12.5297775,4.29952026 C13.0933198,3.68264277 13.4511538,2.9131913 13.5552398,2.0940785 C13.5620146,2.02886061 13.56571,1.96364272 13.56571,1.8978265 C13.56571,0.893231619 12.7274792,0.0789054562 11.6933944,0.0789054562 C11.6164078,0.0789054562 11.5394211,0.0836920905 11.4624345,0.0932653591 C10.6051111,0.212332888 9.81245643,0.604836902 9.20949692,1.20914948 C8.64595459,1.82662531 8.28812061,2.59607678 8.18465054,3.41518957 C8.13229961,3.8753048 8.26718024,4.33721501 8.55911364,4.7027942 L1.19549382,4.7027942 C0.678759372,4.7027942 0.259336061,5.10965812 0.259336061,5.61225472 C0.259336061,6.114253 0.678759372,6.52171524 1.19549382,6.52171524 L8.49506074,6.52171524 C8.28257757,6.82327321 8.16863731,7.18047579 8.16863731,7.54605499 C8.16863731,7.61187121 8.17233267,7.6770891 8.17972339,7.742307 C8.28319346,8.56141979 8.64041155,9.33087126 9.20456978,9.94774876 C9.80629749,10.5520613 10.5983362,10.9451637 11.4550438,11.0648295 C12.4811219,11.1886837 13.4166638,10.4808602 13.5441537,9.48404356 C13.5533921,9.40985072 13.5583192,9.33505956 13.5583192,9.25967007 C13.5583192,9.19445218 13.5546239,9.12863596 13.5478491,9.06341807 C13.4437631,8.24430527 13.0859291,7.47545213 12.5223868,6.85797631 C12.4047512,6.73711379 12.278493,6.62462788 12.1436124,6.52171524 L15.0284565,6.52171524 C14.8153574,6.82327321 14.7014171,7.18047579 14.7001853,7.54605499" id="Fill-1" fill="#414042" mask="url(#mask-10)"></path>
                </g>
                <g id="Group-3" transform="translate(39.997996, 75.108529)">
                    <mask id="mask-12" fill="white">
                        <use xlink:href="#path-11"></use>
                    </mask>
                    <g id="Clip-2"></g>
                    <path d="M2.43248544,6.45565665 C4.50504951,3.35920891 7.99471842,1.52276699 12.015319,1.4066265 L12.1379159,1.4663559 C12.2827154,1.54125466 12.4265497,1.6080947 12.5742452,1.67825304 L12.7465566,1.77021735 C12.8054418,1.80814078 12.8599829,1.84321994 12.9145241,1.87877316 C12.950724,1.90200126 12.9917505,1.92854765 13.0322944,1.95462001 C13.8851637,2.50545777 14.4542259,2.95579846 14.8196034,3.29331695 C14.3572102,3.29473908 13.9450142,3.34783188 13.561778,3.4255749 C13.5091675,3.43647789 13.4502824,3.43647789 13.4020159,3.45022513 C13.3691947,3.46065407 13.3358908,3.47155706 13.3030695,3.481986 C12.097372,3.78821766 11.3082145,4.41442824 10.8120348,4.98090942 C10.641654,5.17716315 10.5620143,5.43219819 10.6001448,5.68628515 C10.6739926,6.16791266 11.1730683,6.52865925 11.6706961,6.43527281 C13.4271145,6.10154666 14.9204804,6.75288151 15.6126222,7.13590811 C15.3862522,7.47437469 15.1820849,7.80857488 15.0083254,8.13661252 C13.770772,10.4319279 13.7036816,12.4048941 13.7437428,13.2283065 C13.7562921,13.5108361 13.9102623,13.775826 14.1506295,13.931312 C14.409338,14.0981751 14.7361023,14.1242475 15.0199094,14.0009963 C16.5528539,13.3316479 18.4424879,10.6537799 19.2668799,9.39282601 C20.2066289,9.91048078 21.0242637,11.2610288 21.6256644,13.167629 C21.7810826,13.6634778 22.3892406,13.9289418 22.8637005,13.7246294 C23.1402676,13.6032744 23.332851,13.3638828 23.3835308,13.0647618 C23.4269707,12.8059344 23.4568959,12.5570619 23.4810292,12.3176703 C23.4824772,12.3058192 23.4853732,12.3010788 23.4839252,12.2939681 C23.5095064,12.0616871 23.5167464,11.8365168 23.521573,11.6165609 C23.5191597,11.5321813 23.5157811,11.4596527 23.5138504,11.3752731 C23.5114371,11.2335343 23.5133677,11.0946398 23.5051624,10.9614337 C23.4993704,10.8239613 23.4834425,10.6921774 23.4675145,10.5608675 C23.4612399,10.4930794 23.4578612,10.4205509 23.4482079,10.3570291 C23.4260053,10.1768928 23.3946321,10.0095557 23.3637415,9.84269265 C23.3574669,9.83273776 23.3589149,9.82088668 23.3560189,9.80619136 C23.2561072,9.27573743 23.1146863,8.82729292 22.9780921,8.47744931 C23.0461479,8.50209954 23.1142037,8.52674977 23.1832248,8.55898468 C24.155795,9.3970924 25.0752721,10.2845006 25.8866322,11.1785453 C26.9118129,14.5195992 26.4441104,18.0137689 24.595503,20.7760164 C20.9426932,26.2336715 12.9936812,27.4633386 6.87879663,23.5155099 C0.763912076,19.5676813 -1.2352869,11.916156 2.43248544,6.45565665 M25.4942254,8.75571245 C24.8387662,8.230473 24.2204722,7.84412809 23.6393433,7.5962037 C23.6301727,7.59051518 23.6210021,7.58482667 23.6123141,7.57866411 C23.5954208,7.57439773 23.5819062,7.56586496 23.5654956,7.56159857 C23.4959918,7.52936366 23.4202134,7.50613556 23.3478136,7.47864108 C23.2092887,7.43360701 23.0794518,7.39426145 22.9510629,7.36250058 C22.9225856,7.35681207 22.8921777,7.34401291 22.8637005,7.3383244 C22.5321095,7.27053627 22.1879693,7.38667677 21.9727006,7.64977054 C21.7579147,7.9128643 21.7106135,8.26507813 21.8447944,8.56893958 C21.8723063,8.62487663 21.8983702,8.69266476 21.9244341,8.76092692 C21.9384314,8.78889545 21.950498,8.80927929 21.9611167,8.84198825 C21.9688393,8.85952783 21.9794579,8.89223679 21.9886286,8.91688701 C22.1372894,9.30655022 22.2854676,9.8232569 22.3737954,10.4480453 C22.4432991,10.9457903 22.4683977,11.5108494 22.4196485,12.1365859 C22.4042033,12.1010327 22.3892406,12.0659535 22.3781393,12.0332446 C22.3216675,11.8948241 22.2680917,11.7516631 22.2067932,11.6099243 C22.185556,11.5644162 22.162388,11.5113234 22.1411508,11.4653413 C22.081783,11.3311871 22.0219325,11.197033 21.954842,11.064301 C21.9287781,11.0159487 21.9046449,10.9747069 21.8834076,10.9287248 C21.8163171,10.7959928 21.7444,10.6604165 21.6695869,10.5295807 C21.6483497,10.4835986 21.6193898,10.4395126 21.5952565,10.3982708 C21.5204434,10.267435 21.4427343,10.1403916 21.3577853,10.0152442 C21.3244814,9.968314 21.2926255,9.92849441 21.2636656,9.88440842 C21.1801645,9.7668458 21.0932848,9.65307552 21.0039917,9.54451972 C20.9702052,9.49711543 20.9291786,9.45160732 20.8929787,9.40894347 C20.8051337,9.3074983 20.7187366,9.21363782 20.6246169,9.12119947 C20.5763504,9.07711349 20.5304972,9.02828708 20.4822307,8.98420109 C20.3943857,8.90219169 20.3050926,8.8315593 20.2109729,8.75855671 C20.1506398,8.7130486 20.0975466,8.66611836 20.0386615,8.62772089 C20.0159762,8.61302556 19.9961869,8.59406385 19.9735017,8.57936852 C19.8557314,8.50352167 19.7316864,8.43620759 19.6047455,8.37315989 C19.1819308,8.1707436 18.6785111,8.31106028 18.4294559,8.69266476 C17.3564913,10.3546589 15.8814667,12.2669477 14.8094674,12.9083276 C14.8070541,11.9114156 15.0257014,9.85786203 16.5943631,7.59098923 C16.7362666,7.38904698 16.7874291,7.14775918 16.7377146,6.91168585 C16.6875174,6.67513848 16.5509232,6.47177411 16.3467559,6.3399902 C15.6772993,5.93326146 14.0212753,5.10700481 11.9844284,5.31653174 C12.6085144,4.78181143 13.6153539,4.29639158 15.1878769,4.37366056 C15.5672517,4.38882993 15.9123572,4.18404343 16.0697061,3.8517394 C16.2241589,3.52417581 16.1628604,3.13972708 15.9113919,2.87521118 C15.4123162,2.34902364 14.6965238,1.77827608 13.7649801,1.17055317 C13.7152656,1.13831826 13.6679644,1.10181696 13.6139059,1.06673779 C13.5955646,1.05488672 13.577706,1.04350969 13.5593647,1.03165862 C13.5323355,1.01411904 13.5096502,0.999423712 13.486965,0.984728384 C14.5579989,1.06389354 15.870848,1.32461709 16.9689112,2.03331112 C17.5403867,2.40211644 18.0071239,2.86952267 18.3570561,3.41419787 C18.5592928,3.7232738 18.933841,3.88207814 19.2963225,3.81618619 C19.5410337,3.77067808 19.748097,3.63604992 19.8851739,3.43126342 L21.1526526,1.53746232 C21.2868335,1.3369422 21.5059635,1.26204344 21.6058751,1.32603922 L22.6127146,1.97642598 C22.7126263,2.0408958 22.7290369,2.26843636 22.5996826,2.47180073 L21.2578736,4.47652785 C20.9475199,4.94014174 21.1584446,5.58626211 21.6758616,5.79294478 C22.0383431,5.93136529 22.5972693,6.18355607 23.223286,6.58744056 C24.152899,7.18805282 24.9135793,7.91523452 25.4942254,8.75571245 M1.50576838,5.87021376 C-2.47477096,11.8180291 -0.333185768,20.129422 6.28511852,24.40197 C12.9039055,28.6749921 21.5218914,27.3097487 25.5024307,21.3619334 C27.530107,18.3323256 28.0465587,14.4930528 26.9176049,10.8419749 C26.8746477,10.7120872 26.8104533,10.5940505 26.7192295,10.4973458 C26.6801337,10.4589483 26.6434511,10.4162845 26.6086992,10.3812053 C26.6690324,10.3494444 26.7274348,10.311047 26.7843893,10.2645908 C27.1000523,9.99628253 27.1830707,9.57154016 27.0044846,9.20747527 C26.3070335,7.79387956 25.2364823,6.6177793 23.8164814,5.70098047 C23.2223207,5.31747983 22.6769091,5.0548601 22.2767797,4.88562681 L23.5022664,3.05439937 C23.9617636,2.3684594 23.8309614,1.48673974 23.2092887,1.08522546 L22.2024492,0.435312748 C21.5807765,0.0337984728 20.7042567,0.265605415 20.2452421,0.952019429 L19.1302857,2.61827997 C18.7137457,2.03662942 18.1895713,1.53888445 17.5678986,1.13737017 C16.0122689,0.133347467 14.1375975,-0.0946671334 12.841159,-0.108472369 C12.4994321,-0.112206718 12.208385,0.0702997705 12.0476575,0.349036953 C12.0355909,0.347614824 12.0235243,0.346192696 12.0114576,0.344770568 C7.6129303,0.452852332 3.7853958,2.4736969 1.50576838,5.87021376" id="Fill-1" fill="#414042" mask="url(#mask-12)"></path>
                </g>
                <g id="Group-28" transform="translate(340.723160, 79.590629) scale(-1, 1) translate(-340.723160, -79.590629) translate(303.641146, 65.156019)">
                    <g id="Group-3" transform="translate(-0.139058, -0.156019)">
                        <mask id="mask-14" fill="white">
                            <use xlink:href="#path-13"></use>
                        </mask>
                        <g id="Clip-2"></g>
                        <path d="M31.7375205,18.2010076 L31.7375205,22.0436281 C31.7375205,23.4159128 32.345631,24.8127724 33.4059262,25.8784294 C34.4667783,26.9412937 35.9191154,27.551198 37.3915002,27.551198 L67.1354541,27.386993 C68.5721986,27.4607177 69.9521417,26.8876758 71.0425083,25.7940928 C71.7575393,24.9652485 72.6318374,23.5689474 72.5483057,21.8325074 L72.3032795,6.96860345 C72.3032795,5.58403132 71.695169,4.18661323 70.63376,3.12263183 C69.5740217,2.05976746 68.1216845,1.44986316 66.648186,1.44986316 L36.9053459,1.61350965 C35.4557932,1.53755087 34.0869877,2.11115134 32.9971779,3.20473433 C32.053827,4.29999287 31.4924943,5.77057714 31.4924943,7.20206498 L31.593846,10.9564393 L1.87105352,11.1251124 C1.70120581,11.1251124 1.64997306,11.1513629 1.56087262,11.2407262 C1.47177218,11.3300894 1.44559893,11.3814733 1.44559893,11.5479124 L1.52745995,17.8519324 C1.52745995,17.9831847 1.60319533,18.1278415 1.64217677,18.1686135 L1.13151988,18.6818937 L1.64329052,18.1697305 C1.73183408,18.2590938 1.78306684,18.2842272 1.9490164,18.2842272 L31.7375205,18.2010076 Z M37.3953983,29 C35.5387679,29 33.7133227,28.2359441 32.3840555,26.9033143 C31.0547884,25.5673335 30.2918659,23.7973823 30.2918659,22.0436281 L30.2918659,19.6548363 L1.95124391,19.7347047 C1.41051563,19.7347047 0.988402301,19.563239 0.62141987,19.195174 C0.293975759,18.8673225 0.0818053401,18.3439889 0.0818053401,17.8619858 L-5.5687774e-05,11.5574072 C-5.5687774e-05,11.0078231 0.171462656,10.5844647 0.539001965,10.2158412 C0.906541274,9.8472177 1.3286546,9.67519341 1.86715538,9.67519341 L30.1086531,9.51545657 L30.0473965,7.2216132 C30.0468397,5.42652856 30.7373681,3.60966163 31.9407809,2.21782874 C33.3585916,0.793043147 35.123894,0.0664080781 36.9359742,0.164707672 L66.6442879,-5.58520422e-05 C68.5014752,-5.58520422e-05 70.3269204,0.764558605 71.6573013,2.09774685 C72.9860116,3.43149362 73.7478203,5.20256188 73.7478203,6.956316 L73.9928465,21.7855917 C74.0980964,23.9777844 73.0216518,25.7153414 72.1000191,26.7821154 C70.6833221,28.206901 68.9202472,28.9095197 67.1048258,28.835795 L37.3953983,29 Z" id="Fill-1" fill="#414042" mask="url(#mask-14)"></path>
                    </g>
                    <path d="M5.36094191,14.1819869 C4.72035234,14.1819869 4.19932574,14.7030672 4.19932574,15.3437228 C4.19932574,15.9848938 4.72035234,16.5059741 5.36094191,16.5059741 C6.00153148,16.5059741 6.52255807,15.9848938 6.52255807,15.3437228 C6.52255807,14.7030672 6.00153148,14.1819869 5.36094191,14.1819869 M5.36094191,17.8439805 C3.98236017,17.8439805 2.86094191,16.7229621 2.86094191,15.3437228 C2.86094191,13.964999 3.98236017,12.8439805 5.36094191,12.8439805 C6.73952364,12.8439805 7.86094191,13.964999 7.86094191,15.3437228 C7.86094191,16.7229621 6.73952364,17.8439805 5.36094191,17.8439805" id="Fill-4" fill="#414042"></path>
                    <path d="M68.8609419,6.34398054 C68.8609419,7.17252413 68.189649,7.84398054 67.3613071,7.84398054 C66.5329653,7.84398054 65.8609419,7.17252413 65.8609419,6.34398054 C65.8609419,5.51543694 66.5329653,4.84398054 67.3613071,4.84398054 C68.189649,4.84398054 68.8609419,5.51543694 68.8609419,6.34398054" id="Fill-6" fill="#414042"></path>
                    <path d="M67.8609419,9.34398054 C67.8609419,9.62002728 67.6368796,9.84398054 67.3606984,9.84398054 C67.0845172,9.84398054 66.8609419,9.62002728 66.8609419,9.34398054 C66.8609419,9.0679338 67.0845172,8.84398054 67.3606984,8.84398054 C67.6368796,8.84398054 67.8609419,9.0679338 67.8609419,9.34398054" id="Fill-8" fill="#414042"></path>
                    <path d="M69.8609419,12.3439805 C69.8609419,12.6200273 69.6368796,12.8439805 69.3606984,12.8439805 C69.0845172,12.8439805 68.8609419,12.6200273 68.8609419,12.3439805 C68.8609419,12.0679338 69.0845172,11.8439805 69.3606984,11.8439805 C69.6368796,11.8439805 69.8609419,12.0679338 69.8609419,12.3439805" id="Fill-10" fill="#414042"></path>
                    <path d="M69.8609419,5.34398054 C69.8609419,5.62027924 69.6372406,5.84398054 69.3609419,5.84398054 C69.0849679,5.84398054 68.8609419,5.62027924 68.8609419,5.34398054 C68.8609419,5.06800651 69.0849679,4.84398054 69.3609419,4.84398054 C69.6372406,4.84398054 69.8609419,5.06800651 69.8609419,5.34398054" id="Fill-12" fill="#414042"></path>
                    <path d="M67.8609419,4.34398054 C67.8609419,4.62002728 67.6368796,4.84398054 67.3606984,4.84398054 C67.0845172,4.84398054 66.8609419,4.62002728 66.8609419,4.34398054 C66.8609419,4.0679338 67.0845172,3.84398054 67.3606984,3.84398054 C67.6368796,3.84398054 67.8609419,4.0679338 67.8609419,4.34398054" id="Fill-14" fill="#414042"></path>
                    <path d="M65.8609419,9.34398054 C65.8609419,9.62027924 65.6372406,9.84398054 65.3609419,9.84398054 C65.0849679,9.84398054 64.8609419,9.62027924 64.8609419,9.34398054 C64.8609419,9.06800651 65.0849679,8.84398054 65.3609419,8.84398054 C65.6372406,8.84398054 65.8609419,9.06800651 65.8609419,9.34398054" id="Fill-16" fill="#414042"></path>
                    <path d="M66.8609419,11.3439805 C66.8609419,11.6200273 66.6368796,11.8439805 66.3606984,11.8439805 C66.0845172,11.8439805 65.8609419,11.6200273 65.8609419,11.3439805 C65.8609419,11.0679338 66.0845172,10.8439805 66.3606984,10.8439805 C66.6368796,10.8439805 66.8609419,11.0679338 66.8609419,11.3439805" id="Fill-18" fill="#414042"></path>
                    <path d="M37.8609419,23.3439805 C37.8609419,23.6200273 37.6368796,23.8439805 37.3606984,23.8439805 C37.0845172,23.8439805 36.8609419,23.6200273 36.8609419,23.3439805 C36.8609419,23.0679338 37.0845172,22.8439805 37.3606984,22.8439805 C37.6368796,22.8439805 37.8609419,23.0679338 37.8609419,23.3439805" id="Fill-20" fill="#414042"></path>
                    <path d="M35.8609419,19.3439805 C35.8609419,19.6200273 35.6368796,19.8439805 35.3606984,19.8439805 C35.0845172,19.8439805 34.8609419,19.6200273 34.8609419,19.3439805 C34.8609419,19.0679338 35.0845172,18.8439805 35.3606984,18.8439805 C35.6368796,18.8439805 35.8609419,19.0679338 35.8609419,19.3439805" id="Fill-22" fill="#414042"></path>
                    <path d="M36.8609419,23.3439805 C36.8609419,23.6202792 36.6372406,23.8439805 36.3609419,23.8439805 C36.0849679,23.8439805 35.8609419,23.6202792 35.8609419,23.3439805 C35.8609419,23.0680065 36.0849679,22.8439805 36.3609419,22.8439805 C36.6372406,22.8439805 36.8609419,23.0680065 36.8609419,23.3439805" id="Fill-24" fill="#414042"></path>
                    <path d="M37.8609419,25.3439805 C37.8609419,25.6200273 37.6368796,25.8439805 37.3606984,25.8439805 C37.0845172,25.8439805 36.8609419,25.6200273 36.8609419,25.3439805 C36.8609419,25.0679338 37.0845172,24.8439805 37.3606984,24.8439805 C37.6368796,24.8439805 37.8609419,25.0679338 37.8609419,25.3439805" id="Fill-26" fill="#414042"></path>
                </g>
                <g id="Group-20" transform="translate(384.361046, 70.708729)">
                    <g id="Group-3" transform="translate(0.141041, 0.291271)">
                        <mask id="mask-16" fill="white">
                            <use xlink:href="#path-15"></use>
                        </mask>
                        <g id="Clip-2"></g>
                        <path d="M8.90218521,1.0386666 C4.56087769,1.0386666 1.02866209,4.60507181 1.02866209,8.98840044 L1.02866209,25.0119336 C1.02866209,29.3952622 4.56087769,32.9611902 8.90218521,32.9611902 L33.0979093,32.9611902 C37.4392168,32.9611902 40.9714324,29.3952622 40.9714324,25.0119336 L40.9714324,8.98840044 C40.9714324,4.60507181 37.4392168,1.0386666 33.0979093,1.0386666 L8.90218521,1.0386666 Z M33.0979093,34 L8.90218521,34 C3.99328457,34 -0.000189040171,29.9678721 -0.000189040171,25.0119336 L-0.000189040171,8.98840044 C-0.000189040171,4.03198475 3.99328457,-0.00014315247 8.90218521,-0.00014315247 L33.0979093,-0.00014315247 C38.0068099,-0.00014315247 42.0002836,4.03198475 42.0002836,8.98840044 L42.0002836,25.0119336 C42.0002836,29.9678721 38.0068099,34 33.0979093,34 L33.0979093,34 Z" id="Fill-1" fill="#414042" mask="url(#mask-16)"></path>
                    </g>
                    <path d="M12.1410414,8.45090255 C12.1410414,8.80188746 12.0624795,9.11705758 11.9062433,9.39641292 C11.7486756,9.67627989 11.5200915,9.89526173 11.2178279,10.0538701 C10.9151204,10.2119668 10.5564875,10.2912709 10.1428168,10.2912709 C9.64614569,10.2912709 9.23602585,10.1828033 8.91334498,9.96637966 C8.68431701,9.81084116 8.49834276,9.6031154 8.35542221,9.34320238 C8.21250166,9.08328935 8.14104138,8.83053929 8.14104138,8.58546382 C8.14104138,8.44271632 8.18409509,8.32094604 8.26931479,8.21912972 C8.35542221,8.1173134 8.46460996,8.06666106 8.59776575,8.06666106 C8.70517809,8.06666106 8.79616788,8.10656897 8.87073512,8.1853615 C8.94485851,8.26466567 9.00877329,8.38183118 9.06114791,8.53788132 C9.12506269,8.72207165 9.1943037,8.87709851 9.26887094,9.00091535 C9.34343819,9.12473218 9.44818741,9.22757178 9.58311861,9.30738759 C9.71804981,9.38771504 9.89514702,9.42813458 10.1152979,9.42813458 C10.4175616,9.42813458 10.6630121,9.34729549 10.8516495,9.18510568 C11.0407307,9.02240422 11.1352713,8.81979485 11.1352713,8.57727759 C11.1352713,8.38490102 11.0837844,8.22833924 10.9821421,8.10861552 C10.8804999,7.98838017 10.7486756,7.89628501 10.5871133,7.83284167 C10.4259948,7.76990997 10.2102824,7.70288516 9.93997613,7.63176723 C9.57823623,7.53404402 9.27552873,7.41943671 9.03185363,7.2894802 C8.78817853,7.15850041 8.59465878,6.98044975 8.45173823,6.7548166 C8.30881768,6.52969508 8.2373574,6.24880483 8.2373574,5.91368076 C8.2373574,5.59441752 8.31281235,5.31096907 8.46372225,5.06282376 C8.61463215,4.81467846 8.8334515,4.62383681 9.11973645,4.4913221 C9.40557756,4.35778411 9.74201786,4.29127094 10.1290574,4.29127094 C10.4379788,4.29127094 10.7051781,4.3357836 10.9306552,4.42378564 C11.1565762,4.51229933 11.3434382,4.62946485 11.4921288,4.77630547 C11.6403756,4.92212282 11.7495634,5.0761264 11.8179167,5.2367813 C11.8867138,5.39794783 11.9208905,5.55502125 11.9208905,5.70800156 C11.9208905,5.84767922 11.8782806,5.97405426 11.7926171,6.08559173 C11.7069535,6.19815249 11.5995412,6.25392123 11.4708239,6.25392123 C11.3549784,6.25392123 11.2666517,6.220153 11.2054,6.15312819 C11.1441483,6.08559173 11.078902,5.97558918 11.0078856,5.82312051 C10.9160081,5.60413868 10.8063765,5.43273934 10.6781031,5.31045743 C10.5502735,5.18766387 10.343882,5.1262671 10.0602602,5.1262671 C9.79705558,5.1262671 9.58489402,5.19329191 9.42333166,5.32580662 C9.2617693,5.45934461 9.18098812,5.61948787 9.18098812,5.80674804 C9.18098812,5.92340192 9.20850698,6.02317168 9.26354471,6.10759225 C9.31858244,6.19201281 9.39448124,6.26466567 9.49035341,6.3255508 C9.58666943,6.3859243 9.68342931,6.43401844 9.78240845,6.46778667 C9.88049988,6.50206654 10.0429499,6.55220724 10.2697586,6.61820877 C10.5538243,6.6944431 10.8103712,6.77937531 11.0407307,6.87147047 C11.2702025,6.96407728 11.4663854,7.0761264 11.6275039,7.20812947 C11.7890662,7.34013254 11.9146765,7.50692711 12.0056663,7.7085132 C12.0957684,7.91061092 12.1410414,8.15773295 12.1410414,8.45090255" id="Fill-4" fill="#414042"></path>
                    <path d="M14.1410414,9.57497521 L14.1410414,5.00398518 C14.1410414,4.76607267 14.1871885,4.58802202 14.2790475,4.46932159 C14.3704711,4.35062115 14.4897571,4.29127094 14.6364702,4.29127094 C14.7862308,4.29127094 14.9081289,4.35010951 15.0012939,4.46727503 C15.0948942,4.58495218 15.1410414,4.76351448 15.1410414,5.00398518 L15.1410414,9.57497521 C15.1410414,9.81493428 15.0948942,9.99451985 15.0012939,10.1132203 C14.9081289,10.2319207 14.7862308,10.2912709 14.6364702,10.2912709 C14.4923692,10.2912709 14.3739539,10.2308974 14.2807889,10.1111737 C14.1871885,9.99093837 14.1410414,9.81237608 14.1410414,9.57497521" id="Fill-6" fill="#414042"></path>
                    <path d="M18.3893819,4.99579895 L20.250935,8.41508777 L20.250935,4.96407728 C20.250935,4.73997904 20.2905514,4.57164955 20.3693629,4.45960043 C20.4490174,4.34703967 20.5560661,4.29127094 20.6905093,4.29127094 C20.8300099,4.29127094 20.9395874,4.34703967 21.0196632,4.45960043 C21.1001605,4.57164955 21.1410414,4.73997904 21.1410414,4.96407728 L21.1410414,9.52739271 C21.1410414,10.0364743 20.9665603,10.2912709 20.6192839,10.2912709 C20.5320434,10.2912709 20.4540748,10.2759217 20.3845352,10.245735 C20.3145742,10.2155482 20.2492492,10.1669425 20.1885601,10.1009409 C20.1282925,10.0349394 20.0718179,9.95819342 20.0195579,9.86967974 C19.9672978,9.78116605 19.9150378,9.6906058 19.8627778,9.59851064 L18.0467415,6.21861808 L18.0467415,9.61795295 C18.0467415,9.83949299 18.0045963,10.0073108 17.9198845,10.1214065 C17.8351727,10.2344789 17.7264381,10.2912709 17.5936807,10.2912709 C17.4571303,10.2912709 17.3467099,10.2339673 17.2645268,10.11936 C17.1815008,10.004241 17.1410414,9.83744643 17.1410414,9.61795295 L17.1410414,5.14212793 C17.1410414,4.95179792 17.157478,4.80291074 17.1924585,4.6944431 C17.2337608,4.57625431 17.3028789,4.47904274 17.398127,4.40434333 C17.4933752,4.32862064 17.5970523,4.29127094 17.7074727,4.29127094 C17.7947133,4.29127094 17.8693103,4.30866669 17.9312637,4.34294656 C17.9927957,4.37671478 18.0475844,4.42327401 18.0939441,4.4810893 C18.1407253,4.5389046 18.1887708,4.61462729 18.2376592,4.70672246 C18.2865477,4.79881762 18.3371219,4.89551755 18.3893819,4.99579895" id="Fill-8" fill="#414042"></path>
                    <path d="M28.1410414,8.35983067 C28.1410414,8.54453264 28.0970212,8.7445838 28.0094754,8.95947252 C27.9209405,9.17436124 27.7829446,9.38566848 27.5940041,9.59237096 C27.4050635,9.80009672 27.1646837,9.96791458 26.8713807,10.0968478 C26.5775831,10.2262927 26.2358084,10.2912709 25.8455621,10.2912709 C25.5492915,10.2912709 25.2807189,10.2621075 25.0383606,10.2042922 C24.7960023,10.1459652 24.5759014,10.0559166 24.3785525,9.93261143 C24.180709,9.81032952 23.998693,9.64865134 23.832999,9.44808854 C23.685111,9.26594476 23.5594804,9.06231212 23.4546233,8.83667897 C23.3502609,8.61104581 23.2716181,8.37057511 23.218695,8.11424356 C23.1672556,7.85842366 23.1410414,7.58674292 23.1410414,7.29868971 C23.1410414,6.83207421 23.2063297,6.41355285 23.3374011,6.04466055 C23.468967,5.67525661 23.6569183,5.35906321 23.9022443,5.09659199 C24.146581,4.83412077 24.4339487,4.6340696 24.7628635,4.49695014 C25.0917783,4.35983067 25.442456,4.29127094 25.815391,4.29127094 C26.2689472,4.29127094 26.6740318,4.38490102 27.0281717,4.57216119 C27.3828061,4.75942136 27.6543464,4.99119419 27.8432869,5.2664564 C28.0322275,5.5427419 28.1262031,5.80265492 28.1262031,6.04875367 C28.1262031,6.18331494 28.0806991,6.30201537 27.9882073,6.40485497 C27.8967047,6.50718293 27.7859123,6.55937019 27.6553356,6.55937019 C27.5104152,6.55937019 27.4011067,6.52355541 27.3279046,6.45192583 C27.2561863,6.3808079 27.1740812,6.25801435 27.0855463,6.08405681 C26.9376583,5.79651524 26.763556,5.58111489 26.5627448,5.43887902 C26.3634175,5.29613151 26.1161131,5.22552522 25.8228101,5.22552522 C25.3558994,5.22552522 24.9839536,5.40869227 24.7074673,5.77502637 C24.430981,6.14238375 24.2924906,6.66323307 24.2924906,7.33859762 C24.2924906,7.78986393 24.3538221,8.1648959 24.4754958,8.46471683 C24.5981588,8.76402612 24.7717665,8.98761271 24.9963189,9.13547661 C25.2203766,9.28334052 25.4835085,9.35752829 25.7842306,9.35752829 C26.111167,9.35752829 26.3866641,9.27310772 26.6127003,9.10580151 C26.8382419,8.93849529 27.0088819,8.69239654 27.1236312,8.36801691 C27.1725974,8.2150366 27.2319505,8.08968485 27.3036687,7.99400821 C27.3748924,7.89781992 27.4896416,7.84921414 27.6474218,7.84921414 C27.7829446,7.84921414 27.8986831,7.89833156 27.996121,7.99554313 C28.0935589,8.09326633 28.1410414,8.2150366 28.1410414,8.35983067" id="Fill-10" fill="#414042"></path>
                    <path d="M16.7635653,21.9305905 C16.1083993,21.9305905 15.5015919,22.1106426 15.5015919,23.4181196 C15.5015919,23.7800897 15.6141187,24.0520337 15.8559116,24.2726676 C16.362747,24.7391239 17.1867031,24.7339928 17.6391349,24.2712682 C17.8683733,24.0357078 17.9799701,23.7203833 17.9799701,23.307103 C17.9799701,22.8742316 17.8660484,22.5421147 17.6316952,22.2911612 C17.4052467,22.0486039 17.1216049,21.9305905 16.7635653,21.9305905 L16.7635653,21.9305905 Z M16.7635653,25.6328541 C16.1483882,25.6328541 15.6136537,25.4276134 15.1733114,25.0222628 C14.7199496,24.6085161 14.4893163,24.0678932 14.4893163,23.4181196 C14.4893163,21.8037143 15.2969979,20.9151151 16.7635653,20.9151151 C17.4075717,20.9151151 17.947886,21.1446116 18.3700937,21.5970742 C18.7830018,22.0388083 18.9922457,22.6139489 18.9922457,23.307103 C18.9922457,23.9895286 18.7802118,24.5525413 18.3631189,24.9812147 C17.9409112,25.4136197 17.4033868,25.6328541 16.7635653,25.6328541 L16.7635653,25.6328541 Z M17.3382887,13.3067463 C15.0993786,13.3067463 13.359864,14.0684695 12.0202379,15.6343633 C10.7819788,17.0971702 10.153317,18.9331422 10.153317,21.0900362 C10.153317,23.3444195 10.8294074,25.1384105 12.1625238,26.4211653 C13.4491414,27.6698688 15.0696195,28.2757956 17.1169551,28.2757956 C18.8611195,28.2757956 20.3244321,27.8168026 21.465044,26.910478 C22.5847315,26.0218787 23.1287657,24.8939874 23.1287657,23.462433 C23.1287657,22.04254 22.6544795,20.9598949 21.6784728,20.1515261 C20.7777939,19.4210555 19.6130027,19.0488234 18.2208331,19.0488234 C16.7714701,19.0488234 15.7373401,19.3370934 15.1458772,19.9047707 L14.3935291,20.6282445 L14.292162,19.5880469 C14.1917249,18.5590443 14.4037588,17.686771 14.9222187,16.9940834 C15.4616031,16.2715426 16.2297608,15.9049079 17.2048375,15.9049079 C18.1245809,15.9049079 18.8601895,16.2608141 19.393994,16.9628308 L22.3489834,15.7472457 C21.3794865,14.1034537 19.7380841,13.3067463 17.3382887,13.3067463 L17.3382887,13.3067463 Z M17.1169551,29.2912709 C14.8259665,29.2912709 12.9227767,28.5715289 11.4603941,27.1521023 C9.92175374,25.6720365 9.14104138,23.6317566 9.14104138,21.0900362 C9.14104138,18.6859204 9.8506108,16.6283816 11.2506852,14.9752605 C12.773981,13.1938639 14.8213167,12.2912709 17.3382887,12.2912709 C20.22446,12.2912709 22.255986,13.3743825 23.3766035,15.5112188 C23.5156345,15.7691691 23.4914552,15.9865378 23.4458865,16.1232095 C23.4007828,16.2575489 23.291976,16.4431985 23.0292586,16.5640107 L23.0111241,16.5719404 L19.5623192,17.9904341 C19.3107615,18.1005177 18.9322624,18.071131 18.6449008,17.655052 C18.2970909,17.1540779 17.8395441,16.9203833 17.2048375,16.9203833 C16.5566463,16.9203833 16.0749203,17.1438159 15.7317603,17.6032753 C15.5220513,17.8836156 15.3862753,18.2045375 15.3225721,18.5735044 C16.0684105,18.2143331 17.0383724,18.033348 18.2208331,18.033348 C19.8506108,18.033348 21.2292958,18.4811461 22.3192242,19.3655472 C23.5295841,20.3674954 24.1410414,21.7449408 24.1410414,23.462433 C24.1410414,25.1999827 23.4519314,26.6278054 22.0927758,27.7076518 C20.7689592,28.7576449 19.0945427,29.2912709 17.1169551,29.2912709 L17.1169551,29.2912709 Z" id="Fill-14" fill="#414042"></path>
                    <path d="M6.29349646,13.3547785 L6.86525347,16.4348958 L8.78193355,13.3547785 L6.29349646,13.3547785 Z M6.92831144,18.2912709 L6.5160817,18.2404649 C6.29584937,18.1916129 6.12173406,18.0123261 6.07279355,17.7832104 L5.14104138,12.8032397 L5.46621348,12.3264444 L5.78244451,12.2912709 L9.51462957,12.2912709 C9.7532146,12.2912709 9.96779994,12.4290335 10.074622,12.650333 C10.1814441,12.872121 10.157915,13.132502 10.0148581,13.3303525 L6.92831144,18.2912709 Z" id="Fill-18" fill="#414042"></path>
                </g>
                <g id="Group-26" transform="translate(333.815826, 108.290555)">
                    <polygon id="Fill-1" fill="#414042" points="14.6588355 19.7094449 13.6862616 19.7532891 13.7136878 20.7094449 14.6862616 20.665158"></polygon>
                    <polygon id="Fill-2" fill="#414042" points="13.3859305 21.7094449 13.6862616 21.0419841 12.9865928 20.7094449 12.6862616 21.3769058"></polygon>
                    <polygon id="Fill-3" fill="#414042" points="11.6862616 23.1151053 12.1604182 23.7094449 12.6862616 23.3037846 12.212105 22.7094449"></polygon>
                    <polygon id="Fill-4" fill="#414042" points="11.4340814 22.7094449 10.6862616 22.9392936 10.9384419 23.7094449 11.6862616 23.4795963"></polygon>
                    <polygon id="Fill-5" fill="#414042" points="9.48392113 23.7094449 8.68626164 23.8577415 8.88860214 24.7094449 9.68626164 24.5611484"></polygon>
                    <polygon id="Fill-6" fill="#414042" points="6.81259034 23.7094449 6.68626164 24.5810499 7.55993294 24.7094449 7.68626164 23.8374285"></polygon>
                    <polygon id="Fill-7" fill="#414042" points="6.07367003 23.7094449 5.68626164 24.3344036 6.29885324 24.7094449 6.68626164 24.0844863"></polygon>
                    <polygon id="Fill-8" fill="#414042" points="4.34898174 22.7094449 3.68626164 23.1235544 4.02354154 23.7094449 4.68626164 23.2953355"></polygon>
                    <polygon id="Fill-9" fill="#414042" points="4.49996687 21.7094449 3.68626164 21.9359438 3.8725564 22.7094449 4.68626164 22.4833162"></polygon>
                    <g id="Group-25" transform="translate(-0.313738, -0.290555)">
                        <path d="M16.2222925,23.98119 L16.6913613,23.9758134 C16.8213869,23.9740494 16.9234549,24.0856222 16.9123605,24.2163855 C16.8293749,25.2169704 16.1894532,29.0394545 11.299511,30.7094762 C11.1042506,30.7759736 10.8912393,30.6626156 10.830886,30.4644623 L10.7563321,30.2181096 C10.703523,30.0436097 10.8020408,29.8610766 10.9742249,29.8026125 C15.2943617,28.3374385 15.8770366,25.1424397 15.9551407,24.2275428 C15.9666788,24.0887462 16.0833913,23.9829752 16.2222925,23.98119" id="Fill-10" fill="#414042"></path>
                        <path d="M3.20867369,24.7674659 C6.70072878,27.2693743 9.74457245,26.3335017 10.6804911,25.9412117 C10.8504565,25.8702514 11.0452731,25.9425506 11.1331403,26.1054469 L11.2520716,26.3254685 C11.3501456,26.507109 11.2742603,26.7347175 11.0843252,26.8154962 C10.5970617,27.022129 9.62785997,27.354616 8.35245442,27.4010303 C6.79969031,27.4568167 4.79294573,27.0881801 2.65040641,25.5507069 C2.47023429,25.4212825 2.43561994,25.1637724 2.57008337,24.9865948 L2.68013924,24.8419965 C2.80617097,24.6764225 3.03959592,24.6465209 3.20867369,24.7674659" id="Fill-12" fill="#414042"></path>
                        <path d="M18.2374688,2.62414764 L18.2627639,2.30281798 C18.2751895,2.14616977 18.4127594,2.03102664 18.5676364,2.04977087 C19.5337317,2.16714545 22.7005007,2.68930616 24.6637554,4.63736726 C24.8062068,4.77884157 24.7928936,5.01537591 24.6437856,5.14970956 L24.4471939,5.32733346 C24.3105116,5.45006354 24.1068194,5.43801368 23.9759062,5.30903552 C22.3046545,3.66489873 19.5266313,3.15434159 18.556542,3.02179311 C18.3617254,2.99501563 18.2219367,2.82140836 18.2374688,2.62414764" id="Fill-14" fill="#414042"></path>
                        <path d="M27.2275247,17.1071451 L27.1538583,17.4525745 C27.1170251,17.6239503 26.9417345,17.7252585 26.7762069,17.6703646 C25.8820029,17.3713495 24.8000827,16.6327376 24.3314577,16.2948951 C24.2023195,16.2016203 24.1761369,16.0195335 24.2724358,15.8927868 L24.4752404,15.6245658 C24.5870713,15.4768434 24.7934261,15.4433715 24.9438654,15.5509277 C25.4599741,15.9195642 26.3506279,16.5006354 27.0220575,16.7371697 C27.1742719,16.7907247 27.2612515,16.9482655 27.2275247,17.1071451" id="Fill-16" fill="#414042"></path>
                        <path d="M21.0639521,14.8980037 C21.0599581,15.9490195 21.1819959,19.5831687 22.9056128,23.1838462 C22.9850483,23.3503128 22.9211449,23.5498049 22.7578362,23.6332614 L22.491572,23.7684876 C22.3300384,23.8510515 22.1294527,23.7841078 22.050461,23.6198727 C20.2065813,19.7826609 20.0920877,16.0012355 20.1036258,14.8756891 C20.1054009,14.6944949 20.2576153,14.5534669 20.4377874,14.5632853 L20.7648486,14.5806906 C20.9334826,14.5896165 21.0643959,14.728413 21.0639521,14.8980037" id="Fill-18" fill="#414042"></path>
                        <path d="M25.2698615,27.5878477 L25.4447083,27.4432494 C25.6009167,27.3142712 25.6235491,27.0821998 25.4952985,26.9251053 L23.8879503,24.9596389 C23.7596997,24.8025444 23.5293811,24.7797835 23.3731728,24.9087617 L23.198326,25.0538063 C23.0421176,25.1827845 23.0194852,25.4144096 23.1477358,25.5715041 L24.7546403,27.5374168 C24.8833346,27.6940651 25.1136532,27.7168259 25.2698615,27.5878477" id="Fill-20" fill="#414042"></path>
                        <g id="Group-24">
                            <mask id="mask-18" fill="white">
                                <use xlink:href="#path-17"></use>
                            </mask>
                            <g id="Clip-23"></g>
                            <path d="M1.06697754,26.8653915 C1.02348772,26.6949083 -0.0091736351,22.4546956 4.59852848,20.3571269 L4.91760176,22.5377058 L5.15679577,22.6461545 C5.21670522,22.672932 6.63101194,23.3022026 8.39412477,23.2383829 C10.1057598,23.1763485 11.5324922,22.5024487 12.6334947,21.2345354 L12.774171,21.0734243 L12.5203324,18.9575577 C13.7225153,19.0985857 16.5835243,19.7818576 17.6956211,23.0848588 C17.7089343,23.1210084 18.3990024,25.0114979 17.4315758,27.1617289 C16.5378156,29.1495099 14.5519283,30.7418769 11.5302734,31.892862 C10.8140226,32.0160383 2.96322247,33.2138839 1.06697754,26.8653915 L1.06697754,26.8653915 Z M18.8516515,25.6220243 C19.0588938,24.0051112 18.6226643,22.8237784 18.5969254,22.757281 C18.0462023,21.1211775 17.1049583,20.0433842 16.1024736,19.3324423 C15.0005835,15.0748243 15.0826817,10.9979541 15.1337156,9.85187831 C15.1417036,9.67380812 15.0076839,9.52340798 14.831062,9.50957295 L14.4835872,9.48279548 C14.3247162,9.47074562 14.1862588,9.59124424 14.1778271,9.75190908 C14.1649577,10.0103117 14.1489818,10.4280403 14.1458754,10.9725155 C12.4475536,10.1513397 11.4197737,8.64109027 11.0789555,8.07340786 C11.0039578,7.94844633 10.8468619,7.90381721 10.7168362,7.9698683 L10.399538,8.13187201 C10.2317916,8.21711363 10.1696633,8.42597791 10.2668497,8.58798162 C10.7048543,9.31677515 11.9842538,11.1608504 14.1560822,12.0279942 C14.1631826,12.3029096 14.1738332,12.5974618 14.1893652,12.905849 C12.8718012,12.3636052 9.36776422,10.6212843 8.7846456,7.24152106 C8.59826066,6.16238893 8.77976409,5.24481422 9.32383062,4.51378923 C9.46672575,4.32188401 9.62914692,4.14916931 9.80354997,3.99430627 C10.4141826,4.0737461 12.5119007,4.44059747 14.5230831,5.900416 L14.8532507,6.14007437 C17.3108693,7.92657806 20.6764489,10.3722538 23.5933733,11.2786713 C26.2160757,12.0940453 28.5982529,16.8175914 28.7034272,18.442984 C27.1732956,18.4242397 25.5286703,18.164052 23.8827137,16.8349968 C23.7597884,16.7354738 23.6191122,16.6355046 23.4695604,16.5337502 C23.4163076,15.3876744 23.4779921,14.4941994 23.521482,14.046123 C23.5392329,13.8680528 23.4167514,13.7087269 23.1993023,13.675255 L22.9223875,13.6328574 C22.7497595,13.6060799 22.590001,13.72881 22.5709187,13.9033098 C22.397847,15.4849659 21.9602862,22.4163145 26.8409091,27.0456932 L26.8409091,27.0452469 C26.8382464,27.0452469 27.1453378,27.4098668 27.0676774,27.7869829 C26.9895733,28.1667767 26.5342615,28.4510642 26.1663731,28.6219937 C24.6553237,29.3249024 22.111613,29.0236558 20.8890165,28.8786112 C20.5690557,28.8406764 20.3351869,28.8130064 20.1696594,28.806312 C20.0564971,28.6175308 19.9238087,28.0819814 19.8412668,27.7494944 C19.6908276,27.1425384 19.5483762,26.5686079 19.2807807,26.2191619 C19.1343354,26.0285955 18.9923278,25.825533 18.8516515,25.6220243 L18.8516515,25.6220243 Z M29.6482214,18.4318267 C29.5008885,16.2150983 26.8209393,11.2728695 23.8769447,10.3579725 C21.1104596,9.49886197 17.8189902,7.10629483 15.4155119,5.35951106 L15.0844568,5.11940639 C13.5711885,4.02108374 12.0370629,3.49222866 10.9919759,3.23918155 C11.9341074,2.80761796 12.8141106,2.69827661 12.8287551,2.69693774 C15.3502772,2.5313637 16.5724299,1.88959695 17.4648588,1.42099119 C18.2157238,1.02602348 18.5929315,0.828316473 19.3943867,1.06306565 L21.5813034,1.69188995 C21.5999419,1.69367512 23.9111153,1.94047415 26.3674026,5.42466957 C27.3774315,6.85681804 27.9876203,7.46065004 28.433169,7.90203204 C29.1041549,8.56745222 29.3069594,8.76783697 30.0826758,11.4612044 C31.3594127,15.8951075 31.1326443,17.5133594 30.717716,18.0899676 C30.5650578,18.3024022 30.352934,18.4063881 30.0507241,18.4175454 C29.917592,18.4224546 29.7835724,18.4269175 29.6482214,18.4318267 L29.6482214,18.4318267 Z M11.2382703,16.320423 L11.2622341,16.5194689 C10.8007094,17.0456462 8.90623959,18.8053724 5.28460259,17.2571882 C6.28664356,16.1624359 7.39164002,15.5800259 8.57607197,15.5371819 C9.83993941,15.4912139 10.8637253,16.073624 11.2382703,16.320423 L11.2382703,16.320423 Z M6.76769423,22.1342585 C6.3416715,22.0463391 5.99863444,21.9369978 5.7869544,21.8602357 L5.26330145,18.283658 C5.64450305,18.4295952 6.00972878,18.5438458 6.35897867,18.6286411 L6.76769423,22.1342585 Z M11.7707987,20.7574501 C10.8708257,21.7151911 9.72455826,22.2261945 8.35951042,22.2757328 C8.14871792,22.2833198 7.94591335,22.2766254 7.74799029,22.2641292 L7.34415624,18.8009095 C7.65080385,18.8321499 7.94325071,18.8424146 8.22016548,18.8325962 C9.70325712,18.7785949 10.7598823,18.1903831 11.4020228,17.6842889 L11.7707987,20.7574501 Z M5.49095735,32.4319817 C7.16886564,32.9590516 8.86940638,33.033136 10.0729206,32.9893994 C11.0660861,32.9536961 11.7202085,32.8389993 11.744616,32.8340901 L11.827158,32.8113292 C12.3725558,32.6046964 12.8855582,32.3819971 13.370159,32.1472479 L15.1652236,31.1176541 C16.6460963,30.1094823 17.7022777,28.9129756 18.3151292,27.5379524 C18.4145345,27.3143605 18.4939699,27.0952315 18.5654175,26.8787803 C18.6945556,27.1090665 18.8139308,27.5888296 18.9120047,27.983351 C19.1427671,28.915207 19.3611037,29.7952933 20.0902239,29.7689621 C20.182085,29.7653918 20.4847387,29.8010951 20.7776293,29.8359058 C21.5746468,29.9300732 22.7599663,30.070655 23.9563802,30.0273647 C24.8776543,29.9943392 25.8051413,29.8519723 26.5688758,29.4967245 C27.4009515,29.10979 27.8855523,28.5965551 28.0093652,27.9704086 C28.0138029,27.9472014 28.0120278,27.9262257 28.015578,27.9030186 L27.8820021,26.9430462 C27.7439885,26.623948 27.5598224,26.4088356 27.523433,26.369562 C26.6394358,25.5309809 25.9462613,24.6035877 25.3982009,23.6445079 L24.9078309,22.6979243 C24.1219077,21.0140676 23.7402624,19.2873669 23.5707408,17.803895 C25.8943398,19.526579 28.2090633,19.448478 30.0840071,19.3806418 C30.680439,19.3592198 31.1681462,19.1084041 31.4938761,18.6554186 C32.301988,17.5321036 32.1462234,15.1609585 31.0030624,11.1934297 C30.1936192,8.38268767 29.9220297,8.02476212 29.1050424,7.21563617 C28.6852325,6.79969277 28.109658,6.23022519 27.148888,4.86725186 C24.595858,1.24559875 22.1284764,0.789042847 21.7091103,0.736826776 L19.6615385,0.137011399 C18.4895322,-0.205293953 17.8092272,0.1521853 17.0201976,0.566343537 C16.1583891,1.01888282 15.0853443,1.58254861 12.7426631,1.73651907 C12.6068683,1.75169297 9.94067604,2.07748555 8.55698971,3.93628841 C7.84872691,4.88733496 7.6077578,6.05483275 7.84073899,7.40620251 C8.59604179,11.7843192 13.3532956,13.6480313 14.2572626,13.964898 C14.3673185,15.3617895 14.5758921,16.980934 14.9566499,18.6719314 C13.913338,18.1935072 12.9401423,18.0350738 12.4031762,17.9828577 L12.1409059,15.7951383 L11.9864727,15.6719619 C11.9265633,15.6242087 10.4967245,14.5031252 8.54145763,14.5740855 C6.95940446,14.6312108 5.51935887,15.4349813 4.26126049,16.9630823 L4.12546574,17.1286564 L4.45341449,19.3712697 C-1.19404936,21.7607128 0.130615074,27.0738095 0.144815832,27.1282571 C0.78740012,29.279827 2.03972944,30.6602056 3.49086938,31.538953 L5.49095735,32.4319817 Z" id="Fill-22" fill="#414042" mask="url(#mask-18)"></path>
                        </g>
                    </g>
                </g>
                <g id="Group-12" transform="translate(395.479115, 144.518308) rotate(-270.000000) translate(-395.479115, -144.518308) translate(362.997423, 137.726531)">
                    <path d="M0.701941157,1.4706754 L0.701941157,12.0687508 L8.224827,12.0682712 L8.224827,10.0317294 L3.64666875,10.0317294 L3.64666875,1.4706754 L0.701941157,1.4706754 Z M8.22532183,12.5114565 C8.22532183,12.5167325 8.224827,12.5210492 8.224827,12.5258456 L8.84385812,12.5114565 L8.22532183,12.5114565 Z M0.219977675,13.2688045 C0.0665806739,13.2688045 -0.150154444,13.2553746 -0.333241188,13.0793475 C-0.536615922,12.8846146 -0.536615922,12.651031 -0.536615922,12.5114565 L-0.536615922,1.02653086 C-0.536615922,0.887435915 -0.536615922,0.654331975 -0.333736017,0.459599053 C-0.132340599,0.265825408 0.109135971,0.264866132 0.223936308,0.270142147 L4.08607694,0.270142147 C4.58634909,0.270142147 4.88522583,0.553128412 4.88522583,1.02653086 L4.88522583,8.83119611 L8.64642134,8.83119611 C9.1501573,8.83119611 9.46338408,9.12809187 9.46338408,9.60581106 L9.46338408,12.5114565 C9.46338408,12.9853386 9.16401251,13.2688045 8.66423518,13.2688045 L0.262532972,13.2688045 L0.219977675,13.2688045 Z" id="Fill-1" fill="#414042"></path>
                    <g id="Group-5" transform="translate(10.963384, -0.231196)">
                        <mask id="mask-20" fill="white">
                            <use xlink:href="#path-19"></use>
                        </mask>
                        <g id="Clip-4"></g>
                        <path d="M7,5.37352182 C6.00480538,5.37352182 5.38731379,5.98644143 5.38731379,6.97354409 C5.38731379,8.05711581 5.97501201,8.67929256 7,8.67929256 C7.9798174,8.67929256 8.61268621,8.00985571 8.61268621,6.97354409 C8.61268621,5.95672117 8.02498799,5.37352182 7,5.37352182 M7,9.89879796 C5.31619414,9.89879796 4.18452667,8.72314214 4.18452667,6.97354409 C4.18452667,5.31359406 5.3421432,4.15401641 7,4.15401641 C8.68380586,4.15401641 9.81547333,5.2867971 9.81547333,6.97354409 C9.81547333,8.69585796 8.6578568,9.89879796 7,9.89879796 M7,1.2195054 C3.69485824,1.2195054 1.20278712,3.70090414 1.20278712,6.99108392 C1.20278712,10.3460636 3.64103796,12.7806895 7,12.7806895 C10.2503604,12.7806895 12.7972129,10.2456968 12.7972129,7.00862375 C12.7972129,3.24827908 9.81018741,1.2195054 7,1.2195054 M7,14.0001949 C3.00913023,14.0001949 0,10.9872419 0,6.99108392 C0,3.00564476 3.00913023,0 7,0 C10.3930802,0 14,2.45655064 14,7.00862375 C14,10.929263 10.925036,14.0001949 7,14.0001949" id="Fill-3" fill="#414042" mask="url(#mask-20)"></path>
                    </g>
                    <path d="M33.2540305,1.48833532 C29.9938133,1.48833532 27.6274816,3.93032043 27.6274816,7.29511475 C27.6274816,10.7373783 29.8682415,13.0492736 33.2038018,13.0492736 C35.6445465,13.0492736 37.2937234,11.4877089 38.1118007,9.88083202 L35.5524604,9.05595557 C35.009711,9.86329182 34.2432576,10.2559973 33.2879814,10.2559973 C31.5676471,10.2559973 30.411456,9.07349576 30.411456,7.31265495 C30.411456,5.49285958 31.520674,4.3171792 33.2372876,4.3171792 C34.2841848,4.3171792 35.0469175,4.6991657 35.5571112,5.48311503 L38.0727339,4.52376374 C37.5713767,3.41824414 36.2607787,1.48833532 33.2540305,1.48833532 M33.2038018,14.2688045 C29.2352663,14.2688045 26.4633841,11.4009824 26.4633841,7.29511475 C26.4633841,3.2238403 29.319446,0.268804455 33.2540305,0.268804455 C36.0580034,0.268804455 38.3169014,1.8206246 39.297292,4.41998424 C39.4916958,5.02804438 39.1949742,5.38323335 38.8843001,5.51186146 L35.5794351,6.77183223 C35.2975961,6.87122667 34.9139043,6.82299113 34.7134545,6.37717781 C34.4604504,5.87240994 34.1125699,5.53671007 33.2372876,5.53671007 C31.7913511,5.53671007 31.5755535,6.64953808 31.5755535,7.31265495 C31.5755535,8.39186424 32.2155049,9.03646646 33.2879814,9.03646646 C33.9511868,9.03646646 34.4009201,8.77092738 34.7032227,8.200871 C34.9041376,7.70341154 35.3255009,7.72143896 35.5552509,7.7818552 L35.5850161,7.79111252 L38.8289555,8.83670311 C39.1568375,8.89175984 39.3121746,9.09542101 39.3768208,9.21722793 C39.4921609,9.43404424 39.4921609,9.6956855 39.3772859,9.9368632 C38.5233973,12.014402 36.4416951,14.2688045 33.2038018,14.2688045" id="Fill-6" fill="#414042"></path>
                    <path d="M46.1160305,7.62794917 L46.3886681,7.62794917 C46.3462792,7.52908657 46.3000368,7.425987 46.2542761,7.32194588 C46.207552,7.425987 46.1608279,7.52908657 46.1160305,7.62794917 L46.1160305,7.62794917 Z M48.2036829,8.80629722 L44.2451394,8.80629722 L44.6357915,7.97208518 C44.6367549,7.9697313 45.1035143,6.97310212 45.4151689,6.24669739 C45.5664201,5.90209061 45.6820262,5.59373344 45.6844346,5.58808415 L46.2480141,4.092905 L46.8149654,5.58667183 C46.8168921,5.59137957 46.9349066,5.90067828 47.0842311,6.2429312 C47.41419,6.95615425 47.854938,7.9899746 47.854938,7.9899746 L48.2036829,8.80629722 Z M49.3091657,11.5904564 L52.3842864,11.5904564 C51.1733131,9.47715059 49.8650381,7.12704532 48.6449127,4.93559098 C47.8491577,3.50584945 47.0904931,2.14295787 46.4180513,0.951898908 C46.3949301,0.951428134 46.3713272,0.950957359 46.3472426,0.950957359 C45.8838551,1.79976341 45.3193122,2.83876228 44.7109354,3.95779277 C43.3732772,6.41900078 41.8718438,9.18197511 40.5149179,11.5904564 L43.1565159,11.5904564 C43.2369584,11.4242731 43.3000601,11.2731545 43.3665335,11.1168575 C43.4484211,10.9243108 43.5336806,10.7228194 43.642543,10.4959062 L43.8048731,10.1555364 L48.639614,10.1555364 L48.8043527,10.4902569 C48.9546405,10.7981433 49.0890325,11.0975557 49.2292048,11.4134453 L49.3091657,11.5904564 Z M53.2060526,12.7688045 L49.0986664,12.7688045 C48.6516563,12.7688045 48.4262246,12.4966969 48.3313313,12.3356921 L48.1251672,11.8846903 C48.0413528,11.6973222 47.9604286,11.5156033 47.8756508,11.3338844 L44.5813603,11.3338844 C44.5461968,11.413916 44.5134418,11.4915938 44.4806867,11.5673885 C44.3829033,11.7994802 44.2889734,12.018861 44.1690321,12.2547189 C43.9835808,12.5814363 43.7778984,12.7688045 43.2793473,12.7688045 L39.6979685,12.7688045 C39.2928657,12.7688045 39.1103045,12.5282388 39.0510564,12.4251392 C38.9566448,12.2617805 38.8911347,11.9929684 39.1127129,11.6356507 C40.542856,9.11512516 42.1916872,6.08145561 43.6459148,3.40463298 C44.3106495,2.18109059 44.9243249,1.05217383 45.4402169,0.115332988 C45.6483078,-0.19584882 45.9272073,-0.264581867 46.6613057,-0.217975212 C46.8385683,-0.207147403 47.1680455,-0.186904109 47.331339,0.130397765 C48.0302739,1.36476796 48.8457781,2.82981757 49.7046347,4.37254493 C51.0403661,6.77349382 52.4825515,9.36416476 53.8014237,11.6511863 C53.9189565,11.8809241 54.062019,12.1600933 53.8678972,12.4665674 C53.6771472,12.7688045 53.3467066,12.7688045 53.2060526,12.7688045 L53.2060526,12.7688045 Z" id="Fill-8" fill="#414042"></path>
                    <path d="M56.7020637,1.4712289 L56.7020637,12.0688071 L64.2247044,12.0683275 L64.2247044,10.0318812 L59.6465879,10.0318812 L59.6465879,1.4712289 L56.7020637,1.4712289 Z M64.226189,12.511492 C64.2247044,12.5167678 64.2247044,12.5210843 64.2247044,12.5258805 L64.8442917,12.511492 L64.226189,12.511492 Z M56.2195577,13.2688045 C56.0661455,13.2688045 55.8498838,13.2553752 55.6662841,13.0793564 C55.4633841,12.8846327 55.4633841,12.65106 55.4633841,12.511492 L55.4633841,1.0271052 C55.4633841,0.888016779 55.4633841,0.654923775 55.6662841,0.460199989 C55.8676994,0.266435434 56.1027665,0.263557743 56.2240116,0.270751972 L60.0865345,0.270751972 C60.5863613,0.270751972 60.8852676,0.55372496 60.8852676,1.0271052 L60.8852676,8.8314043 L64.6473302,8.8314043 C65.1511161,8.8314043 65.4633841,9.12828613 65.4633841,9.60598291 L65.4633841,12.511492 C65.4633841,12.9853519 65.1644778,13.2688045 64.6651458,13.2688045 L56.2621172,13.2688045 L56.2195577,13.2688045 Z" id="Fill-10" fill="#414042"></path>
                </g>
            </g>
        </g>
    </g>
</svg>