<?xml version="1.0" encoding="UTF-8"?>
<svg width="386px" height="494px" viewBox="0 0 386 494" version="1.1" xmlns="http://www.w3.org/2000/svg" xmlns:xlink="http://www.w3.org/1999/xlink">
    <title>Group 28</title>
    <defs>
        <polygon id="path-1" points="0 0 579 0 579 494 0 494"></polygon>
    </defs>
    <g id="Desktop" stroke="none" stroke-width="1" fill="none" fill-rule="evenodd" opacity="0.0781802223">
        <g id="mobile" transform="translate(-4.000000, -7213.000000)">
            <g id="Group-28" transform="translate(296.000000, 7460.000000) scale(-1, 1) translate(-296.000000, -7460.000000) translate(4.000000, 7213.000000)">
                <g id="Group-5" transform="translate(5.000000, 0.000000)">
                    <mask id="mask-2" fill="white">
                        <use xlink:href="#path-1"></use>
                    </mask>
                    <g id="Clip-4"></g>
                    <path d="M564.353687,303.49794 C559.291129,310.20892 554.648487,313.589781 545.010926,315.001122 C535.373365,316.41277 528.97332,311.024178 527.390372,307.952363 C528.728777,307.560476 529.6843,307.315318 530.616256,306.999853 C532.155132,306.478356 543.34779,302.037384 550.926171,293.31684 C558.504858,284.596297 560.291949,269.640418 560.564037,268.726729 C563.497634,269.301415 569.007041,273.88667 570.314535,282.001042 C571.622334,290.115415 569.416245,296.786961 564.353687,303.49794 M524.551654,329.550442 C519.07622,332.503958 513.139245,333.803113 507.051076,334.6199 C506.249501,334.727501 505.413342,334.819817 504.678183,335.123972 C503.303662,335.693155 502.429552,336.816237 503.029126,338.275571 C503.776833,340.095917 503.37926,341.875607 503.367935,343.687395 C503.311008,352.794322 504.28061,361.751159 507.087803,370.475982 C509.795526,378.892982 523.040018,410.622641 520.382183,426.257443 C517.724347,441.892551 513.369097,452.149155 511.171577,454.230555 C510.90561,453.180838 510.704834,452.347238 510.482634,451.519753 C509.590159,448.196971 506.026995,445.637176 503.138695,446.55759 C499.85772,447.602722 497.236612,449.972076 498.040022,454.421608 C498.524211,457.103676 500.144805,459.025204 502.18256,460.628514 C502.671952,461.013676 503.509336,461.166518 504.154206,461.102324 C505.432624,460.974243 505.834176,460.006754 505.117993,458.893454 C504.569532,458.040902 503.69236,457.357393 503.307641,456.451958 C502.768055,455.181537 502.378746,453.788231 502.274685,452.420908 C502.230306,451.835829 502.996683,450.745456 503.52066,450.66017 C504.408237,450.516193 505.551682,450.755849 506.30245,451.258393 C507.253994,451.895743 506.93263,453.130094 505.692776,453.977144 C504.958841,454.478465 503.662672,454.771615 504.332334,455.877273 C504.763574,456.588905 505.945583,457.195075 506.803778,457.212499 C507.902538,457.234509 509.014152,456.616722 510.380103,456.194573 C508.92264,458.131385 507.666259,459.96029 506.221344,461.625654 C505.78337,462.130338 504.743374,462.532924 504.115337,462.389252 C481.136263,459.719105 448.750093,478.148162 445.828433,479.935189 C443.095,481.606667 440.206395,481.531775 437.260862,481.454742 C434.821248,481.391466 432.379798,481.259716 429.948754,481.046043 C428.477824,480.916433 427.02587,480.572845 425.221639,480.267467 C426.975676,476.04781 436.323397,456.971009 435.804317,438.831129 C435.285237,420.691249 436.068141,394.230966 436.358287,391.923054 C436.885937,387.727851 438.78168,383.982615 440.513068,380.191221 C443.595104,373.442642 452.090751,352.778121 453.138704,349.163717 C454.612695,344.081726 455.943755,338.958163 457.362961,333.860276 C457.659228,332.795886 458.073635,331.764509 458.521096,330.463519 C459.719938,330.839204 460.748609,331.173317 461.784626,331.483891 C463.881758,332.112377 465.22353,331.940277 465.647425,330.874052 C466.321065,329.178731 465.068357,328.218578 464.035706,327.259649 C462.395831,325.737038 460.557321,324.406703 459.050888,322.767627 C456.856429,320.379627 454.923959,317.753498 452.805403,315.29305 C448.667456,310.487703 445.172237,305.227499 442.35219,299.589163 C439.912882,294.712592 438.302694,289.647108 438.315243,283.917373 C438.328709,277.561293 438.970826,271.316787 440.064076,265.141977 C441.052654,259.556831 442.936461,254.147453 445.550835,249.035505 C446.622049,246.940349 448.171637,246.224132 450.468626,246.215586 C456.846941,246.192647 463.015298,247.555384 469.206304,248.785456 C471.403517,249.221972 473.578694,249.791766 475.737344,250.396103 C482.467323,252.280643 488.746474,255.110662 494.344946,259.355691 C497.349242,261.633646 499.679592,264.49729 500.911182,268.010818 C502.499334,272.542579 501.270498,276.604809 498.02074,280.106721 C494.817198,283.558806 490.741993,285.211638 486.207391,285.969122 C481.133508,286.816783 476.125429,286.562148 471.008698,285.885365 C464.276577,284.995214 449.061051,280.396203 447.587978,280.172443 C447.430051,283.414218 449.341709,285.128798 451.293461,286.390049 C468.629991,297.380599 483.13117,295.929213 489.385836,294.668574 C491.026324,294.338129 492.294642,294.453067 493.689362,295.358807 C503.329984,300.975133 499.360982,306.899894 498.670508,308.4115 C495.90647,314.461285 491.80678,319.18043 485.356541,321.519827 C484.402548,321.86586 483.454983,322.286176 482.593114,322.815925 C481.487009,323.496071 481.449364,324.425961 482.433656,325.312444 C483.66341,326.41963 485.137401,326.677627 486.72341,326.341986 C490.85493,325.467425 494.647028,324.021847 497.966874,321.191828 C500.615221,318.934354 503.431902,316.922344 504.96129,313.689434 C505.609527,312.319054 506.12371,310.873782 506.573008,309.423618 C507.456301,306.571895 507.91478,306.141493 510.923056,306.398267 C512.947956,306.571284 514.95786,306.957668 516.962255,307.316541 C518.116718,307.523183 518.917374,308.075553 519.339432,309.358813 C519.934109,311.167544 521.155293,312.797755 521.589288,314.627271 C522.785375,319.668301 526.945053,321.689481 531.098915,324.276176 C529.356815,326.709724 527.044829,328.205434 524.551654,329.550442 M417.64387,478.242007 C417.260682,479.537189 416.634174,480.366814 415.078159,480.319433 C412.760664,480.249126 410.435211,480.440484 408.118328,480.36498 C404.562815,480.249126 374.87182,479.775622 373.169201,480.068773 C371.936999,479.665882 370.412202,479.180456 368.896893,478.667519 C368.036861,478.376508 367.166729,478.095279 366.344649,477.715926 C361.910741,475.668762 357.510805,473.5464 353.0518,471.555788 C351.822046,471.00678 351.410394,470.303097 351.451712,468.991102 C351.508945,467.171979 351.418963,465.334209 351.197681,463.52823 C351.126675,462.947736 350.51394,462.103132 350.016285,461.996449 C349.494145,461.884569 348.672982,462.382527 348.236539,462.850529 C347.703075,463.423074 347.366713,464.214184 347.063407,464.958829 C346.297336,466.840618 345.633795,468.764285 344.86099,470.643017 C343.986268,472.770575 343.036866,474.867565 342.053185,477.131153 C340.142139,476.99115 338.338214,476.851146 336.532759,476.727956 C330.346345,476.305195 259.79863,470.499957 232.051429,468.269078 C204.304534,466.038198 129.286183,464.295496 128.130802,464.09405 C129.792408,460.645327 131.430142,457.527965 132.818129,454.303308 C135.110527,448.977382 137.241938,443.582676 139.440375,438.216705 C139.478939,438.122555 141.227772,432.727849 141.872337,430.065039 C142.519044,427.392752 143.338982,424.761733 143.968856,422.086084 C144.642497,419.223662 145.190959,416.331895 145.772169,413.448381 C145.851133,413.055577 145.911733,412.599803 145.788084,412.239096 C145.603223,411.699564 145.333583,410.892865 144.943661,410.789544 C144.374693,410.638842 143.344185,410.797186 143.076076,411.199772 C142.074644,412.701901 141.216142,414.317439 140.470577,415.96538 C139.677572,417.717864 139.18359,419.607906 138.355694,421.340827 C137.545244,423.03676 136.893946,423.164536 135.18184,422.2967 C129.965333,419.652231 124.449192,417.911056 118.712381,416.854614 C112.506991,415.711968 106.287521,414.643909 100.082743,413.496984 C96.3846058,412.81317 92.698711,412.061188 89.0186313,411.28628 C88.4141604,411.159116 87.8678412,410.755002 87.3404978,410.308092 C95.440101,411.708123 101.705786,407.957691 107.281608,403.037101 C110.837121,399.898952 113.951906,396.175725 116.831329,392.386776 C119.335522,389.091506 121.479174,385.459373 123.339414,381.754487 C126.120592,376.214582 128.941864,370.650528 130.473394,364.585153 C131.069296,362.224052 131.59113,359.827492 131.907291,357.415954 C132.435553,353.385209 133.316091,349.293939 133.057775,345.291928 C132.692338,339.626387 133.52054,333.971851 132.815069,328.337489 C132.373728,324.813568 131.874849,321.296678 131.430142,317.773062 C131.383926,317.40777 131.530224,317.018329 131.628469,316.366 C140.05311,319.238815 147.846345,323.013091 155.873412,326.755576 C153.883096,328.565529 152.027753,329.966478 150.523463,331.675861 C146.392555,336.370245 145.018646,342.088363 145.391735,348.137843 C145.601387,351.539491 145.82573,355.0735 147.505393,358.210731 C148.402153,359.885266 149.260654,361.635305 150.466841,363.075381 C152.014899,364.923544 153.874833,366.515851 155.638969,368.177241 C156.829853,369.298489 158.137959,370.059336 159.849759,370.437161 C162.392209,370.99809 164.763265,372.334845 167.306022,372.893023 C170.265939,373.543212 173.328081,373.746798 176.353802,374.074185 C178.565707,374.313229 180.81342,374.304059 182.997779,374.680967 C183.875256,374.83228 184.878831,375.546969 185.393319,376.299562 C189.752243,382.677652 194.014757,389.121769 198.293186,395.554576 C198.560072,395.955939 198.715857,396.430971 199.229733,397.522262 C196.87092,396.619884 195.231656,395.827551 193.503941,395.366886 C190.120128,394.465425 188.775602,395.652395 188.595944,399.078192 C188.430365,402.238655 189.641449,404.910636 191.449352,407.233526 C194.378052,410.996186 199.909189,420.321983 214.195207,431.385592 C235.436772,447.835653 257.52888,442.904976 261.759258,442.390816 C265.404752,441.947574 269.001277,441.128342 272.652893,442.146574 C274.703503,442.718508 297.258376,450.624099 313.92249,446.726327 C330.586909,442.828555 351.497927,427.938398 356.464688,423.502316 C357.79483,422.314124 359.49653,421.371395 361.190885,420.791514 C366.70672,418.903306 371.345077,415.623931 375.638503,411.863716 C378.847249,409.053261 381.699433,405.839914 384.80932,402.911159 C385.567128,402.197693 386.668642,401.723884 387.695171,401.452131 C388.860346,401.143696 390.124685,401.047406 391.335769,401.098455 C397.076253,401.340251 402.699515,400.254768 408.298598,399.368591 C413.50225,398.544774 418.580418,396.930458 423.711839,395.656063 C424.576768,395.441167 425.431291,395.184699 426.587284,394.865259 C426.854476,397.022163 427.275922,398.914345 427.292143,400.80989 C427.376004,410.483249 427.430483,415.701575 427.293367,429.829357 C429.144119,459.719105 418.131426,476.593149 417.64387,478.242007 M74.7130255,378.382796 C78.5565418,379.351508 80.5538971,379.65658 83.3289539,378.51638 C85.9228224,377.450461 88.1344205,376.06388 89.3559107,373.268708 C87.9642505,372.490743 87.0228063,373.399541 86.0856469,373.762388 C82.6406223,375.09578 79.2387522,375.585179 75.6924212,374.085801 C73.9500149,373.349103 72.4913273,372.391702 71.3723676,370.838523 C70.7363725,369.955403 69.0839482,367.500458 73.72506,366.776293 C75.3395327,366.588298 77.6591704,366.902846 77.5701066,368.097458 C77.4810428,369.29207 75.6465121,369.77077 74.9964381,370.478734 C74.1217153,371.43155 74.5336736,372.774418 75.7499608,372.631664 C77.3895305,372.439083 79.1463217,371.948155 80.5064576,371.057698 C81.7472297,370.245497 81.5222747,368.049466 80.5508365,366.278334 C79.6669318,364.66677 78.3484202,363.685526 76.5640835,363.227611 C73.7556661,362.506809 71.0914035,362.844895 68.5826199,364.240341 C65.7726722,365.803608 64.9784434,368.234098 66.2088094,371.224907 C66.4404977,371.788588 66.6776951,372.349823 66.912138,372.911976 C67.4957967,373.244254 67.357457,373.42155 66.9109138,372.913198 C63.0967793,370.60009 21.5168371,339.989539 20.4915321,339.15594 C19.2278055,338.128843 15.3919407,334.97327 15.4693741,330.615138 C15.5431349,326.460897 15.5428288,322.300848 15.7815565,318.155472 C16.0309964,313.829437 16.4475457,309.508904 16.9375496,305.202433 C17.3966414,301.166185 17.9151091,297.127799 18.6432286,293.13343 C19.7842247,286.871806 21.1235485,280.646252 22.4292055,274.155671 C23.6145804,274.347946 24.4130941,274.36751 25.1357045,274.610834 C35.7110366,278.174189 119.09404,310.624038 119.55711,310.656135 C122.903583,310.888454 123.699954,312.993392 124.166392,315.947213 C125.637322,325.259255 127.084073,345.091705 122.63731,359.533424 C118.190241,373.975143 107.418111,391.479813 105.178968,393.964104 C103.592347,395.724536 102.920848,395.6258 100.96879,394.436691 C95.4973344,391.104127 75.420945,379.038182 74.7130255,378.382796 M166.24001,347.059391 C169.648002,347.952599 171.325829,350.802182 173.305739,353.241232 C173.920616,353.99841 173.855119,355.348309 173.990092,356.440823 C174.126595,357.547398 174.00264,358.69524 174.217495,359.780722 C174.456835,360.990313 175.183118,361.646921 176.624054,361.525259 C179.668751,361.267568 180.262816,361.977365 179.903806,365.437399 C178.332488,365.234425 176.772188,364.944942 175.199646,364.844372 C168.877034,364.441481 163.645224,361.515783 159.210703,357.350537 C156.067149,354.398244 154.857595,350.341211 155.272614,345.948842 C155.537357,343.146946 156.830465,338.022159 162.422203,334.487233 C164.795708,333.04135 165.193893,333.14681 166.904163,335.42018 C168.540366,337.595425 170.059654,339.858707 171.912855,342.483918 C170.952128,342.483918 170.424785,342.506844 169.89989,342.479027 C168.885297,342.424921 167.867644,342.246402 166.859172,342.292254 C165.191751,342.36837 164.0177,343.290617 164.009437,344.49226 C163.999643,345.950065 165.02862,346.741786 166.24001,347.059391 M249.421931,357.549843 C247.569649,360.194312 246.079743,362.209379 244.710119,364.302701 C242.342736,367.920161 239.691328,373.077656 238.317725,380.382579 C236.944123,387.687807 230.517756,398.374508 213.770394,399.068715 C209.815472,397.175311 204.99715,391.079978 202.253618,387.285833 C197.347457,380.502101 193.202777,373.275128 189.797234,365.644958 C188.436792,362.59668 187.493817,359.361019 186.408524,356.194136 C186.192445,355.563816 186.193669,354.858604 186.029315,353.74561 C187.205814,354.321518 188.021467,354.662049 188.77958,355.101928 C191.59718,356.737642 197.612812,360.330036 211.20652,363.418358 C224.800227,366.50668 243.101156,360.277764 249.421931,357.549843 M279.969898,432.602825 C281.251682,430.205959 285.132844,424.035123 286.809753,421.511399 C287.703452,420.16639 288.815066,419.90014 290.225702,420.33146 C293.877318,421.447511 298.048014,422.364256 307.694757,420.4681 C318.264273,418.390368 323.677578,413.611616 325.662078,412.69487 C326.330822,412.385824 336.040919,418.915533 339.921163,420.766142 C340.566952,421.074271 340.701925,421.934159 340.17856,422.421113 C337.257512,425.140475 328.232074,432.569199 313.188555,436.476142 C296.080347,440.919866 283.918699,435.152838 280.346353,433.656516 C279.934089,433.484111 279.759328,432.996545 279.969898,432.602825 M310.398195,345.534641 C301.8294,351.945439 292.142257,354.875417 281.442052,353.776484 C276.407346,353.259573 271.30347,352.678162 266.793352,350.005265 C265.78488,349.407653 264.846803,348.69113 263.500746,347.772857 C265.553498,345.634599 267.294374,344.061246 268.747859,342.257101 C272.001595,338.219325 283.468483,320.180321 284.694565,318.57701 C286.023788,316.838893 287.026139,316.671072 288.875054,317.994988 C293.008105,320.954923 297.047194,324.046608 301.09975,327.117506 C304.749224,329.883026 316.100421,337.962245 317.181735,338.70903 C315.579505,341.939801 312.864742,343.689229 310.398195,345.534641 M296.689715,387.31151 C297.197164,384.235416 297.830405,381.179802 298.542303,377.430286 C300.84021,380.558041 302.533953,383.464481 304.219126,386.777481 C304.623433,387.572564 304.124247,388.531188 303.240954,388.664772 C301.526093,388.924297 300.105969,389.148058 298.677582,389.290812 C297.320813,389.426536 296.45619,388.72866 296.689715,387.31151 M309.340141,395.136401 C310.586423,396.680103 318.1293,406.058478 319.376194,407.763276 C320.623393,409.468074 303.307676,415.203616 292.272946,412.939417 C289.746717,412.913129 290.335272,411.317154 291.350171,408.655566 C292.611755,405.347763 294.749899,398.374508 295.595546,396.947882 C296.441193,395.521562 308.09386,393.593004 309.340141,395.136401 M386.93063,332.981741 C386.514693,337.835386 386.104265,342.692089 385.531013,347.528615 C385.114769,351.041226 384.393995,354.516544 383.923273,358.023653 C383.751267,359.307218 383.070893,360.017933 382.033345,360.572443 C375.499245,364.063351 368.813033,364.680832 362.252917,360.940181 C359.474494,359.355822 357.095174,357.041797 354.6323,354.944501 C350.69268,351.589929 346.834473,348.139677 342.595219,344.425926 C358.806056,344.067359 373.242962,339.321926 386.647218,329.580093 C386.78617,331.122879 387.008982,332.064996 386.93063,332.981741 M154.767001,302.685128 C159.071445,299.809561 163.386908,296.943777 167.798474,294.237254 C170.741558,292.43158 173.801864,290.795561 176.902876,289.272645 C182.45605,286.545642 188.048094,283.892919 193.681762,281.336181 C199.143424,278.857697 204.654668,276.483758 210.185806,274.162702 C220.122082,269.993482 237.592054,261.380845 259.408096,255.155292 C283.731696,248.214438 290.372918,245.37586 310.73272,241.54167 C365.318426,231.262751 387.532959,236.768725 391.603267,236.937768 C396.183166,237.127903 399.414866,242.098931 397.507187,246.310029 C396.343236,248.878995 396.106651,251.33394 396.651746,254.016926 C397.239383,256.908999 397.683172,259.829806 398.206231,262.73533 C399.141554,267.93134 399.454654,273.139579 399.56453,278.439828 C399.668897,283.480246 398.033918,299.115965 389.185383,313.965466 C381.931733,324.792476 371.852832,331.424589 359.348397,334.765405 C349.729506,337.335288 332.489997,336.959908 326.241146,334.569768 C321.742047,332.848769 316.010133,329.118205 311.484712,326.402206 C305.895423,323.047634 300.683507,319.164228 295.783161,314.838499 C293.743264,313.038022 291.353232,311.595501 288.997173,310.201278 C286.718853,308.852601 282.650076,310.122105 280.537642,312.686791 C279.829722,313.546374 279.251879,314.523339 278.68842,315.489605 C276.277882,319.624894 274.09689,323.910579 271.448237,327.8863 C268.528107,332.268887 265.476371,336.54051 261.774867,340.411994 C257.986441,344.374571 253.781467,347.629491 249.229113,350.529818 C243.722766,354.038149 237.571854,355.813254 231.180685,356.78594 C227.862369,357.290929 224.508857,357.566656 221.17126,357.946315 C212.148882,357.665697 203.638851,355.524689 195.545981,351.63517 C189.261627,348.614404 183.627652,344.605974 178.531428,339.914035 C176.313402,337.872374 174.514375,335.319304 172.784211,332.819423 C170.239006,329.142049 167.908962,325.314889 165.521685,321.529914 C164.381607,319.722407 163.335796,317.856208 162.219897,316.033416 C161.133686,314.258923 159.777223,312.713692 157.751404,312.038742 C154.883304,311.083175 154.308521,308.499842 153.449101,306.161974 C152.934613,304.763165 153.595705,303.467678 154.767001,302.685128 M348.08963,228.779071 C348.08963,229.044404 348.08963,229.309738 348.087793,229.575071 C344.277638,229.919883 306.963576,234.58217 271.997922,244.408371 C237.032268,254.234573 208.075514,267.943262 200.661794,271.232418 C198.244829,272.304757 187.653887,277.35893 184.663976,278.570355 C184.218963,278.750708 183.743344,278.855863 182.977885,278.578914 C183.748547,277.884706 184.43596,277.057526 185.302725,276.516772 C192.895491,271.781121 204.664768,264.176628 215.478216,258.024133 C246.072704,242.018231 268.372934,235.593983 281.029788,231.954207 C296.651763,227.46188 324.213491,227.360393 330.312066,227.4683 C335.070399,227.552668 339.825672,227.874247 344.57819,228.158839 C345.756831,228.229452 346.919558,228.565093 348.08963,228.779071 M147.745957,233.638524 C146.3797,231.013924 138.959859,216.315737 136.252748,211.886075 C135.747135,211.058589 134.949539,210.311804 134.113992,209.819653 C133.616643,209.526503 132.591032,209.554931 132.155813,209.892712 C131.738039,210.216736 131.700088,211.119726 131.642854,211.781225 C131.610412,212.15202 131.860158,212.555522 132.01227,212.93243 C133.650003,216.986101 135.278249,221.043746 136.940773,225.087024 C138.099215,227.903287 139.317338,230.694791 140.482819,233.507997 C140.66768,233.954296 140.715426,234.457145 140.85652,235.061787 C139.365696,235.552104 138.696646,234.471207 137.874872,233.86259 C134.461372,231.334281 131.232732,228.510681 127.626413,226.299671 C123.220356,223.598344 118.540069,221.330477 113.910281,219.010644 C110.367623,217.235539 106.787932,215.491002 103.091018,214.081801 C100.950733,213.265931 98.5600887,212.980728 96.2539177,212.777448 C95.5579345,212.716006 94.8328756,212.984396 93.9483588,213.315757 C93.2927757,213.561527 93.1709634,214.431503 93.7298311,214.85304 C94.0582347,215.100644 94.3263443,215.2865 94.6174085,215.424669 C98.1995486,217.125798 108.270492,221.996868 109.661846,222.841166 C113.568717,225.211743 122.170567,231.495376 123.020192,232.426183 C121.578338,232.519722 120.599861,232.711386 119.646786,232.624877 C103.285061,233.519919 72.5739638,232.059362 54.0291046,211.83686 C45.5343764,202.573422 43.4660149,195.650298 41.7269753,190.059955 C40.6386217,186.560489 33.8856877,170.51821 56.0451296,145.053233 C59.343857,141.648834 72.9727616,127.291789 105.186925,119.882934 C105.922084,122.831559 100.232713,136.32413 97.5415171,140.439549 C97.3190106,140.780386 96.9036856,144.819385 99.2129172,143.853424 C101.522149,142.887464 103.350864,141.411012 104.558888,139.598919 C108.911384,133.07135 112.355797,126.042154 114.646358,118.501244 C114.848359,117.836993 120.16556,102.46783 121.480093,98.8638195 C121.584766,98.5776996 129.223441,75.3105875 130.452276,70.8100069 C132.897705,61.855921 134.79406,52.7991254 143.641371,38.4643956 C152.88044,23.4947609 168.297354,14.1585705 185.430965,10.81164 C205.390439,7.25378785 231.116106,8.18337187 251.763605,18.8557056 C272.411105,29.5283451 297.774089,57.149921 299.899684,61.4649516 C290.664594,68.0695528 279.978774,75.4059608 278.122513,90.1206553 C277.93,90.9117646 278.246161,91.9752381 278.66118,92.7318052 C279.386545,94.053887 280.725563,93.9539285 281.518568,92.6431569 C283.570402,89.2528194 290.419439,73.9111677 309.755466,64.3515224 C362.935434,38.0599762 390.934217,67.8674959 396.696431,73.1454301 C413.190068,88.2529281 415.76037,111.633143 415.931152,115.076364 C416.291386,122.341242 415.040514,129.418124 413.471644,136.524964 C410.930112,154.645586 390.555619,179.974229 370.981782,188.412015 C351.408251,196.849495 334.812084,194.789493 328.15005,193.512041 C320.08595,191.965893 312.861375,188.578307 305.946841,184.405725 C303.437445,182.891674 287.906065,167.819635 284.278934,162.189859 C283.848305,161.521023 283.302598,160.866248 282.665991,160.402832 C281.507856,159.560062 279.446533,159.848016 278.080276,160.827427 C276.673007,161.836183 277.260644,163.028655 277.851343,164.073481 C279.448064,166.897387 280.883185,169.873218 282.876255,172.399999 C287.552258,178.328428 292.981783,183.489896 299.195131,187.888379 C306.062532,192.749666 313.457277,196.614119 321.259694,199.530035 C326.463653,201.474795 332.07253,202.392763 337.551943,203.519207 C339.377904,203.894587 340.41637,204.510539 341.061241,206.300623 C342.301095,209.741704 343.80661,213.0868 345.178682,216.481112 C345.549934,217.398774 345.838244,218.34945 346.189602,219.356983 C343.824973,219.356983 309.888603,214.531767 270.307853,225.835643 C245.940179,232.794837 220.254606,245.567829 215.064115,248.356887 C203.230871,254.715107 165.916198,279.879904 162.195106,282.282271 C161.823548,279.142595 161.680311,276.426595 161.150825,273.787934 C160.215196,269.126258 159.095318,264.499124 157.949119,259.883301 C157.391476,257.637749 156.63275,255.439883 155.909527,253.238349 C153.694256,246.496191 151.038258,239.964342 147.745957,233.638524 M401.478943,309.87603 C402.288781,308.113152 403.183704,306.691112 405.597914,307.301868 C406.855214,307.619779 408.215656,306.92496 408.569156,305.704977 C408.788296,304.949327 408.21994,303.764802 407.667806,303.023214 C405.550169,300.179133 405.501505,300.218872 407.776764,297.521825 C408.825329,296.278304 409.878792,295.038451 410.902873,293.774754 C412.477251,291.831523 412.026117,290.403981 409.633331,289.784666 C408.863893,289.58536 408.065686,289.497017 407.023853,289.31269 C407.21912,287.205918 407.288902,285.204607 407.619754,283.247315 C407.922143,281.459677 409.079666,280.850143 410.790854,281.640641 C414.021024,283.132989 416.607547,285.442123 418.043892,288.734642 C420.150511,293.563221 419.759671,298.466999 417.977171,303.308417 C417.70141,304.057342 417.284554,304.824913 416.734256,305.391651 C412.430118,309.82437 407.332057,312.769326 401.08596,313.456809 C400.811117,313.487071 400.514238,313.319251 399.882222,313.152653 C400.511177,311.866642 401.017096,310.881424 401.478943,309.87603 M449.955362,191.038143 C451.058712,185.729641 451.492401,180.435811 451.033003,174.977523 C450.574523,169.528101 450.864057,164.018153 450.750203,158.536328 C450.68899,155.592594 450.46832,152.651917 450.321717,149.710017 C450.077786,144.813577 450.231123,139.975827 452.191445,135.357558 C453.681351,131.847698 456.465589,130.257226 460.100678,130.074427 C466.970221,129.728393 472.953105,131.956522 477.800196,136.822088 C480.877641,139.911022 484.01079,143.033275 486.541304,146.554751 C489.922361,151.259834 492.199763,156.542353 493.474814,162.310909 C495.272923,170.44668 495.751909,180.937132 495.156008,189.31317 C494.560413,197.688903 493.334331,211.076013 492.636206,214.142937 C491.713738,218.198137 487.297887,235.710448 486.36593,240.488284 C486.100881,241.848576 485.787781,243.598309 487.48642,244.223738 C489.269227,244.880041 490.666396,242.814842 491.511737,240.041986 C493.265774,234.073818 497.446876,231.063445 503.346511,229.52769 C509.246452,227.991936 511.332259,229.937918 513.998971,232.457668 C520.879226,241.321272 519.495217,258.043697 518.42737,262.139552 C517.623041,265.226346 515.921341,268.13248 514.306256,270.939268 C512.894702,273.391462 511.069047,275.609503 509.372856,277.891126 C509.039249,278.339564 508.461099,278.606731 507.932226,279.005343 C507.837653,278.601534 507.692886,278.34262 507.766035,278.242968 C510.216972,274.894814 509.920093,271.001933 509.387547,267.33862 C508.857143,263.68784 506.696351,260.57384 504.151146,257.860592 C498.879854,252.240904 492.342081,248.506366 485.270231,245.734121 C476.733879,242.388108 468.023684,239.560228 458.845521,238.489418 C458.241356,238.419111 457.647291,238.247623 457.052614,238.105785 C455.803579,237.808355 455.216553,237.108645 455.204311,235.728483 C455.174929,232.472647 455.259402,229.180739 454.813165,225.970755 C453.77929,218.534083 452.443027,211.139901 451.2601,203.72371 C450.747448,200.509446 449.753055,192.012051 449.955362,191.038143 M530.356717,260.956251 C530.624214,257.719061 530.788569,254.473311 531.023318,251.23337 C531.07443,250.52663 531.207873,249.823863 531.338561,249.125681 C531.599019,247.736044 532.414672,247.052229 533.869075,246.986813 C536.56731,246.865762 539.150467,247.292191 541.598956,248.421386 C542.706285,248.932184 547.203242,250.782181 549.917087,256.486238 C551.153268,260.449427 551.673266,264.51716 550.991974,268.542708 C549.661832,276.401835 545.607745,287.240155 531.937523,295.338632 C527.299165,298.507349 522.076537,299.463222 516.524281,298.895873 C512.811147,298.516214 509.791241,296.876221 506.965072,294.205768 C506.574844,293.836808 506.621978,293.200069 507.059033,292.888272 C507.722574,292.414768 508.252978,292.025633 508.826843,291.717198 C516.113547,287.80139 521.476351,281.913006 525.852414,275.056215 C528.584622,270.77481 529.940473,265.99514 530.356717,260.956251 M577.603688,275.598498 C576.09603,270.007238 574.381782,267.919724 571.021536,265.261805 C568.152824,262.992715 565.049976,261.019527 562.162289,258.772447 C561.170344,258.000595 560.3198,256.894937 559.753281,255.76727 C558.890189,254.04994 558.425588,252.137277 557.621871,250.385098 C556.010459,246.872487 553.550339,243.915915 550.229881,242.045742 C546.704669,240.060632 542.872783,238.602827 539.119248,237.048426 C537.98621,236.579201 537.217078,235.97303 536.760741,234.865539 C536.698916,234.715754 536.630359,234.550073 536.555986,234.370942 C528.776523,229.930276 520.365655,226.733742 513.69444,220.690987 C514.015498,221.41882 514.336862,222.146958 514.660981,222.874791 C509.695444,222.088267 505.026175,221.348818 499.979532,220.549455 C499.435967,217.235233 502.786725,204.207607 503.431596,200.614295 C503.515151,200.738709 503.594727,200.864956 503.677363,200.989981 C503.195011,193.819559 504.837947,186.531143 505.925076,179.444173 C506.045665,178.35166 506.135341,177.256089 506.14391,176.155934 C506.145134,176.020822 506.152174,175.887849 506.157071,175.75396 C505.658803,174.905076 505.273472,174.042743 505.181348,173.15412 C504.746435,168.96442 503.710112,164.956602 502.619004,160.951534 C501.684599,157.522069 500.674597,154.065093 499.213461,150.839213 C497.669382,147.429617 495.972273,143.92526 493.588668,141.095546 C484.102302,125.837652 466.552754,120.878851 459.453664,120.658759 C456.94029,122.034641 454.080454,122.942827 451.217558,122.967893 C450.838348,123.303228 450.471381,123.652013 450.11788,124.014249 C449.732855,124.408886 449.363133,124.818502 449.006878,125.239429 C446.392503,129.015539 444.5038,133.163972 442.624278,137.338694 C442.410035,137.814338 442.146211,138.24474 441.845658,138.636015 C441.422682,141.860061 441.441658,145.133627 441.909319,148.514489 C443.006549,156.446063 443.25507,164.491657 444.025732,172.473057 C444.599903,178.42105 444.054196,184.235459 442.724666,190.030915 C442.20222,192.307647 441.636619,194.658049 441.689873,196.96107 C441.755064,199.773054 442.348823,202.59054 442.898509,205.369205 C443.665498,209.248942 444.65224,213.084966 445.453814,216.958284 C446.317824,221.131477 447.231111,225.304976 447.815076,229.52066 C448.101549,231.58861 447.713157,233.753461 447.589203,235.872155 C447.517584,237.095807 446.764368,237.672937 445.580217,237.730406 C441.023272,237.951721 438.588861,240.833095 437.298814,244.744012 C435.359916,250.622309 430.537004,268.518253 430.357652,271.531683 C430.062609,276.483147 427.430483,285.240067 432.19861,298.41595 C436.966737,311.592138 450.297538,325.01104 450.376808,326.341375 C450.46526,327.823941 450.077174,329.385984 449.646852,330.839816 C447.519421,338.029801 437.918893,368.695681 430.643207,380.694682 C429.32898,383.913836 426.586978,385.49361 423.433936,386.263321 C417.107651,387.808246 394.510542,391.456581 393.323024,391.456581 C394.494627,389.016614 403.617698,376.065103 404.231963,358.354708 C404.499155,355.645434 404.460285,352.900394 404.446206,350.172168 C404.442227,349.389006 404.128821,348.565494 403.795826,347.833688 C402.889579,345.841242 401.176554,345.253718 399.282342,346.408896 C397.82396,347.29813 396.519833,348.439858 394.937803,349.626828 C394.75386,349.065287 394.472284,348.625714 394.491566,348.200202 C394.743454,342.715015 396.008711,328.184953 396.231218,326.388756 C396.493206,324.272814 396.677149,324.036215 398.850183,323.927697 C405.562105,323.592056 416.949417,318.983875 421.82283,314.820158 C425.349573,311.807034 427.760417,307.916904 429.165544,303.74799 C430.258488,300.505297 430.255427,286.43101 426.33815,281.480769 C423.857524,277.431683 419.944532,275.33989 415.667021,273.819419 C413.655587,273.104425 411.564577,272.595768 409.486116,272.091389 C408.096904,271.75422 407.504981,270.951801 407.261051,269.569194 C406.272779,263.970292 405.251147,258.375058 404.106172,252.806418 C403.756344,251.104983 404.163712,249.724516 405.253595,248.591652 C407.395105,246.366581 407.04895,244.084346 405.82746,241.601278 C404.391421,238.681693 403.041997,235.717479 401.724098,232.74226 C400.883348,230.843659 399.443942,229.839488 397.433732,229.866999 C390.726401,229.957787 384.04478,229.151088 377.31633,229.551534 C373.170426,229.797915 368.98259,229.320131 364.812813,229.198775 C363.195586,229.152005 361.57591,229.191133 359.444806,229.191133 C360.869215,227.38821 360.021119,226.166698 359.283818,224.805183 C356.767077,220.159097 354.31216,215.477858 351.946919,210.753211 C351.010066,208.882427 350.370092,206.863081 349.451602,204.549361 C350.768277,204.247346 351.906825,203.886639 353.072612,203.734408 C394.367611,197.004171 414.785565,163.67487 419.516965,148.533135 C424.248365,133.391095 425.766122,120.999596 426.197668,117.310606 C426.373041,117.333838 426.707566,117.490959 427.159619,117.748651 C426.134926,114.721465 425.721131,111.490083 425.812031,108.254422 C425.511479,107.321475 425.209091,106.388834 424.923536,105.450691 C424.001679,102.421977 423.29529,99.2214694 423.157869,96.026158 C422.697553,95.5025219 422.332116,94.8605862 422.01473,94.2376029 C421.288447,92.8115886 411.594877,56.7827949 368.17061,48.2783697 C345.202249,43.7802346 328.767375,48.085789 312.853418,54.7075085 C309.515208,56.1167102 306.31993,55.214332 304.411332,52.175225 C301.810118,48.0338227 281.071718,25.2130088 263.101948,14.9909471 C255.812489,10.7673159 234.240378,0.879977763 216.139614,0.136860775 C198.039155,-0.606256212 175.609768,1.41125597 157.301494,12.8147851 C138.992914,24.2183142 128.687833,46.131859 124.690062,57.7120732 C120.692291,69.2922875 111.211128,102.29145 110.569011,104.842075 C109.665213,108.430495 107.458206,110.432418 104.177842,111.588513 C102.737212,112.095948 70.5447782,117.310606 44.2556528,141.632632 C26.1328519,158.399381 24.5385792,182.878223 33.3555897,198.982862 C34.6612468,200.563246 35.4658816,202.580758 35.5163817,204.635564 C35.517606,204.688447 35.5221969,204.739496 35.5240332,204.791768 C35.6391122,205.27536 35.7756155,205.752838 35.9442552,206.226953 C35.9623129,206.277391 35.978228,206.323243 35.993225,206.366651 C36.1064677,206.557397 36.223077,206.738668 36.2775559,206.84046 C37.1112665,208.401281 38.0998442,209.873148 39.1220885,211.315975 C40.6282156,213.441699 42.2114701,215.517597 43.5740545,217.738083 C43.6101697,217.694676 43.6423062,217.656771 43.6802577,217.610918 C60.2097041,236.706977 75.6318211,237.503589 90.7925619,239.352363 C105.953303,241.201444 128.469306,239.688921 131.39923,239.356643 C138.649819,238.831478 145.218198,248.801962 148.620986,257.155991 C153.272504,268.575416 153.77016,285.387406 153.637941,291.990173 C153.614068,293.189065 153.634575,294.389179 153.634575,295.379594 C151.099776,297.576542 148.879608,299.494096 146.667398,301.42082 C145.233195,302.670149 145.13648,304.064984 145.886024,305.806464 C147.151893,308.747446 148.198622,311.782579 149.455615,315.089159 C148.660162,314.795092 148.041306,314.589978 147.440814,314.34054 C142.286744,312.200143 137.12594,310.075947 131.988397,307.897034 C128.902382,306.588402 125.814225,305.274268 122.796462,303.818908 C112.425885,298.817924 101.682219,294.734601 90.8908075,290.768967 C83.7317304,288.138253 76.5423532,285.591297 69.3719517,282.991763 C63.1016763,280.7187 56.8812887,278.297991 50.559595,276.178686 C45.252188,274.399301 39.8315383,272.958308 34.4595524,271.372421 C32.83651,270.893415 31.2055099,270.440086 29.5818553,269.964137 C28.8118054,269.962914 28.0310433,269.845837 27.2573207,269.594565 C21.1890456,267.625351 14.6570878,267.197394 8.5845278,265.35565 C8.27234539,266.590612 7.96383572,267.826491 7.65777453,269.063593 C4.98922707,279.848724 3.22631465,290.780889 1.51298414,301.724058 C1.00124984,304.992428 -0.174331172,319.471135 0.0218540471,335.952069 C3.02431426,337.270483 5.53554628,339.065763 8.17042702,341.119346 C9.36773837,342.052293 10.52618,343.030786 11.667176,344.030066 C11.9756857,344.153256 12.282053,344.28684 12.5832172,344.443045 C14.2056475,345.28398 15.7304443,346.386276 17.084459,347.67137 C17.2292259,347.522807 17.4125566,347.509663 17.6399601,347.654557 C21.0375453,349.817575 21.3276913,350.095747 23.0554067,351.463376 C29.1065423,356.253439 62.4610902,380.519219 67.9203035,383.411292 C72.0698811,385.609464 73.1597649,388.704511 73.8058601,392.886875 C74.6086586,398.086248 75.991137,403.229376 77.5437854,408.267348 C78.3680081,410.941469 79.9390202,413.433402 81.46902,415.818346 C82.0263575,416.687405 83.3849631,417.337288 84.4748469,417.524672 C91.2966447,418.698498 98.1141575,420.045951 104.994107,420.693695 C113.051474,421.452096 120.383475,424.102985 127.457161,427.752236 C129.157943,428.629854 130.787107,429.648698 132.431574,430.631776 C133.796301,431.447646 134.051862,432.558806 133.387097,434.015083 C131.446057,438.268366 129.710996,442.622218 127.61968,446.798774 C125.068048,451.895438 121.925718,456.646373 118.636172,461.300713 C118.64566,463.022935 118.332559,464.786729 117.978753,466.460653 C117.534046,468.564674 116.778993,470.592579 116.318065,472.690486 C116.299395,473.109273 116.297559,473.528671 116.311637,473.947763 C116.54455,474.094491 116.68595,474.202703 116.761547,474.275456 C116.808681,474.302356 116.853978,474.332007 116.902029,474.357073 C117.044348,474.431966 117.188809,474.502273 117.333576,474.571663 C117.953962,474.796647 118.57343,475.02163 119.200549,475.228883 C120.822367,475.764441 122.457652,476.256592 124.079164,476.792455 C126.030916,477.437753 127.611722,478.585596 128.711706,480.054711 C229.20506,480.063576 368.058898,492.566344 372.174197,492.735081 C376.117183,492.896482 397.06401,493.457106 419.416883,494 C420.994628,493.690037 422.570843,493.372737 424.143386,493.036485 C431.181263,491.533133 438.407673,489.896808 445.221819,487.421076 C445.381277,487.342515 445.541041,487.265178 445.699887,487.185394 C451.323761,482.337863 457.77094,478.74394 465.093148,477.070322 C465.186496,477.048924 465.280151,477.029971 465.373806,477.009185 C466.363608,476.59804 467.355552,476.192398 468.344742,475.78431 C469.751705,475.204123 471.17642,474.67529 472.646738,474.276984 C476.020756,473.363602 479.598612,473.037743 483.047309,472.6697 C483.773286,472.592362 484.498651,472.558125 485.224322,472.560876 C487.304008,471.237266 489.568861,470.230344 492.021023,469.543473 C494.247006,469.24482 496.473295,468.945861 498.699584,468.647208 C499.244679,468.622754 499.787019,468.624282 500.325993,468.645986 C506.035871,465.922955 511.627915,462.954461 516.808,459.33639 C518.446652,457.928105 520.002361,456.431172 521.464109,454.843757 C521.795573,452.890132 522.42912,451.019043 523.36934,449.23171 C523.832716,447.809059 524.453715,446.478418 525.217643,445.231228 C525.115725,445.222058 525.016255,445.21197 524.910664,445.204939 C525.334559,444.135047 525.606647,443.496779 525.84262,442.845367 C527.320896,438.766936 528.743162,434.665578 530.198789,430.577976 C530.198177,429.23144 530.179201,427.884903 530.148901,426.539284 C530.050961,422.162199 529.99128,417.782975 529.884464,413.406808 C529.87467,413.004528 529.858755,412.602554 529.8459,412.20058 C529.388951,411.113874 528.935062,410.025946 528.486989,408.93435 C526.839768,404.921029 525.278855,400.833121 524.086135,396.649229 C521.459212,390.226204 514.325538,373.247616 512.104452,364.712011 C509.550065,354.894675 509.500483,349.134372 509.54272,343.541278 C509.558941,341.402103 509.961411,340.935019 512.071397,340.362779 C515.307076,339.484856 518.595397,338.777504 521.782413,337.753463 C525.975145,336.406315 529.80397,334.283342 533.356728,331.671887 C534.234512,331.026589 535.16708,330.455571 536.544662,329.536686 C536.544049,329.796823 536.540071,330.055737 536.53854,330.315263 C536.692795,330.219889 536.846132,330.123905 537.002835,330.031283 C539.932147,328.1498 543.360338,326.982088 546.541844,325.674679 C548.015223,325.069425 549.512168,324.55282 551.05441,324.151763 C551.710911,323.981191 552.366188,323.845774 553.020241,323.728697 C553.653788,322.442991 554.735714,321.484367 556.386914,320.766316 C575.654384,311.730613 582.168896,295.132601 577.603688,275.598498" id="Fill-3" fill="#010202" mask="url(#mask-2)"></path>
                </g>
                <path d="M341,179.807621 C342.454375,179.886952 352.233825,181.799332 356.445707,181.233707 C374.589036,180.244567 388.867576,166.007132 394.187045,161.183551 C395.44129,160.046055 396.781088,159.007568 397.989808,158 C399.404462,158.984768 399.035369,159.903634 398.653443,160.74317 C394.791405,169.234097 379.158706,184.423505 370.470038,186.773767 C361.781064,189.124029 354.918002,190.427683 347.271228,186.457379 C345.585253,185.582239 344.103074,184.225489 342.686892,182.910904 C342.033645,182.304365 341.76538,181.264628 341,179.807621" id="Fill-8" fill="#010202"></path>
                <path d="M281.140974,195.082958 C276.326863,191.124359 271.833652,186.925956 268.066506,182.01309 C265.340106,178.457767 263.521677,174.420058 263.101274,169.875239 C263.082618,169.671284 263.002393,169.470418 263.000527,169.267389 C262.988089,167.984321 263.187407,166.750078 264.498368,166.140683 C265.510195,165.670348 267.0979,166.418495 267.836404,167.801069 C268.65451,169.332284 269.500913,170.903054 269.96174,172.559423 C272.0395,180.028228 276.984209,185.201293 283.252006,189.362612 C288.803998,193.048343 294.957365,195.4371 301.23449,197.552679 C302.382824,197.939578 304.06257,198.011271 303.998204,199.538778 C303.917979,201.442366 303.16455,201.856768 300.580565,201.955656 C297.99658,202.054234 292.611256,202.559489 281.140974,195.082958" id="Fill-12" fill="#010202"></path>
                <path d="M256.22384,31 C257.005257,31.0951402 257.872599,31.008207 258.555016,31.314297 C264.72323,34.0797454 271.198407,36.2226792 276.817761,40.1018452 C282.509964,44.031773 287.954044,48.2456015 292.390065,53.5169146 C294.077428,55.5215456 295.301856,57.9280146 296.541849,60.250894 C297.38522,61.8305858 297.107832,62.4740738 295.345129,65 C292.353018,61.8959376 289.495397,58.7830604 286.470286,55.8343227 C283.336523,52.7795022 280.150458,49.7569017 276.782893,46.9543699 C273.481017,44.2065513 269.945338,41.7222679 266.468187,39.1796238 C263.007226,36.6485303 259.491471,34.1885639 256,31.6975933 C256.074717,31.4650622 256.149123,31.2325311 256.22384,31" id="Fill-14" fill="#010202"></path>
                <path d="M279.292132,212.907408 C273.226087,211.751637 268.861469,208.048314 265.636002,202.694208 C265.367948,202.249018 265.022308,201.74698 265.013484,201.265063 C265.00101,200.598874 264.905472,199.861466 265.479916,199.32877 C266.05436,198.796394 266.809839,199.021225 267.391281,199.235197 C268.023535,199.467693 268.549906,200.0649 269.076885,200.556718 C271.683486,202.988341 275.926096,205.263796 277.978638,205.827789 C280.031181,206.391463 281.028547,206.625236 282.217902,207.397454 C286.011728,209.859736 283.137073,213.640025 279.292132,212.907408" id="Fill-16" fill="#010202"></path>
                <path d="M350.00138,492.013809 C349.977684,491.998909 350.266551,491.951009 350.292503,491.953809 C350.543005,491.980109 350.767553,492.014209 351,492.046309" id="Fill-20" fill="#010202"></path>
                <path d="M289.533178,468 C289.354,467.794322 289.177,467.588138 289,467.38246 C289.243987,467.248719 289.481439,467.099274 289.740131,467.000488 C289.776076,466.986809 290.029322,467.26493 289.997189,467.33484 C289.887722,467.573953 289.696018,467.780644 289.533178,468" id="Fill-22" fill="#010202"></path>
                <path d="M394.27882,283.106703 C391.294046,292.764406 390.385544,287.094412 387.855174,276.951909 C385.324805,266.809406 380.549289,252.339216 380.549289,252.339216 C380.549289,252.339216 387.67439,243.117215 389.782726,251.03983 C391.891062,258.962444 397.263593,273.449 394.27882,283.106703 M400.816677,268.917512 C400.53359,262.353572 398.746208,256.165737 397.033337,249.952581 C395.102732,242.948616 392.720471,241.255214 385.429549,241.102363 C380.765497,241.004785 362.491623,240.601197 344.631843,242.519707 C326.772369,244.438526 301.361179,251.66729 299.309949,252.059762 C295.866191,252.71841 292.247756,254.424472 289.870687,256.925359 C288.827207,258.023415 288.246682,259.490475 288.186827,261.01219 C287.941913,267.252519 287.829839,271.931607 288.547785,278.029893 C289.167094,283.292594 289.944283,288.551899 291.617149,293.682129 C293.093961,298.212381 295.099079,302.42211 297.340866,306.549083 C298.210279,308.148922 299.316667,309.688856 300.591013,310.976817 C303.172992,313.587015 305.771461,316.235813 308.671339,318.457554 C314.822892,323.170609 321.100566,327.721859 328.299874,330.771465 C336.625114,334.297534 345.156179,335.904784 354.19967,334.485587 C365.354551,332.735367 375.774079,329.213313 384.461498,321.697992 C387.202579,319.326488 389.590642,316.404412 391.65592,313.39464 C396.325469,306.590461 398.320815,298.647466 399.825111,290.683473 C401.176108,283.529745 401.131828,276.225944 400.816677,268.917512" id="Fill-24" fill="#010202"></path>
                <path d="M268.79294,311.09914 C266.134342,319.648911 265.324937,314.629577 263.071041,305.650316 C260.816838,296.671363 256.563019,283.861176 256.563019,283.861176 C256.563019,283.861176 262.909895,275.696868 264.787886,282.710636 C266.665878,289.724404 271.451539,302.549369 268.79294,311.09914 M277.627159,301.789526 C276.142841,287.34851 269.636658,272.372094 268.547239,269.626438 C266.188874,263.682854 264.268911,262.251221 258.006591,263.330026 C252.201974,264.330321 244.999433,267.142786 239.412945,268.973121 C231.481571,271.571919 187.378797,291.039967 169.753863,305.88615 C167.793154,307.538224 167.622818,310.072983 168.523518,312.483052 C170.687651,318.274544 173.943959,323.465982 177.640814,328.354161 C179.869282,331.301169 182.55913,333.89812 185.013692,336.645007 C187.144125,339.029522 189.43264,341.102464 191.831444,343.133843 C196.986883,347.499553 203.012999,350.339111 209.282365,352.483481 C216.078978,354.808268 223.115472,355.426179 230.384493,354.730682 C238.364885,353.967145 245.837023,351.710707 252.780383,348.007551 C259.034432,344.672001 264.229697,339.721631 268.499447,334.052674 C274.216445,326.461943 277.732547,317.927258 278,308.189078 C277.883889,306.054867 277.88297,303.906495 277.627159,301.789526" id="Fill-26" fill="#010202"></path>
            </g>
        </g>
    </g>
</svg>