<?xml version="1.0" encoding="UTF-8"?>
<svg width="825px" height="697px" viewBox="0 0 825 697" version="1.1" xmlns="http://www.w3.org/2000/svg" xmlns:xlink="http://www.w3.org/1999/xlink">
    <title>Group 28</title>
    <defs>
        <polygon id="path-1" points="0 0 816 0 816 697 0 697"></polygon>
    </defs>
    <g id="Symbols" stroke="none" stroke-width="1" fill="none" fill-rule="evenodd" opacity="0.0781802223">
        <g id="FOOTER" transform="translate(-1285.000000, 0.000000)">
            <g id="Group-28" transform="translate(1697.500000, 348.500000) scale(-1, 1) translate(-1697.500000, -348.500000) translate(1285.000000, -0.000000)">
                <path d="M79.0359228,681.028545 C79.0237988,681.018926 79.0121239,681.009618 79,681 C79.5662326,681.596029 79.870229,681.891716 80,682 C79.6766951,681.677009 79.3533902,681.354018 79.0359228,681.028545" id="Fill-1" fill="#010202"></path>
                <g id="Group-5" transform="translate(9.000000, 0.000000)">
                    <mask id="mask-2" fill="white">
                        <use xlink:href="#path-1"></use>
                    </mask>
                    <g id="Clip-4"></g>
                    <path d="M795.358564,428.214705 C788.223767,437.683435 781.680769,442.453598 768.0983,444.444904 C754.515831,446.436641 745.496078,438.833709 743.265187,434.499589 C745.151437,433.946664 746.498081,433.600763 747.811512,433.155662 C749.98029,432.419867 765.754398,426.153961 776.43481,413.849874 C787.115654,401.545787 789.634249,380.444071 790.017711,379.15492 C794.152106,379.965761 801.916659,386.43524 803.759344,397.884062 C805.60246,409.332884 802.493361,418.745976 795.358564,428.214705 M739.264507,464.972992 C731.547833,469.140199 723.180697,470.973219 714.60048,472.125648 C713.4708,472.277466 712.292379,472.407718 711.2563,472.83686 C709.319151,473.639938 708.087244,475.224529 708.932239,477.283548 C709.986003,479.851932 709.425692,482.362952 709.409733,484.919259 C709.329503,497.768507 710.695989,510.405988 714.65224,522.716113 C718.468306,534.59192 737.134119,579.360285 733.388361,601.419915 C729.642603,623.479976 723.504634,637.951338 720.407612,640.888051 C720.032777,639.406971 719.749818,638.23082 719.436665,637.063295 C718.178877,632.375079 713.157216,628.763384 709.086659,630.062024 C704.462693,631.536634 700.768696,634.87963 701.900964,641.157612 C702.583344,644.941826 704.86729,647.652969 707.739152,649.915131 C708.428865,650.458567 709.609012,650.674216 710.517845,650.583643 C712.319553,650.402929 712.885471,649.037869 711.876135,647.46708 C711.103174,646.264188 709.866953,645.299804 709.324759,644.022298 C708.564306,642.229821 708.015641,640.263962 707.868986,638.334763 C707.806441,637.509257 708.886517,635.970815 709.624971,635.850483 C710.875858,635.647341 712.487344,635.985479 713.545422,636.694534 C714.886458,637.593792 714.433551,639.335376 712.686192,640.530504 C711.651839,641.237834 709.825113,641.651449 710.768885,643.211456 C711.376644,644.215519 713.042479,645.070785 714.251957,645.095369 C715.800468,645.126422 717.367095,644.254768 719.292166,643.659144 C717.238124,646.391852 715.467473,648.972312 713.431117,651.322027 C712.813869,652.034101 711.348175,652.602121 710.463065,652.399411 C678.078049,648.632017 632.435364,674.634148 628.317791,677.15552 C624.465493,679.51386 620.394505,679.408192 616.243287,679.299505 C612.805075,679.210226 609.364275,679.024336 605.938141,678.722859 C603.86512,678.539988 601.818842,678.055209 599.276093,677.624341 C601.748103,671.670695 614.922092,644.754643 614.19054,619.160521 C613.458987,593.566398 614.562355,556.232759 614.971265,552.976455 C615.714896,547.057313 618.386616,541.773042 620.826707,536.423645 C625.170302,526.901866 637.143441,497.745649 638.62035,492.645974 C640.697684,485.475634 642.573582,478.246638 644.573706,471.053871 C644.991243,469.55209 645.575278,468.096888 646.205897,466.261281 C647.895456,466.791347 649.34519,467.262757 650.805277,467.700956 C653.760819,468.587706 655.651814,468.344885 656.24922,466.840515 C657.1986,464.448533 655.433125,463.093824 653.977783,461.74084 C651.666663,459.592542 649.075603,457.715531 646.952547,455.402907 C643.859838,452.033603 641.136357,448.328316 638.15062,444.856794 C632.318902,438.07678 627.392998,430.654993 623.41863,422.69969 C619.980849,415.819183 617.711569,408.672134 617.729254,400.587873 C617.748233,391.619881 618.653184,382.809313 620.193931,374.097081 C621.58716,366.216824 624.242058,358.584564 627.926566,351.371957 C629.436256,348.415836 631.620131,347.405304 634.857339,347.393245 C643.846467,347.36088 652.539695,349.283609 661.264843,351.019155 C664.361434,351.635049 667.426968,352.43899 670.46921,353.291667 C679.953948,355.950623 688.803321,359.943586 696.693395,365.93303 C700.927429,369.147067 704.211653,373.187472 705.947366,378.144818 C708.185589,384.53882 706.453759,390.270348 701.873789,395.211304 C697.358953,400.08196 691.615659,402.413991 685.224924,403.482749 C678.074167,404.67874 671.016149,404.319469 663.805005,403.364573 C654.317248,402.108632 632.873605,395.619744 630.797565,395.304034 C630.574994,399.877955 633.269144,402.297109 636.0198,404.076647 C660.45263,419.583558 680.889524,417.535752 689.704391,415.757076 C692.016374,415.290843 693.803847,415.453011 695.769464,416.730949 C709.356246,424.655198 703.762628,433.014628 702.789525,435.147399 C698.894092,443.68323 693.116291,450.341618 684.025798,453.642346 C682.681311,454.130576 681.345882,454.723612 680.131228,455.471053 C678.572365,456.430692 678.51931,457.742702 679.9065,458.993468 C681.639625,460.555632 683.716959,460.919648 685.952163,460.446082 C691.774823,459.212137 697.119127,457.172526 701.797874,453.179563 C705.53026,449.994423 709.499883,447.155615 711.655289,442.594201 C712.568868,440.66069 713.293519,438.62151 713.926726,436.575429 C715.171574,432.551844 715.817721,431.944576 720.057363,432.306867 C722.91111,432.550982 725.74372,433.096143 728.568567,433.602488 C730.195581,433.894046 731.323967,434.673402 731.918785,436.483994 C732.756879,439.035988 734.477926,441.336103 735.089566,443.917425 C736.775244,451.029971 742.637587,453.881717 748.491735,457.531366 C746.036547,460.964934 742.778204,463.075278 739.264507,464.972992 M588.596543,674.766557 C588.056505,676.593969 587.173552,677.764513 584.980618,677.697662 C581.714511,677.598463 578.437189,677.868456 575.171944,677.761925 C570.161066,677.598463 528.316762,676.930382 525.917217,677.343997 C524.180641,676.775546 522.031705,676.090643 519.89614,675.366924 C518.684074,674.956328 517.457774,674.559533 516.299195,674.024292 C510.05037,671.135885 503.849425,668.141379 497.565231,665.332762 C495.832106,664.55815 495.251954,663.5653 495.310185,661.714167 C495.390845,659.147509 495.264031,656.554541 494.952172,654.006429 C494.852101,653.187393 493.988559,651.995715 493.2872,651.845192 C492.551333,651.687337 491.394048,652.389922 490.778957,653.05024 C490.027131,653.858063 489.553088,654.974263 489.12563,656.024907 C488.045986,658.679981 487.11084,661.394143 486.021707,664.044904 C484.788937,667.046743 483.45092,670.005451 482.064592,673.199217 C479.371305,673.001683 476.828986,672.804148 474.284511,672.630335 C465.565833,672.033849 366.141074,663.843057 327.03621,660.695439 C287.931778,657.547822 182.206434,655.088989 180.578125,654.804763 C182.919871,649.938852 185.227972,645.540469 187.184099,640.9907 C190.414837,633.476184 193.418689,625.864626 196.517005,618.29361 C196.571354,618.16077 199.036031,610.549212 199.944434,606.79217 C200.855855,603.021758 202.011416,599.309571 202.899114,595.534414 C203.848493,591.495734 204.621455,587.415649 205.440569,583.347209 C205.551855,582.79299 205.637261,582.149924 205.462999,581.640992 C205.20247,580.87975 204.822459,579.741553 204.272932,579.595774 C203.471071,579.383144 202.018748,579.606556 201.640894,580.174576 C200.22955,582.293978 199.019641,584.573391 197.968896,586.898522 C196.851294,589.371157 196.155111,592.037876 194.988336,594.482908 C193.846147,596.875753 192.928255,597.056035 190.515339,595.831579 C183.163578,592.100414 175.389535,589.643737 167.304496,588.153169 C158.559075,586.540975 149.793813,585.034018 141.049255,583.415786 C135.837372,582.450971 130.642743,581.389976 125.456309,580.296634 C124.604413,580.117214 123.834471,579.547037 123.091272,578.916478 C134.506256,580.891826 143.336651,575.600223 151.194805,568.65761 C156.205683,564.229898 160.595432,558.976681 164.65348,553.630735 C168.182704,548.981336 171.203811,543.856646 173.825496,538.629306 C177.745083,530.812882 181.721177,522.962384 183.879603,514.404557 C184.719422,511.073207 185.454857,507.691826 185.900431,504.289311 C186.644924,498.602208 187.88589,492.829707 187.521838,487.183146 C187.006818,479.189457 188.174025,471.211295 187.179786,463.261599 C186.557793,458.289589 185.854709,453.327498 185.227972,448.355919 C185.162839,447.840517 185.36902,447.291043 185.50748,446.370652 C197.380548,450.423996 208.363761,455.74924 219.676519,461.029629 C216.871514,463.583348 214.25673,465.55999 212.136693,467.971811 C206.314896,474.595264 204.37861,482.663136 204.904414,491.198536 C205.199882,495.998027 205.516054,500.98427 207.883249,505.410687 C209.147075,507.773341 210.356984,510.242526 212.056896,512.274374 C214.238614,514.882005 216.859868,517.128639 219.346112,519.472747 C221.024457,521.054751 222.868004,522.128253 225.280489,522.661338 C228.863632,523.452771 232.205224,525.33884 235.788797,526.126391 C239.960288,527.043763 244.275845,527.331008 248.540074,527.792929 C251.657369,528.130204 254.825131,528.117265 257.903605,528.649057 C259.140257,528.862549 260.554621,529.870926 261.279704,530.932783 C267.42285,539.931828 273.430124,549.024034 279.459827,558.100282 C279.835956,558.666577 280.055508,559.336815 280.779728,560.876551 C277.45539,559.603358 275.145132,558.485432 272.710217,557.835465 C267.941321,556.563565 266.046444,558.238298 265.793247,563.071861 C265.559892,567.531058 267.266705,571.301039 269.814631,574.578477 C273.942124,579.887332 281.737303,593.04539 301.870966,608.65538 C331.807264,631.865284 362.942256,624.908437 368.904239,624.182993 C374.041931,623.55761 379.110609,622.40173 384.256927,623.838385 C387.146906,624.645345 418.934085,635.79959 442.41926,630.300101 C465.904866,624.800612 495.375317,603.791626 502.375104,597.53262 C504.249709,595.856163 506.64796,594.526038 509.035858,593.707864 C516.80947,591.043733 523.346429,586.416761 529.397269,581.111357 C533.919438,577.145998 537.939097,572.612187 542.321944,568.479915 C543.389942,567.473264 544.942335,566.804751 546.38905,566.421326 C548.031162,565.986146 549.813028,565.850287 551.51984,565.922314 C559.610056,566.263471 567.535067,564.73193 575.426004,563.481595 C582.759648,562.319245 589.916443,560.041557 597.148292,558.243473 C598.367259,557.94027 599.57156,557.578411 601.200732,557.127704 C601.577292,560.170947 602.171247,562.840685 602.194108,565.515168 C602.312296,579.163613 602.389074,586.526311 602.195834,606.459639 C604.804147,648.632017 589.283667,672.440132 588.596543,674.766557 M105.295041,533.872083 C110.71181,535.238868 113.526736,535.669304 117.437697,534.06056 C121.093304,532.556622 124.210168,530.600252 125.931646,526.656457 C123.970343,525.558802 122.64354,526.841053 121.322777,527.353004 C116.467613,529.234329 111.673267,529.924838 106.675329,527.809318 C104.21971,526.769889 102.163943,525.419061 100.586964,523.227633 C99.690639,521.981611 97.3618337,518.517852 103.902675,517.496106 C106.177994,517.230857 109.447121,517.674663 109.321601,519.360178 C109.196081,521.045693 106.610628,521.721107 105.694462,522.719995 C104.461692,524.064352 105.042276,525.959047 106.756421,525.757631 C109.06711,525.485913 111.543003,524.793247 113.459878,523.536874 C115.208531,522.390914 114.891496,519.292465 113.522422,516.79352 C112.276712,514.519714 110.418499,513.135246 107.903786,512.48916 C103.945809,511.472158 100.190993,511.949174 96.6552986,513.918053 C92.695165,516.123714 91.5758374,519.552969 93.3098246,523.772794 C93.6363491,524.568109 93.9706377,525.359973 94.3010442,526.153132 C95.1236098,526.621953 94.9286441,526.872106 94.2993189,526.154857 C88.9239584,522.89122 30.3242471,479.70184 28.8792577,478.525688 C27.0982544,477.076525 21.6922687,472.62423 21.8013978,466.475205 C21.9053507,460.613857 21.9049194,454.744314 22.2413647,448.895474 C22.5929069,442.791736 23.1799608,436.695761 23.8705363,430.619627 C24.5175465,424.92476 25.2482366,419.226874 26.2743947,413.591095 C27.8824307,404.756374 29.769975,395.972547 31.610072,386.814783 C33.2806522,387.08607 34.4060186,387.113673 35.4244126,387.456987 C50.3285076,392.484635 167.842377,438.269139 168.494995,438.314425 C173.211267,438.642212 174.333614,441.612134 174.990977,445.779773 C177.063997,458.918422 179.102942,486.900645 172.836002,507.276917 C166.56863,527.653188 151.387183,552.351072 148.231499,555.856236 C145.995432,558.340084 145.049071,558.200775 142.297984,556.523023 C134.586917,551.821006 106.292731,534.796787 105.295041,533.872083 M234.28644,489.676914 C239.089412,490.937169 241.454018,494.957734 244.244358,498.399066 C245.11092,499.467393 245.018613,501.372007 245.208834,502.913468 C245.401212,504.474769 245.226519,506.094296 245.52932,507.625837 C245.866628,509.332486 246.890198,510.258915 248.920947,510.087258 C253.211919,509.723674 254.04915,510.725149 253.543188,515.607018 C251.328688,515.320636 249.129716,514.912196 246.91349,514.770299 C238.002866,514.201847 230.629538,510.073888 224.379851,504.197013 C219.949557,500.031531 218.244901,494.307336 218.829798,488.110006 C219.202907,484.156723 221.025319,476.926002 228.905903,471.938465 C232.250946,469.898422 232.812119,470.04722 235.222448,473.254788 C237.528392,476.323909 239.669564,479.517244 242.281329,483.221236 C240.927352,483.221236 240.184153,483.253584 239.444405,483.214336 C238.014512,483.137996 236.580306,482.886117 235.159041,482.950812 C232.8091,483.058206 231.154479,484.359434 231.142833,486.054868 C231.12903,488.111731 232.579195,489.228795 234.28644,489.676914 M351.516919,504.47822 C348.906448,508.209384 346.806685,511.052505 344.876438,514.006037 C341.540022,519.110025 337.803322,526.386895 335.867468,536.693638 C333.931614,547.000813 324.874765,562.079012 301.272265,563.058491 C295.698488,560.387027 288.907901,551.786933 285.041368,546.433655 C278.126986,536.862276 272.285778,526.665514 267.486257,515.89987 C265.56895,511.59896 264.239991,507.033664 262.710459,502.56541 C262.405933,501.676073 262.407658,500.681067 262.176029,499.110709 C263.8341,499.923275 264.983622,500.403742 266.052051,501.024381 C270.022968,503.332259 278.500958,508.400881 297.658929,512.758291 C316.816901,517.1157 342.608883,508.327129 351.516919,504.47822 M394.568976,610.372811 C396.375428,606.990999 401.845252,598.284374 404.208564,594.723573 C405.468078,592.825859 407.034705,592.450198 409.022751,593.05876 C414.16907,594.633431 420.046942,595.926896 433.642351,593.25155 C448.538251,590.320014 456.167363,583.577523 458.964173,582.284058 C459.906651,581.848015 473.591347,591.060985 479.059877,593.672067 C479.970005,594.106816 480.160226,595.320059 479.422634,596.007117 C475.305924,599.84395 462.586136,610.325368 441.384906,615.837796 C417.273856,622.107584 400.134126,613.970704 395.099524,611.859498 C394.518509,611.616245 394.272214,610.928324 394.568976,610.372811 M437.452378,487.525597 C425.376149,496.570791 411.723803,500.704788 396.643721,499.15427 C389.548177,498.424944 382.355149,497.604614 375.998921,493.833339 C374.577655,492.99015 373.255598,491.979186 371.358564,490.683565 C374.251562,487.666631 376.705025,485.446737 378.753459,482.901213 C383.339036,477.20419 399.499624,451.752396 401.227573,449.490235 C403.100883,447.037871 404.513522,446.801088 407.119248,448.669042 C412.944064,452.845307 418.63646,457.207461 424.347834,461.540287 C429.491134,465.442245 445.488676,476.841467 447.012601,477.89513 C444.754535,482.453525 440.928548,484.921847 437.452378,487.525597 M418.132655,546.469884 C418.847817,542.129726 419.740259,537.818465 420.743556,532.528156 C423.982058,536.941204 426.369094,541.041991 428.744053,545.716405 C429.313853,546.838213 428.610337,548.190765 427.36549,548.379243 C424.948691,548.745415 422.947273,549.061126 420.934209,549.262542 C419.022078,549.454039 417.803542,548.469384 418.132655,546.469884 M435.961236,557.510266 C437.717653,559.688324 448.34803,572.920565 450.105309,575.325917 C451.86302,577.73127 427.459522,585.823726 411.907985,582.629097 C408.347704,582.592005 409.177171,580.340195 410.607495,576.584878 C412.385479,571.917796 415.398821,562.079012 416.590614,560.066141 C417.782406,558.053702 434.204819,555.332639 435.961236,557.510266 M545.311562,469.814319 C544.725371,476.662478 544.146944,483.514951 543.339044,490.338957 C542.752421,495.29501 541.736615,500.198444 541.073214,505.146733 C540.830801,506.957756 539.871932,507.960525 538.409689,508.7429 C529.201009,513.668331 519.777953,514.539554 510.532609,509.261753 C506.616903,507.026332 503.263665,503.761402 499.792671,500.802262 C494.240461,496.069191 488.802988,491.201123 482.828496,485.961277 C505.674856,485.455363 526.02117,478.759884 544.912141,465.014828 C545.10797,467.191592 545.421985,468.520855 545.311562,469.814319 M218.117224,427.067882 C224.183592,423.010656 230.265487,418.967232 236.482824,415.148514 C240.63059,412.600833 244.94356,410.292523 249.313898,408.143793 C257.140133,404.296178 265.021148,400.553369 272.960826,396.945987 C280.65809,393.449018 288.425231,390.099553 296.22041,386.824703 C310.223867,380.942221 334.844761,368.790383 365.590684,360.006555 C399.870577,350.213489 409.230226,346.20845 437.923833,340.798672 C514.852911,326.295825 546.160439,334.064375 551.896832,334.302883 C558.351405,334.571151 562.905925,341.584929 560.217382,347.526499 C558.576996,351.151132 558.24357,354.614891 559.011787,358.400399 C559.83996,362.480915 560.465403,366.601974 561.202563,370.701467 C562.520739,378.032681 562.962,385.381147 563.116851,392.859433 C563.263938,399.971116 560.959719,422.03204 548.489245,442.983664 C538.266484,458.259829 524.062023,467.617284 506.439191,472.330947 C492.883034,475.956874 468.586939,475.427239 459.780268,472.054915 C453.439568,469.626704 445.361431,464.363136 438.983636,460.531048 C431.106503,455.797977 423.761212,450.318759 416.855025,444.215453 C413.980143,441.675104 410.611808,439.639806 407.291352,437.672653 C404.080456,435.769763 398.346221,437.560946 395.369111,441.179542 C394.371422,442.392353 393.557052,443.770784 392.762954,445.134119 C389.36572,450.968726 386.29199,457.015533 382.559173,462.625003 C378.443757,468.808531 374.142864,474.835498 368.926237,480.297894 C363.587109,485.888818 357.660927,490.481286 351.245174,494.573447 C343.484934,499.523461 334.816292,502.028012 325.809048,503.400405 C321.132458,504.11291 316.406265,504.501941 311.702501,505.037614 C298.987026,504.641682 286.993614,501.620867 275.588118,496.133023 C266.731412,491.87093 258.791303,486.215311 251.609059,479.595309 C248.483137,476.714666 245.94772,473.11246 243.509354,469.5853 C239.92233,464.396777 236.638537,458.996919 233.274084,453.656579 C231.667342,451.106311 230.193453,448.473233 228.620787,445.901399 C227.089961,443.397711 225.178262,441.217496 222.323222,440.265189 C218.281133,438.916949 217.471077,435.272045 216.259874,431.973473 C215.534791,429.99985 216.466486,428.172007 218.117224,427.067882 M490.571914,322.791523 C490.571914,323.165891 490.571914,323.540258 490.569325,323.914625 C485.199572,324.40113 432.61188,330.979296 383.33386,344.84339 C334.05584,358.707484 293.24632,378.049501 282.797968,382.690274 C279.391675,384.20327 264.465582,391.334361 260.251821,393.043598 C259.624652,393.298064 258.954349,393.446431 257.875568,393.055674 C258.961682,392.076195 259.930472,390.909101 261.152027,390.146134 C271.852713,383.464455 288.439466,372.73504 303.679143,364.054293 C346.796764,341.471066 378.225067,332.406895 396.062706,327.271422 C418.079168,320.933058 456.92264,320.789867 465.517523,320.942115 C472.223568,321.061153 478.925299,321.514879 485.623148,321.916418 C487.284239,322.016048 488.9229,322.489614 490.571914,322.791523 M208.222282,329.647877 C206.29678,325.944748 195.839801,305.206616 192.024598,298.956668 C191.312024,297.789143 190.187952,296.73548 189.010393,296.04109 C188.309466,295.627474 186.864045,295.667585 186.250679,296.14417 C185.6619,296.601346 185.608414,297.875403 185.527753,298.808733 C185.482031,299.331898 185.834005,299.901212 186.048381,300.433003 C188.356482,306.152454 190.651211,311.877512 192.99425,317.582299 C194.626873,321.555853 196.343606,325.494472 197.98615,329.463713 C198.246679,330.093409 198.313968,330.802895 198.512816,331.656004 C196.411758,332.347807 195.468849,330.822735 194.310701,329.964019 C189.499964,326.396748 184.949757,322.412843 179.867277,319.29326 C173.657704,315.481874 167.061651,312.28207 160.53677,309.008945 C155.544008,306.504394 150.499054,304.042973 145.288896,302.054686 C142.272535,300.90355 138.903337,300.501149 135.65319,300.214335 C134.672322,300.127644 133.650478,300.506324 132.403905,300.973852 C131.479974,301.320616 131.308301,302.548092 132.095928,303.142853 C132.558756,303.492204 132.93661,303.754434 133.346814,303.949381 C138.395219,306.349558 152.588465,313.222301 154.549337,314.413548 C160.055394,317.758269 172.178208,326.624043 173.375608,327.937347 C171.343565,328.069324 169.96457,328.339749 168.621377,328.217691 C145.562366,329.480534 102.280405,327.419789 76.1446448,298.887229 C64.1727999,285.817156 61.2578034,276.049105 58.8069289,268.161516 C57.2730834,263.22401 47.7559951,240.589458 78.9858821,204.660128 C83.6348659,199.856755 102.842441,179.599953 148.242714,169.146569 C149.278793,173.306875 141.260611,192.343965 137.467838,198.150538 C137.154253,198.631436 136.568925,204.330184 139.823386,202.967281 C143.077847,201.604377 145.655104,199.521205 147.357604,196.964467 C153.491691,187.754516 158.345993,177.836804 161.574143,167.197099 C161.858827,166.259887 169.352499,144.575056 171.205105,139.490045 C171.352623,139.086349 182.11801,106.258056 183.84984,99.9080462 C187.296248,87.2744472 189.968831,74.495932 202.43758,54.2706149 C215.458444,33.1494906 237.185908,19.9767684 261.332759,15.2544799 C289.462173,10.2345954 325.718035,11.5461745 354.817102,26.6041029 C383.916169,41.6624626 419.660893,80.6346051 422.65655,86.7228163 C409.641293,96.0414541 394.581484,106.392621 391.965407,127.154042 C391.694094,128.270243 392.139668,129.770731 392.724565,130.838195 C393.746841,132.703561 395.633954,132.562527 396.751557,130.713118 C399.643261,125.929585 409.29579,104.283571 436.546564,90.7955691 C511.494497,53.7000068 550.953922,95.7563657 559.074762,103.203168 C582.319681,124.518808 585.942076,157.506682 586.182763,162.364829 C586.690451,172.615072 584.927564,182.600066 582.716514,192.627328 C579.134666,218.194278 550.420354,253.93125 522.834429,265.836385 C495.248934,277.74109 471.859517,274.834568 462.470536,273.032171 C451.105587,270.850663 440.923804,266.071012 431.178968,260.183786 C427.64241,258.047564 405.753625,236.781954 400.641813,228.838728 C400.034917,227.895046 399.265838,226.971205 398.368651,226.317356 C396.73646,225.128266 393.831384,225.534549 391.905882,226.91643 C389.92258,228.339715 390.750753,230.022211 391.583239,231.49639 C393.833541,235.480726 395.856094,239.679418 398.664981,243.244533 C405.254996,251.609138 412.906969,258.891615 421.663605,265.097571 C431.342014,271.956513 441.763623,277.40899 452.759776,281.523147 C460.093852,284.267069 467.998591,285.562259 475.720873,287.151594 C478.294248,287.681229 479.757786,288.550295 480.666619,291.07598 C482.413978,295.931108 484.53574,300.650809 486.469438,305.439949 C486.992653,306.734707 487.398976,308.076046 487.894154,309.497606 C484.56162,309.497606 436.734197,302.689558 380.951999,318.638549 C346.609994,328.457493 310.410637,346.479306 303.09554,350.414474 C286.418637,359.385485 233.830082,394.891281 228.585849,398.280857 C228.062202,393.850989 227.860335,390.0189 227.114116,386.295931 C225.79551,379.718627 224.217236,373.19006 222.601867,366.677451 C221.815966,363.509131 220.746673,360.408094 219.727417,357.301882 C216.605377,347.78916 212.862208,338.573171 208.222282,329.647877 M565.814883,437.213751 C566.956209,434.726452 568.217448,432.720051 571.619858,433.581785 C573.391804,434.030336 575.30911,433.049994 575.807308,431.328681 C576.116148,430.262511 575.315149,428.591229 574.537012,427.544899 C571.552569,423.532096 571.483986,423.588165 574.690569,419.782818 C576.16834,418.028295 577.653013,416.278948 579.096277,414.495959 C581.31509,411.754194 580.679295,409.740029 577.307078,408.866218 C576.222689,408.585012 575.097754,408.460367 573.629472,408.200293 C573.904667,405.227783 574.003013,402.404071 574.469291,399.642466 C574.895455,397.120232 576.526784,396.260223 578.938406,397.375561 C583.49077,399.481161 587.136025,402.73919 589.160304,407.384708 C592.129218,414.197501 591.578397,421.116393 589.066272,427.9473 C588.677635,429.003982 588.090149,430.086973 587.3146,430.8866 C581.248664,437.140862 574.063831,441.295992 565.261042,442.265983 C564.873699,442.308682 564.455299,442.071899 563.564582,441.836841 C564.450986,440.022368 565.163991,438.632292 565.814883,437.213751 M634.133981,269.541672 C635.688962,262.05174 636.300171,254.582511 635.65273,246.881243 C635.006582,239.192482 635.41463,231.418325 635.254171,223.683847 C635.167903,219.530441 634.856907,215.381349 634.650295,211.230531 C634.306517,204.32199 634.522619,197.496258 637.285352,190.980198 C639.385116,186.028028 643.309017,183.783981 648.432043,183.526064 C658.113472,183.037834 666.545309,186.18157 673.376442,193.04655 C677.713567,197.404822 682.129196,201.810106 685.695516,206.778666 C690.46053,213.417215 693.670132,220.870486 695.467095,229.009522 C698.001218,240.488535 698.676265,255.28984 697.836446,267.107854 C696.997058,278.925436 695.26911,297.813727 694.285223,302.140946 C692.985164,307.862553 686.761789,332.571219 685.448358,339.312417 C685.074817,341.231695 684.633556,343.700449 687.027494,344.582886 C689.54005,345.508884 691.509118,342.59503 692.700479,338.682721 C695.172489,330.262047 701.065027,326.014618 709.379539,323.847774 C717.694482,321.680929 720.634065,324.426576 724.392332,327.981771 C734.088857,340.487705 732.138337,364.081896 730.633392,369.860866 C729.49983,374.216119 727.101579,378.316475 724.825397,382.276659 C722.836056,385.736537 720.263113,388.866039 717.872626,392.085252 C717.402465,392.717967 716.587663,393.094922 715.842308,393.657336 C715.709024,393.08759 715.505,392.72228 715.60809,392.581677 C719.062262,387.857663 718.643862,382.365075 717.89333,377.196393 C717.145818,372.045393 714.100556,367.651755 710.513532,363.823548 C703.084561,355.894554 693.870705,350.625379 683.90416,346.713932 C671.873653,341.992938 659.598145,338.002994 646.663118,336.492155 C645.811652,336.392956 644.974421,336.150998 644.136327,335.950875 C642.376028,335.531222 641.548718,334.543979 641.531464,332.596666 C641.490056,328.002904 641.609105,323.35825 640.980211,318.829183 C639.523145,308.33655 637.639914,297.903868 635.972784,287.440133 C635.250289,282.905028 633.848865,270.915789 634.133981,269.541672 M747.445735,368.191309 C747.822727,363.623857 748.054356,359.044328 748.385194,354.472994 C748.457228,353.475832 748.645292,352.484276 748.829474,351.49919 C749.196545,349.538507 750.346066,348.573692 752.395794,348.481394 C756.198489,348.3106 759.838999,348.912261 763.28972,350.505478 C764.850309,351.226178 771.187989,353.836397 775.012682,361.884429 C776.754865,367.476216 777.487712,373.215507 776.527549,378.895278 C774.652944,389.983965 768.939413,405.276089 749.673607,416.702483 C743.136648,421.173324 735.77626,422.521995 727.951319,421.721505 C722.718301,421.185832 718.462268,418.871915 714.479273,415.10409 C713.929314,414.583513 713.995741,413.685118 714.611694,413.245193 C715.54684,412.577112 716.294352,412.028069 717.103115,411.592888 C727.37246,406.067953 734.930402,397.759848 741.097703,388.085389 C744.948276,382.04462 746.859113,375.300835 747.445735,368.191309 M814.03214,388.850513 C811.907359,380.96163 809.491423,378.016291 804.75574,374.26615 C800.712789,371.06462 796.339863,368.280588 792.270169,365.110112 C790.872195,364.021083 789.673501,362.461076 788.875091,360.870015 C787.658711,358.44698 787.003937,355.748344 785.871238,353.27614 C783.600232,348.320088 780.133121,344.148568 775.453512,341.509883 C770.485336,338.70903 765.084958,336.652167 759.795003,334.459013 C758.198182,333.79697 757.114224,332.941705 756.471096,331.37911 C756.383965,331.167774 756.287345,330.93401 756.182529,330.681269 C745.218726,324.415794 733.365069,319.905704 723.963148,311.379793 C724.415624,312.406715 724.868531,313.434069 725.32532,314.460991 C718.327258,313.351259 711.746733,312.307948 704.634366,311.180102 C703.868306,306.503963 708.590618,288.122878 709.499451,283.052963 C709.617207,283.228502 709.729356,283.406628 709.845817,283.583029 C709.166025,273.466058 711.481459,263.182605 713.013579,253.183378 C713.183527,251.641917 713.30991,250.096142 713.321987,248.543899 C713.323713,248.353265 713.333634,248.16565 713.340535,247.976741 C712.638313,246.779025 712.095256,245.562331 711.965423,244.308546 C711.352489,238.397168 709.891971,232.742412 708.354243,227.091537 C707.037362,222.252798 705.61394,217.375242 703.554722,212.823748 C701.378611,208.013043 698.98683,203.068636 695.627553,199.076105 C682.258166,177.548266 657.525124,170.55174 647.52019,170.241205 C643.978025,172.18248 639.947583,173.463868 635.912828,173.499234 C635.378397,173.972369 634.861221,174.464481 634.363023,174.975569 C633.820397,175.532376 633.299338,176.110316 632.797258,176.704214 C629.112751,182.032046 626.450951,187.885199 623.802091,193.775445 C623.500153,194.446545 623.128338,195.053814 622.704762,195.605876 C622.10865,200.154782 622.135393,204.773559 622.794481,209.543722 C624.340835,220.734627 624.691083,232.086406 625.777198,243.347613 C626.586392,251.739821 625.817312,259.943552 623.943571,268.120543 C623.207273,271.332855 622.410157,274.64911 622.48521,277.898514 C622.577086,281.866029 623.413885,285.841309 624.188572,289.761813 C625.269511,295.235855 626.660151,300.648221 627.789831,306.113206 C629.007504,312.001295 630.294623,317.889815 631.11762,323.837854 C631.521354,326.755589 630.973984,329.810046 630.799291,332.799376 C630.698357,334.525865 629.636829,335.340156 627.967974,335.421241 C621.545751,335.733501 618.114872,339.798921 616.296773,345.316956 C613.564234,353.610828 606.767176,378.860774 606.514411,383.112516 C606.098599,390.098691 602.389074,402.454102 609.108922,421.044366 C615.828769,439.635061 634.616219,458.568208 634.727937,460.445219 C634.852594,462.537018 634.305655,464.740954 633.69919,466.79221 C630.700945,476.936784 617.170669,520.20423 606.916851,537.133994 C605.064677,541.676 601.200301,543.904951 596.756635,544.990961 C587.840835,547.170744 555.994131,552.318293 554.320532,552.318293 C555.971702,548.875668 568.829088,530.601977 569.694787,505.613829 C570.071347,501.791229 570.016567,497.918168 569.996726,494.068828 C569.991118,492.963841 569.549426,491.801922 569.080128,490.769393 C567.80293,487.958189 565.388719,487.129233 562.719155,488.759111 C560.663819,490.013758 558.825879,491.624659 556.596282,493.299391 C556.337047,492.507096 555.940214,491.886888 555.967388,491.286521 C556.322381,483.547298 558.105541,463.046381 558.419126,460.512071 C558.788353,457.526622 559.047588,457.192797 562.110103,457.039686 C571.569392,456.56612 587.617832,450.064293 594.486061,444.189575 C599.456393,439.938264 602.854059,434.449558 604.834341,428.567508 C606.374657,423.992292 606.370343,404.134441 600.849621,397.149992 C597.35361,391.43701 591.838926,388.485634 585.810517,386.340355 C582.97575,385.331547 580.028834,384.613866 577.099603,383.902224 C575.14175,383.426501 574.307539,382.294342 573.963761,380.343579 C572.570963,372.443913 571.13115,364.549424 569.517507,356.692457 C569.024485,354.291849 569.598599,352.344104 571.134601,350.745712 C574.152688,347.606289 573.664842,344.386214 571.943363,340.882775 C569.919516,336.763442 568.017737,332.581139 566.160387,328.38331 C564.975495,325.704514 562.946903,324.287698 560.113861,324.326515 C550.661042,324.454611 541.244456,323.316414 531.761875,323.881415 C525.918942,324.229042 520.016915,323.554922 514.140337,323.383696 C511.861136,323.317708 509.578484,323.372914 506.575063,323.372914 C508.58252,320.829115 507.387277,319.105645 506.348178,317.184641 C502.801268,310.629334 499.341489,304.024427 496.008093,297.358276 C494.687761,294.718728 493.785829,291.869569 492.491377,288.60507 C494.347002,288.178947 495.951587,287.670015 497.594562,287.455228 C555.792696,277.959327 584.568257,230.933976 591.236344,209.570031 C597.904431,188.205654 600.043447,170.722103 600.651636,165.517191 C600.898794,165.54997 601.370249,165.771657 602.007338,166.135242 C600.563211,161.864092 599.98004,157.304834 600.108148,152.739538 C599.684572,151.423215 599.258408,150.107323 598.855967,148.783667 C597.556771,144.510361 596.561238,139.994664 596.367566,135.4863 C595.718831,134.747485 595.20381,133.841758 594.756511,132.962772 C593.732941,130.950764 580.071537,80.1166155 518.87257,68.1174568 C486.502651,61.7708978 463.340549,67.8457387 440.912589,77.1885292 C436.207962,79.1768158 431.704771,77.9036223 429.014934,73.6156515 C425.348975,67.7724179 396.1218,35.5738201 370.796528,21.1511945 C360.5233,15.1919416 330.121155,1.24158806 304.611269,0.193101135 C279.101815,-0.855385789 247.491486,1.99118504 221.689152,18.0807797 C195.886386,34.1703744 181.363164,65.088878 175.729,81.4277633 C170.094835,97.7666485 156.732781,144.326196 155.82783,147.924952 C154.554082,152.987966 151.443689,155.812541 146.820585,157.443712 C144.790267,158.159668 99.42062,165.517191 62.3706609,199.833896 C36.8297187,223.490625 34.582868,258.028586 47.0089141,280.751123 C48.849011,282.980936 49.9830041,285.827507 50.0541753,288.726696 C50.0559006,288.801311 50.0623707,288.873338 50.0649588,288.94709 C50.2271426,289.629404 50.4195203,290.303093 50.6571887,290.972037 C50.6826378,291.043201 50.7050675,291.107896 50.7262032,291.16914 C50.885799,291.438271 51.0501396,291.694031 51.1269181,291.837653 C52.3018886,294.039864 53.6951172,296.116567 55.1357932,298.152296 C57.2584179,301.151547 59.4897403,304.080496 61.4100665,307.213449 C61.4609646,307.152204 61.5062553,307.098723 61.5597415,307.034029 C84.8551271,333.977253 106.589924,335.101217 127.956357,337.709711 C149.322789,340.318636 181.055187,338.184571 185.184406,337.715749 C195.402854,336.974778 204.659844,351.042445 209.455483,362.829405 C216.01099,378.941427 216.712349,402.661988 216.52601,411.978038 C216.492366,413.669591 216.521266,415.362869 216.521266,416.760277 C212.948907,419.86002 209.819966,422.565556 206.702239,425.284031 C204.68098,427.046749 204.544676,429.014764 205.601028,431.471873 C207.385051,435.621397 208.860234,439.90376 210.631748,444.569118 C209.510695,444.154208 208.638525,443.864807 207.792236,443.512867 C200.528468,440.492914 193.255211,437.49582 186.014736,434.421524 C181.665534,432.575134 177.313312,430.720982 173.060298,428.667569 C158.44477,421.611524 143.303438,415.850237 128.094817,410.255 C118.00534,406.543244 107.873161,402.949664 97.7677247,399.281901 C88.9308598,396.074764 80.1643033,392.659311 71.2549732,389.669117 C63.7751043,387.158528 56.1356395,385.125386 48.5647578,382.887809 C46.2773612,382.211964 43.9787497,381.572348 41.6904904,380.900817 C40.6052387,380.899091 39.5048901,380.733904 38.4144623,380.379377 C29.8622818,377.600951 20.6566211,376.997133 12.0984019,374.398559 C11.658435,376.141005 11.2236441,377.884745 10.792304,379.630211 C7.03144955,394.847288 4.54693049,410.271821 2.13228852,425.71188 C1.41108785,430.323324 -0.245689527,450.751783 0.030799486,474.005248 C4.26224601,475.865439 7.80139165,478.398455 11.5147987,481.295919 C13.2022012,482.612243 14.8348236,483.99283 16.4428595,485.402745 C16.8776503,485.576558 17.3094218,485.765036 17.7338605,485.985429 C20.0203944,487.171932 22.1693309,488.727195 24.0775795,490.540374 C24.2816034,490.330763 24.5399761,490.312217 24.8604618,490.516652 C29.6487685,493.568521 30.0576789,493.961003 32.4925938,495.890633 C41.0206192,502.649082 88.0280649,536.886429 95.7218786,540.966945 C101.569988,544.068413 103.10599,548.435312 104.016549,554.336339 C105.147954,561.672297 107.096317,568.928896 109.284506,576.037129 C110.446105,579.810129 112.660174,583.326075 114.816443,586.691067 C115.601913,587.917249 117.516632,588.83419 119.052634,589.098576 C128.666774,590.754763 138.274875,592.655927 147.970969,593.569849 C159.326429,594.639901 169.659613,598.380122 179.628746,603.528965 C182.025703,604.767223 184.321726,606.204742 186.639317,607.591798 C188.562662,608.742934 188.922831,610.310704 187.98596,612.365411 C185.250401,618.3665 182.805134,624.509486 179.857787,630.402319 C176.261705,637.593361 171.833136,644.296604 167.197092,650.863556 C167.210464,653.293493 166.769203,655.782086 166.270574,658.143877 C165.643837,661.112505 164.57972,663.97374 163.930122,666.933743 C163.90381,667.524622 163.901222,668.116363 163.921064,668.707674 C164.249314,668.914697 164.448593,669.067377 164.555134,669.170026 C164.62156,669.20798 164.685399,669.249816 164.753119,669.285183 C164.953692,669.390851 165.157285,669.490049 165.361309,669.587954 C166.235635,669.90539 167.108668,670.222826 167.992483,670.515246 C170.278155,671.270881 172.582805,671.965272 174.868045,672.721339 C177.618701,673.63181 179.846572,675.251336 181.396809,677.324157 C323.024747,677.336665 518.715131,694.97721 524.51493,695.215286 C530.071885,695.443012 559.592802,696.234014 591.095296,697 C593.318854,696.562663 595.540256,696.114975 597.756481,695.640547 C607.675147,693.51942 617.859519,691.210679 627.462875,687.717591 C627.687603,687.606748 627.912763,687.497629 628.136628,687.38506 C636.062503,680.545527 645.148682,675.474749 655.468063,673.113389 C655.599622,673.083198 655.731612,673.056458 655.863602,673.027129 C657.258556,672.447033 658.656529,671.874699 660.050621,671.298916 C662.033491,670.480311 664.041379,669.734164 666.113537,669.172182 C670.868631,667.883462 675.910997,667.423698 680.771337,666.904414 C681.794476,666.795296 682.816752,666.74699 683.839459,666.750872 C686.770415,664.883349 689.962332,663.462651 693.418229,662.493523 C696.555366,662.072145 699.692934,661.650335 702.830502,661.228956 C703.598719,661.194452 704.363053,661.196608 705.122643,661.227231 C713.169724,657.385223 721.05074,653.196882 728.351171,648.092031 C730.660566,646.105039 732.853068,643.992969 734.913148,641.753236 C735.38029,638.996806 736.273164,636.356827 737.59824,633.835024 C738.251289,631.827761 739.126479,629.950318 740.203103,628.19062 C740.059467,628.177681 739.919282,628.163448 739.770469,628.153528 C740.367875,626.643983 740.751337,625.743431 741.0839,624.824334 C743.167273,619.069948 745.17171,613.283214 747.223164,607.515889 C747.222301,605.616019 747.195558,603.716149 747.152855,601.817572 C747.014827,595.641807 746.930715,589.463023 746.780177,583.288552 C746.766375,582.720963 746.743945,582.153806 746.725829,581.586648 C746.081838,580.053382 745.44216,578.51839 744.810679,576.978222 C742.489206,571.315703 740.289371,565.547947 738.608439,559.644763 C734.906247,550.582316 724.852571,526.626697 721.722336,514.583546 C718.122372,500.73196 718.052495,492.604569 718.112019,484.713098 C718.13488,481.694871 718.702093,481.035846 721.675751,480.228455 C726.235879,478.989766 730.870197,477.991741 735.361742,476.54689 C741.27067,474.646157 746.666735,471.650789 751.673731,467.966205 C752.910815,467.055733 754.225108,466.250067 756.16657,464.953584 C756.165707,465.320619 756.1601,465.685929 756.157943,466.052101 C756.375338,465.917536 756.59144,465.782108 756.812286,465.651425 C760.940642,462.996782 765.772083,461.349221 770.255863,459.504557 C772.332335,458.650586 774.442019,457.921691 776.615542,457.355827 C777.540766,457.115163 778.464266,456.924098 779.386039,456.75891 C780.278913,454.944868 781.803701,453.592316 784.130781,452.579195 C811.284935,439.83044 820.466009,416.411788 814.03214,388.850513" id="Fill-3" fill="#010202" mask="url(#mask-2)"></path>
                </g>
                <path d="M1,592.414197 C0.92973392,592.609587 0.859467841,592.804976 0.789201761,593 C0.51831391,592.821808 0.208173972,592.664471 0.00512923204,592.449689 C-0.0433301332,592.398463 0.263902242,592.155141 0.407826557,592 C0.605056173,592.137944 0.80228579,592.275887 1,592.414197" id="Fill-6" fill="#010202"></path>
                <path d="M482,252.249281 C484.056185,252.359321 497.882304,255.011976 503.837034,254.2274 C529.487947,252.855367 549.674849,233.106667 557.195477,226.415893 C558.968721,224.838077 560.862917,223.397594 562.571797,222 C564.571826,223.365968 564.050004,224.640525 563.51004,225.805042 C558.049917,237.582779 535.948516,258.651958 523.664536,261.911999 C511.380124,265.17204 501.677176,266.980334 490.86622,261.473139 C488.4826,260.259234 486.387105,258.377292 484.384916,256.553835 C483.46136,255.712506 483.082089,254.27029 482,252.249281" id="Fill-8" fill="#010202"></path>
                <path d="M220,203.01834 C223.126084,202.828592 225.113519,204.145619 227.061062,205.375534 C234.405194,210.013158 240.224479,216.139876 244.089857,224.042036 C244.879229,225.656623 251.169592,246.483239 248.216661,255.52432 C245.264154,264.564971 238.35163,275.60488 232.607887,277.60457 C231.344042,278.044872 230.088261,278.381676 229.148654,277.103893 C228.149207,275.74331 228.999692,274.689344 229.919777,273.722489 C230.704481,272.897946 231.472209,272.050116 232.316328,271.291553 C235.919855,268.054617 237.802889,263.850396 239.182169,259.276596 C240.214294,255.853362 241.10255,252.508614 241.24939,248.843451 C241.596968,240.182297 239.789052,232.2603 235.987333,224.442664 C232.410119,217.086462 227.514314,211.005887 221.888127,205.347071 C221.328777,204.784295 220.87807,204.109394 220,203.01834" id="Fill-10" fill="#010202"></path>
                <path d="M397.220378,274.392998 C390.52759,268.894943 384.280931,263.063828 379.043679,256.240403 C375.253319,251.302455 372.725259,245.694525 372.140796,239.382277 C372.114859,239.099005 372.003326,238.820025 372.000733,238.53804 C371.983441,236.756001 372.260542,235.041775 374.083097,234.195392 C375.489784,233.54215 377.697081,234.581243 378.723781,236.501485 C379.861149,238.628172 381.037855,240.809797 381.678516,243.11031 C384.56711,253.48365 391.441461,260.668462 400.155227,266.448072 C407.873851,271.567143 416.428532,274.884861 425.155267,277.823166 C426.751732,278.360524 429.086988,278.460099 428.997503,280.581635 C428.885971,283.225509 427.838521,283.801066 424.246151,283.93841 C420.653781,284.075325 413.166868,284.777068 397.220378,274.392998" id="Fill-12" fill="#010202"></path>
                <path d="M362.311192,44 C363.397553,44.1343155 364.60337,44.0115863 365.552095,44.4437133 C374.127417,48.3478758 383.129493,51.3731941 390.941765,56.8496639 C398.855316,62.3977972 406.423915,68.3467315 412.591066,75.7885853 C414.936912,78.6186526 416.639165,82.0160206 418.363059,85.2953798 C419.535549,87.5255328 419.149913,88.4339866 416.699326,92 C412.539562,87.6177943 408.566772,83.223144 404.361129,79.0602203 C400.004435,74.7475325 395.575027,70.4803319 390.89329,66.5238163 C386.302877,62.644543 381.387421,59.1373194 376.553334,55.5477042 C371.741753,51.9743957 366.853997,48.5015019 362,44.9848376 C362.103875,44.6565584 362.207317,44.3282792 362.311192,44" id="Fill-14" fill="#010202"></path>
                <path d="M395.309871,299.87434 C386.689703,298.305793 380.48735,293.279855 375.903792,286.013568 C375.522873,285.409381 375.031701,284.728045 375.019162,284.074014 C375.001435,283.1699 374.865671,282.169133 375.681986,281.446188 C376.498301,280.723677 377.571877,281.028805 378.398136,281.319196 C379.296602,281.634726 380.044603,282.445222 380.793468,283.112688 C384.497585,286.412748 390.526558,289.500866 393.443328,290.266285 C396.360099,291.031272 397.777409,291.348535 399.467545,292.396545 C404.858771,295.738213 400.773736,300.868605 395.309871,299.87434" id="Fill-16" fill="#010202"></path>
                <path d="M212.630963,213 C213.442008,213.202271 214.362276,213.236764 215.047399,213.633215 C221.022594,217.090135 226.36502,221.328886 229.333435,227.377431 C230.471697,229.696948 229.811397,232.831086 229.792441,235.593045 C229.790184,235.972037 228.754375,236.345067 227.783107,237 C224.186436,228.032789 218.218012,220.850248 212,213.820156 C212.210321,213.546771 212.420642,213.273385 212.630963,213" id="Fill-18" fill="#010202"></path>
                <path d="M495.00138,694.013809 C494.977684,693.998909 495.266551,693.951009 495.292503,693.953809 C495.543005,693.980109 495.767553,694.014209 496,694.046309" id="Fill-20" fill="#010202"></path>
                <path d="M409.533178,661 C409.354,660.794322 409.177,660.588138 409,660.38246 C409.243987,660.248719 409.481439,660.099274 409.740131,660.000488 C409.776076,659.986809 410.029322,660.26493 409.997189,660.33484 C409.887722,660.573953 409.696018,660.780644 409.533178,661" id="Fill-22" fill="#010202"></path>
                <path d="M556.542764,399.128562 C552.34295,412.690443 551.064615,404.728323 547.504183,390.485659 C543.943751,376.242995 537.224221,355.923155 537.224221,355.923155 C537.224221,355.923155 547.249805,342.97311 550.216402,354.098484 C553.182998,365.223858 560.742578,385.56668 556.542764,399.128562 M565.742049,379.203315 C565.343724,369.985867 562.828735,361.296567 560.41859,352.57171 C557.702074,342.736354 554.350043,340.358385 544.091136,340.143743 C537.528443,340.00672 511.815647,339.439979 486.685514,342.134057 C461.555811,344.828568 425.800243,354.979599 422.913999,355.530729 C418.068357,356.455639 412.976931,358.851387 409.632205,362.363271 C408.163946,363.905221 407.347101,365.965347 407.262881,368.102224 C406.918268,376.865239 406.76057,383.435874 407.770777,391.999425 C408.642194,399.389601 409.735761,406.775007 412.089616,413.97916 C414.167609,420.340791 416.98897,426.252325 420.143342,432.047648 C421.366676,434.294231 422.923452,436.456691 424.716558,438.265317 C428.349608,441.930703 432.005861,445.65029 436.086221,448.770182 C444.741945,455.388515 453.575133,461.779632 463.705132,466.062058 C475.419408,471.013558 487.423296,473.270547 500.148208,471.277632 C515.844014,468.819877 530.50512,463.874014 542.729011,453.320584 C546.58593,449.990387 549.946125,445.887046 552.852135,441.660558 C559.422563,432.105753 562.230173,420.951761 564.346838,409.768282 C566.247797,399.72262 566.185492,389.46622 565.742049,379.203315" id="Fill-24" fill="#010202"></path>
                <path d="M380.026416,438.44336 C376.280209,450.431626 375.139684,443.393646 371.963739,430.80316 C368.787363,418.213106 362.793345,400.250997 362.793345,400.250997 C362.793345,400.250997 371.73667,388.803217 374.382931,398.63774 C377.029191,408.472262 383.772623,426.455093 380.026416,438.44336 M392.474633,425.389662 C390.383094,405.140845 381.215291,384.141305 379.680201,380.291419 C376.35705,371.95748 373.651648,369.950082 364.827469,371.462753 C356.648236,372.865342 346.499201,376.808907 338.627331,379.375354 C327.451305,383.019321 265.306487,410.31691 240.471353,431.133841 C237.708536,433.450335 237.468516,437.004509 238.737685,440.383844 C241.787144,448.504524 246.375579,455.783823 251.584784,462.6379 C254.724898,466.770117 258.515137,470.411494 261.973839,474.263107 C264.975812,477.606612 268.200538,480.513238 271.580671,483.361584 C278.845153,489.483068 287.336498,493.464623 296.170605,496.471403 C305.747651,499.731158 315.662711,500.597577 325.905423,499.62237 C337.150519,498.551758 347.679442,495.38784 357.463267,490.195371 C366.27579,485.51835 373.596391,478.57707 379.612857,470.628206 C387.668627,459.984681 392.623135,448.017568 393,434.362946 C392.836389,431.370412 392.835094,428.35802 392.474633,425.389662" id="Fill-26" fill="#010202"></path>
            </g>
        </g>
    </g>
</svg>