<?xml version="1.0" encoding="UTF-8"?>
<svg width="507px" height="507px" viewBox="0 0 507 507" version="1.1" xmlns="http://www.w3.org/2000/svg" xmlns:xlink="http://www.w3.org/1999/xlink">
    <title>Group 3</title>
    <defs>
        <polygon id="path-1" points="0 0 506 0 506 506 0 506"></polygon>
    </defs>
    <g id="Desktop" stroke="none" stroke-width="1" fill="none" fill-rule="evenodd" opacity="0.495358712">
        <g id="catering" transform="translate(-1367.000000, -1896.000000)">
            <g id="Group-3" transform="translate(1620.916474, 2149.947120) rotate(7.000000) translate(-1620.916474, -2149.947120) translate(1367.916474, 1896.947120)">
                <mask id="mask-2" fill="white">
                    <use xlink:href="#path-1"></use>
                </mask>
                <g id="Clip-2"></g>
                <path d="M357.482452,362.678127 C334.952254,373.712737 304.698833,372.882415 285.016511,356.199135 C280.328709,352.068179 276.638119,345.807302 276.125881,339.662091 C276.014346,338.329445 276.245679,336.995146 276.507581,335.68398 C277.050388,332.957549 277.450264,330.108842 278.387989,327.605482 C280.308055,322.478966 286.425991,320.466364 291.300511,322.956504 C296.427846,325.57553 300.904969,329.683353 306.490012,332.077655 C319.690048,337.841992 334.582121,338.56904 346.371851,329.400796 C351.031562,325.647409 355.679706,316.095812 356.880986,309.885332 L352.596365,311.990468 C333.984786,321.282641 307.841659,317.665575 290.877502,305.440424 C262.815962,282.13109 260.505109,245.900126 267.509547,211.470258 C273.411847,186.483756 292.613327,162.992661 319.250515,158.477525 C341.432888,153.201468 372.272904,158.71299 382.996023,180.941665 C384.643445,184.35714 384.831816,188.341034 383.250489,191.787078 C382.054992,194.391233 380.261334,196.791318 378.715533,198.94272 C374.998504,203.378541 371.459933,206.180155 366.038475,206.621342 C363.340139,206.841108 358.979509,204.849161 356.607517,203.542953 C346.521391,197.990122 335.906503,189.108566 323.422774,194.347444 C308.644715,200.442257 305.857977,216.727313 304.445192,231.481436 C303.277786,244.840948 303.364536,258.666433 310.038498,270.092658 C313.672907,276.313051 319.494241,281.155358 326.382186,283.267103 C329.92902,284.355197 333.703881,284.725331 337.313505,283.630627 C346.803948,280.813315 355.780501,273.241272 357.372569,263.173306 C359.242237,250.887842 358.449921,239.044391 360.089908,226.835763 C361.282926,222.385897 365.427921,218.820055 369.672884,217.332911 C370.267741,217.123885 370.876643,217.011523 371.503721,216.952863 C377.236653,216.410055 384.540998,216.68022 389.263499,220.302242 C396.757041,227.833802 396.51662,237.338306 396.819006,247.882985 C397.935188,286.818899 398.211962,342.624813 357.482452,362.678127 M231.022523,286.38928 C213.690711,302.009251 190.638361,308.600605 168.945093,298.378967 C167.068815,297.494942 165.520536,296.290356 164.092053,295.460033 C161.550693,293.981151 158.306245,295.769029 158.053431,298.697877 C156.320085,318.762757 159.311719,338.196428 159.970192,357.839951 C160.043723,362.959032 156.446492,366.823128 151.985067,369.533862 C143.89832,373.030303 131.940874,373.556587 124.549779,367.658407 C123.636839,366.929707 122.899051,365.981239 122.338068,364.957588 C116.737327,354.733472 117.241303,342.961073 116.315144,331.878543 C116.073897,295.534391 116.463858,257.643608 125.390014,220.69964 C126.169937,217.472537 127.853712,214.470158 130.381853,212.319583 C136.378339,207.217025 145.053333,205.092062 152.968233,206.907204 C169.274742,213.275486 159.757861,230.886578 160.107339,244.067633 C160.272577,250.291332 159.512483,258.266556 166.225276,262.425603 C172.180452,266.796981 181.494917,268.594773 188.581974,267.099367 C202.957678,263.077468 210.106699,250.140965 212.148215,235.866859 C213.778287,221.867875 210.576801,206.934468 198.109596,197.368 C171.888807,180.517003 142.466533,197.65634 118.450019,214.307399 C116.73237,215.498766 114.780909,216.339829 112.702216,216.565379 C107.303891,217.151149 101.247093,215.821807 97.6663858,211.614841 C93.1578676,207.167454 92.1523945,201.245315 93.0066748,194.969566 C103.27952,175.126105 128.489878,163.171118 149.128928,158.20984 C174.041858,153.357618 207.204294,155.82793 227.441816,173.331618 C236.037495,180.718594 244.587735,192.029152 248.175051,203.098462 C258.826291,229.491967 251.288135,266.683792 231.022523,286.38928 M253,0 C113.272287,0 0,113.271645 0,253.000413 C0,392.728355 113.272287,506 253,506 C392.727713,506 506,392.728355 506,253.000413 C506,113.271645 392.727713,0 253,0" id="Fill-1" fill="#F1F0F2" mask="url(#mask-2)"></path>
            </g>
        </g>
    </g>
</svg>