<?xml version="1.0" encoding="UTF-8"?>
<svg width="206px" height="259px" viewBox="0 0 206 259" version="1.1" xmlns="http://www.w3.org/2000/svg" xmlns:xlink="http://www.w3.org/1999/xlink">
    <title>Group 3</title>
    <defs>
        <polygon id="path-1" points="0 0 259 0 259 259 0 259"></polygon>
    </defs>
    <g id="Desktop" stroke="none" stroke-width="1" fill="none" fill-rule="evenodd" opacity="0.495358712">
        <g id="mobile-Catering" transform="translate(-184.000000, -2107.000000)">
            <g id="Group-3" transform="translate(313.500000, 2236.500000) rotate(7.000000) translate(-313.500000, -2236.500000) translate(184.000000, 2107.000000)">
                <mask id="mask-2" fill="white">
                    <use xlink:href="#path-1"></use>
                </mask>
                <g id="Clip-2"></g>
                <path d="M182.980149,185.639594 C171.447893,191.287745 155.962446,190.862738 145.887898,182.323273 C143.48841,180.208811 141.599353,177.004133 141.337161,173.858659 C141.28007,173.176534 141.39848,172.493563 141.532537,171.822433 C141.810376,170.426888 142.015056,168.968755 142.495038,167.687391 C143.477838,165.063344 146.609351,164.033178 149.104412,165.307776 C151.728877,166.648345 154.020527,168.750965 156.879275,169.976507 C163.635815,172.927027 171.258437,173.299173 177.293101,168.606336 C179.67821,166.685136 182.057399,161.796078 182.672283,158.617196 L180.479167,159.694726 C170.952687,164.450996 157.571126,162.599573 148.887891,156.342035 C134.524376,144.410973 133.341548,125.865875 136.926823,108.242681 C139.947961,95.4531479 149.776387,83.4290496 163.410837,81.1179429 C174.765055,78.4173523 190.550755,81.2384672 196.039466,92.616386 C196.882712,94.364623 196.979131,96.4038099 196.169717,98.167694 C195.557792,99.5006507 194.639695,100.729153 193.848464,101.830365 C191.945875,104.100874 190.13463,105.534902 187.359615,105.760726 C185.97845,105.873216 183.746428,104.853622 182.532306,104.185029 C177.369645,101.34277 171.936333,96.7966769 165.54644,99.4782374 C157.982177,102.597914 156.555763,110.933545 155.832618,118.485557 C155.235072,125.323727 155.279476,132.400407 158.695595,138.249008 C160.555895,141.432965 163.53559,143.911537 167.061238,144.99245 C168.876712,145.549399 170.808904,145.738855 172.656517,145.178523 C177.514274,143.73646 182.108992,139.860651 182.923904,134.707285 C183.880908,128.418876 183.475355,122.356714 184.314795,116.107633 C184.92545,113.829935 187.047098,112.004732 189.219915,111.243526 C189.524397,111.136534 189.836068,111.07902 190.157043,111.048995 C193.091488,110.771155 196.830273,110.909441 199.247522,112.763401 C203.08315,116.618487 202.960088,121.483441 203.114867,126.880816 C203.686193,146.810464 203.827862,175.375151 182.980149,185.639594 M118.250659,146.59056 C109.379237,154.585763 97.5797143,157.959598 86.4758478,152.727574 C85.5154609,152.275079 84.7229619,151.658502 83.9917822,151.233495 C82.6909674,150.476518 81.0302719,151.391657 80.900867,152.890811 C80.0136403,163.161174 81.544931,173.108448 81.8819757,183.163137 C81.919613,185.783378 80.0783427,187.761245 77.7947277,189.148755 C73.6554641,190.938436 67.5349531,191.207818 63.7517642,188.18879 C63.2844689,187.815799 62.9068267,187.330318 62.6196832,186.806354 C59.7529006,181.573062 60.0108646,175.547268 59.536803,169.87459 C59.4133186,151.271556 59.6129235,131.876866 64.181845,112.966812 C64.5810548,111.314994 65.442908,109.778204 66.7369565,108.677415 C69.8063042,106.065632 74.2466667,104.977952 78.2979688,105.907047 C86.6445816,109.166701 81.7732925,118.181075 81.9521757,124.927899 C82.036754,128.113547 81.6476937,132.195727 85.0836885,134.324567 C88.1318916,136.562091 92.8995722,137.482305 96.5271369,136.716869 C103.885452,134.65823 107.544733,128.036581 108.589699,120.73027 C109.424064,113.564782 107.785359,105.921002 101.403924,101.024332 C87.9826108,92.3990193 72.9225929,101.171921 60.6295551,109.694894 C59.7503633,110.304705 58.7514932,110.735209 57.6874978,110.850659 C54.9243236,111.150489 51.8241048,110.470055 49.9912924,108.316688 C47.6835725,106.040258 47.1689134,103.008966 47.6061834,99.7966753 C52.8644183,89.6396467 65.7685346,83.5203944 76.3327912,80.9809258 C89.0846665,78.497279 106.059115,79.7617271 116.417846,88.7211245 C120.817611,92.5022051 125.194117,98.2916014 127.030313,103.957513 C132.482232,117.467232 128.623768,136.504155 118.250659,146.59056 M129.5,0 C57.979293,0 0,57.9789648 0,129.500211 C0,201.021035 57.979293,259 129.5,259 C201.020707,259 259,201.021035 259,129.500211 C259,57.9789648 201.020707,0 129.5,0" id="Fill-1" fill="#F1F0F2" mask="url(#mask-2)"></path>
            </g>
        </g>
    </g>
</svg>