<?xml version="1.0" encoding="UTF-8"?>
<svg width="33px" height="43px" viewBox="0 0 33 43" version="1.1" xmlns="http://www.w3.org/2000/svg" xmlns:xlink="http://www.w3.org/1999/xlink">
    <title>Group 8</title>
    <defs>
        <polygon id="path-1" points="0 0 38 0 38 38 0 38"></polygon>
    </defs>
    <g id="Desktop" stroke="none" stroke-width="1" fill="none" fill-rule="evenodd">
        <g id="home" transform="translate(-591.000000, -818.000000)">
            <g id="Group-8" transform="translate(604.691351, 841.691351) scale(-1, 1) rotate(163.000000) translate(-604.691351, -841.691351) translate(585.718181, 822.718181)">
                <g id="Group-3" transform="translate(-0.053660, 0.000000)">
                    <mask id="mask-2" fill="white">
                        <use xlink:href="#path-1"></use>
                    </mask>
                    <g id="Clip-2"></g>
                    <path d="M36.5852518,21.4600136 L34.5619347,22.3333314 C34.2674297,17.4238694 32.1350783,12.8043894 28.5909013,9.39429146 C24.9286975,5.73242628 20.2638277,3.58678458 15.6776424,3.42718211 L16.5487928,1.41079594 C26.545103,0.339661037 35.5162659,7.57459848 36.5863758,17.5699843 C36.7246358,18.8636635 36.7246358,20.1674584 36.5852518,21.4600136 L36.5852518,21.4600136 Z M1.30309889,36.6930581 L4.14585933,30.1145139 C6.75481424,31.323896 9.84936524,30.1886953 11.0577351,27.5799817 C12.266105,24.972392 11.1319234,21.8781271 8.52296852,20.669869 C8.44091177,20.6316543 8.35773096,20.5956875 8.27342608,20.5619687 L9.73583467,17.1788459 C11.7400426,19.7178739 15.4236037,20.1528469 17.9628666,18.1499482 C20.5032535,16.1459256 20.9382667,12.4627052 18.9340587,9.92255317 C17.7122001,8.3737348 15.7911729,7.54312757 13.8240592,7.71509361 L15.1167339,4.72423319 C19.5331854,4.72760508 24.1013856,6.74736313 27.6702921,10.3148156 C31.2436948,13.8878878 33.2636396,18.4500458 33.2658878,22.8941879 L1.30309889,36.6930581 Z M7.75523211,21.7623591 C9.76056411,22.5491319 10.7486173,24.8116655 9.96289581,26.8168121 C9.17717436,28.8219587 6.91443147,29.8110444 4.90797541,29.0242716 C4.82591866,28.9916768 4.74386192,28.956834 4.66292924,28.9186193 L7.75523211,21.7623591 Z M13.2114437,9.13578041 C14.7637775,8.73227839 16.415029,9.18298678 17.5469625,10.3193114 C19.3286056,12.0974178 19.3308537,14.9826259 17.5525828,16.7641042 C15.774312,18.5455825 12.8888371,18.5478305 11.1083181,16.769724 C11.1060699,16.7686001 11.1038218,16.7663522 11.1015737,16.7641042 C10.8059446,16.4617587 10.554154,16.1189506 10.3540704,15.7457955 L13.2114437,9.13578041 Z M16.0193581,0.15420746 C15.9957528,0.160951226 15.9721474,0.168818954 15.9496661,0.177810642 C15.9047035,0.187926292 15.861989,0.202537786 15.8203986,0.221645124 C15.7833045,0.240752462 15.7473344,0.263231684 15.7136125,0.29020675 C15.6832627,0.312685971 15.654037,0.337413115 15.6281835,0.365512142 C15.5944616,0.402602857 15.5663599,0.444189417 15.5427546,0.488023899 C15.5292658,0.504883315 15.5169011,0.522866692 15.5056604,0.54085007 L14.0848422,3.83068414 L14.080346,3.84079979 L12.161567,8.28044604 C12.1581948,8.28831376 12.1548226,8.29730545 12.1514504,8.30517318 L0.108217771,36.176036 C-0.17841881,36.8369251 0.123954681,37.6045905 0.783780848,37.8923245 C1.11538003,38.0361915 1.49194181,38.0361915 1.82354099,37.8923245 L31.4876169,25.0802922 L37.4552781,22.5019255 C37.4912482,22.4828182 37.5260942,22.459215 37.5564439,22.4322399 C37.5845456,22.4153805 37.6103991,22.3973971 37.6351285,22.3771658 C37.6890836,22.3187199 37.7374184,22.2535301 37.7767607,22.1838445 C37.7969939,22.141134 37.8104826,22.0961756 37.8205992,22.0500932 C37.8284677,22.0287379 37.8363361,22.0062587 37.8419565,21.9837795 C39.2020751,11.2881659 31.6337453,1.51532432 20.9371426,0.155331421 C19.3038761,-0.0526013783 17.6515006,-0.0526013783 16.0193581,0.15420746 L16.0193581,0.15420746 Z" id="Fill-1" fill="#FFFFFF" mask="url(#mask-2)"></path>
                </g>
                <path d="M28.02167,20.074243 C27.1406279,20.9157318 25.7531515,20.9157318 24.8721094,20.074243 C24.0031515,19.2041919 24.0031515,17.794753 24.8721094,16.924702 C25.7421659,16.0546509 27.1516135,16.0546509 28.02167,16.924702 C28.8917265,17.7936545 28.8917265,19.2041919 28.02167,20.074243 C28.02167,20.074243 28.02167,20.074243 28.02167,20.074243 M26.447439,15.0000216 C24.5139801,15.0000216 22.947439,16.5665749 22.9463404,18.4989232 C22.9463404,20.4323701 24.5128815,22 26.4463404,22 C28.3797993,22 29.9463404,20.4334686 29.9463404,18.5000216 C29.9463404,17.5717475 29.5783241,16.680824 28.9213875,16.02499 C28.266648,15.3658604 27.3757189,14.9967478 26.447439,15.0000216" id="Fill-4" fill="#FFFFFF"></path>
                <path d="M18.3303749,24.3829579 C17.8363081,24.8554492 17.0574515,24.8554492 16.5633846,24.3829579 C16.0757903,23.8953642 16.0747115,23.1035637 16.5633846,22.6159699 C17.050979,22.1272974 17.8427805,22.1272974 18.3303749,22.6159699 C18.8179693,23.1035637 18.8179693,23.8942854 18.3303749,24.3829579 C18.3303749,24.3829579 18.3303749,24.3829579 18.3303749,24.3829579 Z M17.4468798,21.0000033 C16.0660815,21.0000033 14.9463404,22.1186675 14.9463404,23.4994639 C14.9463404,24.8802604 16.0650028,26.0000033 17.445801,26.0000033 C18.8265993,26.0000033 19.9452617,24.8813391 19.9463404,23.5005427 C19.9463404,22.8371131 19.6831257,22.201731 19.2138701,21.732476 C18.7467719,21.2621422 18.1103102,20.9989278 17.4468798,21.0000033 L17.4468798,21.0000033 Z" id="Fill-6" fill="#FFFFFF"></path>
            </g>
        </g>
    </g>
</svg>