<?xml version="1.0" encoding="UTF-8"?>
<svg width="75px" height="31px" viewBox="0 0 75 31" version="1.1" xmlns="http://www.w3.org/2000/svg" xmlns:xlink="http://www.w3.org/1999/xlink">
    <title>Group 16 Copy 2</title>
    <defs>
        <polygon id="path-1" points="0 0 37 0 37 26 0 26"></polygon>
    </defs>
    <g id="Desktop" stroke="none" stroke-width="1" fill="none" fill-rule="evenodd">
        <g id="home" transform="translate(-551.000000, -1056.000000)">
            <g id="Group-16-Copy-2" transform="translate(551.000000, 1056.000000)">
                <g id="Group-3" transform="translate(38.000000, 4.000000)">
                    <mask id="mask-2" fill="white">
                        <use xlink:href="#path-1"></use>
                    </mask>
                    <g id="Clip-2"></g>
                    <path d="M1.91928693,21.7025186 C-0.809048148,13.2496804 3.52935937,4.08284468 11.6091495,1.22854102 L12.9975044,2.53001577 C9.52177971,4.36372031 6.69105144,7.8274313 5.17208475,12.1405169 C3.65392431,16.2068875 3.65352119,20.7219843 5.17168163,24.7883548 L3.30280436,24.8364327 C2.73601371,23.8466202 2.27201937,22.7960779 1.91928693,21.7025186 L1.91928693,21.7025186 Z M6.36976258,24.7579899 C4.79153684,21.1757713 4.72582782,16.7479737 6.20851346,12.5403219 C7.68878036,8.33773086 10.4900807,5.01192727 13.8904214,3.36716009 L15.9487664,5.29702025 C14.3729594,5.88955817 13.1885846,7.27242781 12.7975555,8.97581618 C12.1569934,11.767703 13.8013313,14.5743506 16.4700042,15.2444878 C19.1386771,15.914625 21.8214593,14.194789 22.4620214,11.4024804 L24.7904587,13.5858034 C24.7380527,13.6440028 24.6868561,13.7038892 24.6368689,13.7650408 C23.0574338,15.7088183 23.2831825,18.6242735 25.1411755,20.2770537 C26.9991685,21.9294121 29.7859563,21.6932404 31.3657946,19.749463 L35.8932667,23.9942275 L6.36976258,24.7579899 Z M30.5422147,18.9776876 C30.49384,19.0384175 30.4434496,19.0974604 30.3910437,19.1543946 C29.1256412,20.5334687 27.0310152,20.5781726 25.7128036,19.2547676 C24.3945921,17.9309409 24.3518611,15.7396049 25.6172635,14.3605309 L30.5422147,18.9776876 Z M21.4763862,10.4784586 C21.4554238,10.8533812 21.3832648,11.2232429 21.262328,11.576657 C21.2615217,11.5791874 21.2607155,11.5812961 21.2599092,11.5838265 C20.5197758,13.6790069 18.2961505,14.7497925 16.2934364,13.9754867 C14.2907224,13.2011809 13.2671936,10.8748897 14.007327,8.77970933 C14.4757557,7.44238709 15.5867622,6.46564842 16.9263392,6.21302905 L21.4763862,10.4784586 Z M7.78351422,1.84891346 C0.0278347735,6.92238762 -2.32801484,17.6125308 2.52155238,25.7258721 C2.53404919,25.7418981 2.54735224,25.7570805 2.56146154,25.7714195 C2.58524578,25.8051583 2.61225501,25.835945 2.64248922,25.8633578 C2.69812016,25.9042661 2.75737922,25.9388484 2.81986325,25.9662612 C2.84646935,25.9734307 2.87307546,25.9784915 2.90008468,25.9810219 C2.93354388,25.9911436 2.96821244,25.9974696 3.002881,26 L35.9186634,25.1535775 C36.2254399,25.146408 36.5156883,25.0063919 36.7196684,24.7668463 C37.1260162,24.2898639 37.086107,23.5585751 36.6301751,23.1330443 L17.4471738,5.14983467 C17.441127,5.14477385 17.4366927,5.13886956 17.4306458,5.13423047 L14.3745719,2.26938343 L14.3677188,2.2630574 L12.1037812,0.140464264 C12.0884625,0.129920885 12.0727408,0.120220976 12.0562127,0.111364537 C12.0227535,0.0843734857 11.9860694,0.0620215214 11.9469664,0.0438869089 C11.9171354,0.0316565888 11.8860949,0.0219566798 11.8542482,0.015208917 C11.8191765,0.00635247832 11.7832986,0.00129165622 11.7474207,2.66453526e-14 C11.709124,-0.000395284482 11.6704242,0.00424380245 11.6329338,0.0126785059 C11.6119714,0.0135219763 11.5914121,0.0160523873 11.5708529,0.0194262688 C10.2397414,0.459717792 8.96708274,1.07460768 7.78351422,1.84891346 L7.78351422,1.84891346 Z" id="Fill-1" fill="#FFFFFF" mask="url(#mask-2)"></path>
                </g>
                <path d="M48.3390198,23.7903971 C47.3498835,23.4258376 46.8435731,22.3285772 47.2081803,21.3395702 C47.5727875,20.3509613 48.6701914,19.8447171 49.6593277,20.2092766 C50.648464,20.5738361 51.1547744,21.6710965 50.7901672,22.6597054 C50.406454,23.6308028 49.32736,24.1286892 48.3394179,23.7903971 C48.3394179,23.7903971 48.3390198,23.7903971 48.3390198,23.7903971 M46.1852104,20.962673 C45.9097648,21.7093036 45.9428023,22.5343384 46.2759641,23.2566915 C46.9705488,24.7606985 48.7525863,25.4173832 50.2567899,24.7232873 C51.7609936,24.0287935 52.4173661,22.2469891 51.7231795,20.7429821 C51.0289929,19.2389752 49.2465573,18.5826885 47.7427517,19.2767843 C47.01911,19.6083106 46.4582677,20.2152464 46.1852104,20.962673" id="Fill-4" fill="#FFFFFF"></path>
                <path d="M56.0667814,24.6719228 C56.0667814,24.6719228 56.0667814,24.6719228 56.0663253,24.6719228 C55.4192326,24.4329963 55.0877058,23.7148487 55.3262044,23.067376 C55.5651591,22.4199033 56.283391,22.0888715 56.9309398,22.3273421 C57.5784886,22.5658127 57.9100154,23.2844162 57.6710607,23.9318889 C57.4202496,24.5675065 56.7134181,24.8935226 56.0667814,24.6719228 Z M54.1542323,22.6360315 C53.9248541,23.2579701 53.9522153,23.9460239 54.2303877,24.5478999 C54.8090774,25.8008964 56.2943355,26.3480564 57.5474792,25.7689787 C58.801079,25.190357 59.3478473,23.7057294 58.7691576,22.452277 C58.1904678,21.1992805 56.7052098,20.6521205 55.45161,21.2307422 C54.8487512,21.507058 54.3817864,22.013181 54.1542323,22.6360315 L54.1542323,22.6360315 Z" id="Fill-6" fill="#FFFFFF"></path>
                <path d="M0.519320184,31 C0.239637146,31 0.00880704095,30.7742468 0,30.4890631 C-0.00869859314,30.1972761 0.216839111,29.954189 0.504257196,29.9455221 L31.4643959,29 C31.7208738,29.0123813 31.9911934,29.2199752 32,29.5109369 C32.008699,29.8027239 31.7827542,30.045811 31.4957432,30.0544779 L0.535197387,31 L0.519320184,31 Z" id="Fill-8" fill="#FFFFFF"></path>
                <path d="M30.4844791,21 C30.4711552,21 30.4574276,20.9995109 30.4441037,20.9985326 L1.475953,18.2471511 C1.19171006,18.2197596 0.979739122,17.9189419 1.00154185,17.5755695 C1.02455583,17.2312188 1.27892096,16.9837167 1.55589633,17.0008364 L30.524047,19.7522179 C30.8082899,19.7791203 31.0202609,20.0804272 30.9984582,20.4237996 C30.9770592,20.7515197 30.7513606,21 30.4844791,21" id="Fill-10" fill="#FFFFFF"></path>
                <path d="M34.4732125,12 C34.4344222,12 34.3956319,11.9957776 34.3564289,11.9869106 L17.4108291,8.06559321 C17.1269169,7.9997242 16.949059,7.71091391 17.0130218,7.42041468 C17.0773973,7.12907097 17.3604842,6.94877566 17.6435711,7.01295572 L34.5891709,10.9342732 C34.8730831,11.0001422 35.050941,11.2889525 34.9869782,11.5794517 C34.9316813,11.8302606 34.7137952,12 34.4732125,12" id="Fill-12" fill="#FFFFFF"></path>
                <path d="M41.5072482,5 C41.4216847,5 41.3349649,4.97551018 41.256339,4.92399712 L35.2406864,1.00309274 C35.0071212,0.850664732 34.930037,0.519629945 35.0695594,0.264175805 C35.2079256,0.00829942593 35.5100958,-0.0769927003 35.7440464,0.0762797839 L41.7593136,3.99718416 C41.9928788,4.14961217 42.069963,4.48064695 41.9304406,4.73610109 C41.8387103,4.90584087 41.6749064,5 41.5072482,5" id="Fill-14" fill="#FFFFFF"></path>
            </g>
        </g>
    </g>
</svg>