<?xml version="1.0" standalone="no"?>
<!DOCTYPE svg PUBLIC "-//W3C//DTD SVG 1.1//EN" "http://www.w3.org/Graphics/SVG/1.1/DTD/svg11.dtd" >
<svg xmlns="http://www.w3.org/2000/svg" xmlns:xlink="http://www.w3.org/1999/xlink" version="1.1">
<metadata>
Created by FontForge 20170731 at Mon Jun  3 11:07:08 2019
 By Aleksey,,,
Typeface (c) HandletterYean. 2019. All Rights Reserved
</metadata>
<defs>
<font id="Boombox" horiz-adv-x="587" >
  <font-face 
    font-family="Boombox"
    font-weight="400"
    font-stretch="normal"
    units-per-em="2048"
    panose-1="2 0 5 0 0 0 0 0 0 0"
    ascent="1638"
    descent="-410"
    x-height="635"
    cap-height="1252"
    bbox="-362 -619 1266 1434"
    underline-thickness="150"
    underline-position="-442"
    unicode-range="U+001D-E214"
  />
<missing-glyph horiz-adv-x="1024" 
d="M100 0v1434h824v-1434h-824zM150 50q353 159 724 0v1334q-384 -118 -724 0v-1334zM419 334l57 58q11 10 20 10q10 0 22 -11l56 -60q9 -11 9 -20q0 -11 -10 -22l-56 -62q-14 -14 -21 -14q-11 0 -20 10l-61 71q-7 9 -7 18q0 10 11 22zM413 1191q53 30 112 30
q92 0 148 -47.5t56 -127.5q0 -49 -23 -98.5t-87 -129.5q-63 -80 -99 -132t-36 -99q0 -38 24 -133h-32q-35 97 -35 148q0 76 81.5 218t81.5 217q0 57 -33 90t-91 33q-8 0 -16 -1l32 -51q7 -12 5 -21q-2 -11 -14 -20l-66 -50q-17 -11 -24 -10q-10 2 -17 14l-47 81q-5 10 -3 19
q1 10 28.5 32.5t54.5 37.5z" />
    <glyph glyph-name="LIG.ee" unicode="ee" horiz-adv-x="1092" 
d="M865 643h20q85 0 136 -128q4 -21 4 -40q0 -100 -144 -172q-42 -20 -152 -44v-4q58 -152 148 -152q48 -23 48 -52v-8q0 -48 -68 -48q-108 0 -232 148q-8 10 -8 16h-8q-173 -180 -244 -180q-24 -16 -128 -24q-102 0 -184 92q-55 86 -60 180q0 139 76 252q93 124 124 124
q69 24 92 24h12q145 0 184 -132l4 -36q0 -153 -192 -208q-17 -8 -64 -8h-8q-33 0 -76 16h-8l-8 -52q20 -132 80 -132q0 -4 40 -8q112 0 292 236q24 10 24 32q0 23 -8 48q12 14 16 76q45 105 104 128q95 56 188 56zM709 375v-8q136 0 184 124v12q-9 36 -20 36
q-71 -12 -132 -76q-32 -67 -32 -88zM169 371v-4q0 -11 52 -20q88 0 124 96q8 16 8 44q0 32 -36 32q-65 0 -144 -132q-4 -7 -4 -16z" />
    <glyph glyph-name="LIG.gg" unicode="gg" horiz-adv-x="1231" 
d="M1080 761h36q56 -29 56 -76v-4q-64 -439 -64 -536v-252q0 -428 -136 -476q-48 -32 -100 -32h-20q-146 0 -200 120q-36 32 -36 92q0 154 128 268v8h-24q-172 0 -172 -44q0 -191 -108 -360q-72 -88 -148 -88h-32q-86 0 -132 116l-8 80q0 137 124 284q76 48 160 80l12 112
h-4l-144 -60q-16 -8 -44 -8h-44q-114 0 -172 172q-8 44 -8 64q0 103 84 244q124 148 296 148q60 -1 60 -8q14 0 32 96q21 20 36 20h8q76 -27 76 -80q4 -8 4 -12q-36 -392 -36 -640q4 0 12 -4q77 12 112 12h68q94 0 212 -72v120q-74 -48 -124 -48h-32q-108 0 -152 124
q-8 34 -8 88q0 13 12 68q0 4 -4 4q0 20 48 144q0 34 116 164q74 50 200 68q10 4 40 100zM792 149v-16q0 -9 28 -16q152 65 152 136q0 79 32 268l-8 4q-204 -111 -204 -376zM136 189q0 -88 40 -88q93 0 240 132q8 15 8 32v20l16 192q-6 16 -12 16h-40q-144 0 -240 -232
q-8 -29 -12 -72zM760 -383v-8q0 -80 60 -108h20q104 0 124 324v24q-19 -23 -88 -40q-116 -83 -116 -192zM260 -427q5 -64 16 -64q80 66 80 136q28 54 40 148q-64 -24 -108 -100q-28 -76 -28 -120z" />
    <glyph glyph-name="LIG.ll" unicode="ll" horiz-adv-x="589" 
d="M99 1337h8q76 0 84 -88q4 -74 4 -124q-24 -177 -36 -736q0 -204 32 -440q0 -47 -88 -52q-72 26 -72 176l-12 88q0 123 -12 208q0 14 4 84q-4 63 -4 92q8 16 8 28q0 29 -4 92q0 95 40 576v72q30 24 48 24zM439 1157h24q47 0 72 -72q-40 -456 -40 -500v-292q0 -149 12 -280
q-12 -48 -56 -48h-36q-61 0 -68 184q-4 78 -4 228v224q0 85 44 504q-4 8 -4 12q0 22 56 40z" />
    <glyph glyph-name="LIG.oo" unicode="oo" horiz-adv-x="1351" 
d="M1018 638q59 0 172 -84q76 -94 76 -204q0 -86 -132 -244q-112 -108 -236 -108q-142 0 -196 152q-16 59 -20 108q0 148 100 296q84 80 136 80q50 4 100 4zM298 614h16l108 -24q69 -20 124 -104q48 -113 48 -184v-16q-39 -153 -136 -232q-96 -96 -196 -96h-24
q-172 0 -232 192q-4 34 -4 56v36q0 196 216 352q36 20 80 20zM814 238v-28q0 -73 56 -84q146 0 264 232l4 28q-24 112 -76 112l-64 20q-109 -50 -148 -136q-36 -102 -36 -144zM130 182q0 -96 60 -96l8 4h28q107 0 196 136q44 76 44 108v8q0 55 -60 128q-10 0 -52 28
q-60 0 -160 -136q-64 -103 -64 -180zM158 -110q258 -64 512 -64h24q182 0 344 56q40 0 52 -92q0 -64 -184 -88q-84 -20 -204 -20h-20q-199 0 -504 52q-52 25 -52 76q0 38 32 80z" />
    <glyph glyph-name="LIG.rr" unicode="rr" horiz-adv-x="1231" 
d="M630 646q108 -14 108 -80q-24 -99 -24 -148h4q6 0 80 120q67 72 104 72q113 0 240 -132q12 -15 12 -36q-7 -44 -44 -44h-12q-28 0 -124 72l-20 12h-12q-76 0 -212 -460q-21 -40 -64 -40h-4q-116 0 -116 244l12 156q0 9 -72 48q-46 46 -72 56q-48 -20 -164 -344
q-16 -32 -68 -180q-20 -28 -52 -28h-8q-104 13 -104 104q-9 0 -12 108v64q36 428 68 428q0 4 12 4h8q104 -14 104 -76l-32 -228l8 -4q8 6 72 148q76 128 112 128h12q72 0 196 -100h8q28 132 44 132q4 0 12 4z" />
    <glyph glyph-name="LIG.ss" unicode="ss" horiz-adv-x="968" 
d="M746 658h20q112 0 140 -108v-4q-12 -32 -48 -32q-10 0 -72 16q-120 -34 -120 -88q0 -35 112 -164q64 -97 64 -196q0 -165 -156 -224q-66 -32 -124 -32h-12q-159 0 -248 144q-6 0 -12 12q-57 -20 -84 -20q-208 34 -208 136q0 46 36 56q41 -5 96 -52q22 -4 32 -4
q60 0 104 52v20q0 39 -120 164q-44 71 -44 124v12q0 122 116 160h64q126 0 164 -104v-12q0 -32 -40 -36q-72 20 -104 24q-52 0 -80 -56q0 -32 136 -172q44 -77 44 -136v-8q0 -19 -12 -68q42 -108 108 -108h24q184 25 184 136q0 19 4 40q0 54 -136 220q-32 64 -32 100v8
q0 134 136 192q32 8 68 8z" />
    <glyph glyph-name="LIG.tt" unicode="tt" horiz-adv-x="580" 
d="M417 1245h32q80 0 80 -100q13 -8 24 -8q34 0 120 -4l36 4q69 0 100 -84v-16q0 -45 -48 -56l-20 4h-140q-28 0 -88 4q-40 -77 -40 -692q0 -373 20 -488q0 -44 -72 -44h-16q-76 0 -76 120q-16 89 -16 316v200q0 312 32 596h-4q-12 0 -12 4q-116 0 -116 -24v-8
q-48 -572 -48 -652q4 -188 12 -300q0 -48 -92 -48q-60 0 -68 88v16q0 71 -8 176q0 236 52 740l-8 4q-19 0 -164 -16q-64 11 -64 88v16q0 37 72 44q53 15 180 24q18 84 52 84q23 0 28 4q84 0 84 -84h124q10 9 32 88z" />
    <glyph glyph-name=".notdef" horiz-adv-x="1024" 
d="M100 0v1434h824v-1434h-824zM150 50q353 159 724 0v1334q-384 -118 -724 0v-1334zM419 334l57 58q11 10 20 10q10 0 22 -11l56 -60q9 -11 9 -20q0 -11 -10 -22l-56 -62q-14 -14 -21 -14q-11 0 -20 10l-61 71q-7 9 -7 18q0 10 11 22zM413 1191q53 30 112 30
q92 0 148 -47.5t56 -127.5q0 -49 -23 -98.5t-87 -129.5q-63 -80 -99 -132t-36 -99q0 -38 24 -133h-32q-35 97 -35 148q0 76 81.5 218t81.5 217q0 57 -33 90t-91 33q-8 0 -16 -1l32 -51q7 -12 5 -21q-2 -11 -14 -20l-66 -50q-17 -11 -24 -10q-10 2 -17 14l-47 81q-5 10 -3 19
q1 10 28.5 32.5t54.5 37.5z" />
    <glyph glyph-name="uni0000" horiz-adv-x="0" 
 />
    <glyph glyph-name="uni0000" horiz-adv-x="0" 
 />
    <glyph glyph-name="nonmarkingreturn" horiz-adv-x="508" 
 />
    <glyph glyph-name="space" unicode=" " horiz-adv-x="695" 
 />
    <glyph glyph-name="space" unicode="&#xa0;" horiz-adv-x="695" 
 />
    <glyph glyph-name="exclam" unicode="!" horiz-adv-x="317" 
d="M153 1264q68 -20 68 -84l4 -8q-52 -667 -52 -968q0 -47 -56 -52h-20q-49 0 -72 64q0 324 60 1012v12q11 24 68 24zM105 96q68 -13 68 -52q0 -148 -32 -148q-20 -12 -40 -12h-32q-34 0 -56 52q0 160 92 160z" />
    <glyph glyph-name="quotedbl" unicode="&#x22;" horiz-adv-x="497" 
d="M338 1252q49 -19 64 -56q-4 -60 -4 -88v-84q-24 -40 -64 -40q-72 0 -72 164q0 100 48 100q16 4 28 4zM126 1248h20q64 -18 64 -60q0 -41 -8 -96q4 -27 4 -44q0 -33 -48 -44h-36q-38 0 -52 92v100q0 52 56 52z" />
    <glyph glyph-name="numbersign" unicode="#" horiz-adv-x="1000" 
d="M637 772h16q76 -14 76 -72l-16 -60v-8q0 -9 124 -16q56 -24 56 -72q-6 -64 -60 -64h-176q-19 0 -68 -164q192 -8 192 -56q4 -15 4 -32v-16q-8 -40 -40 -40q-50 0 -124 4q-80 0 -80 -28q-9 -152 -56 -152h-8q-88 16 -88 88q4 54 4 80h-4q-128 -13 -128 -40
q-12 -120 -52 -120h-32q-68 12 -68 84q0 36 -40 36t-60 40q0 80 56 80q80 9 80 40q28 145 28 172q-112 9 -112 72q7 64 24 64h8q140 8 140 32q41 108 72 108h8q65 0 100 -68l-4 -20v-20q9 0 16 -4q44 4 76 4h32q10 0 68 132q21 16 36 16zM301 300v-8q136 8 136 32
q0 17 44 160q-128 0 -144 -32q-36 -117 -36 -152z" />
    <glyph glyph-name="dollar" unicode="$" horiz-adv-x="557" 
d="M229 1188q88 -16 88 -76q-12 -78 -12 -104q132 -71 132 -124q-13 -32 -48 -32q-20 0 -108 48h-4q-100 -10 -100 -36q-21 0 -36 -72q0 -54 136 -148q168 -165 168 -312q-4 -7 -4 -16l4 -8q0 -157 -160 -232q-12 0 -20 -144q-25 -32 -48 -32q-55 0 -88 60l8 100
q-124 22 -124 100q37 24 52 24q70 -12 88 -12h4q78 0 124 108q16 37 16 68v32q0 122 -204 272q-88 98 -88 184q0 116 120 168q40 0 40 112q0 72 64 72z" />
    <glyph glyph-name="percent" unicode="%" horiz-adv-x="701" 
d="M86 1080q176 -18 176 -104q4 0 4 -16q0 -79 -84 -120q-16 -8 -44 -8q-124 28 -124 108q-6 0 -12 44q28 96 84 96zM506 1040h4q50 -10 60 -60v-20q0 -32 -172 -308q-188 -358 -260 -576q-20 -28 -48 -28q-71 0 -84 100q137 365 264 564q184 328 236 328zM414 340h4
q85 0 156 -68q16 -31 16 -60q0 -120 -132 -192q-40 -8 -52 -8q-41 0 -96 80q-16 57 -16 92q0 90 92 152zM422 148q23 0 52 80h-8q-44 -44 -44 -80z" />
    <glyph glyph-name="ampersand" unicode="&#x26;" horiz-adv-x="856" 
d="M240 1016h40q157 0 216 -168v-12q-5 -36 -36 -36h-4q-54 0 -92 88q-22 16 -48 16q-88 0 -116 -112v-24q0 -60 88 -92q56 -46 56 -72q0 -27 -80 -72q-108 -107 -108 -236v-16q9 -104 52 -104q38 0 116 44q-57 33 -72 88v4q0 39 412 80q96 -20 96 -72q0 -68 -188 -68
q-35 0 -56 -56q-71 -100 -144 -100q-81 -32 -136 -32h-4q-155 0 -212 184q-12 42 -12 84v24q0 134 136 268v12q-88 113 -88 192q0 95 124 176q36 12 60 12z" />
    <glyph glyph-name="quotesingle" unicode="'" horiz-adv-x="281" 
d="M87 1232h20q72 -12 72 -64q0 -167 -48 -200l-28 -4q-64 0 -64 120v36q0 108 28 108q7 4 20 4z" />
    <glyph glyph-name="parenleft" unicode="(" horiz-adv-x="479" 
d="M243 1276q80 -15 80 -56v-20q-160 -355 -160 -600v-12q0 -282 132 -508q60 -70 60 -88v-8q0 -37 -60 -44h-4q-92 0 -164 152q-116 219 -116 436v132q0 264 180 608z" />
    <glyph glyph-name="parenright" unicode=")" horiz-adv-x="449" 
d="M16 1268h48q94 0 220 -344q64 -218 64 -404q0 -232 -156 -540q-21 -16 -56 -20q-51 0 -80 40v12l84 212q48 161 48 288v56q0 316 -160 604q-3 0 -48 64v16q5 16 36 16z" />
    <glyph glyph-name="asterisk" unicode="*" horiz-adv-x="443" 
d="M165 1356q43 0 76 -52h4q39 12 44 12q38 0 48 -60q0 -26 -64 -60l-4 -8v-4q36 -46 36 -80q-12 -28 -36 -28h-4q-44 0 -96 64l-8 4q-38 -40 -56 -40q-36 7 -36 36v4q0 13 32 52q-32 53 -32 76q0 6 16 28l28 -4h16q5 2 28 60h8z" />
    <glyph glyph-name="plus" unicode="+" horiz-adv-x="677" 
d="M274 744q92 -18 92 -88q0 -50 -8 -140q0 -20 148 -20q76 0 76 -84q0 -38 -60 -48h-112q-41 0 -56 -12q0 -244 -28 -244q-13 -8 -24 -8h-20q-72 0 -72 124v120l-8 12q-91 -12 -116 -12q-64 14 -64 56v28q7 52 44 52q152 16 152 28q17 203 24 228q15 8 32 8z" />
    <glyph glyph-name="comma" unicode="," horiz-adv-x="275" 
d="M79 110h24q76 -17 76 -64v-8q0 -41 -112 -180l-20 -8q-76 17 -76 68v24q7 49 108 168z" />
    <glyph glyph-name="hyphen" unicode="-" horiz-adv-x="605" 
d="M324 452q148 0 148 -28q20 -25 20 -52v-12q0 -33 -44 -44h-52q-21 0 -36 4q-209 -16 -292 -16q-40 15 -40 60q0 68 40 68q48 8 256 20z" />
    <glyph glyph-name="hyphen" unicode="&#xad;" horiz-adv-x="605" 
d="M324 452q148 0 148 -28q20 -25 20 -52v-12q0 -33 -44 -44h-52q-21 0 -36 4q-209 -16 -292 -16q-40 15 -40 60q0 68 40 68q48 8 256 20z" />
    <glyph glyph-name="period" unicode="." horiz-adv-x="263" 
d="M81 98q84 -27 84 -92v-32q0 -50 -84 -72h-28q-53 0 -68 84q14 92 60 92q0 11 36 20z" />
    <glyph glyph-name="slash" unicode="/" horiz-adv-x="557" 
d="M512 1204q96 -21 96 -76v-24q-40 -58 -256 -520q-152 -348 -264 -668q-22 -20 -44 -20q-92 13 -92 80q0 37 204 544q185 429 324 664q21 20 32 20z" />
    <glyph glyph-name="zero" unicode="0" horiz-adv-x="657" 
d="M297 892h8q17 0 60 -36q122 0 188 -244q4 -34 4 -56q0 -242 -128 -476q-89 -100 -172 -100q-163 0 -228 208q-16 78 -16 140q0 336 192 528q46 36 92 36zM145 312q0 -170 72 -208q7 -4 16 -4h4q98 0 160 284q9 0 24 144v32q0 116 -84 208l-8 4q-72 -30 -148 -232
q-36 -108 -36 -228z" />
    <glyph glyph-name="one" unicode="1" horiz-adv-x="299" 
d="M121 988q120 0 120 -64q-80 -408 -80 -772v-88l4 -28l-8 -28q-86 8 -124 8q-20 44 -20 64v24q0 463 72 796q6 88 36 88z" />
    <glyph glyph-name="two" unicode="2" 
d="M300 928q93 0 164 -84q20 -34 20 -76q0 -84 -196 -404q-14 -41 -104 -188q0 -7 -16 -52l32 -8q41 4 64 4h8q84 0 108 -40q8 -13 8 -24q-10 -48 -56 -48q-16 0 -188 -4q-136 12 -136 68q-8 38 -8 48q31 38 72 152q75 116 128 228q155 243 164 308q-16 8 -44 8h-8
q-86 0 -196 -76q-16 -4 -28 -4q-45 0 -68 92q94 58 136 76q100 24 144 24z" />
    <glyph glyph-name="three" unicode="3" horiz-adv-x="611" 
d="M123 892q199 0 308 -148q12 -42 12 -52v-32q0 -97 -124 -264q100 -22 124 -64q48 -44 48 -100q0 -133 -164 -204q-93 -24 -176 -24h-56q-92 17 -92 88q-4 0 -4 24v8l8 12q60 -4 88 -4h8q131 0 228 80q24 35 24 48v4q-30 8 -56 8h-20q-4 0 -4 4l-8 -4h-60q-80 6 -80 68
q-7 0 -12 52q0 32 92 112q76 104 112 188q0 56 -120 76q-70 0 -96 56q-4 22 -4 36v20q4 12 24 12z" />
    <glyph glyph-name="four" unicode="4" horiz-adv-x="557" 
d="M286 924h4q176 -17 176 -60q8 0 12 -40q-40 -297 -40 -356q16 -39 16 -48v-8q-32 -26 -32 -232v-92q-5 -76 -56 -76h-12q-51 0 -88 100v52q0 49 8 196h-16q-97 -16 -124 -16h-8q-79 0 -124 92v4q93 214 224 432q16 52 60 52zM302 676q-68 -120 -100 -196h4q84 0 84 36
q4 86 16 156v4h-4z" />
    <glyph glyph-name="five" unicode="5" horiz-adv-x="563" 
d="M339 900q124 0 144 -76v-32q-15 -24 -36 -24q-3 0 -96 4q-164 -7 -164 -32q-32 -272 -32 -304l8 -4h52q146 0 184 -144q4 -4 4 -32v-8q0 -93 -148 -208q-91 -40 -128 -40q-70 3 -96 88v8q136 43 168 92q60 61 60 112v8q0 6 -12 12h-4q-105 -28 -120 -28q-85 0 -124 100v8
q20 234 60 464q0 24 280 36z" />
    <glyph glyph-name="six" unicode="6" horiz-adv-x="503" 
d="M222 888q80 -18 80 -60v-16q0 -14 -80 -188q-48 -172 -48 -220l8 -4h48q142 0 192 -152q4 -35 4 -40q0 -101 -104 -172q-58 -32 -120 -32q-142 0 -196 220q0 17 -4 44q0 297 156 588q33 32 64 32zM162 300l-4 -8v-56q0 -68 28 -120h4q59 0 88 116v8q0 56 -32 56h-56z" />
    <glyph glyph-name="seven" unicode="7" horiz-adv-x="449" 
d="M249 928q101 0 116 -80l4 -16q-92 -468 -92 -580q0 -228 -28 -228q-13 -8 -24 -8q-70 0 -96 64q0 6 -8 36q0 272 84 644q4 35 4 40h-4q-93 -12 -112 -12h-8q-53 0 -76 96v4q0 24 240 40z" />
    <glyph glyph-name="eight" unicode="8" 
d="M244 916h4q181 0 236 -152q12 -38 16 -88q0 -119 -124 -292v-12q100 -83 100 -192q0 -151 -144 -192h-28q-61 0 -128 48q0 11 -44 72q-16 63 -16 104q0 23 24 96q0 8 -84 124q-60 115 -60 208q0 189 204 268q16 8 44 8zM124 576q0 -86 68 -168h4q172 213 172 344
q0 33 -48 44h-24q-66 0 -140 -92q-32 -57 -32 -128zM256 148q0 -6 8 -36h20q56 43 56 128q0 19 -24 36q-27 0 -60 -128z" />
    <glyph glyph-name="nine" unicode="9" horiz-adv-x="521" 
d="M222 912q83 -10 148 -60q68 -57 68 -196q0 -127 -160 -584q0 -51 -68 -64h-12q-49 0 -72 96q0 14 64 224v4q-62 21 -120 100q-67 119 -72 224q0 211 212 256h12zM138 616q0 -123 80 -184h8q72 191 72 312q-5 40 -36 40q-72 0 -120 -120z" />
    <glyph glyph-name="colon" unicode=":" horiz-adv-x="347" 
d="M93 692h8q116 -34 116 -84v-12q0 -72 -48 -84h-32q-88 37 -88 120v4q8 56 44 56zM113 248q92 -19 92 -80q-10 -80 -64 -80h-8q-68 0 -104 108q15 52 84 52z" />
    <glyph glyph-name="semicolon" unicode=";" horiz-adv-x="335" 
d="M142 684h8q75 0 92 -96q0 -76 -88 -76h-4q-64 0 -100 120q24 52 92 52zM118 200h8q88 -9 88 -68v-4q0 -41 -104 -92q-39 -48 -76 -48q-40 15 -40 40q0 13 60 88q25 84 64 84z" />
    <glyph glyph-name="semicolon" unicode="&#x37e;" horiz-adv-x="335" 
d="M142 684h8q75 0 92 -96q0 -76 -88 -76h-4q-64 0 -100 120q24 52 92 52zM118 200h8q88 -9 88 -68v-4q0 -41 -104 -92q-39 -48 -76 -48q-40 15 -40 40q0 13 60 88q25 84 64 84z" />
    <glyph glyph-name="less" unicode="&#x3c;" horiz-adv-x="713" 
d="M465 616h24q72 -14 72 -72v-12q0 -36 -148 -120q-140 -86 -164 -108q364 -82 364 -136q8 0 8 -44q0 -32 -44 -40q-16 0 -148 44q-336 89 -372 116q-48 50 -48 80v16q0 34 36 48q116 54 388 216q20 12 32 12z" />
    <glyph glyph-name="equal" unicode="=" horiz-adv-x="850" 
d="M535 684h104q51 0 76 -72q0 -80 -60 -80h-164q-113 0 -264 -4q-25 4 -68 4q-44 -8 -60 -8q-92 0 -92 64q7 76 56 76q0 14 472 20zM643 408q100 -9 100 -68v-48q-25 -40 -48 -40q-48 4 -72 4q-174 0 -548 -36q-68 11 -68 56v12q13 72 36 72q345 48 600 48z" />
    <glyph glyph-name="greater" unicode="&#x3e;" horiz-adv-x="766" 
d="M37 704q214 -56 580 -180q36 -38 40 -80q0 -89 -260 -184q-290 -140 -336 -140q-34 0 -48 52v20q0 81 160 124q17 12 252 112q0 9 -180 68q-236 64 -236 104l-4 28v4q0 39 32 72z" />
    <glyph glyph-name="question" unicode="?" horiz-adv-x="599" 
d="M267 1260q182 0 228 -124q12 -38 16 -80q0 -115 -128 -340q-96 -207 -96 -484q-20 -28 -40 -28h-16q-60 0 -76 84q-4 31 -4 68q0 275 188 600q44 106 44 152q-8 24 -32 24h-40q-133 0 -180 -116q-8 -51 -8 -60l24 -148v-20q-10 -20 -32 -20h-8q-53 0 -80 104
q-24 35 -24 132q0 163 188 240q68 16 76 16zM227 144q56 0 80 -60v-4q-4 -41 -4 -64v-4q0 -45 8 -108q-7 -48 -40 -48h-12q-63 0 -92 80q-4 27 -4 44v4q0 51 4 112q-4 16 -4 28q19 20 64 20z" />
    <glyph glyph-name="at" unicode="@" horiz-adv-x="1012" 
d="M500 988q229 0 360 -184q40 -81 40 -180q-7 -109 -112 -296q-98 -114 -136 -120q-28 -20 -68 -20h-12q-96 0 -132 100l-12 8q-58 -24 -76 -24h-16q-136 0 -156 176v32q5 77 64 176q74 96 120 96q8 10 52 16q28 0 76 -28h12q18 60 32 60h28q53 0 68 -76q0 -28 -64 -248
q-12 -76 -12 -124v-24l4 -20h4q72 0 184 204q32 84 32 144q0 179 -244 204h-24q-252 0 -352 -324q-12 -61 -12 -116q0 -204 212 -204h12q76 -16 76 -72q0 -52 -84 -52q-119 0 -240 84q-104 114 -104 244v28q0 250 192 440q142 100 288 100zM304 444v-16q0 -26 16 -36
q112 43 112 96q0 15 32 128q-6 20 -28 20q-56 0 -120 -120q-12 -45 -12 -72z" />
    <glyph glyph-name="A" unicode="A" horiz-adv-x="1007" 
d="M625 1272h20q184 0 252 -380q16 -120 20 -320q4 -40 8 -40q0 -4 -4 -12q-8 -327 -8 -444q0 -15 8 -60q0 -39 -68 -52h-16q-80 20 -80 80q-4 45 -4 80v184h-48q-81 0 -252 -48h-20q-64 17 -64 92v16q0 64 376 96q16 14 16 48q-14 316 -20 376q-47 268 -92 268
q-112 -98 -140 -180q-160 -264 -328 -988q-12 -36 -72 -36h-4q-44 8 -44 44v40q0 92 128 532q117 383 240 556q122 148 196 148z" />
    <glyph glyph-name="B" unicode="B" horiz-adv-x="725" 
d="M156 1248q322 0 376 -104q28 -33 32 -88q0 -95 -184 -312q0 -7 116 -32q180 -73 180 -224q0 -125 -160 -292q-151 -123 -328 -232q-4 0 -12 -4q-96 28 -96 100q0 4 44 44q-60 25 -60 120q-12 90 -12 244v108q28 444 28 556v24q0 16 -8 52q45 40 84 40zM236 1128l-12 -304
l8 -4q177 190 188 288v4q-49 8 -164 20q-7 -4 -20 -4zM208 588v-172q0 -240 32 -240q257 179 288 328q4 10 8 40q0 80 -200 80h-48q-55 0 -80 -36z" />
    <glyph glyph-name="C" unicode="C" horiz-adv-x="833" 
d="M595 1232q144 -26 144 -140q0 -25 -52 -32q-54 0 -80 68h-8q-93 -41 -220 -208q-184 -242 -184 -540v-24q0 -107 88 -204q63 -48 128 -48q45 0 212 112q32 12 72 16q80 -9 80 -60q0 -35 -104 -80q-120 -92 -224 -92q-167 0 -316 152q-67 106 -80 196v68q0 292 156 516
q56 108 204 236q72 64 184 64z" />
    <glyph glyph-name="D" unicode="D" horiz-adv-x="857" 
d="M121 1228q18 0 180 -36q182 -15 340 -116q168 -136 168 -320q0 -268 -404 -620q-171 -132 -216 -140h-20q-61 0 -92 76l8 28q-12 20 -12 32v60l-20 300v212q0 492 20 492zM209 756q9 -510 20 -568h4q196 138 344 360q32 48 52 128q32 82 32 156q0 176 -256 236
q-34 8 -168 32q-20 0 -20 -88z" />
    <glyph glyph-name="E" unicode="E" horiz-adv-x="977" 
d="M317 1224q15 0 64 -24q31 0 224 12q296 -7 296 -32q36 -40 36 -80q0 -41 -32 -56h-4q-197 16 -320 16h-48q-157 -8 -168 -8q-27 0 -120 -364l8 -4h4l344 20q56 -36 56 -104q0 -52 -64 -52h-40q-340 -8 -340 -28q-14 0 -24 -216q19 -208 96 -208l92 -8q13 0 392 24
q64 -9 64 -52v-4q0 -56 -180 -56q-131 -16 -268 -16h-52q-201 0 -240 120q-48 97 -48 236v20q0 74 16 176q-20 64 -20 72q4 64 44 64q60 196 80 312q24 60 24 76q-28 41 -28 56q7 72 20 72h56q13 0 52 36h28z" />
    <glyph glyph-name="F" unicode="F" 
d="M688 1268q112 0 112 -80v-20q0 -36 -32 -52q-66 4 -100 4h-20q-340 0 -340 -32q-56 -256 -56 -312l8 -4q152 20 204 20q48 -28 48 -92q0 -48 -64 -48q-151 -17 -220 -28q-22 -21 -36 -348v-40q0 -124 12 -220q-12 -36 -40 -36h-24q-60 0 -76 52q-16 23 -16 148v80
q0 345 104 816l-8 4q-40 -8 -48 -8q-44 0 -64 72q0 68 68 68q103 21 112 40q12 8 28 8q60 -12 64 -12q246 20 384 20z" />
    <glyph glyph-name="G" unicode="G" horiz-adv-x="947" 
d="M592 1224q78 0 144 -72q28 -33 28 -48v-8q0 -44 -36 -44q-35 0 -84 56q-13 8 -24 8h-8q-139 0 -300 -260q-124 -245 -124 -452v-48q0 -167 96 -248q20 -12 52 -12h16q157 0 256 200q16 23 44 128h-4q-31 0 -204 -32h-4q-53 0 -72 60q0 64 40 64q146 52 332 52h12
q116 0 116 -36q24 -19 24 -56q0 -48 -64 -48q-20 0 -60 -152q-62 -131 -148 -200q-173 -92 -288 -92q-92 0 -172 72q-63 45 -104 188q-16 79 -16 160q0 295 188 588q170 232 364 232z" />
    <glyph glyph-name="H" unicode="H" horiz-adv-x="1007" 
d="M288 1288h12q96 -17 96 -80q-56 -474 -56 -712v-4h4q257 24 388 24q7 0 32 344q9 104 24 216q16 108 52 108q42 8 64 8q64 -29 64 -76q-68 -421 -68 -752q-7 0 -8 -200v-12q0 -45 4 -116q0 -33 -92 -44h-24q-52 42 -52 88v120q0 59 4 160l-8 4h-144q-244 -15 -244 -36v-8
q0 -50 16 -264q0 -52 -72 -52h-28q-64 0 -64 112q-3 0 -12 200l-8 4q-12 0 -76 -4q-68 20 -68 56v44q0 21 148 52q8 0 24 500q33 296 44 296z" />
    <glyph glyph-name="I" unicode="I" horiz-adv-x="294" 
d="M110 1252h24q72 -15 72 -60v-276q-8 -176 -8 -192v-100q0 -26 -4 -52q13 -297 40 -500q0 -47 -100 -60h-4q-58 0 -68 176q-20 284 -20 504q4 352 12 352q-4 22 -4 36v16q0 152 40 152q7 4 20 4z" />
    <glyph glyph-name="J" unicode="J" horiz-adv-x="659" 
d="M521 1224q84 -23 84 -72v-216q0 -83 4 -188l-8 -80q4 -34 4 -52q0 -489 -184 -568q-76 -48 -152 -48h-52q-101 0 -144 88q-20 73 -20 136q0 222 228 508q44 32 60 32q88 -20 88 -68v-4q-224 -274 -224 -468v-28q0 -88 36 -96q95 0 152 112q64 85 64 812v156q0 44 64 44z
" />
    <glyph glyph-name="K" unicode="K" horiz-adv-x="779" 
d="M549 1220q92 -20 92 -76q-7 -85 -316 -480q-20 -44 -20 -84q24 -98 204 -312q109 -105 188 -144q24 -22 24 -48q-17 -40 -68 -40q-192 60 -384 324q-34 63 -52 76q-4 -22 -4 -32q0 -99 -4 -232q8 -107 8 -132q-8 -36 -72 -36q-92 0 -92 108q-4 101 -4 160v336
q14 584 44 584q21 16 44 16q100 -17 100 -76q-24 -335 -24 -348h4q99 114 180 248q41 48 112 176q21 12 40 12z" />
    <glyph glyph-name="L" unicode="L" horiz-adv-x="755" 
d="M217 1220q100 -13 100 -84q-84 -371 -84 -464q-16 -246 -16 -252q0 -231 72 -312q55 -40 104 -40h8q56 0 260 36q64 -20 64 -56q0 -60 -196 -72q0 -8 -88 -8h-4q-9 0 -16 -4q-7 4 -16 4h-16q-235 0 -312 224q-24 109 -24 244q0 393 120 772q13 8 44 12z" />
    <glyph glyph-name="M" unicode="M" horiz-adv-x="1108" 
d="M429 1252q192 0 192 -420l8 -184h4q68 252 168 336q34 32 96 32h12q132 0 132 -192v-12q0 -40 -16 -504l16 -292q0 -30 -64 -40h-8q-84 20 -84 84q-16 167 -16 324q10 291 24 360v100l-4 28q-70 -59 -156 -408l-48 -320q-10 -116 -36 -116q0 -9 -60 -12h-8q-84 0 -84 96
q0 33 -20 292q-12 720 -44 720q-58 -45 -124 -308q-104 -481 -104 -676q-10 -156 -52 -156q0 -6 -44 -12q-64 13 -64 36q20 354 68 624q67 332 140 500q66 120 164 120h12z" />
    <glyph glyph-name="N" unicode="N" horiz-adv-x="1018" 
d="M339 1240h52q165 0 196 -352q21 -368 76 -652q17 -56 24 -56h4q104 271 104 360q32 164 38 697v40q0 36 56 36h12q44 0 72 -48v-68q-6 -751 -162 -1117q-52 -64 -80 -64l-24 -4h-28q-121 0 -192 328q-36 230 -48 512q-26 268 -48 268q-38 -36 -88 -220q-96 -371 -96 -560
q-19 -284 -40 -284q-29 -16 -44 -16q-47 0 -76 36v56q0 508 176 1012q60 96 116 96z" />
    <glyph glyph-name="O" unicode="O" horiz-adv-x="827" 
d="M415 1188q172 -33 244 -108q156 -126 156 -404q0 -186 -132 -488q-115 -188 -304 -188h-16q-169 0 -272 164q-40 125 -40 240q0 315 188 612q78 84 156 84h12q80 -16 80 -64q0 -16 -88 -72q-92 -117 -132 -236q-64 -198 -64 -340q0 -202 100 -276q53 -16 68 -16
q96 0 200 200q100 280 100 420q0 279 -176 356q-48 0 -116 96v8q13 6 36 12z" />
    <glyph glyph-name="P" unicode="P" horiz-adv-x="432" 
d="M155 1268h12q75 -20 256 -52q192 -81 192 -228q0 -205 -356 -476q-52 -9 -52 -16v-84q0 -58 20 -386q0 -40 -80 -40t-80 84q-12 200 -12 214v40q0 66 -4 128l4 36q-4 74 -4 132q0 86 52 632q15 16 52 16zM263 1132l-8 -12v-4q-40 -372 -40 -440h8q229 210 244 356v16
q0 58 -104 76q-31 0 -100 8z" />
    <glyph glyph-name="Q" unicode="Q" horiz-adv-x="827" 
d="M416 1240q131 0 264 -204q92 -174 92 -356v-72q0 -235 -132 -452q0 -10 76 -116q0 -2 4 -16q0 -40 -76 -40h-8q-33 0 -96 68q-99 -36 -156 -36q-212 0 -300 240q-15 69 -24 184q24 210 72 344q69 219 188 340q116 -8 116 -68q0 -23 -88 -164q-124 -279 -124 -484
q0 -214 108 -284q26 -8 36 -8h4q32 0 84 48q0 12 -80 116l-8 28v4q0 15 84 28q80 -14 80 -44h12q80 181 80 384v72q0 173 -112 336q-30 30 -116 92q-12 15 -12 28v20q3 12 32 12z" />
    <glyph glyph-name="R" unicode="R" horiz-adv-x="773" 
d="M106 1220q71 -4 116 -4h8l24 4q203 0 324 -148q44 -86 44 -164q0 -203 -260 -456q0 -15 192 -192q195 -167 196 -176v-24q-34 -42 -80 -52h-4q-62 0 -164 108q-5 0 -112 100q-36 28 -108 104q-21 19 -48 40h-16v-4l36 -316q-9 -36 -68 -36h-28q-72 0 -72 156
q-36 207 -36 488v92l24 416v36q14 21 32 28zM234 1072q-24 -310 -24 -520l8 -4q153 145 200 228q66 108 72 192v20q-21 104 -168 104h-40q-48 0 -48 -20z" />
    <glyph glyph-name="S" unicode="S" horiz-adv-x="617" 
d="M384 1216q140 -20 140 -76v-16q-12 -20 -28 -20q-59 8 -88 8q-109 0 -188 -132q-20 -36 -20 -76v-12q0 -126 228 -364q137 -163 148 -296v-16q0 -116 -204 -200h-40q-208 0 -208 196v12q0 144 84 144h20q68 -17 68 -60q-24 -70 -24 -96v-12q0 -80 40 -80q104 49 104 120
q0 123 -224 372q-152 192 -152 308q0 151 176 264q97 32 168 32z" />
    <glyph glyph-name="T" unicode="T" horiz-adv-x="390" 
d="M338 1284q256 -14 256 -48q28 -26 28 -72v-4q0 -40 -48 -44q-166 24 -212 24h-80q-32 0 -32 -84q-16 -146 -16 -292q17 -700 36 -700q0 -52 -76 -52h-32q-64 0 -64 148q-24 287 -24 504v204q0 93 16 260l-8 4q-161 0 -356 -56q-88 23 -88 88v12q0 45 164 68
q224 40 536 40z" />
    <glyph glyph-name="U" unicode="U" horiz-adv-x="953" 
d="M166 1260h36q64 -12 64 -56q-32 -366 -32 -472v-96q0 -378 140 -556q30 -20 52 -20h20q81 27 140 116q96 157 96 232q25 0 52 300q8 89 8 128q-12 114 -52 300q20 28 60 28h20q68 -8 68 -60q52 -156 52 -344v-36q0 -213 -92 -468q-92 -202 -276 -280q-33 -12 -100 -20
q-198 0 -272 200q-80 170 -80 564q0 170 48 504q12 36 48 36z" />
    <glyph glyph-name="V" unicode="V" horiz-adv-x="845" 
d="M844 1264h8q84 -18 84 -64q-48 -236 -204 -724q-6 0 -20 -76q-102 -332 -168 -380q-76 -44 -140 -44q-118 0 -208 184q-48 117 -96 456q-40 116 -80 480q4 24 68 24q100 0 100 -148q92 -536 140 -732q29 -99 84 -152h4q29 10 88 188q43 95 84 248q24 54 136 464
q52 180 68 252q24 24 52 24z" />
    <glyph glyph-name="W" unicode="W" horiz-adv-x="1138" 
d="M982 1240h16q59 0 80 -84q12 -97 12 -136v-16q0 -140 -112 -656q-85 -252 -216 -252q-127 0 -196 116v8h-4q-5 0 -68 -132q-67 -92 -168 -92h-12q-187 0 -228 268q-32 133 -32 384v124q0 94 44 436q14 12 36 16q102 0 116 -80q-40 -371 -40 -500v-24q0 -380 96 -524
q71 43 116 192q52 151 80 320l48 232q6 68 68 68q74 0 88 -72v-8q-16 -213 -20 -388q6 -223 44 -236q20 0 96 152q92 333 132 704q-12 114 -12 144q5 36 36 36z" />
    <glyph glyph-name="X" unicode="X" horiz-adv-x="707" 
d="M514 1292q79 0 100 -84v-8q-196 -588 -196 -612q0 -42 184 -456q44 -82 44 -96v-20q-15 -32 -80 -32h-12q-67 0 -120 156q-10 13 -88 196h-4q-23 -21 -88 -248q-46 -129 -84 -296q-18 -24 -40 -24h-32q-60 0 -76 52q80 334 188 624q11 20 32 140v4q0 18 -192 564
q-8 26 -8 36v16q0 16 76 24q89 0 108 -136q53 -116 96 -260h4q64 215 156 444q19 16 32 16z" />
    <glyph glyph-name="Y" unicode="Y" horiz-adv-x="736" 
d="M724 1296h40q57 0 72 -56q0 -42 -148 -420q-84 -242 -152 -664q-8 -97 -8 -136v-24q-5 -40 -40 -40h-32q-59 0 -84 44q0 138 44 388q-8 4 -12 4q-55 -32 -124 -32h-12q-102 0 -192 112q-32 66 -32 160v52q0 22 4 56q-8 21 -8 32q40 456 80 456q7 4 16 4h28q88 -11 88 -64
q-52 -375 -52 -552q0 -156 80 -156q104 53 248 396q116 337 172 432q13 8 24 8z" />
    <glyph glyph-name="Z" unicode="Z" horiz-adv-x="922" 
d="M612 1276q141 0 320 -12h24q53 0 100 -76v-28q0 -62 -184 -264q0 -5 -404 -532q-110 -166 -160 -248v-4h4q323 88 344 88q104 -19 104 -92q0 -43 -96 -56q-262 -68 -380 -104q-26 -4 -52 -4h-44q-96 18 -96 96v4q0 40 124 216q145 240 324 448q239 323 312 412v4h-4
q-159 8 -192 8q-28 -4 -32 -4q-22 4 -32 4q-278 -24 -448 -56q-70 0 -92 120q8 18 16 20h4q21 0 240 36q213 24 300 24z" />
    <glyph glyph-name="bracketleft" unicode="[" horiz-adv-x="413" 
d="M318 1216h28q54 0 68 -60q0 -60 -136 -60q0 -4 -116 -20q-4 -8 -4 -12q-17 -260 -28 -808q0 -268 16 -268h16q194 24 224 24q56 -13 56 -48v-16q-27 -48 -100 -48q-126 -20 -192 -20q-140 0 -140 100q-4 127 -4 180q0 407 40 996q0 35 124 48q108 12 148 12z" />
    <glyph glyph-name="backslash" unicode="\" horiz-adv-x="545" 
d="M9 1180h20q83 0 152 -260q136 -341 256 -548l160 -320v-8q0 -30 -64 -64h-32q-35 0 -172 308q-145 231 -316 692q0 10 -64 172q32 28 60 28z" />
    <glyph glyph-name="bracketright" unicode="]" horiz-adv-x="383" 
d="M182 1216q88 0 96 -104v-32q-12 -186 -16 -512q-24 -161 -24 -300q0 -105 8 -348q-56 -48 -160 -48q-85 -16 -120 -16q-60 0 -60 52q0 64 172 72q26 0 28 12q-4 250 -4 344q28 310 40 760l-8 4h-96q-76 0 -88 48q-12 32 -12 40v4q0 20 204 20q0 4 40 4z" />
    <glyph glyph-name="underscore" unicode="_" horiz-adv-x="844" 
d="M515 28q52 0 152 -12q8 4 12 4q68 -25 68 -80q0 -80 -52 -80l-192 16l-28 -4h-160q-37 0 -68 -4q-17 4 -60 4h-4q-48 0 -124 -12q-56 27 -56 84q0 64 68 64q65 15 444 20z" />
    <glyph glyph-name="a" unicode="a" horiz-adv-x="695" 
d="M538 763q84 -15 84 -72q-40 -385 -40 -544l10 -150q-10 -32 -60 -32q-104 19 -104 104l-2 34q0 8 -8 8q-96 -156 -160 -156q-15 -4 -36 -4h-16q-112 0 -192 176q0 2 -8 60v56q0 178 136 344q95 80 184 80h12q66 0 112 -40h8q14 128 52 128zM162 223v-28q0 -68 32 -132h12
q79 72 204 412q-42 83 -48 84h-12q-63 -16 -152 -172q-36 -90 -36 -164z" />
    <glyph glyph-name="b" unicode="b" horiz-adv-x="683" 
d="M134 1275h16q80 -18 80 -60q0 -72 -48 -512q6 -16 12 -16h36q207 0 348 -172q32 -50 32 -112q0 -275 -416 -448q-3 0 -24 -4q-40 0 -144 92q-8 0 -12 308q0 462 64 832q0 88 40 88q0 4 16 4zM178 555q0 -50 -4 -100q4 -171 4 -328v-20l4 -8q182 90 264 260q20 59 20 108
q0 75 -204 116h-8q-62 -16 -76 -28z" />
    <glyph glyph-name="c" unicode="c" horiz-adv-x="635" 
d="M351 687q123 0 204 -128q0 -4 4 -12q-7 -27 -28 -36h-20q-24 0 -96 68l-20 4q-65 -12 -148 -124q-80 -123 -80 -244q0 -152 96 -152q45 0 140 84q44 12 64 12q68 -11 68 -56v-8q0 -59 -172 -124q-74 -12 -84 -12q-180 0 -260 196q-8 28 -8 48v60q0 172 156 340
q96 84 184 84z" />
    <glyph glyph-name="d" unicode="d" horiz-adv-x="677" 
d="M550 1299q92 0 92 -84q0 -36 -76 -568q-4 -82 -4 -148v-156q0 -114 8 -304q-33 -32 -68 -32q-104 25 -104 76v40h-4q-123 -108 -180 -108h-24q-109 0 -172 124q-12 32 -12 60v56q0 196 148 360q83 64 156 64q28 0 88 -4q0 63 80 508q9 116 56 116h16zM162 243v-32
q0 -51 24 -92q41 14 112 132q92 158 92 196v64q0 57 -36 80q-42 0 -124 -116q-68 -117 -68 -232z" />
    <glyph glyph-name="e" unicode="e" horiz-adv-x="641" 
d="M345 735q95 0 168 -96q40 -75 40 -132q-31 -236 -236 -236q-80 0 -140 52h-8q0 -8 -4 -8q0 -137 80 -228q65 -32 72 -64v-8q-22 -40 -64 -40h-4q-119 0 -212 196q-28 71 -28 112v84q0 201 156 316q81 52 180 52zM201 475q23 -14 60 -92q26 -12 40 -12q71 0 108 156v24
q0 72 -36 72h-36q-63 0 -140 -140q0 -8 4 -8z" />
    <glyph glyph-name="f" unicode="f" horiz-adv-x="426" 
d="M322 923q96 -24 96 -72v-16q0 -23 -124 -32q-76 -35 -76 -76q-38 -149 -40 -284v-4q0 -24 36 -24q14 0 36 4q100 0 100 -68q0 -40 -124 -40h-36l-20 -4l-8 -184q4 -108 4 -252q-6 -76 -72 -76h-12q-56 0 -56 68q-12 173 -12 224q0 83 8 200q-1 11 -76 52q-8 13 -8 24v4
q1 15 84 40q8 39 28 244q28 170 76 200q0 31 172 68q18 0 24 4z" />
    <glyph glyph-name="g" unicode="g" horiz-adv-x="647" 
d="M501 747h28q76 -14 76 -72q-40 -183 -68 -564q0 -249 -60 -512q-57 -156 -184 -156h-16q-124 19 -124 48q-80 65 -80 152q23 165 68 220q43 32 84 32q68 -16 68 -36v-28q-60 -95 -60 -176v-16q19 -88 40 -88h4q76 65 96 568h-4q-115 -136 -184 -136h-4q-130 0 -168 104
q-16 51 -16 76v36q15 150 108 296q77 109 128 124q78 36 120 36q61 -8 80 -8q20 100 68 100zM153 159v-32q3 -24 12 -24h4q77 85 192 308q44 55 44 88q0 43 -28 52q-113 -48 -196 -236q-28 -88 -28 -156z" />
    <glyph glyph-name="h" unicode="h" horiz-adv-x="611" 
d="M146 1263h52q41 0 52 -64v-24q0 -49 -52 -524q8 -4 12 -4q56 32 104 32q145 0 172 -248q0 -60 56 -364q-16 -60 -60 -60q-112 17 -112 84q-40 237 -40 320q-8 79 -32 144q-69 -49 -120 -204q-4 -34 -4 -56v-112q0 -42 8 -132q0 -53 -84 -60q-88 0 -88 120v224
q0 283 100 908q21 20 36 20z" />
    <glyph glyph-name="i" unicode="i" horiz-adv-x="264" 
d="M91 995h12q88 -12 88 -56q0 -116 -44 -116h-8q-112 15 -112 112q0 55 64 60zM79 783h16q84 0 84 -108v-64q-16 -256 -16 -352v-12q0 -47 12 -208q-18 -36 -60 -36h-4q-100 12 -100 76q-12 62 -12 188q20 492 32 492q19 24 48 24z" />
    <glyph glyph-name="j" unicode="j" horiz-adv-x="264" 
d="M78 951h20q49 0 72 -56q0 -132 -40 -132q0 -4 -12 -4h-12q-96 0 -96 92v24q0 76 68 76zM80 675q75 0 80 -84q8 -45 8 -168v-444q0 -348 -72 -432q-80 -128 -160 -128h-20q-36 0 -56 32v16q88 93 88 104q60 90 60 324v636q0 140 32 140q35 4 40 4z" />
    <glyph glyph-name="k" unicode="k" horiz-adv-x="647" 
d="M153 1239q84 -15 84 -68q-48 -386 -60 -564l-4 -136q108 112 272 336q29 12 36 12h20q58 0 72 -76q0 -37 -184 -248l-4 -20q8 -84 196 -500q28 -56 28 -76v-20q-32 -44 -64 -44h-44q-39 0 -76 112q-48 58 -168 392h-4q-32 -36 -84 -36l-4 -28v-68q0 -63 8 -148
q-12 -48 -72 -48q-92 0 -92 92q0 33 -4 144q4 194 12 312q-4 38 -4 76q11 47 24 248q44 318 56 340q28 12 60 16z" />
    <glyph glyph-name="l" unicode="l" horiz-adv-x="282" 
d="M125 1263q96 -6 96 -60q4 0 4 -16v-8q0 -44 -40 -480q-20 -311 -24 -448q0 -88 12 -284q0 -38 -84 -48q-72 0 -72 88q-8 119 -8 256q0 225 68 928q0 72 48 72z" />
    <glyph glyph-name="m" unicode="m" horiz-adv-x="1156" 
d="M430 651q100 0 136 -96q11 -39 16 -88q130 156 152 156q29 28 80 28h12q113 0 148 -260q24 -82 68 -316q7 0 20 -56q0 -30 -60 -44q-121 0 -148 276l-52 248h-4q-112 -114 -232 -372q-27 -28 -56 -28h-12q-62 0 -92 92q0 36 20 288v28l-4 8q-32 -23 -84 -120
q-76 -155 -148 -396q-48 -28 -92 -28q-100 21 -100 96v120q0 119 48 416q0 44 68 44q88 -14 88 -64q0 -27 -24 -160v-4h4q112 232 248 232z" />
    <glyph glyph-name="n" unicode="n" horiz-adv-x="640" 
d="M490 655q69 0 96 -72q3 -32 8 -32l-4 -28v-8q0 -60 4 -100q-42 -472 -180 -472q-75 0 -136 116q-43 78 -72 368q-23 0 -84 -364q-16 -96 -64 -96h-16q-72 21 -72 56q56 401 116 548q28 72 96 72h20q146 0 180 -412l12 -68q19 0 48 240q4 50 4 60q-8 98 -8 148q0 44 52 44
z" />
    <glyph glyph-name="o" unicode="o" horiz-adv-x="575" 
d="M267 643q85 0 184 -136q44 -87 44 -148v-20q0 -129 -112 -272q-78 -72 -176 -72h-8q-134 0 -188 156q-8 30 -8 76q0 225 164 384q49 32 100 32zM159 259v-52q0 -104 24 -104l8 -4q46 0 112 112q48 112 48 164q-20 156 -56 156q-87 -70 -128 -228q-8 -16 -8 -44z" />
    <glyph glyph-name="p" unicode="p" 
d="M82 687q329 0 412 -228l4 -56q0 -172 -140 -312q-85 -65 -172 -100q0 -349 52 -540q-16 -44 -52 -44h-36q-80 19 -80 72q-44 161 -44 684l24 412q0 5 -76 76v12q5 20 108 24zM214 567q-28 -277 -28 -416q4 0 4 -4q95 65 140 208q12 49 12 68v52q0 68 -120 92h-8z" />
    <glyph glyph-name="q" unicode="q" horiz-adv-x="605" 
d="M491 707q51 0 64 -72q-68 -517 -68 -676q-12 -131 -12 -348q0 -21 8 -148q-32 -32 -60 -32h-8q-92 14 -92 92l-12 168q12 178 16 344h-4q-59 -24 -116 -24h-24q-93 0 -168 136q-12 54 -12 72q0 162 72 272q90 132 220 132q72 0 92 -8q16 0 36 76q13 16 68 16zM163 203
q9 -88 28 -88h4q99 36 140 36l40 332q-8 30 -28 40h-8q-84 -31 -120 -96q-56 -95 -56 -224z" />
    <glyph glyph-name="r" unicode="r" horiz-adv-x="647" 
d="M100 683h4q84 -13 84 -80q-4 -100 -24 -240l8 -4q84 284 204 284q129 0 188 -280q-9 -40 -40 -40h-12q-66 0 -108 80q-9 6 -24 60h-4q-40 -76 -128 -380q-34 -84 -100 -84q-68 0 -124 100q-20 22 -20 168v16q21 388 40 388q26 12 56 12z" />
    <glyph glyph-name="s" unicode="s" horiz-adv-x="468" 
d="M197 667q112 0 112 -36q44 -34 44 -68q0 -21 -40 -24h-4q-11 0 -68 24q-8 4 -12 4q-72 -13 -72 -68v-12q0 -39 96 -120q120 -118 120 -200q0 -109 -164 -160q-16 0 -92 -16q-68 0 -108 80l144 48q56 19 56 84q0 68 -148 196q-56 78 -56 128v8q0 85 92 120q32 8 68 8h16
q9 0 16 4z" />
    <glyph glyph-name="t" unicode="t" horiz-adv-x="294" 
d="M116 1267q84 -12 84 -76q3 -24 8 -24q170 0 208 -28q32 -31 32 -80v-4q0 -40 -40 -40q-45 12 -112 16q-54 -4 -92 -4q-24 -32 -28 -544q13 -526 26 -632q-16 -40 -76 -40h-8q-80 12 -80 80q-26 368 -26 656v24q0 32 -4 84q7 24 20 308v52l-8 4q-117 -16 -148 -16
q-72 12 -72 96q57 38 244 60q11 100 32 100q30 8 40 8z" />
    <glyph glyph-name="u" unicode="u" horiz-adv-x="701" 
d="M501 693h16q72 -12 72 -64q-32 -184 -32 -236q0 -155 56 -344v-4q-6 -48 -48 -48h-8q-93 0 -128 172l-8 4q-86 -180 -196 -180q-131 0 -208 196q-16 82 -16 144q26 336 56 336q28 16 52 16q84 -13 84 -56q-28 -284 -28 -388q21 -128 44 -128h8q60 77 180 448
q43 124 68 124q26 8 36 8z" />
    <glyph glyph-name="v" unicode="v" horiz-adv-x="605" 
d="M462 655q80 0 80 -60l-76 -228q-48 -131 -72 -276q-25 -92 -40 -96q-16 -8 -44 -8h-4q-101 0 -184 296q-128 316 -128 328v4q16 24 68 24q71 0 136 -180q20 -36 76 -184q8 4 68 216q50 160 80 160z" />
    <glyph glyph-name="w" unicode="w" horiz-adv-x="851" 
d="M97 671q76 -18 76 -64q-4 -222 -4 -308q8 -140 24 -140q8 0 60 160q37 148 112 148h24q69 0 80 -100q22 -207 56 -240q76 157 76 284q12 132 28 132q31 12 44 12h4q84 0 84 -64q0 -305 -140 -472q-57 -24 -76 -24h-36q-61 12 -136 108q-12 26 -12 36h-4
q-65 -152 -160 -152q-89 26 -140 108q-52 104 -52 260q12 243 12 284q0 28 80 32z" />
    <glyph glyph-name="x" unicode="x" horiz-adv-x="575" 
d="M457 789q92 -12 92 -68v-12q0 -17 -220 -408v-28q0 -13 106 -238v-8q0 -39 -64 -48h-12q-51 0 -130 114q-40 -57 -84 -176q-24 -16 -56 -16q-44 0 -84 72v20q16 48 128 264q8 21 8 32q0 10 -104 240v16q23 36 80 36h4q59 0 84 -68q22 -44 28 -44q178 316 224 316v4z" />
    <glyph glyph-name="y" unicode="y" horiz-adv-x="653" 
d="M542 655q80 -11 80 -60q-14 -43 -128 -296q-184 -530 -184 -772v-4q0 -45 -64 -60q-76 10 -76 68q0 135 80 460q-8 4 -12 4q-48 -12 -60 -12q-148 0 -172 232q-4 47 -4 68q20 215 64 360l8 4h8q96 -21 96 -84q-40 -180 -40 -304v-56q0 -100 28 -100q49 0 184 264
q117 201 152 272q15 11 40 16z" />
    <glyph glyph-name="z" unicode="z" horiz-adv-x="659" 
d="M428 635h28q108 -7 108 -80v-20q0 -57 -144 -180q-117 -121 -188 -212q132 -17 132 -88v-20q0 -40 -56 -40q-35 12 -52 12q-101 -16 -164 -16q-84 13 -84 88q0 40 180 220q20 36 168 180q8 0 8 16h-4q-30 0 -252 -12h-32q-45 0 -64 72q8 60 24 60h36q173 20 356 20z" />
    <glyph glyph-name="braceleft" unicode="{" horiz-adv-x="491" 
d="M339 1240h32q76 -8 76 -52l4 -8q0 -29 -100 -104q-46 -60 -84 -220q0 -64 -96 -236q103 -110 116 -232q41 -282 76 -324q84 -30 84 -72v-12q-26 -36 -64 -36h-12q-158 0 -204 304q-27 201 -56 256q-22 34 -92 84q-12 20 -12 32v12q0 11 64 104q51 120 100 308
q52 132 168 188v8z" />
    <glyph glyph-name="bar" unicode="|" horiz-adv-x="305" 
d="M124 1388q71 0 80 -84q0 -38 4 -52q-32 -671 -32 -812v-352q0 -72 4 -196q0 -48 -84 -48h-12q-44 8 -44 44v20q0 27 4 48q-12 103 -12 212v92q0 515 24 836q8 111 8 204v8q0 76 32 76z" />
    <glyph glyph-name="braceright" unicode="}" horiz-adv-x="551" 
d="M49 1216q155 0 232 -172q20 -60 68 -272q0 -31 104 -124q8 -21 8 -24q0 -22 -80 -96q-36 -60 -64 -228q0 -61 -64 -224q-84 -136 -164 -136h-32q-56 10 -56 44v16q97 59 136 168q60 283 84 372q60 95 60 104q-74 61 -112 296q0 55 -52 144q-103 69 -104 100v4q0 28 36 28
z" />
    <glyph glyph-name="exclamdown" unicode="&#xa1;" horiz-adv-x="299" 
d="M49 1400h24q61 0 72 -84q0 -44 12 -132q0 -13 -36 -36h-16q-65 0 -100 92l-4 128q12 32 48 32zM69 1064h24q80 0 80 -152l8 -64q0 -20 -4 -48q4 -160 4 -232q0 -42 -8 -252l24 -364q-18 -44 -60 -44q-92 0 -92 104q0 41 -24 328q7 0 16 332q-8 115 -8 216v128q4 48 40 48
z" />
    <glyph glyph-name="cent" unicode="&#xa2;" horiz-adv-x="659" 
d="M424 1084h16q64 -10 64 -64q0 -53 -28 -136q0 -17 64 -76l8 -28q-6 -36 -32 -36l-56 12q-18 0 -72 -324l-48 -244l8 -4q39 28 52 28q88 -16 88 -76q0 -39 -160 -92q-13 0 -40 -148q-17 -16 -40 -16h-8q-60 6 -60 56v32q8 68 8 76q-180 103 -180 300v32q0 198 124 396
q102 120 172 120q64 0 64 32q37 160 56 160zM148 336v-12q0 -113 60 -156q60 283 120 604q-58 -34 -92 -108q-88 -134 -88 -328z" />
    <glyph glyph-name="sterling" unicode="&#xa3;" horiz-adv-x="713" 
d="M330 990h4q63 0 140 -136q8 -26 8 -36q0 -47 -24 -56h-28q-32 2 -100 104q-22 12 -36 12q-91 0 -148 -164v-36q18 -124 52 -124q52 4 84 4h20q72 -15 72 -60q0 -40 -140 -40h-4q-6 0 -12 -12q8 -30 8 -56v-36q0 -30 -24 -156h4q87 0 216 -64h28q19 0 80 56q28 8 44 8
q38 0 60 -56q0 -39 -120 -120q-37 -12 -64 -12q-64 0 -200 64q-21 4 -24 4q-31 0 -112 -60q-21 -12 -48 -12q-46 0 -56 60v20q88 187 88 324q-6 44 -16 44h-28q-41 0 -72 56v12q34 32 72 32q-32 108 -32 152q0 142 152 260q32 24 156 24z" />
    <glyph glyph-name="currency" unicode="&#xa4;" horiz-adv-x="623" 
d="M428 740h4q76 0 76 -48v-8q-52 -49 -52 -68q-20 -12 -20 -16q76 -87 76 -180q0 -61 -60 -148v-12q60 -58 60 -80v-16q0 -13 -56 -28q-47 0 -92 52h-24q-71 -20 -76 -20h-32q-22 0 -56 4q-9 0 -64 -48l-20 -4q-68 10 -68 44v8l36 48q-52 98 -52 168v12q0 53 52 168v4
q-56 46 -56 84v12q0 6 16 16h40q27 0 84 -40l8 -4q52 28 92 28q11 0 80 -4q7 0 80 68q13 8 24 8zM136 368q0 -88 84 -88q51 0 112 56q39 48 56 124q0 62 -84 112h-4q-90 0 -140 -108q-16 -33 -24 -96z" />
    <glyph glyph-name="yen" unicode="&#xa5;" horiz-adv-x="657" 
d="M520 1012q42 0 60 -64v-8q0 -122 -112 -276q0 -9 -36 -64v-8q1 -8 8 -8q146 0 168 -36q16 -22 16 -44q0 -52 -72 -52h-80q-84 0 -84 -32q2 -16 32 -16h44q49 0 92 8q80 -9 80 -72v-12q0 -44 -108 -44q-140 0 -140 -24q-4 -7 -4 -20v-36q0 -84 8 -132q-17 -68 -60 -68
q-76 0 -76 148v88q-4 21 -4 24h-12q-11 0 -140 -8q-80 0 -80 48v16q0 54 172 68q64 0 64 12v40q0 8 -8 8q-137 -4 -176 -4q-56 12 -56 52q17 72 36 72q29 -4 32 -4l132 12v4q-77 114 -256 296q-32 49 -32 80v12q7 16 28 16h8q85 0 336 -316q8 -4 12 -4q140 206 200 344z" />
    <glyph glyph-name="brokenbar" unicode="&#xa6;" horiz-adv-x="293" 
d="M20 1136h12q96 0 96 -240q4 -8 8 -192q-21 -40 -56 -40q-84 0 -84 148q0 177 -16 312q21 12 40 12zM84 484q76 -24 76 -100q13 -351 20 -420q0 -44 -68 -52q-80 0 -80 208q-4 240 -4 344q18 18 56 20z" />
    <glyph glyph-name="plusminus" unicode="&#xb1;" horiz-adv-x="701" 
d="M229 890q38 0 80 -68q4 -22 4 -36v-52q0 -11 8 -24q-8 -13 -12 -44q4 -16 24 -16h172q36 0 60 -68q0 -50 -60 -56h-100q-100 0 -100 -24v-48q0 -52 4 -136q-13 -36 -44 -36h-16q-68 0 -76 116q-4 16 -4 72v28q0 8 -8 8q-65 -8 -84 -8q-54 0 -64 92q0 23 156 44
q7 0 16 236q27 20 44 20zM353 230q232 -7 232 -44q16 -15 16 -36q0 -25 -56 -60q-125 12 -220 16q-54 0 -204 -16h-24q-64 23 -64 100q0 27 320 40z" />
    <glyph glyph-name="questiondown" unicode="&#xbf;" horiz-adv-x="605" 
d="M197 1358q88 -36 88 -88q0 -63 16 -224q0 -31 -48 -36h-8q-76 14 -76 104q-12 121 -16 132q4 27 4 44v48q0 11 40 20zM241 950q52 0 88 -84q4 -34 4 -56v-4q0 -94 -156 -404q-35 -107 -36 -180q0 -118 72 -160q16 -8 44 -8h4q84 0 116 148q4 22 4 44q0 14 -40 152v16
q14 21 44 40h12q89 0 124 -208v-8q0 -194 -152 -288q-53 -20 -92 -20h-40q-136 0 -216 204q-8 25 -16 128q0 166 136 424q59 118 64 176q-4 56 -4 72q17 16 40 16z" />
    <glyph glyph-name="multiply" unicode="&#xd7;" horiz-adv-x="593" 
d="M408 654q53 0 80 -72q0 -9 -100 -124q-80 -99 -80 -108l112 -184q4 -7 4 -20v-4q0 -40 -56 -48h-8q-57 0 -136 144l-8 4q-38 -42 -88 -112q-30 -20 -52 -20q-68 26 -68 72q41 71 128 180l4 8q-144 234 -144 252q24 28 44 28h8q90 0 140 -120q36 -48 40 -48h4
q128 153 140 156q21 16 36 16z" />
    <glyph glyph-name="divide" unicode="&#xf7;" horiz-adv-x="856" 
d="M305 678h36q112 -15 112 -92q-11 -104 -100 -104h-4q-60 0 -92 76l-4 24q0 96 52 96zM669 430q88 0 88 -80v-16q0 -38 -56 -44h-80q-55 0 -76 4q-38 -4 -84 -4h-52q-99 0 -340 -12q-64 10 -64 64v16q6 52 44 52q0 11 620 20zM353 238q104 -37 104 -92v-20
q-29 -72 -100 -72q-60 0 -80 84v8q15 92 76 92z" />
    <glyph glyph-name="fraction" unicode="&#x2044;" horiz-adv-x="689" 
d="M660 1184h20q38 0 76 -76v-16q-12 -39 -244 -400q-230 -391 -316 -556q-149 -313 -168 -328q-25 -8 -32 -8q-84 16 -84 80q203 431 424 788q12 31 56 100q0 25 48 84q204 320 220 332z" />
    <glyph glyph-name="fraction" unicode="&#x2215;" horiz-adv-x="689" 
d="M660 1184h20q38 0 76 -76v-16q-12 -39 -244 -400q-230 -391 -316 -556q-149 -313 -168 -328q-25 -8 -32 -8q-84 16 -84 80q203 431 424 788q12 31 56 100q0 25 48 84q204 320 220 332z" />
    <glyph glyph-name="minus" unicode="&#x2212;" horiz-adv-x="754" 
d="M464 376q188 0 188 -60q4 -15 4 -32q-7 -56 -44 -56q-94 8 -152 8h-12q-199 0 -384 -20q-56 23 -56 60v4q0 38 36 72h20q195 24 400 24z" />
    <glyph glyph-name="lessequal" unicode="&#x2264;" horiz-adv-x="593" 
d="M400 826q49 0 72 -88v-4q0 -34 -152 -176q-106 -111 -116 -128v-4q300 -58 300 -144v-16q-8 -44 -40 -44q-18 0 -160 48q-196 35 -248 72q-34 33 -40 76q0 51 140 180q13 29 204 208q10 20 40 20zM32 238q444 -43 444 -76q24 -36 24 -68q-14 -44 -44 -44q-156 28 -344 40
q-104 25 -104 84q0 64 24 64z" />
    <glyph glyph-name="greaterequal" unicode="&#x2265;" horiz-adv-x="657" 
d="M8 810h8q476 -168 504 -204q20 -32 20 -68q0 -57 -272 -204q-101 -69 -136 -80q-84 13 -84 56v16q0 54 48 72q102 50 168 100q28 10 60 48v8q-258 100 -308 124q-36 25 -36 72q15 60 28 60zM482 392h20q60 -9 60 -76v-8q0 -59 -180 -144l-240 -160h-20q-60 0 -60 92
q18 60 60 60q112 98 360 236z" />
    </font>
</defs>
</svg>
