<?xml version="1.0" standalone="no"?>
<!DOCTYPE svg PUBLIC "-//W3C//DTD SVG 1.1//EN" "http://www.w3.org/Graphics/SVG/1.1/DTD/svg11.dtd" >
<svg xmlns="http://www.w3.org/2000/svg" xmlns:xlink="http://www.w3.org/1999/xlink" version="1.1">
<metadata>
Created by FontForge 20170731 at Fri May 29 11:04:32 1998
 By Aleksey,,,
Copr.1990, 1991 The Font Bureau, Inc.
</metadata>
<defs>
<font id="BureauEagleBold" horiz-adv-x="853" >
  <font-face 
    font-family="BureauEagleBold"
    font-weight="400"
    font-stretch="normal"
    units-per-em="1000"
    panose-1="0 0 4 0 0 0 0 0 0 0"
    ascent="800"
    descent="-200"
    x-height="505"
    cap-height="678"
    bbox="-132.093 -224 1208 884.125"
    underline-thickness="20"
    underline-position="-163"
    unicode-range="U+0020-F002"
  />
<missing-glyph horiz-adv-x="500" 
d="M63 0v785h375v-785h-375zM125 63h250v660h-250v-660z" />
    <glyph glyph-name=".notdef" horiz-adv-x="500" 
d="M63 0v785h375v-785h-375zM125 63h250v660h-250v-660z" />
    <glyph glyph-name="glyph1" horiz-adv-x="0" 
 />
    <glyph glyph-name="nonmarkingreturn" horiz-adv-x="224" 
 />
    <glyph glyph-name="space" unicode=" " horiz-adv-x="224" 
 />
    <glyph glyph-name="exclam" unicode="!" horiz-adv-x="372" 
d="M247 218q-91 -2 -122 0q-5 0 -32.5 73.5t-27.5 82.5q-2 117 0 313q0 5 10 10q111 4 221 0q8 0 9 -12q6 -135 3 -311q0 -7 -28 -80q-28 -76 -33 -76zM71 176q237 0 237 -2q0 -174 -6 -174h-231q0 10 -2 115q-1 61 2 61z" />
    <glyph glyph-name="quotedbl" unicode="&#x22;" horiz-adv-x="424" 
d="M118 690q65 0 65 -9q0 -37 -2 -101t-2 -95t-26 -53q-21 -18 -35 -18t-35 18q-26 22 -26 53t-1.5 95t-1.5 101q0 9 64 9zM318 690q65 0 65 -9q0 -37 -2 -101t-2 -95t-26 -53q-21 -18 -35 -18t-35 18q-26 22 -26 53t-1.5 95t-1.5 101q0 9 64 9z" />
    <glyph glyph-name="numbersign" unicode="#" horiz-adv-x="709" 
d="M37 487q0 13 13 13h127l30 167q3 15 13 15h134q3 0 6 -4.5t2 -7.5q-7 -51 -28 -170h95l30 171q2 11 15 11h132q11 0 9 -11l-30 -171h97q10 0 10 -11v-92q0 -13 -12 -13h-115l-13 -76h109q12 0 12 -11v-91q0 -13 -12 -13h-129l-33 -184q-2 -14 -19 -14h-125q-3 0 -8 4.5
t-4 8.5q10 55 32 185h-95l-33 -184q-3 -14 -16 -14h-132q-9 0 -7 11l32 187h-95q-10 0 -10 11v90q0 14 9 14h116l13 76h-109q-11 0 -11 11v92zM314 384l-14 -76h95l14 76h-95z" />
    <glyph glyph-name="dollar" unicode="$" horiz-adv-x="673" 
d="M360 -14v-62h-76v58q-70 4 -136 32q-44 19 -87 54t-43 52q0 4 3 6q65 42 126 76q6 3 12 -4q47 -53 125 -71v118l-23 4q-234 41 -230 219q2 101 73 158q63 51 163 57l17 1v36h76v-36q77 0 146 -36q28 -15 59 -42.5t31 -37.5q0 -2 -2 -3q-43 -23 -141 -81q-1 0 -13 13
q-15 14 -25 21q-31 20 -55 25v-110l30 -4q253 -34 253 -212q0 -108 -84 -169q-69 -50 -177 -60zM360 237v-112q92 4 92 54q0 48 -74 56zM284 443v104q-78 -8 -78 -50q0 -40 67 -53z" />
    <glyph glyph-name="percent" unicode="%" horiz-adv-x="825" 
d="M213 678q82 0 135 -52t53 -129t-52.5 -129t-134.5 -52q-83 0 -137 51.5t-54 129.5q0 77 53.5 129t136.5 52zM613 354q82 0 135 -51.5t53 -128.5t-53 -129t-135 -52t-136 51.5t-54 129.5q0 76 54 128t136 52zM191 -16q-14 1 -42 20.5t-27 28.5q179 205 334 394
q194 236 193 260q14 -4 33 -17t36 -19q-137 -160 -332 -407q-184 -235 -195 -260zM211 549q-20 0 -36 -16t-16 -36t16 -36t36 -16t36 16t16 36t-16 36t-36 16zM610 224q-20 0 -35.5 -15.5t-15.5 -35.5q0 -21 15.5 -36.5t35.5 -15.5t36 15.5t16 36.5q0 20 -16 35.5t-36 15.5z
" />
    <glyph glyph-name="ampersand" unicode="&#x26;" horiz-adv-x="773" 
d="M495 0l-32 40l-22 -17q-62 -48 -177 -48q-111 0 -173 58q-59 54 -59 142q0 129 158 215l24 13l-8 16q-27 54 -27 99q0 83 70 133q63 45 156 45q123 0 204 -74q14 -13 6 -22l-81 -88q-9 -9 -21 5q-21 24 -54 24q-53 0 -53 -43q0 -29 48 -96l67 -94q19 33 47 86
q3 7 124 -50q15 -7 6 -27q-41 -86 -86 -140q25 -35 115 -151q12 -15 12 -21q0 -5 -10 -5h-234zM294 273q-23 -8 -40 -31.5t-17 -47.5q0 -26 19 -45t48 -19q39 0 71 26z" />
    <glyph glyph-name="quotesingle" unicode="'" horiz-adv-x="282" 
d="M141 693q66 0 66 -10q0 -28 -3 -201q-1 -31 -27 -55q-22 -19 -36 -19t-35 19q-26 24 -28 55q-3 57 -3 201q0 10 66 10z" />
    <glyph glyph-name="parenleft" unicode="(" horiz-adv-x="364" 
d="M234 716q3 5 56 -21t50 -31q-57 -99 -82 -177q-32 -97 -32 -205q0 -171 112 -379q6 -11 -104 -56q-179 218 -179 435q0 237 179 434z" />
    <glyph glyph-name="parenright" unicode=")" horiz-adv-x="364" 
d="M131 -150q-4 -4 -56.5 21.5t-49.5 30.5q56 98 82 177q31 97 31 205q0 104 -34 207q-25 72 -78 172q-3 6 50 32t55 24q179 -218 179 -435q0 -236 -179 -434z" />
    <glyph glyph-name="asterisk" unicode="*" horiz-adv-x="510" 
d="M224 689h67q8 0 9 -6l25 -120l120 13q9 1 11 -5q8 -24 21 -68q2 -5 -3 -8l-110 -56l50 -115q4 -8 -2 -12q-24 -16 -57 -40q-5 -3 -9 1l-89 91l-89 -91q-4 -5 -9 -1q-22 16 -56 40q-7 4 -3 12l51 115l-111 56q-5 3 -3 8q14 40 21 68q2 6 11 5l120 -13l25 120q1 6 10 6z
" />
    <glyph glyph-name="plus" unicode="+" horiz-adv-x="606" 
d="M227 84v168h-163q-14 0 -14 12v123q0 12 14 12h163v168q0 15 12 15h133q12 0 12 -15v-168h162q15 0 15 -12v-123q0 -12 -15 -12h-162v-168q0 -14 -12 -14h-133q-12 0 -12 14z" />
    <glyph glyph-name="comma" unicode="," horiz-adv-x="332" 
d="M300 190q-52 -93 -156 -283q-3 -6 -43 -6q-36 0 -36 9v297q0 10 8 10h224q6 0 3 -27z" />
    <glyph glyph-name="hyphen" unicode="-" horiz-adv-x="450" 
d="M400 371v-182q0 -12 -15 -12h-321q-14 0 -14 12v182q0 12 14 12h321q15 0 15 -12z" />
    <glyph glyph-name="hyphen" unicode="&#x2010;" horiz-adv-x="450" 
d="M400 371v-182q0 -12 -15 -12h-321q-14 0 -14 12v182q0 12 14 12h321q15 0 15 -12z" />
    <glyph glyph-name="period" unicode="." horiz-adv-x="352" 
d="M288 203v-188q0 -15 -14 -15h-193q-16 0 -16 16v188q0 16 17 16h190q16 0 16 -17z" />
    <glyph glyph-name="slash" unicode="/" horiz-adv-x="436" 
d="M86 -46q-20 7 -56 24q-40 20 -38 25q33 80 159 333q134 266 175 361q5 12 7 14q2 1 10 -2q40 -14 91 -36q6 -3 0 -18q-42 -102 -161 -337q-130 -258 -173 -355q-5 -12 -14 -9z" />
    <glyph glyph-name="zero" unicode="0" horiz-adv-x="731" 
d="M361 698q161 0 253 -109q84 -99 84 -252q0 -154 -81 -251q-90 -107 -251 -107q-158 0 -249 107q-85 100 -84 253q1 156 80 252q87 107 248 107zM460 334q0 169 -98 169q-88 0 -88 -155q0 -172 94 -172q92 0 92 158z" />
    <glyph glyph-name="one" unicode="1" horiz-adv-x="381" 
d="M305 681v-667q0 -10 -2.5 -12t-15.5 -2h-195q-18 0 -18 14v587q0 10 12 14q84 36 201 80q12 4 14 4q4 0 4 -18z" />
    <glyph glyph-name="two" unicode="2" horiz-adv-x="648" 
d="M36 19q71 70 200 207q80 89 107 128q39 57 39 98q0 33 -22 52t-55 19q-95 0 -101 -109q-1 -12 -10 -7q-50 26 -144 90q-8 5 -4 17q62 185 297 185q127 0 201.5 -54.5t74.5 -145.5q0 -87 -78 -167q-45 -47 -194 -155q6 0 125 7q96 5 139 5q12 0 12 -11q4 -83 1 -164
q0 -14 -18 -14h-569q-3 0 -3 8t2 11z" />
    <glyph glyph-name="three" unicode="3" horiz-adv-x="648" 
d="M490 364q140 -42 140 -174q0 -102 -87 -157.5t-255 -55.5q-113 0 -192.5 55.5t-80.5 132.5q0 14 8 17q67 21 192 61q7 2 9 -1t0 -12q-2 -11 -2 -22q0 -37 24 -58t63 -21q86 0 86 81q0 52 -40 85.5t-111 40.5q-2 0 -3 10q0 10 3 11q137 43 137 120q0 33 -22.5 52.5
t-54.5 19.5q-80 0 -92 -76q-5 -31 -10 -29q-62 21 -170 56q-12 4 -9 16q20 88 104 135q80 44 203 44q121 0 193 -46.5t72 -133.5q0 -47 -30 -91t-75 -60z" />
    <glyph glyph-name="four" unicode="4" horiz-adv-x="679" 
d="M370 107h-362q-8 0 -8 9v113q0 5 14 20q137 137 420 424q12 10 18 10h120q8 0 8 -10v-413h97q11 0 11 -11v-132q0 -10 -15 -10h-91v-104q0 -14 -10 -14h-191q-8 0 -9.5 1.5t-1.5 12.5v104zM208 256h162l4 166z" />
    <glyph glyph-name="five" unicode="5" horiz-adv-x="642" 
d="M235 449q66 17 118 17q108 0 184 -55q88 -63 88 -173q0 -121 -88.5 -193t-220.5 -72q-235 0 -308 177q-6 14 11 20q74 26 161 65q15 7 17 6t6 -10q30 -76 97 -76q37 0 61 23t24 59q0 90 -117 90q-98 0 -195 -50q-20 15 -20 19q10 111 31 370q1 12 13 12h457q10 0 8 -14
l-20 -138q-1 -9 -12 -9h-286z" />
    <glyph glyph-name="six" unicode="6" horiz-adv-x="683" 
d="M622 549l-156 -64q-7 -3 -14 7q-30 43 -84 43q-55 0 -85 -40t-24 -101q47 45 155 45q103 0 171 -55q74 -61 74 -167q0 -107 -84 -173.5t-211 -66.5q-147 0 -240 90q-98 94 -98 257q0 155 90 261q97 113 258 113q183 0 253 -133q6 -11 -5 -16zM268 219q0 -34 23.5 -55.5
t56.5 -21.5q34 0 56 22.5t22 59.5q0 38 -22 61.5t-56 23.5q-80 0 -80 -90z" />
    <glyph glyph-name="seven" unicode="7" horiz-adv-x="542" 
d="M313 -32h-231q-9 0 -10 1t3 9q101 200 272 526q-115 -4 -332 -10q-6 0 -7.5 2t-0.5 7q9 54 26 160q2 12 3 13.5t9 1.5h508q2 0 1 -27q-97 -300 -230 -676q-2 -7 -11 -7z" />
    <glyph glyph-name="eight" unicode="8" horiz-adv-x="677" 
d="M347 699q275 -2 275 -187q0 -49 -33 -89q-29 -35 -71 -51q61 -16 100 -65t39 -115q0 -106 -95 -161q-89 -52 -243 -52q-135 0 -212 53q-80 54 -80 150q0 143 128 176q-113 46 -113 149q0 194 305 192zM427 207q0 33 -23.5 55t-62.5 22q-41 0 -63.5 -22.5t-22.5 -55.5
q0 -31 23.5 -51t63.5 -20q35 0 60 20.5t25 51.5zM406 494q0 25 -20 42.5t-51 17.5q-73 0 -73 -63q0 -28 21 -44t53 -16q29 0 49.5 17.5t20.5 45.5z" />
    <glyph glyph-name="nine" unicode="9" horiz-adv-x="683" 
d="M224 194q13 6 20 -5q26 -42 81 -42q49 0 75.5 36t22.5 100q-69 -45 -158 -45q-104 0 -171.5 60t-67.5 158q0 105 83 174t217 69q153 0 242 -97.5t89 -257.5q0 -158 -91 -259q-95 -105 -253 -105q-167 0 -248 128q-8 12 3 16.5t156 69.5zM416 456q0 39 -21 61t-54 22
q-37 0 -59.5 -21t-22.5 -59q0 -40 22.5 -62.5t57.5 -22.5q77 0 77 82z" />
    <glyph glyph-name="colon" unicode=":" horiz-adv-x="364" 
d="M288 204v-190q0 -14 -16 -14h-189q-18 0 -18 14v190q0 16 18 16h189q16 0 16 -16zM288 500v-191q0 -15 -16 -15h-189q-18 0 -18 15v191q0 14 18 14h189q16 0 16 -14z" />
    <glyph glyph-name="semicolon" unicode=";" horiz-adv-x="345" 
d="M288 498v-188q0 -16 -16 -16h-187q-20 0 -20 16v188q0 16 20 16h187q16 0 16 -16zM300 190q-36 -63 -173 -283q-3 -5 -25 -5q-37 0 -37 8v292q0 15 17 15h215q5 0 5 -13q0 -12 -2 -14z" />
    <glyph glyph-name="less" unicode="&#x3c;" horiz-adv-x="484" 
d="M398 384q-51 -31 -119 -64q43 -25 119 -71q9 -7 9 -17v-166q0 -16 -19 -3q-199 132 -343 241q-2 1 -2 14q-1 13 2 15q179 124 343 220q10 6 14 6q5 0 5 -11v-148q0 -9 -9 -16z" />
    <glyph glyph-name="equal" unicode="=" horiz-adv-x="531" 
d="M474 332h-415q-9 0 -9 10v128q0 9 9 9h415q10 0 10 -10v-128q0 -9 -10 -9zM474 126h-415q-9 0 -9 10v128q0 10 9 10h415q10 0 10 -10v-129q0 -9 -10 -9z" />
    <glyph glyph-name="greater" unicode="&#x3e;" horiz-adv-x="484" 
d="M207 318q-71 36 -119 65q-9 6 -9 15v148q0 17 19 6q157 -92 344 -221q2 -2 2 -15q0 -12 -2 -13q-149 -114 -344 -242q-8 -6 -13 -6q-6 0 -6 10v165q0 8 9 17q36 21 119 71z" />
    <glyph glyph-name="question" unicode="?" horiz-adv-x="555" 
d="M386 209h-174q-8 0 -9 9q-5 76 63 158q37 45 37 81q0 48 -48 48q-49 0 -62 -64q-2 -9 -4 -10t-11 3q-49 21 -162 74q-5 4 -2 13q32 87 93 129q65 44 173 44q113 0 185 -51q77 -55 77 -149q0 -93 -76 -154q-81 -65 -72 -120q0 -11 -8 -11zM414 153v-136q0 -17 -16 -17
h-203q-16 0 -16 17v136q0 19 16 19h203q16 0 16 -19z" />
    <glyph glyph-name="at" unicode="@" horiz-adv-x="856" 
d="M643 125q-117 -3 -147 61q-66 -64 -134 -63q-73 1 -116 47q-46 49 -46 132q0 99 50 160q57 68 163 68q57 0 117 -40l103 23l-30 -221q-5 -38 -5 -42q0 -41 52 -41q43 0 67.5 39.5t23.5 114.5q-1 111 -80 188q-84 82 -214 82q-143 0 -237.5 -93t-92.5 -223
q2 -148 101 -231q90 -76 230 -76q47 0 95 18q21 9 79 39q3 2 7 2q15 0 29 -20t14 -36q0 -11 -8 -16q-98 -64 -211 -64q-187 0 -301 98q-121 103 -121 286q0 160 116 269q119 113 301 113q174 0 279 -92.5t103 -234.5q-2 -125 -64 -191q-51 -54 -123 -56zM403 218q31 0 46 21
q11 17 16 55l17 129q-24 14 -48 14q-29 0 -49 -27q-27 -36 -27 -111q0 -48 12 -66q9 -15 33 -15z" />
    <glyph glyph-name="A" unicode="A" horiz-adv-x="753" 
d="M479 84h-233q-10 -25 -32 -73q-6 -11 -20 -11h-205q-12 0 -4 14q135 252 363 676q1 2 24 2q22 0 23 -2q124 -228 371 -676q6 -10 5 -12t-9 -2h-235q-9 0 -14 8q-11 26 -34 76zM303 232h121q-13 30 -44 102q-9 19 -16 40q-4 -9 -16 -40q-17 -40 -45 -102z" />
    <glyph glyph-name="B" unicode="B" horiz-adv-x="746" 
d="M719 176q0 -82 -58.5 -129t-157.5 -47h-418q-11 0 -11 14v654q0 10 13 10h387q103 0 162.5 -49t59.5 -133q0 -122 -129 -155q64 -4 108 -54t44 -111zM306 422h78q63 0 63 53q0 55 -63 55h-78v-108zM306 147h94q64 0 64 56q0 55 -64 55h-94v-111z" />
    <glyph glyph-name="C" unicode="C" horiz-adv-x="742" 
d="M513 268q4 9 12 7l195 -60q14 -1 9 -13q-42 -96 -123 -156q-93 -70 -212 -70q-162 0 -263.5 99.5t-101.5 260.5q0 155 101 257q103 106 267 106q123 0 212 -64q78 -56 114 -149q5 -13 -5 -17l-195 -71q-5 -2 -9 6q-35 66 -118 66q-63 0 -98 -37t-35 -98q0 -60 37 -96
t99 -36q78 0 114 65z" />
    <glyph glyph-name="D" unicode="D" horiz-adv-x="745" 
d="M352 0h-268q-10 0 -10 9v659q0 10 10 10h293q338 0 338 -339t-363 -339zM302 490v-302h46q127 0 127 154q0 148 -125 148h-48z" />
    <glyph glyph-name="E" unicode="E" horiz-adv-x="642" 
d="M593 0h-507q-12 0 -12 14v654q0 10 11 10h499q12 0 12 -14v-132q0 -14 -12 -14h-279v-88h272q12 0 12 -14v-152q0 -13 -12 -13h-272v-84h288q8 0 9.5 -1.5t1.5 -11.5v-140q0 -14 -11 -14z" />
    <glyph glyph-name="F" unicode="F" horiz-adv-x="595" 
d="M300 0h-215q-10 0 -10 14v650q0 14 10 14h485q8 0 8 -10v-148q0 -9 -8 -9h-261v-131h234q8 0 8 -12v-154q0 -10 -8 -10h-234v-190q0 -14 -9 -14z" />
    <glyph glyph-name="G" unicode="G" horiz-adv-x="764" 
d="M516 281q4 10 8 10h201q8 0 8 -7v-297q-1 -4 -9 -4q-2 0 -11 3l-117 65q-47 -35 -82 -50q-55 -24 -124 -24q-155 0 -257 96q-106 101 -106 267q0 157 104 257.5t265 100.5q122 0 207 -57q78 -53 116 -146q6 -14 -3 -18l-187 -83q-11 -5 -16 10q-34 65 -118 65
q-61 0 -97 -36.5t-36 -95.5q0 -64 36 -99t101 -35q88 0 117 78z" />
    <glyph glyph-name="H" unicode="H" horiz-adv-x="788" 
d="M720 9q0 -9 -10 -9h-213q-10 0 -10 9v231h-184v-231q0 -9 -10 -9h-213q-10 0 -10 9v660q0 9 10 9h213q10 0 10 -9v-216h184v216q0 9 10 9h213q10 0 10 -9v-660z" />
    <glyph glyph-name="I" unicode="I" horiz-adv-x="376" 
d="M307 669v-660q0 -9 -10 -9h-221q-10 0 -10 9v660q0 9 10 9h221q10 0 10 -9z" />
    <glyph glyph-name="J" unicode="J" horiz-adv-x="430" 
d="M368 664v-482q0 -206 -229 -206q-63 0 -117 13q-12 3 -11 18l7 158q1 11 21 9q16 -2 28 -2q35 0 49 15t14 50v428q0 13 11 13h217q10 0 10 -14z" />
    <glyph glyph-name="K" unicode="K" horiz-adv-x="745" 
d="M299 132v-123q0 -9 -10 -9h-209q-10 0 -10 9v660q0 9 10 9h209q10 0 10 -9v-247q55 79 170 250q5 6 13 6h243q17 0 7 -12q-69 -84 -222 -274l244 -378q9 -14 -7 -14h-263q-8 0 -15 12q-33 56 -105 194z" />
    <glyph glyph-name="L" unicode="L" horiz-adv-x="571" 
d="M558 176v-167q0 -9 -10 -9h-468q-10 0 -10 9v660q0 9 10 9h213q10 0 10 -9v-483h244q7 0 9 -2.5t2 -7.5z" />
    <glyph glyph-name="M" unicode="M" horiz-adv-x="872" 
d="M787 686q20 -316 31 -673q0 -14 -7 -14h-208q-9 0 -9 8l-9 260q-55 -46 -153 -125q-9 -7 -18 0q-42 33 -140 125l-7 -253q0 -14 -13 -14h-183q-10 0 -10 6q3 317 23 673q1 10 5 11q3 1 9 -4q163 -119 332 -270q196 168 343 275q13 10 14 -5z" />
    <glyph glyph-name="N" unicode="N" horiz-adv-x="789" 
d="M74 10q-3 266 0 678q0 13 11 6q146 -92 425 -281v253q0 12 9 12h191q11 0 11 -12q3 -356 0 -671q0 -14 -4 -14q-3 0 -9 4q-158 96 -424 278v-254q0 -9 -10 -9h-189q-11 0 -11 10z" />
    <glyph glyph-name="O" unicode="O" horiz-adv-x="793" 
d="M394 699q150 0 255 -97q112 -104 112 -265q0 -155 -111 -260q-107 -101 -256 -101q-159 0 -263 104t-104 258q0 158 109 261q105 100 258 100zM394 464q-58 0 -92.5 -35t-34.5 -90q0 -61 35 -96t92 -35q55 0 91 35.5t36 95.5q0 58 -34.5 91.5t-92.5 33.5z" />
    <glyph glyph-name="P" unicode="P" horiz-adv-x="716" 
d="M426 165q-30 -3 -123 -4v-152q0 -9 -10 -9h-213q-10 0 -10 9v660q0 9 10 9h333q119 0 190.5 -72t71.5 -188q0 -228 -249 -253zM349 502h-46v-165h48q88 0 88 82q0 83 -90 83z" />
    <glyph glyph-name="Q" unicode="Q" horiz-adv-x="789" 
d="M656 -81q-81 36 -169 69q-45 -12 -93 -12q-159 0 -263 104t-104 258q0 158 109 261q105 100 258 100q150 0 255 -97q112 -104 112 -265q0 -136 -87 -234v-172q0 -14 -9 -14q-4 0 -9 2zM394 464q-58 0 -92.5 -35t-34.5 -90q0 -61 35 -96t92 -35q55 0 91 35.5t36 95.5
q0 58 -34.5 91.5t-92.5 33.5z" />
    <glyph glyph-name="R" unicode="R" horiz-adv-x="767" 
d="M85 678h359q122 0 189 -68q60 -62 60 -161q0 -142 -98 -182q11 -16 166 -240q12 -17 12 -22t-14 -5h-257q-12 0 -24 20l-102 173l-70 -4v-180q0 -9 -10 -9h-211q-10 0 -10 9v660q0 9 10 9zM306 354h43q92 0 92 79q0 80 -93 80h-42v-159z" />
    <glyph glyph-name="S" unicode="S" horiz-adv-x="641" 
d="M38 129q-6 15 4 19l149 56q10 4 12 -4q8 -28 35 -47t60 -19q70 0 70 51q0 41 -87 52q-9 1 -25 3q-80 7 -132 43q-76 53 -76 160q0 119 75.5 187.5t215.5 68.5q102 0 167 -41q62 -39 76 -106q3 -13 -7 -17l-141 -52q-9 -4 -12 4q-24 57 -91 57q-65 0 -65 -47q0 -22 21 -32
t79 -19q11 -1 36 -5q203 -31 203 -206q0 -121 -87 -192q-83 -67 -212 -67q-100 0 -169.5 40.5t-98.5 112.5z" />
    <glyph glyph-name="T" unicode="T" horiz-adv-x="640" 
d="M441 502v-493q0 -9 -10 -9h-217q-10 0 -10 9v493l-182 -11q-7 0 -7 7v170q0 10 8 10h593q8 0 8 -10v-170q0 -7 -7 -7z" />
    <glyph glyph-name="U" unicode="U" horiz-adv-x="769" 
d="M64 249v423q0 6 5 6h233q7 0 7 -8v-387q0 -96 84 -96t84 96v388q0 7 7 7h217q5 0 5 -7v-432q0 -123 -83 -192q-87 -72 -246 -72q-144 0 -230 79q-83 76 -83 195z" />
    <glyph glyph-name="V" unicode="V" horiz-adv-x="748" 
d="M743 660l-345 -665q-7 -14 -17 -14q-8 0 -15 12q-197 353 -361 667q-6 11 -6 14q0 4 12 4h251q8 0 12 -8q34 -77 115 -272l98 272q4 8 11 8h238q13 0 13 -4q0 -3 -6 -14z" />
    <glyph glyph-name="W" unicode="W" horiz-adv-x="937" 
d="M616 -17l-151 249q-26 -45 -152 -250q-5 -7 -14 -6q-9 0 -12 6q-142 332 -282 678q-5 13 -5 15q0 3 11 3h229q23 0 28 -18l72 -240l125 255q4 9 14 9q9 0 13 -9q24 -53 119 -258l77 251q3 10 12 10h223q11 0 12 -2q1 -1 -3 -11l-289 -680q-4 -10 -14 -10q-8 0 -13 8z" />
    <glyph glyph-name="X" unicode="X" horiz-adv-x="704" 
d="M454 10q-42 61 -117 174q-32 -53 -103 -164q-14 -20 -22 -20h-217q-8 0 -6 7q1 5 5 9l227 330l-233 319q-9 13 7 13h234q12 0 24 -18q32 -47 98 -145q31 49 94 154q7 9 15 9h213q10 0 10 -6t-8 -15q-67 -98 -211 -304l245 -334q7 -9 7 -13q0 -6 -14 -6q-43 0 -119 -1
h-114q-7 0 -15 11z" />
    <glyph glyph-name="Y" unicode="Y" horiz-adv-x="736" 
d="M729 665q-89 -181 -225 -449v-203q0 -14 -11 -14h-222q-7 0 -7 14v185q-79 136 -265 466q-5 10 -4 12t10 2h252q10 0 17 -16q34 -78 111 -245q33 83 96 251q4 10 15 10h227q10 0 10 -2q1 -1 -4 -11z" />
    <glyph glyph-name="Z" unicode="Z" horiz-adv-x="611" 
d="M14 21q91 164 267 486q-93 -2 -245 -6q-11 0 -11 9v155q0 13 18 13h543q5 0 6 -7t-1 -11q-85 -170 -261 -491q92 2 245 7q14 1 14 -11v-154q0 -11 -11 -11h-560q-5 0 -6 7q-2 8 2 14z" />
    <glyph glyph-name="bracketleft" unicode="[" horiz-adv-x="405" 
d="M67 -142v814q0 6 8 6h297q5 0 5 -6v-97q0 -5 -3 -5q-10 0 -115 4v-619l115 5q3 0 3 -5v-97q0 -6 -5 -6h-297q-8 0 -8 6z" />
    <glyph glyph-name="backslash" unicode="\" horiz-adv-x="436" 
d="M442 1q2 -4 -39 -24q-37 -18 -56 -25q-7 -2 -13 9q-62 119 -173 355q-128 272 -161 337q-7 14 0 19q14 9 91 35q8 3 9 1l7 -13q48 -95 174 -360q122 -259 161 -334z" />
    <glyph glyph-name="bracketright" unicode="]" horiz-adv-x="405" 
d="M338 671v-814q0 -6 -7 -6h-297q-6 0 -6 6v97q0 5 4 5q10 0 114 -4v618l-114 -4q-4 0 -4 5v97q0 6 6 6h297q7 0 7 -6z" />
    <glyph glyph-name="asciicircum" unicode="^" horiz-adv-x="453" 
d="M15 508q89 96 192 205q11 11 18 11q6 0 13 -8q89 -93 194 -204q9 -11 9 -15q0 -6 -13 -6h-134l-70 58l-70 -58h-138q-20 0 -1 17z" />
    <glyph glyph-name="underscore" unicode="_" horiz-adv-x="450" 
d="M468 -94v-110q0 -15 -18 -15h-450q-17 0 -17 15v110q0 15 17 15h450q18 0 18 -15z" />
    <glyph glyph-name="grave" unicode="`" horiz-adv-x="472" 
d="M312 540q-69 32 -189 91q-11 17 -7 19q41 23 130 76q5 3 7.5 -1.5t103.5 -172.5q2 -3 -12.5 -8t-24.5 -5q-5 0 -8 1z" />
    <glyph glyph-name="a" unicode="a" horiz-adv-x="650" 
d="M416 13v41q-56 -69 -150 -69q-107 0 -171 67q-70 72 -70 201q0 120 65.5 193.5t171.5 73.5q101 0 141 -68v41q0 12 9 12h176q7 0 7 -12v-479q0 -14 -8 -14h-156q-15 0 -15 13zM310 330q-36 0 -58 -22t-22 -58q0 -38 22 -60t58 -22q77 0 77 82q0 36 -21 58t-56 22z" />
    <glyph glyph-name="b" unicode="b" horiz-adv-x="660" 
d="M274 686v-218q46 50 126 50q103 0 167.5 -72.5t64.5 -192.5q0 -121 -62.5 -194.5t-168.5 -73.5q-37 0 -71 12q-40 15 -57 39l-33 -29q-9 -8 -20 -8h-153q-7 0 -7 13v673q0 14 8 14h197q9 0 9 -13zM350 330q-36 0 -58 -22t-22 -58q0 -38 22 -60t58 -22q77 0 77 82
q0 36 -21 58t-56 22z" />
    <glyph glyph-name="c" unicode="c" horiz-adv-x="559" 
d="M388 214l147 -61q13 -5 8 -18q-79 -158 -246 -158q-122 0 -197 72t-75 198q0 120 73.5 199t194.5 79q89 0 153 -39q67 -42 93 -121q3 -10 -6 -15l-152 -66q-5 -1 -8 6q-23 42 -73 42q-33 0 -54.5 -24.5t-21.5 -60.5q0 -34 20 -58.5t56 -24.5q49 0 73 45q5 9 15 5z" />
    <glyph glyph-name="d" unicode="d" horiz-adv-x="657" 
d="M384 474v212q0 13 8 13h197q8 0 8 -14v-673q0 -13 -7 -13h-192q-9 0 -9 13v30q-41 -57 -133 -57q-110 0 -170.5 71.5t-60.5 196.5q0 119 64.5 192t167.5 73q78 0 127 -44zM309 330q-36 0 -57.5 -22.5t-21.5 -58.5q0 -81 79 -81q35 0 56.5 21.5t21.5 59.5q0 35 -22 58
t-56 23z" />
    <glyph glyph-name="e" unicode="e" horiz-adv-x="562" 
d="M301 525q106 0 175.5 -66t69.5 -172q0 -47 -4 -74q-2 -12 -21 -12h-301q2 -23 23 -39t54 -16q50 0 84 22q5 5 13 -4q37 -56 76 -120q8 -13 -6 -23q-67 -45 -165 -45q-124 0 -199 75t-75 202q0 122 76 197t200 75zM220 300h150q-5 56 -77 56q-64 0 -73 -56z" />
    <glyph glyph-name="f" unicode="f" horiz-adv-x="375" 
d="M82 0q-8 0 -8 13v320h-45q-11 0 -11 11v149q0 12 7 12h56v56q0 69 42.5 111.5t123.5 42.5q96 0 139 -72q4 -6 -2 -16q-10 -24 -30 -52q-6 -12 -12 -4q-17 14 -37 14q-29 0 -29 -35v-39q0 -6 6 -6h77q9 0 9 -8v-150q0 -15 -11 -15h-63v-321q0 -11 -9 -11h-203z" />
    <glyph glyph-name="g" unicode="g" horiz-adv-x="643" 
d="M597 493v-346q0 -158 -67 -227q-76 -78 -263 -78q-96 0 -172 30q-19 7 -14 18q17 45 43 119q4 12 16 6q69 -33 114 -33q134 0 134 98q-60 -49 -145 -49q-94 0 -153 62q-63 67 -63 184q0 113 65 178q62 62 165 62q38 0 81.5 -17.5t56.5 -38.5v32q0 12 9 12h186q7 0 7 -12z
M310 349q-36 0 -58 -22t-22 -58q0 -82 80 -82q77 0 77 82q0 36 -21 58t-56 22z" />
    <glyph glyph-name="h" unicode="h" horiz-adv-x="663" 
d="M388 301q0 55 -54 55q-41 0 -54 -43v-302q0 -11 -8 -11h-204q-8 0 -8 14v672q0 13 7 13h204q9 0 9 -13v-236q62 75 170 75q158 0 158 -165v-345q0 -15 -11 -15h-199q-10 0 -10 11v290z" />
    <glyph glyph-name="i" unicode="i" horiz-adv-x="343" 
d="M283 493v-482q0 -11 -9 -11h-206q-8 0 -8 14v479q0 12 7 12h207q9 0 9 -12zM283 686v-135q0 -11 -9 -11h-206q-8 0 -8 13v133q0 13 7 13h207q9 0 9 -13z" />
    <glyph glyph-name="j" unicode="j" horiz-adv-x="345" 
d="M74 65v428q0 12 7 12h206q9 0 9 -12v-448q0 -105 -45 -156q-49 -55 -156 -55q-59 0 -112 20q-10 2 -9 15q5 59 11 130q1 17 20 12q17 -4 29 -4q40 0 40 58zM296 686v-135q0 -11 -8 -11h-206q-8 0 -8 13v133q0 13 7 13h206q9 0 9 -13z" />
    <glyph glyph-name="k" unicode="k" horiz-adv-x="673" 
d="M280 686v-368l134 179q4 8 13 8h215q18 0 2 -18q-50 -56 -181 -196q70 -93 205 -279q9 -12 -9 -12h-235q-10 0 -19 14l-78 128l-47 -55v-76q0 -11 -8 -11h-204q-8 0 -8 14v672q0 13 7 13h204q9 0 9 -13z" />
    <glyph glyph-name="l" unicode="l" horiz-adv-x="340" 
d="M280 686v-675q0 -11 -8 -11h-204q-8 0 -8 14v672q0 13 7 13h204q9 0 9 -13z" />
    <glyph glyph-name="m" unicode="m" horiz-adv-x="967" 
d="M645 363q-33 0 -51 -31v-317q0 -15 -11 -15h-195q-10 0 -10 11v286q0 66 -50 66q-26 0 -51 -32v-320q0 -11 -8 -11h-201q-8 0 -8 14v479q0 12 7 12h197q10 0 10 -12v-43q60 75 166 75q63 0 97 -22q28 -18 46 -60q72 82 174 82q84 0 121 -42q34 -39 34 -123v-345
q0 -15 -10 -15h-197q-10 0 -10 11v286q0 66 -50 66z" />
    <glyph glyph-name="n" unicode="n" horiz-adv-x="663" 
d="M388 300q0 56 -55 56q-33 0 -53 -38v-307q0 -11 -8 -11h-204q-8 0 -8 14v479q0 12 7 12h200q9 0 9 -12v-43q44 75 174 75q158 0 158 -165v-345q0 -15 -11 -15h-199q-10 0 -10 11v289z" />
    <glyph glyph-name="o" unicode="o" horiz-adv-x="608" 
d="M307 525q123 0 199.5 -76t76.5 -197t-76.5 -198t-198.5 -77q-125 0 -204 76.5t-79 198.5q0 121 78.5 197t203.5 76zM302 330q-36 0 -58 -21t-22 -57q0 -81 80 -81q77 0 77 81q0 35 -21 56.5t-56 21.5z" />
    <glyph glyph-name="p" unicode="p" horiz-adv-x="667" 
d="M278 35v-188q0 -13 -8 -13h-201q-8 0 -8 14v645q0 12 7 12h192q9 0 9 -12v-29q14 23 52 38.5t81 15.5q107 0 170 -76q59 -73 59 -190q0 -119 -63.5 -190.5t-166.5 -71.5q-84 0 -123 45zM348 330q-36 0 -58 -21t-22 -57q0 -81 80 -81q77 0 77 81q0 35 -21 56.5t-56 21.5z
" />
    <glyph glyph-name="q" unicode="q" horiz-adv-x="650" 
d="M412 464l33 34q8 7 19 7h123q8 0 8 -13v-645q0 -13 -7 -13h-184q-9 0 -9 13v194q-15 -23 -54 -37.5t-79 -14.5q-109 0 -173 73t-64 190q0 124 67 197t174 73q97 0 146 -58zM310 332q-36 0 -58 -21t-22 -57q0 -81 80 -81q77 0 77 81q0 35 -21 56.5t-56 21.5z" />
    <glyph glyph-name="r" unicode="r" horiz-adv-x="534" 
d="M342 345q-35 0 -62 -38v-296q0 -11 -8 -11h-204q-8 0 -8 14v479q0 12 7 12h200q9 0 9 -12v-55q16 37 52.5 60.5t72.5 23.5q59 0 95 -33t40 -90q-55 -63 -117 -121q-2 -2 -19 -2q0 69 -58 69z" />
    <glyph glyph-name="s" unicode="s" horiz-adv-x="535" 
d="M27 93q-6 8 -5 10q1 1 9 4l124 44q6 2 9 -4q27 -47 80 -47q52 0 52 31q0 28 -67 36q-7 1 -22 3q-65 5 -109 35q-63 43 -63 126q0 88 66 141t176 53q175 0 210 -110q3 -10 -4 -13l-125 -41q-7 -3 -12 3q-27 41 -70 41q-49 0 -49 -29q0 -16 15 -21q12 -5 60 -11
q10 -1 31 -3q174 -24 174 -168q0 -82 -76 -139t-179 -57q-171 0 -225 116z" />
    <glyph glyph-name="t" unicode="t" horiz-adv-x="424" 
d="M292 330v-107q0 -58 48 -58q11 0 25 3q19 4 20 -12q6 -58 13 -130q2 -11 -9 -15q-60 -20 -113 -20q-120 0 -167 68q-34 48 -34 143v129h-51q-11 0 -11 11v151q0 12 7 12h55l2 159q0 14 8 14h189q20 0 20 -5l-2 -168h102q9 0 9 -8v-153q0 -15 -11 -15t-49 1h-51z" />
    <glyph glyph-name="u" unicode="u" horiz-adv-x="663" 
d="M274 218q0 -69 54 -69q33 0 55 35v310q0 11 8 11h203q9 0 9 -13v-479q0 -13 -8 -13h-200q-9 0 -9 13v42q-42 -75 -166 -75q-165 0 -165 180v331q0 14 10 14h199q10 0 10 -11v-276z" />
    <glyph glyph-name="v" unicode="v" horiz-adv-x="611" 
d="M603 491q-129 -234 -288 -499q-6 -10 -13 -10q-8 0 -14 11q-86 149 -282 496q-5 9 -5 12q0 4 11 4h210q9 0 12 -7q26 -56 73 -170q23 53 74 167q5 10 12 10h206q8 0 9 -2t-5 -12z" />
    <glyph glyph-name="w" unicode="w" horiz-adv-x="742" 
d="M485 -7q-38 67 -111 195l-117 -195q-6 -10 -15 -10q-8 0 -13 10q-94 210 -227 499q-5 10 -4 12q1 1 9 1h198q9 0 10 -4q27 -58 61 -136l85 132q5 8 15 8t15 -8l80 -132l65 134q3 6 10 6h184q13 0 9 -10l-226 -502q-5 -11 -13 -11q-9 0 -15 11z" />
    <glyph glyph-name="x" unicode="x" horiz-adv-x="553" 
d="M525 496l-146 -232l168 -255q5 -8 3 -9q-1 -1 -7 -1h-225q-4 0 -7 6l-50 92q-15 -31 -47 -91q-3 -7 -8 -7h-199q-8 0 -8 3q0 2 3 7q43 68 157 245l-160 242q-6 9 3 9h204q8 0 11 -5q17 -28 55 -90l51 90q2 5 9 5h191q6 0 6 -2q0 -1 -4 -7z" />
    <glyph glyph-name="y" unicode="y" horiz-adv-x="562" 
d="M118 -98q23 57 69 163l-202 426q-7 14 5 14h230q11 0 14 -11q18 -48 57 -159l52 159q4 11 12 11h218q10 0 11 -2t-3 -12l-262 -594q-4 -7 -13 -7h-178q-15 0 -10 12z" />
    <glyph glyph-name="z" unicode="z" horiz-adv-x="505" 
d="M6 16q64 127 189 357q-107 -3 -158 -3q-15 0 -15 9v116q0 10 11 10h458q14 0 6 -17q-61 -124 -201 -347q64 2 178 8q14 1 14 -11v-129q0 -9 -14 -9h-459q-17 0 -9 16z" />
    <glyph glyph-name="braceleft" unicode="{" horiz-adv-x="405" 
d="M278 371q0 -54 -16 -77q-20 -28 -74 -31q54 -3 74 -34q16 -24 16 -78v-98q0 -49 20 -70.5t67 -21.5h18q14 0 14 -12v-85q0 -11 -14 -11h-109q-170 0 -170 151v118q0 36 -17 50q-14 11 -53 13q-10 1 -10 11v132q0 12 10 12q70 9 70 80v107q0 65 50 108t120 43h109
q14 0 14 -11v-86q0 -12 -14 -12h-18q-43 0 -67 -32q-20 -26 -20 -59v-107z" />
    <glyph glyph-name="bar" unicode="|" horiz-adv-x="436" 
d="M293 -188q0 -12 -12 -12h-125q-11 0 -11 13v968q0 12 2.5 15.5t14.5 3.5h115q16 0 16 -20v-968z" />
    <glyph glyph-name="braceright" unicode="}" horiz-adv-x="405" 
d="M217 263q-54 3 -74 31q-16 23 -16 77v107q0 33 -19 59q-24 32 -68 32h-17q-15 0 -15 12v86q0 11 15 11h108q71 0 121 -43t50 -108v-107q0 -38 15 -56.5t52 -22.5q13 -2 13 -13v-129q0 -13 -10 -14q-40 -2 -55 -14t-15 -49v-118q0 -151 -171 -151h-108q-15 0 -15 11v85
q0 12 15 12h17q47 0 67 21t20 71v98q0 54 16 78q20 31 74 34z" />
    <glyph glyph-name="asciitilde" unicode="~" horiz-adv-x="533" 
d="M77 542q-3 -1 -7 -3q-3 0 -5 11q1 33 43 87q50 64 107 65q48 1 94 -34.5t70 -34.5q35 1 72 13l40 16q8 3 10 -1t0 -15q-6 -33 -38 -78q-48 -68 -113 -69q-47 0 -95 36t-81 35q-29 0 -57 -11q-20 -9 -40 -17z" />
    <glyph glyph-name="exclamdown" unicode="&#xa1;" horiz-adv-x="372" 
d="M128 459q92 2 122 0q5 0 32.5 -73.5t27.5 -82.5q3 -140 0 -313q0 -5 -9 -10q-111 -2 -222 0q-8 0 -9 12q-6 135 -3 311q0 7 28 81.5t33 74.5zM304 501q-237 0 -237 3q0 127 1 150.5t6 23.5h230q0 -10 2 -115q1 -62 -2 -62z" />
    <glyph glyph-name="cent" unicode="&#xa2;" horiz-adv-x="559" 
d="M478 663l-33 -57q35 -33 49 -80q0 -11 -5 -13l-129 -56q-6 0 -6 5q-19 35 -62 35q-28 0 -46.5 -20.5t-18.5 -51.5q0 -29 17 -50t48 -21q43 0 62 40q0 4 12 4l126 -53q6 0 6 -14q-67 -135 -209 -135q-37 0 -75 10l-33 -57l-66 38l30 51q-88 61 -88 187q0 102 63 169.5
t165 67.5q52 0 95 -17l33 56z" />
    <glyph glyph-name="sterling" unicode="&#xa3;" horiz-adv-x="631" 
d="M33 401h35q-11 46 -11 98q0 92 70.5 146t196.5 54q226 0 288 -185q4 -12 -4 -17q-102 -69 -144 -90q-14 0 -7 -1q-3 0 -3 8q-3 61 -22 90q-23 35 -76 35q-42 0 -65 -27q-20 -23 -20 -60q0 -9 1.5 -28t1.5 -29q30 0 67 -1.5t39 -1.5q3 -105 -1 -105h-81q36 -68 29 -119
q36 0 128 -10t136 -19q2 -1 -18.5 -70t-24.5 -69h-496q-18 0 -18 14q0 23 1 61v69q0 8 12 11q25 7 115 13q3 8 3 18q0 46 -50 101h-80q-10 0 -10 8v99q0 7 8 7z" />
    <glyph glyph-name="currency" unicode="&#xa4;" 
d="M47 300q0 154 109.5 263.5t263.5 109.5t263.5 -109.5t109.5 -263.5t-109.5 -263.5t-263.5 -109.5t-263.5 109.5t-109.5 263.5zM507 578l-103 33l-106 -73l82 -13l2 -49l-108 -51l-100 97l10 -104l-48 33l73 -189l193 38l-128 -224l22 -51l48 24l67 220l-26 -218l46 -36
l36 41l-25 215l63 -209l57 -9l16 43l-129 206l193 -22l51 211l-48 -29l-9 78l-65 -109l-127 53l23 54z" />
    <glyph glyph-name="yen" unicode="&#xa5;" horiz-adv-x="736" 
d="M514 236h169q18 0 18 -14v-76q0 -14 -18 -14h-179v-119q0 -14 -11 -14h-222q-7 0 -7 14v119h-215q-17 0 -17 14v76q0 14 17 14h192q-12 23 -42 74h-150q-17 0 -17 14v76q0 14 17 14h90q-48 86 -140 250q-6 10 -4 12q1 2 10 2h252q9 0 11 -2l6 -14q34 -78 111 -245
q33 83 96 251q4 10 15 10h227q10 0 10 -2q1 -1 -4 -11q-43 -85 -125 -251h79q18 0 18 -14v-76q0 -14 -18 -14h-131q-20 -40 -38 -74z" />
    <glyph glyph-name="brokenbar" unicode="&#xa6;" 
d="M47 300q0 154 109.5 263.5t263.5 109.5t263.5 -109.5t109.5 -263.5t-109.5 -263.5t-263.5 -109.5t-263.5 109.5t-109.5 263.5zM507 578l-103 33l-106 -73l82 -13l2 -49l-108 -51l-100 97l10 -104l-48 33l73 -189l193 38l-128 -224l22 -51l48 24l67 220l-26 -218l46 -36
l36 41l-25 215l63 -209l57 -9l16 43l-129 206l193 -22l51 211l-48 -29l-9 78l-65 -109l-127 53l23 54z" />
    <glyph glyph-name="section" unicode="&#xa7;" horiz-adv-x="535" 
d="M453 209q54 -40 54 -124q0 -81 -76 -138.5t-179 -57.5q-171 0 -225 116q-6 8 -5 10q1 1 9 4l124 44q6 2 9 -4q27 -47 80 -47q52 0 52 31q0 22 -34 31q-10 3 -55 8q-69 8 -118 52q-53 48 -53 115q-1 76 53 125q-50 40 -50 116q0 88 66 141t176 53q85 0 141 -30
q53 -29 69 -80q3 -9 -5 -12l-124 -42q-8 -3 -12 3q-27 41 -70 41q-49 0 -49 -29q0 -22 41 -31l64 -8q86 -12 127 -46q48 -39 48 -117q0 -70 -58 -124zM347 244q4 30 -14 54.5t-44 27.5q-42 7 -113 15q-2 -9 -2 -18q0 -29 22.5 -48.5t58 -22.5t92.5 -8z" />
    <glyph glyph-name="dieresis" unicode="&#xa8;" horiz-adv-x="580" 
d="M274 684v-102q0 -9 -9 -9h-174q-7 0 -7 11v100q0 9 6 9h175q9 0 9 -9zM522 684v-102q0 -9 -8 -9h-176q-7 0 -7 11v100q0 9 7 9h175q9 0 9 -9z" />
    <glyph glyph-name="copyright" unicode="&#xa9;" horiz-adv-x="845" 
d="M31 306q0 163 114.5 278t277.5 115q162 0 276.5 -115t114.5 -278q0 -162 -114.5 -276.5t-276.5 -114.5q-163 0 -277.5 114.5t-114.5 276.5zM423 623q-128 0 -219 -93t-91 -224t91 -224t219 -93t219 93.5t91 223.5t-91 223.5t-219 93.5zM513 263q3 5 9 4l121 -36
q9 -1 6 -9q-56 -148 -215 -148q-104 0 -171 66.5t-67 167.5t65.5 167.5t173.5 66.5q80 0 136 -41q50 -37 73 -97q4 -9 -2 -11l-121 -43q-4 -1 -7 4q-26 49 -79 49q-41 0 -62.5 -27.5t-21.5 -68.5q0 -39 23.5 -66t60.5 -27q52 0 78 49z" />
    <glyph glyph-name="ordfeminine" unicode="&#xaa;" horiz-adv-x="560" 
d="M374 305l-26 25q-44 -42 -116 -42q-85 0 -137 50q-56 54 -56 151q0 90 52 145t137 55q77 0 113 -43v23q0 9 7 9h141q6 0 6 -9v-360q0 -10 -7 -10h-99q-7 0 -15 6zM499 244v-78q0 -15 -18 -15h-401q-17 0 -17 15v78q0 14 17 14h401q18 0 18 -14zM266 546q-63 0 -63 -60
q0 -61 63 -61q62 0 62 61q0 60 -62 60z" />
    <glyph glyph-name="guillemotleft" unicode="&#xab;" horiz-adv-x="686" 
d="M27 268q-1 7 -1 14q0 8 1 15l273 271q5 5 11 5q8 0 8 -10v-199q0 -19 -9 -26l-71 -55l71 -56q9 -7 9 -25v-199q0 -11 -9 -11q-5 0 -10 5q-93 93 -273 271zM335 268q-2 19 0 29l273 271q5 5 11 5q8 0 8 -10v-199q0 -19 -9 -26l-71 -55l71 -56q9 -7 9 -25v-199
q0 -11 -9 -11q-5 0 -10 5q-93 93 -273 271z" />
    <glyph glyph-name="logicalnot" unicode="&#xac;" 
d="M47 300q0 154 109.5 263.5t263.5 109.5t263.5 -109.5t109.5 -263.5t-109.5 -263.5t-263.5 -109.5t-263.5 109.5t-109.5 263.5zM507 578l-103 33l-106 -73l82 -13l2 -49l-108 -51l-100 97l10 -104l-48 33l73 -189l193 38l-128 -224l22 -51l48 24l67 220l-26 -218l46 -36
l36 41l-25 215l63 -209l57 -9l16 43l-129 206l193 -22l51 211l-48 -29l-9 78l-65 -109l-127 53l23 54z" />
    <glyph glyph-name="minus" unicode="&#xad;" 
d="M47 300q0 154 109.5 263.5t263.5 109.5t263.5 -109.5t109.5 -263.5t-109.5 -263.5t-263.5 -109.5t-263.5 109.5t-109.5 263.5zM507 578l-103 33l-106 -73l82 -13l2 -49l-108 -51l-100 97l10 -104l-48 33l73 -189l193 38l-128 -224l22 -51l48 24l67 220l-26 -218l46 -36
l36 41l-25 215l63 -209l57 -9l16 43l-129 206l193 -22l51 211l-48 -29l-9 78l-65 -109l-127 53l23 54z" />
    <glyph glyph-name="minus" unicode="&#x2212;" 
d="M47 300q0 154 109.5 263.5t263.5 109.5t263.5 -109.5t109.5 -263.5t-109.5 -263.5t-263.5 -109.5t-263.5 109.5t-109.5 263.5zM507 578l-103 33l-106 -73l82 -13l2 -49l-108 -51l-100 97l10 -104l-48 33l73 -189l193 38l-128 -224l22 -51l48 24l67 220l-26 -218l46 -36
l36 41l-25 215l63 -209l57 -9l16 43l-129 206l193 -22l51 211l-48 -29l-9 78l-65 -109l-127 53l23 54z" />
    <glyph glyph-name="registered" unicode="&#xae;" horiz-adv-x="845" 
d="M31 306q0 163 114.5 278t277.5 115q162 0 276.5 -115t114.5 -278q0 -162 -114.5 -276.5t-276.5 -114.5q-163 0 -277.5 114.5t-114.5 276.5zM423 623q-128 0 -219 -93t-91 -224t91 -224t219 -93t219 93.5t91 223.5t-91 223.5t-219 93.5zM239 517h218q75 0 115 -42
q37 -37 37 -97q0 -84 -59 -110q35 -52 83 -126q8 -12 8 -22q0 -15 -18 -15h-130q-6 0 -14 13q-22 37 -63 105l-42 -3v-108q0 -7 -6 -7h-129q-5 0 -5 7v399q0 6 5 6zM374 321h26q56 0 56 47q0 49 -56 49h-26v-96z" />
    <glyph glyph-name="macron" unicode="&#xaf;" horiz-adv-x="450" 
d="M400 640v-73q0 -12 -15 -12h-321q-14 0 -14 12v73q0 10 1.5 11t12.5 1h321q13 0 15 -2v-10z" />
    <glyph glyph-name="macron" unicode="&#x2c9;" horiz-adv-x="450" 
d="M400 640v-73q0 -12 -15 -12h-321q-14 0 -14 12v73q0 10 1.5 11t12.5 1h321q13 0 15 -2v-10z" />
    <glyph glyph-name="degree" unicode="&#xb0;" horiz-adv-x="385" 
d="M194 700q75 0 120.5 -45.5t45.5 -119.5q0 -72 -45.5 -118t-119.5 -46q-75 0 -122.5 45.5t-47.5 118.5t47.5 119t121.5 46zM191 583q-47 0 -47 -48t47 -48q46 0 46 48t-46 48z" />
    <glyph glyph-name="plusminus" unicode="&#xb1;" 
d="M47 300q0 154 109.5 263.5t263.5 109.5t263.5 -109.5t109.5 -263.5t-109.5 -263.5t-263.5 -109.5t-263.5 109.5t-109.5 263.5zM507 578l-103 33l-106 -73l82 -13l2 -49l-108 -51l-100 97l10 -104l-48 33l73 -189l193 38l-128 -224l22 -51l48 24l67 220l-26 -218l46 -36
l36 41l-25 215l63 -209l57 -9l16 43l-129 206l193 -22l51 211l-48 -29l-9 78l-65 -109l-127 53l23 54z" />
    <glyph glyph-name="twosuperior" unicode="&#xb2;" 
d="M47 300q0 154 109.5 263.5t263.5 109.5t263.5 -109.5t109.5 -263.5t-109.5 -263.5t-263.5 -109.5t-263.5 109.5t-109.5 263.5zM507 578l-103 33l-106 -73l82 -13l2 -49l-108 -51l-100 97l10 -104l-48 33l73 -189l193 38l-128 -224l22 -51l48 24l67 220l-26 -218l46 -36
l36 41l-25 215l63 -209l57 -9l16 43l-129 206l193 -22l51 211l-48 -29l-9 78l-65 -109l-127 53l23 54z" />
    <glyph glyph-name="threesuperior" unicode="&#xb3;" 
d="M47 300q0 154 109.5 263.5t263.5 109.5t263.5 -109.5t109.5 -263.5t-109.5 -263.5t-263.5 -109.5t-263.5 109.5t-109.5 263.5zM507 578l-103 33l-106 -73l82 -13l2 -49l-108 -51l-100 97l10 -104l-48 33l73 -189l193 38l-128 -224l22 -51l48 24l67 220l-26 -218l46 -36
l36 41l-25 215l63 -209l57 -9l16 43l-129 206l193 -22l51 211l-48 -29l-9 78l-65 -109l-127 53l23 54z" />
    <glyph glyph-name="acute" unicode="&#xb4;" horiz-adv-x="472" 
d="M361 631q-57 -28 -189 -91q-3 -1 -8 -1q-10 0 -24.5 5t-13.5 8q31 51 103 171q3 6 8 3q46 -26 130 -76q1 -1 1 -2q0 -5 -7 -17z" />
    <glyph glyph-name="mu" unicode="&#xb5;" 
d="M47 300q0 154 109.5 263.5t263.5 109.5t263.5 -109.5t109.5 -263.5t-109.5 -263.5t-263.5 -109.5t-263.5 109.5t-109.5 263.5zM507 578l-103 33l-106 -73l82 -13l2 -49l-108 -51l-100 97l10 -104l-48 33l73 -189l193 38l-128 -224l22 -51l48 24l67 220l-26 -218l46 -36
l36 41l-25 215l63 -209l57 -9l16 43l-129 206l193 -22l51 211l-48 -29l-9 78l-65 -109l-127 53l23 54z" />
    <glyph glyph-name="mu" unicode="&#x3bc;" 
d="M47 300q0 154 109.5 263.5t263.5 109.5t263.5 -109.5t109.5 -263.5t-109.5 -263.5t-263.5 -109.5t-263.5 109.5t-109.5 263.5zM507 578l-103 33l-106 -73l82 -13l2 -49l-108 -51l-100 97l10 -104l-48 33l73 -189l193 38l-128 -224l22 -51l48 24l67 220l-26 -218l46 -36
l36 41l-25 215l63 -209l57 -9l16 43l-129 206l193 -22l51 211l-48 -29l-9 78l-65 -109l-127 53l23 54z" />
    <glyph glyph-name="paragraph" unicode="&#xb6;" horiz-adv-x="716" 
d="M395 161q-37 0 -105 4q-249 25 -249 253q0 116 72 188t191 72h323q10 0 10 -9v-331q0 -49 2 -192t2 -208q0 -9 -10 -9h-78q-5 302 -12 644h-46q-8 -276 -22 -644h-75q-11 0 -10 9q6 61 7 223zM409 573h-38q-94 0 -94 -154q0 -77 19 -106.5t68 -29.5h35z" />
    <glyph glyph-name="periodcentered" unicode="&#xb7;" horiz-adv-x="352" 
d="M288 472v-198q0 -8 -1 -9t-10 -1h-201q-9 0 -10 0.5t-1 9.5v198q0 10 1 11t10 1h201q9 0 10 -1.5t1 -10.5z" />
    <glyph glyph-name="periodcentered" unicode="&#x2219;" horiz-adv-x="352" 
d="M288 472v-198q0 -8 -1 -9t-10 -1h-201q-9 0 -10 0.5t-1 9.5v198q0 10 1 11t10 1h201q9 0 10 -1.5t1 -10.5z" />
    <glyph glyph-name="cedilla" unicode="&#xb8;" horiz-adv-x="559" 
d="M309 -1q46 0 74 -29q24 -25 24 -55q0 -61 -36 -99q-39 -40 -108 -40q-98 0 -124 79q-1 8 4 10l75 32q2 1 3 -0.5t2 -1.5q10 -21 36 -21q52 0 52 53q0 29 -24 51t-47 22z" />
    <glyph glyph-name="onesuperior" unicode="&#xb9;" 
d="M47 300q0 154 109.5 263.5t263.5 109.5t263.5 -109.5t109.5 -263.5t-109.5 -263.5t-263.5 -109.5t-263.5 109.5t-109.5 263.5zM507 578l-103 33l-106 -73l82 -13l2 -49l-108 -51l-100 97l10 -104l-48 33l73 -189l193 38l-128 -224l22 -51l48 24l67 220l-26 -218l46 -36
l36 41l-25 215l63 -209l57 -9l16 43l-129 206l193 -22l51 211l-48 -29l-9 78l-65 -109l-127 53l23 54z" />
    <glyph glyph-name="ordmasculine" unicode="&#xba;" horiz-adv-x="560" 
d="M499 244v-78q0 -15 -18 -15h-401q-17 0 -17 15v78q0 14 17 14h401q18 0 18 -14zM283 696q98 0 159 -57t61 -148t-61 -148.5t-158 -57.5q-101 0 -164.5 57.5t-63.5 148.5t63 148t164 57zM278 554q-28 0 -46 -18t-18 -45q0 -66 64 -66q62 0 62 66q0 27 -17 45t-45 18z" />
    <glyph glyph-name="guillemotright" unicode="&#xbb;" horiz-adv-x="686" 
d="M662 297q2 -19 0 -29l-273 -271q-5 -5 -10 -5q-9 0 -9 11v199q0 18 9 25l71 56l-71 55q-9 7 -9 26v199q0 10 8 10q6 0 11 -5q93 -93 273 -271zM354 297q2 -19 0 -29l-273 -271q-5 -5 -10 -5q-9 0 -9 11v199q0 18 9 25l71 56l-71 55q-9 7 -9 26v199q0 10 8 10q6 0 11 -5
q93 -93 273 -271z" />
    <glyph glyph-name="onequarter" unicode="&#xbc;" 
d="M47 300q0 154 109.5 263.5t263.5 109.5t263.5 -109.5t109.5 -263.5t-109.5 -263.5t-263.5 -109.5t-263.5 109.5t-109.5 263.5zM507 578l-103 33l-106 -73l82 -13l2 -49l-108 -51l-100 97l10 -104l-48 33l73 -189l193 38l-128 -224l22 -51l48 24l67 220l-26 -218l46 -36
l36 41l-25 215l63 -209l57 -9l16 43l-129 206l193 -22l51 211l-48 -29l-9 78l-65 -109l-127 53l23 54z" />
    <glyph glyph-name="onehalf" unicode="&#xbd;" 
d="M47 300q0 154 109.5 263.5t263.5 109.5t263.5 -109.5t109.5 -263.5t-109.5 -263.5t-263.5 -109.5t-263.5 109.5t-109.5 263.5zM507 578l-103 33l-106 -73l82 -13l2 -49l-108 -51l-100 97l10 -104l-48 33l73 -189l193 38l-128 -224l22 -51l48 24l67 220l-26 -218l46 -36
l36 41l-25 215l63 -209l57 -9l16 43l-129 206l193 -22l51 211l-48 -29l-9 78l-65 -109l-127 53l23 54z" />
    <glyph glyph-name="threequarters" unicode="&#xbe;" 
d="M47 300q0 154 109.5 263.5t263.5 109.5t263.5 -109.5t109.5 -263.5t-109.5 -263.5t-263.5 -109.5t-263.5 109.5t-109.5 263.5zM507 578l-103 33l-106 -73l82 -13l2 -49l-108 -51l-100 97l10 -104l-48 33l73 -189l193 38l-128 -224l22 -51l48 24l67 220l-26 -218l46 -36
l36 41l-25 215l63 -209l57 -9l16 43l-129 206l193 -22l51 211l-48 -29l-9 78l-65 -109l-127 53l23 54z" />
    <glyph glyph-name="questiondown" unicode="&#xbf;" horiz-adv-x="555" 
d="M172 469h174q7 0 7.5 -1t1.5 -9q5 -75 -63 -157q-37 -45 -37 -82q0 -48 48 -48t62 65q2 9 4 10t11 -3q50 -21 162 -74q5 -4 2 -13q-32 -88 -93 -130q-65 -44 -173 -44q-114 0 -185 51q-77 55 -77 150q0 93 76 154q80 64 73 120q-1 11 7 11zM145 518v149q0 9 1 10t9 1h212
q10 0 11 -1t1 -10v-149q0 -10 -1 -11t-11 -1h-212q-9 0 -10 2v10z" />
    <glyph glyph-name="Agrave" unicode="&#xc0;" horiz-adv-x="753" 
d="M372 716q-62 24 -207 82q-12 15 -8 16q45 21 143 69q6 3 9 -2q34 -46 113 -155q1 -2 -14.5 -6.5t-27.5 -4.5q-5 0 -8 1zM479 84h-233q-10 -25 -32 -73q-6 -11 -20 -11h-205q-12 0 -4 14q135 252 363 676q1 2 24 2q22 0 23 -2q124 -228 371 -676q6 -10 5 -12t-9 -2h-235
q-9 0 -14 8q-11 26 -34 76zM303 232h121q-13 30 -44 102q-9 19 -16 40q-4 -9 -16 -40q-17 -40 -45 -102z" />
    <glyph glyph-name="Aacute" unicode="&#xc1;" horiz-adv-x="753" 
d="M573 798q-62 -25 -207 -82q-3 -1 -8 -1q-12 0 -27.5 4.5t-14.5 6.5l113 155q3 5 9 2q50 -23 143 -69q4 -1 -8 -16zM479 84h-233q-10 -25 -32 -73q-6 -11 -20 -11h-205q-12 0 -4 14q135 252 363 676q1 2 24 2q22 0 23 -2q124 -228 371 -676q6 -10 5 -12t-9 -2h-235
q-9 0 -14 8q-11 26 -34 76zM303 232h121q-13 30 -44 102q-9 19 -16 40q-4 -9 -16 -40q-17 -40 -45 -102z" />
    <glyph glyph-name="Acircumflex" unicode="&#xc2;" horiz-adv-x="753" 
d="M170 707q10 8 96.5 69t95.5 67t11 6l10 -6t93.5 -65.5t93.5 -67.5t10 -9q0 -3 -12 -3h-119q-11 0 -17 4q-21 10 -61 33q-18 -10 -60 -33q-5 -4 -16 -4h-125q-7 0 -7 3t7 6zM479 84h-233q-10 -25 -32 -73q-6 -11 -20 -11h-205q-12 0 -4 14q135 252 363 676q1 2 24 2
q22 0 23 -2q124 -228 371 -676q6 -10 5 -12t-9 -2h-235q-9 0 -14 8q-11 26 -34 76zM303 232h121q-13 30 -44 102q-9 19 -16 40q-4 -9 -16 -40q-17 -40 -45 -102z" />
    <glyph glyph-name="Atilde" unicode="&#xc3;" horiz-adv-x="753" 
d="M204 714q-4 -4 -12 -1q-8 4 -8 11q1 63 39.5 100t95.5 37q41 0 81 -26.5t59 -26.5q39 0 86 34q3 2 6 2q16 0 13 -14q-5 -25 -35 -64q-43 -56 -98 -56q-40 0 -80 24.5t-67 24.5q-25 0 -46 -15q-5 -3 -34 -30zM479 84h-233q-10 -25 -32 -73q-6 -11 -20 -11h-205
q-12 0 -4 14q135 252 363 676q1 2 24 2q22 0 23 -2q124 -228 371 -676q6 -10 5 -12t-9 -2h-235q-9 0 -14 8q-11 26 -34 76zM303 232h121q-13 30 -44 102q-9 19 -16 40q-4 -9 -16 -40q-17 -40 -45 -102z" />
    <glyph glyph-name="Adieresis" unicode="&#xc4;" horiz-adv-x="753" 
d="M288 818v-133q0 -10 -7 -10h-177q-8 0 -8 13v130q0 11 7 11h177q8 0 8 -11zM650 818v-133q0 -10 -7 -10h-178q-7 0 -7 13v130q0 11 6 11h178q8 0 8 -11zM479 84h-233q-10 -25 -32 -73q-6 -11 -20 -11h-205q-12 0 -4 14q135 252 363 676q1 2 24 2q22 0 23 -2
q124 -228 371 -676q6 -10 5 -12t-9 -2h-235q-9 0 -14 8q-11 26 -34 76zM303 232h121q-13 30 -44 102q-9 19 -16 40q-4 -9 -16 -40q-17 -40 -45 -102z" />
    <glyph glyph-name="Aring" unicode="&#xc5;" horiz-adv-x="753" 
d="M-15 14q90 162 279 519q-59 46 -59 128q0 69 49 116.5t120 47.5q69 0 116.5 -48t47.5 -116q0 -80 -58 -128q97 -178 286 -519q6 -10 5 -12t-9 -2h-235q-9 0 -14 8q-11 26 -34 76h-233q-10 -25 -32 -73q-6 -11 -20 -11h-205q-12 0 -4 14zM371 707q-20 0 -33.5 -14
t-13.5 -34q0 -21 13.5 -34t34.5 -13t34.5 13t13.5 34q0 19 -14 33.5t-35 14.5zM303 232h121q-13 30 -44 102q-9 19 -16 40q-4 -9 -16 -40q-17 -40 -45 -102z" />
    <glyph glyph-name="AE" unicode="&#xc6;" horiz-adv-x="978" 
d="M395 690q49 -5 175 -7l365 -5q12 0 12 -14v-132q0 -14 -12 -14h-252v-88h245q12 0 12 -14v-152q0 -13 -12 -13h-245v-84h260q9 0 10.5 -1.5t1.5 -11.5v-140q0 -14 -12 -14h-474q-13 0 -13 14v70h-209q-10 -25 -33 -73q-6 -11 -20 -11h-205q-12 0 -4 14q173 310 363 676
q3 5 47 0zM304 232h152v316q-12 -27 -34 -75q-19 -40 -118 -241z" />
    <glyph glyph-name="Ccedilla" unicode="&#xc7;" horiz-adv-x="742" 
d="M729 202q-35 -80 -99 -136q-72 -64 -165 -82h5q17 -24 17 -49q0 -61 -36 -99q-39 -40 -108 -40q-98 0 -124 79q0 10 4 10l75 32l5 -2q10 -21 36 -21q52 0 52 53q0 15 -8 29h1q-158 3 -256.5 102.5t-98.5 257.5q0 155 101 257q103 106 267 106q123 0 212 -64
q78 -56 114 -149q7 -17 -5 -17l-195 -71q-9 0 -9 6q-35 66 -118 66q-63 0 -98 -37t-35 -98q0 -60 37 -96t99 -36q78 0 114 65q3 7 12 7l195 -60q9 0 9 -13z" />
    <glyph glyph-name="Egrave" unicode="&#xc8;" horiz-adv-x="642" 
d="M381 703q-62 25 -207 82q-12 16 -8 17q45 21 143 69q5 1 9 -3q34 -46 113 -155q2 -1 -14.5 -6t-27.5 -5q-5 0 -8 1zM593 0h-507q-12 0 -12 14v654q0 10 11 10h499q12 0 12 -14v-132q0 -14 -12 -14h-279v-88h272q12 0 12 -14v-152q0 -13 -12 -13h-272v-84h288
q8 0 9.5 -1.5t1.5 -11.5v-140q0 -14 -11 -14z" />
    <glyph glyph-name="Eacute" unicode="&#xc9;" horiz-adv-x="642" 
d="M530 780q-62 -25 -207 -82q-3 -1 -9 -1q-12 0 -27.5 4.5t-13.5 6.5q34 46 112 154q4 6 9 3q50 -23 143 -69q1 0 1 -2q0 -3 -8 -14zM593 0h-507q-12 0 -12 14v654q0 10 11 10h499q12 0 12 -14v-132q0 -14 -12 -14h-279v-88h272q12 0 12 -14v-152q0 -13 -12 -13h-272v-84
h288q8 0 9.5 -1.5t1.5 -11.5v-140q0 -14 -11 -14z" />
    <glyph glyph-name="Ecircumflex" unicode="&#xca;" horiz-adv-x="642" 
d="M126 713q91 65 192 137q10 5 11 5q-2 0 12 -6q8 -5 91 -65t95 -69q9 -4 9 -8q0 -3 -12 -3h-119q-11 0 -17 4q-21 11 -61 34l-60 -34q-4 -4 -15 -4h-126q-7 0 -7 3q0 4 7 6zM593 0h-507q-12 0 -12 14v654q0 10 11 10h499q12 0 12 -14v-132q0 -14 -12 -14h-279v-88h272
q12 0 12 -14v-152q0 -13 -12 -13h-272v-84h288q8 0 9.5 -1.5t1.5 -11.5v-140q0 -14 -11 -14z" />
    <glyph glyph-name="Edieresis" unicode="&#xcb;" horiz-adv-x="642" 
d="M308 820v-97q0 -10 -7 -10h-177q-8 0 -8 12v95q0 11 7 11h177q8 0 8 -11zM559 820v-97q0 -10 -7 -10h-178q-7 0 -7 12v95q0 11 7 11h177q8 0 8 -11zM593 0h-507q-12 0 -12 14v654q0 10 11 10h499q12 0 12 -14v-132q0 -14 -12 -14h-279v-88h272q12 0 12 -14v-152
q0 -13 -12 -13h-272v-84h288q8 0 9.5 -1.5t1.5 -11.5v-140q0 -14 -11 -14z" />
    <glyph glyph-name="Igrave" unicode="&#xcc;" horiz-adv-x="376" 
d="M221 713q-62 25 -207 81q-12 16 -8 17q45 21 143 69q6 3 9 -3l113 -154q2 -2 -13.5 -6.5t-27.5 -4.5q-6 0 -9 1zM307 669v-660q0 -9 -10 -9h-221q-10 0 -10 9v660q0 9 10 9h221q10 0 10 -9z" />
    <glyph glyph-name="Iacute" unicode="&#xcd;" horiz-adv-x="376" 
d="M390 793l-207 -82q-4 -1 -10 -1q-12 0 -27 4.5t-13 6.5l112 154q4 6 9 3q50 -23 143 -69q1 0 1 -2q0 -3 -8 -14zM307 669v-660q0 -9 -10 -9h-221q-10 0 -10 9v660q0 9 10 9h221q10 0 10 -9z" />
    <glyph glyph-name="Icircumflex" unicode="&#xce;" horiz-adv-x="376" 
d="M-14 723q91 65 192 137q10 5 11 5q-2 0 12 -6q9 -5 92.5 -65.5t93.5 -68.5q9 -4 9 -8q0 -3 -12 -3h-119q-11 0 -17 4q-21 11 -61 34l-60 -34q-4 -4 -15 -4h-126q-7 0 -7 3q0 4 7 6zM307 669v-660q0 -9 -10 -9h-221q-10 0 -10 9v660q0 9 10 9h221q10 0 10 -9z" />
    <glyph glyph-name="Idieresis" unicode="&#xcf;" horiz-adv-x="376" 
d="M155 820v-106q0 -10 -8 -10h-172q-7 0 -7 13v103q0 11 7 11h171q9 0 9 -11zM407 820v-106q0 -10 -7 -10h-173q-7 0 -7 13v103q0 11 6 11h173q8 0 8 -11zM307 669v-660q0 -9 -10 -9h-221q-10 0 -10 9v660q0 9 10 9h221q10 0 10 -9z" />
    <glyph glyph-name="Eth" unicode="&#xd0;" horiz-adv-x="745" 
d="M79 9v259h-54q-9 0 -9 10v122q0 9 9 9h54v259q0 10 10 10h288q338 0 338 -339t-363 -339h-263q-10 0 -10 9zM415 268h-118v-80h51q127 0 127 154q0 148 -125 148h-53v-81h118q10 0 10 -10v-122q0 -9 -10 -9z" />
    <glyph glyph-name="Ntilde" unicode="&#xd1;" horiz-adv-x="789" 
d="M238 711q-4 -5 -12 -1t-8 11q2 63 40.5 99.5t95.5 36.5q40 0 80 -26.5t60 -26.5q30 0 52 12q8 4 34 23q2 2 5 2q17 0 14 -15q-9 -30 -35 -64q-43 -56 -99 -56q-39 0 -79.5 24.5t-66.5 24.5q-25 0 -46 -14q-7 -5 -35 -30zM74 10q-3 266 0 678q0 13 11 6q146 -92 425 -281
v253q0 12 9 12h191q11 0 11 -12q3 -356 0 -671q0 -14 -4 -14q-3 0 -9 4q-158 96 -424 278v-254q0 -9 -10 -9h-189q-11 0 -11 10z" />
    <glyph glyph-name="Ograve" unicode="&#xd2;" horiz-adv-x="793" 
d="M399 716q-52 20 -207 82q-12 15 -8 16q45 21 143 69q6 3 9 -2q34 -46 113 -155q2 -2 -13.5 -6.5t-27.5 -4.5q-6 0 -9 1zM394 699q150 0 255 -97q112 -104 112 -265q0 -155 -111 -260q-107 -101 -256 -101q-159 0 -263 104t-104 258q0 158 109 261q105 100 258 100z
M394 464q-58 0 -92.5 -35t-34.5 -90q0 -61 35 -96t92 -35q55 0 91 35.5t36 95.5q0 58 -34.5 91.5t-92.5 33.5z" />
    <glyph glyph-name="Oacute" unicode="&#xd3;" horiz-adv-x="793" 
d="M575 798q-61 -25 -207 -82q-3 -1 -9 -1q-12 0 -27.5 4.5t-13.5 6.5l113 155q3 5 9 2q50 -23 143 -69q4 -1 -8 -16zM394 699q150 0 255 -97q112 -104 112 -265q0 -155 -111 -260q-107 -101 -256 -101q-159 0 -263 104t-104 258q0 158 109 261q105 100 258 100zM394 464
q-58 0 -92.5 -35t-34.5 -90q0 -61 35 -96t92 -35q55 0 91 35.5t36 95.5q0 58 -34.5 91.5t-92.5 33.5z" />
    <glyph glyph-name="Ocircumflex" unicode="&#xd4;" horiz-adv-x="793" 
d="M195 729q161 116 192 136q12 6 11 6q1 0 11.5 -6.5t94 -66t92.5 -66.5t9 -9q0 -3 -12 -3h-119q-11 0 -17 3q-22 11 -61 34l-60 -34q-5 -3 -15 -3h-126q-7 0 -7 3q1 2 7 6zM394 699q150 0 255 -97q112 -104 112 -265q0 -155 -111 -260q-107 -101 -256 -101
q-159 0 -263 104t-104 258q0 158 109 261q105 100 258 100zM394 464q-58 0 -92.5 -35t-34.5 -90q0 -61 35 -96t92 -35q55 0 91 35.5t36 95.5q0 58 -34.5 91.5t-92.5 33.5z" />
    <glyph glyph-name="Otilde" unicode="&#xd5;" horiz-adv-x="793" 
d="M242 720q-5 -5 -12 -1q-8 4 -8 11q1 63 41 100q37 36 94 36q41 0 81 -26.5t59 -26.5q30 0 53 12q4 3 33 23q2 2 6 2q15 0 14 -15q-9 -29 -35 -64q-44 -56 -99 -56q-40 0 -80 24.5t-66 24.5q-35 0 -81 -44zM394 699q150 0 255 -97q112 -104 112 -265q0 -155 -111 -260
q-107 -101 -256 -101q-159 0 -263 104t-104 258q0 158 109 261q105 100 258 100zM394 464q-58 0 -92.5 -35t-34.5 -90q0 -61 35 -96t92 -35q55 0 91 35.5t36 95.5q0 58 -34.5 91.5t-92.5 33.5z" />
    <glyph glyph-name="Odieresis" unicode="&#xd6;" horiz-adv-x="793" 
d="M283 820v-104q0 -10 -8 -10h-177q-7 0 -7 13v101q0 11 6 11h177q9 0 9 -11zM702 820v-104q0 -10 -8 -10h-177q-7 0 -7 13v101q0 11 6 11h177q9 0 9 -11zM394 699q150 0 255 -97q112 -104 112 -265q0 -155 -111 -260q-107 -101 -256 -101q-159 0 -263 104t-104 258
q0 158 109 261q105 100 258 100zM394 464q-58 0 -92.5 -35t-34.5 -90q0 -61 35 -96t92 -35q55 0 91 35.5t36 95.5q0 58 -34.5 91.5t-92.5 33.5z" />
    <glyph glyph-name="multiply" unicode="&#xd7;" 
d="M47 300q0 154 109.5 263.5t263.5 109.5t263.5 -109.5t109.5 -263.5t-109.5 -263.5t-263.5 -109.5t-263.5 109.5t-109.5 263.5zM507 578l-103 33l-106 -73l82 -13l2 -49l-108 -51l-100 97l10 -104l-48 33l73 -189l193 38l-128 -224l22 -51l48 24l67 220l-26 -218l46 -36
l36 41l-25 215l63 -209l57 -9l16 43l-129 206l193 -22l51 211l-48 -29l-9 78l-65 -109l-127 53l23 54z" />
    <glyph glyph-name="Oslash" unicode="&#xd8;" horiz-adv-x="793" 
d="M682 568q79 -101 79 -231q0 -156 -109 -260q-105 -101 -255 -101q-145 0 -249 88q-27 -26 -76 -75q-6 -6 -13 4l-26 34q-5 7 1 13q35 33 72 66q-79 100 -79 232q0 161 111 263q106 98 258 98q140 0 244 -89q14 14 41 40t36 35q6 6 12 -1.5t27 -36.5q6 -6 -1 -13
q-24 -21 -73 -66zM508 408l-195 -183q34 -25 80 -25q59 0 94.5 38t35.5 99q0 38 -15 71zM280 268q117 103 194 182q-29 22 -81 22q-59 0 -94 -35.5t-35 -99.5q0 -37 16 -69z" />
    <glyph glyph-name="Ugrave" unicode="&#xd9;" horiz-adv-x="769" 
d="M399 716q-52 20 -207 82q-12 15 -8 16q45 21 143 69q6 3 9 -2q34 -46 113 -155q2 -2 -13.5 -6.5t-27.5 -4.5q-6 0 -9 1zM64 249v423q0 6 5 6h233q7 0 7 -8v-387q0 -96 84 -96t84 96v388q0 7 7 7h217q5 0 5 -7v-432q0 -123 -83 -192q-87 -72 -246 -72q-144 0 -230 79
q-83 76 -83 195z" />
    <glyph glyph-name="Uacute" unicode="&#xda;" horiz-adv-x="769" 
d="M597 798q-61 -25 -207 -82q-3 -1 -9 -1q-12 0 -27.5 4.5t-13.5 6.5q8 11 113 155q3 5 9 2q50 -23 142 -69q1 0 1 -2q0 -3 -8 -14zM64 249v423q0 6 5 6h233q7 0 7 -8v-387q0 -96 84 -96t84 96v388q0 7 7 7h217q5 0 5 -7v-432q0 -123 -83 -192q-87 -72 -246 -72
q-144 0 -230 79q-83 76 -83 195z" />
    <glyph glyph-name="Ucircumflex" unicode="&#xdb;" horiz-adv-x="769" 
d="M188 723q91 65 192 137q10 5 11 5q-2 0 12 -6q8 -5 91.5 -65.5t94.5 -68.5q9 -4 9 -8q0 -3 -12 -3h-119q-11 0 -17 4q-21 11 -61 34l-60 -34q-5 -4 -15 -4h-126q-7 0 -7 3q0 4 7 6zM64 249v423q0 6 5 6h233q7 0 7 -8v-387q0 -96 84 -96t84 96v388q0 7 7 7h217q5 0 5 -7
v-432q0 -123 -83 -192q-87 -72 -246 -72q-144 0 -230 79q-83 76 -83 195z" />
    <glyph glyph-name="Udieresis" unicode="&#xdc;" horiz-adv-x="769" 
d="M332 820v-101q0 -10 -8 -10h-177q-7 0 -7 13v98q0 11 6 11h177q9 0 9 -11zM641 820v-101q0 -10 -7 -10h-177q-7 0 -7 13v98q0 11 6 11h177q8 0 8 -11zM64 249v423q0 6 5 6h233q7 0 7 -8v-387q0 -96 84 -96t84 96v388q0 7 7 7h217q5 0 5 -7v-432q0 -123 -83 -192
q-87 -72 -246 -72q-144 0 -230 79q-83 76 -83 195z" />
    <glyph glyph-name="Yacute" unicode="&#xdd;" horiz-adv-x="736" 
d="M539 785q-57 -28 -189 -91q-3 -1 -8 -1q-10 0 -24.5 5t-13.5 8q31 51 103 171q3 6 8 3q46 -26 130 -76q1 -1 1 -2q0 -5 -7 -17zM729 665q-89 -181 -225 -449v-203q0 -14 -11 -14h-222q-7 0 -7 14v185q-79 136 -265 466q-5 10 -4 12t10 2h252q10 0 17 -16q34 -78 111 -245
q33 83 96 251q4 10 15 10h227q10 0 10 -2q1 -1 -4 -11z" />
    <glyph glyph-name="Thorn" unicode="&#xde;" horiz-adv-x="716" 
d="M303 618h110q119 0 190.5 -72t71.5 -188q0 -228 -249 -253q-30 -3 -123 -4v-92q0 -9 -10 -9h-213q-10 0 -10 9v660q0 9 10 9h213q10 0 10 -9v-51zM349 442h-46v-165h48q88 0 88 82q0 83 -90 83z" />
    <glyph glyph-name="germandbls" unicode="&#xdf;" horiz-adv-x="633" 
d="M334 557q-49 0 -49 -75v-468q0 -14 -11 -14h-193q-8 0 -8 13v480q0 97 61 157q64 64 178 64q117 0 180.5 -50t63.5 -141q0 -138 -109 -150q60 -5 102 -51q47 -54 47 -145q0 -96 -68 -148q-57 -42 -135 -42q-35 0 -67 11q-12 4 -10 18v110q1 11 11 8q13 -4 32 -4
q50 0 50 77q0 42 -24 65t-62 23q-7 0 -7 6v120q0 7 7 7q62 1 62 65t-51 64z" />
    <glyph glyph-name="agrave" unicode="&#xe0;" horiz-adv-x="650" 
d="M330 540q-82 38 -189 91q-7 12 -7 17q0 1 1 2q41 23 129 76q5 3 9 -3l102 -171q2 -3 -12.5 -8t-24.5 -5q-5 0 -8 1zM416 13v41q-56 -69 -150 -69q-107 0 -171 67q-70 72 -70 201q0 120 65.5 193.5t171.5 73.5q101 0 141 -68v41q0 12 9 12h176q7 0 7 -12v-479
q0 -14 -8 -14h-156q-15 0 -15 13zM310 330q-36 0 -58 -22t-22 -58q0 -38 22 -60t58 -22q77 0 77 82q0 36 -21 58t-56 22z" />
    <glyph glyph-name="aacute" unicode="&#xe1;" horiz-adv-x="650" 
d="M492 631q-57 -28 -189 -91q-3 -1 -8 -1q-11 0 -25.5 5t-12.5 8l103 171q3 6 8 3q46 -26 130 -76q1 -1 1 -2q0 -5 -7 -17zM416 13v41q-56 -69 -150 -69q-107 0 -171 67q-70 72 -70 201q0 120 65.5 193.5t171.5 73.5q101 0 141 -68v41q0 12 9 12h176q7 0 7 -12v-479
q0 -14 -8 -14h-156q-15 0 -15 13zM310 330q-36 0 -58 -22t-22 -58q0 -38 22 -60t58 -22q77 0 77 82q0 36 -21 58t-56 22z" />
    <glyph glyph-name="acircumflex" unicode="&#xe2;" horiz-adv-x="650" 
d="M150 561q101 93 166 151q12 6 10 6q1 0 10 -7q75 -69 162 -148q8 -7 8 -10t-10 -3h-103q-11 0 -69 37q-54 -37 -65 -37h-109q-6 0 -6 3q0 4 6 8zM416 13v41q-56 -69 -150 -69q-107 0 -171 67q-70 72 -70 201q0 120 65.5 193.5t171.5 73.5q101 0 141 -68v41q0 12 9 12h176
q7 0 7 -12v-479q0 -14 -8 -14h-156q-15 0 -15 13zM310 330q-36 0 -58 -22t-22 -58q0 -38 22 -60t58 -22q77 0 77 82q0 36 -21 58t-56 22z" />
    <glyph glyph-name="atilde" unicode="&#xe3;" horiz-adv-x="650" 
d="M179 545q-4 -4 -11 0q-8 3 -8 11q2 66 38.5 105t90.5 39q38 0 76.5 -28t57.5 -28q37 0 81 37q2 1 5 1q16 0 14 -15q-8 -31 -34 -67q-42 -59 -94 -59q-37 0 -75 26t-64 26q-24 0 -44 -16q-3 -2 -33 -32zM416 13v41q-56 -69 -150 -69q-107 0 -171 67q-70 72 -70 201
q0 120 65.5 193.5t171.5 73.5q101 0 141 -68v41q0 12 9 12h176q7 0 7 -12v-479q0 -14 -8 -14h-156q-15 0 -15 13zM310 330q-36 0 -58 -22t-22 -58q0 -38 22 -60t58 -22q77 0 77 82q0 36 -21 58t-56 22z" />
    <glyph glyph-name="adieresis" unicode="&#xe4;" horiz-adv-x="650" 
d="M295 673v-116q0 -10 -7 -10h-177q-7 0 -7 13v113q0 11 6 11h177q8 0 8 -11zM546 673v-116q0 -10 -7 -10h-177q-8 0 -8 13v113q0 11 7 11h177q8 0 8 -11zM416 13v41q-56 -69 -150 -69q-107 0 -171 67q-70 72 -70 201q0 120 65.5 193.5t171.5 73.5q101 0 141 -68v41
q0 12 9 12h176q7 0 7 -12v-479q0 -14 -8 -14h-156q-15 0 -15 13zM310 330q-36 0 -58 -22t-22 -58q0 -38 22 -60t58 -22q77 0 77 82q0 36 -21 58t-56 22z" />
    <glyph glyph-name="aring" unicode="&#xe5;" horiz-adv-x="650" 
d="M327 781q56 0 90.5 -34.5t34.5 -89.5t-34.5 -89.5t-89.5 -34.5q-56 0 -92 34.5t-36 89.5t35.5 89.5t91.5 34.5zM416 13v41q-56 -69 -150 -69q-107 0 -171 67q-70 72 -70 201q0 120 65.5 193.5t171.5 73.5q101 0 141 -68v41q0 12 9 12h176q7 0 7 -12v-479q0 -14 -8 -14
h-156q-15 0 -15 13zM310 330q-36 0 -58 -22t-22 -58q0 -38 22 -60t58 -22q77 0 77 82q0 36 -21 58t-56 22zM324 700q-42 0 -42 -43q0 -44 42 -44q43 0 43 44q0 43 -43 43z" />
    <glyph glyph-name="ae" unicode="&#xe6;" horiz-adv-x="927" 
d="M651 -18q-142 0 -190 75q-48 -75 -195 -75q-106 0 -171 69q-70 73 -70 202q0 120 65.5 193.5t171.5 73.5q101 0 131 -46v19q0 12 9 12h127q8 0 8 -8v-21q36 45 126 45q105 0 175 -67.5t70 -174.5q0 -40 -5 -75q-2 -11 -21 -11h-310q2 -28 25 -48t61 -20q50 0 90 31
q6 6 15 -5q39 -61 63 -98q9 -14 -5 -23q-71 -48 -170 -48zM572 294h167q1 33 -23.5 57.5t-62.5 24.5q-37 0 -58.5 -23.5t-22.5 -58.5zM312 334q-40 0 -64 -22.5t-24 -63.5q0 -85 88 -85q81 0 81 85q0 86 -81 86z" />
    <glyph glyph-name="ccedilla" unicode="&#xe7;" horiz-adv-x="559" 
d="M255 -20q-104 12 -166 80q-64 72 -64 187q0 120 73.5 199t194.5 79q89 0 153 -39q67 -42 93 -121q3 -10 -6 -15l-152 -66q-5 -1 -8 6q-23 42 -73 42q-33 0 -54.5 -24.5t-21.5 -60.5q0 -34 20 -58.5t56 -24.5q49 0 73 45q5 9 15 5l147 -61q13 -5 8 -18q-61 -124 -173 -150
q37 -28 37 -70q0 -61 -36 -99q-39 -40 -108 -40q-98 0 -124 79q-1 8 4 10l75 32q2 1 3 -0.5t2 -1.5q10 -21 36 -21q52 0 52 53q0 19 -13 35q-16 18 -43 18z" />
    <glyph glyph-name="egrave" unicode="&#xe8;" horiz-adv-x="562" 
d="M323 540q-82 38 -189 91q-11 17 -7 19q41 23 130 76q5 3 7.5 -1.5t103.5 -172.5q2 -3 -12.5 -8t-25.5 -5q-4 0 -7 1zM301 525q106 0 175.5 -66t69.5 -172q0 -47 -4 -74q-2 -12 -21 -12h-301q2 -23 23 -39t54 -16q50 0 84 22q5 5 13 -4q37 -56 76 -120q8 -13 -6 -23
q-67 -45 -165 -45q-124 0 -199 75t-75 202q0 122 76 197t200 75zM220 300h150q-5 56 -77 56q-64 0 -73 -56z" />
    <glyph glyph-name="eacute" unicode="&#xe9;" horiz-adv-x="562" 
d="M461 631q-57 -28 -189 -91q-3 -1 -8 -1q-11 0 -25.5 5t-12.5 8l103 171q3 6 8 3q46 -26 130 -76q1 -1 1 -2q0 -5 -7 -17zM301 525q106 0 175.5 -66t69.5 -172q0 -47 -4 -74q-2 -12 -21 -12h-301q2 -23 23 -39t54 -16q50 0 84 22q5 5 13 -4q37 -56 76 -120q8 -13 -6 -23
q-67 -45 -165 -45q-124 0 -199 75t-75 202q0 122 76 197t200 75zM220 300h150q-5 56 -77 56q-64 0 -73 -56z" />
    <glyph glyph-name="ecircumflex" unicode="&#xea;" horiz-adv-x="562" 
d="M117 561q134 126 167 151q8 6 10 6q1 0 9.5 -6.5t81 -73.5t81 -75t8.5 -10q0 -3 -10 -3h-104q-11 0 -68 37q-55 -37 -66 -37h-109q-6 0 -6 3q0 2 6 8zM301 525q106 0 175.5 -66t69.5 -172q0 -47 -4 -74q-2 -12 -21 -12h-301q2 -23 23 -39t54 -16q50 0 84 22q5 5 13 -4
q37 -56 76 -120q8 -13 -6 -23q-67 -45 -165 -45q-124 0 -199 75t-75 202q0 122 76 197t200 75zM220 300h150q-5 56 -77 56q-64 0 -73 -56z" />
    <glyph glyph-name="edieresis" unicode="&#xeb;" horiz-adv-x="562" 
d="M262 673v-116q0 -10 -8 -10h-177q-7 0 -7 13v113q0 11 6 11h178q8 0 8 -11zM513 673v-116q0 -10 -8 -10h-177q-7 0 -7 13v113q0 11 6 11h177q9 0 9 -11zM301 525q106 0 175.5 -66t69.5 -172q0 -47 -4 -74q-2 -12 -21 -12h-301q2 -23 23 -39t54 -16q50 0 84 22q5 5 13 -4
q37 -56 76 -120q8 -13 -6 -23q-67 -45 -165 -45q-124 0 -199 75t-75 202q0 122 76 197t200 75zM220 300h150q-5 56 -77 56q-64 0 -73 -56z" />
    <glyph glyph-name="igrave" unicode="&#xec;" horiz-adv-x="343" 
d="M195 540q-48 23 -189 91q-7 12 -7 17q0 1 1 2q41 23 130 76q5 3 7.5 -1.5t103.5 -172.5q2 -3 -12.5 -8t-25.5 -5q-5 0 -8 1zM283 493v-482q0 -11 -9 -11h-206q-8 0 -8 14v479q0 12 7 12h207q9 0 9 -12z" />
    <glyph glyph-name="iacute" unicode="&#xed;" horiz-adv-x="343" 
d="M348 631q-107 -53 -189 -91q-3 -1 -8 -1q-10 0 -24.5 5t-12.5 8q30 51 102 171q4 7 8 3q46 -26 130 -76q1 -1 1 -2q0 -5 -7 -17zM283 493v-482q0 -11 -9 -11h-206q-8 0 -8 14v479q0 12 7 12h207q9 0 9 -12z" />
    <glyph glyph-name="icircumflex" unicode="&#xee;" horiz-adv-x="343" 
d="M-5 561q53 49 167 151q9 6 10 6t9.5 -6.5t81 -73.5t81 -75t8.5 -10q0 -3 -10 -3h-104q-11 0 -68 37q-55 -37 -66 -37h-109q-6 0 -6 3q0 2 6 8zM283 493v-482q0 -11 -9 -11h-206q-8 0 -8 14v479q0 12 7 12h207q9 0 9 -12z" />
    <glyph glyph-name="idieresis" unicode="&#xef;" horiz-adv-x="343" 
d="M141 670v-117q0 -10 -7 -10h-169q-7 0 -7 13v114q0 11 7 11h168q8 0 8 -11zM383 670v-117q0 -10 -8 -10h-168q-7 0 -7 13v114q0 11 6 11h168q9 0 9 -11zM283 493v-482q0 -11 -9 -11h-206q-8 0 -8 14v479q0 12 7 12h207q9 0 9 -12z" />
    <glyph glyph-name="eth" unicode="&#xf0;" horiz-adv-x="608" 
d="M596 531l-102 -68q6 -9 31 -47q58 -88 58 -174q0 -120 -75.5 -192.5t-199.5 -72.5q-127 0 -205 72t-78 193q0 98 65 166q62 64 158 78q-27 38 -75 106q-8 12 2 19q60 43 139 97q10 6 18 -4q31 -44 80 -118q72 47 102 68q8 6 15 -3q31 -48 72 -107q0 -10 -5 -13zM302 320
q-34 0 -57 -22t-23 -53q0 -29 24 -51.5t56 -22.5q33 0 55 20.5t22 53.5q0 32 -22 53.5t-55 21.5z" />
    <glyph glyph-name="ntilde" unicode="&#xf1;" horiz-adv-x="663" 
d="M188 550q-4 -5 -11 -1q-8 4 -8 12q2 66 39 106q36 37 90 37q38 0 76.5 -27.5t57.5 -27.5q37 0 81 36q3 2 6 2q15 0 13 -15q-9 -31 -34 -68q-42 -59 -94 -59q-37 0 -75 26t-64 26q-24 0 -44 -15q-5 -4 -33 -32zM388 300q0 56 -55 56q-33 0 -53 -38v-307q0 -11 -8 -11h-204
q-8 0 -8 14v479q0 12 7 12h200q9 0 9 -12v-43q44 75 174 75q158 0 158 -165v-345q0 -15 -11 -15h-199q-10 0 -10 11v289z" />
    <glyph glyph-name="ograve" unicode="&#xf2;" horiz-adv-x="608" 
d="M341 540q-69 32 -189 91q-11 17 -7 19q41 23 130 76q5 3 9 -3q26 -45 102 -171q2 -3 -12.5 -8t-24.5 -5q-5 0 -8 1zM307 525q123 0 199.5 -76t76.5 -197t-76.5 -198t-198.5 -77q-125 0 -204 76.5t-79 198.5q0 121 78.5 197t203.5 76zM302 330q-36 0 -58 -21t-22 -57
q0 -81 80 -81q77 0 77 81q0 35 -21 56.5t-56 21.5z" />
    <glyph glyph-name="oacute" unicode="&#xf3;" horiz-adv-x="608" 
d="M466 631q-56 -28 -189 -91q-3 -1 -8 -1q-10 0 -24.5 5t-12.5 8q31 51 102 171q4 6 9 3q16 -10 130 -76q4 -2 -7 -19zM307 525q123 0 199.5 -76t76.5 -197t-76.5 -198t-198.5 -77q-125 0 -204 76.5t-79 198.5q0 121 78.5 197t203.5 76zM302 330q-36 0 -58 -21t-22 -57
q0 -81 80 -81q77 0 77 81q0 35 -21 56.5t-56 21.5z" />
    <glyph glyph-name="ocircumflex" unicode="&#xf4;" horiz-adv-x="608" 
d="M133 561q31 31 166 151q12 6 10 6q1 0 10 -7q28 -23 162 -148q8 -8 8 -10q0 -3 -10 -3h-104q-10 0 -68 37q-54 -37 -65 -37h-109q-7 0 -7 3t7 8zM307 525q123 0 199.5 -76t76.5 -197t-76.5 -198t-198.5 -77q-125 0 -204 76.5t-79 198.5q0 121 78.5 197t203.5 76zM302 330
q-36 0 -58 -21t-22 -57q0 -81 80 -81q77 0 77 81q0 35 -21 56.5t-56 21.5z" />
    <glyph glyph-name="otilde" unicode="&#xf5;" horiz-adv-x="608" 
d="M151 545q-5 -4 -12 0q-7 3 -7 11q2 66 38.5 105t90.5 39q38 0 76.5 -28t56.5 -28q38 0 82 37q2 1 5 1q16 0 13 -15q-5 -27 -33 -67q-41 -59 -94 -59q-37 0 -75 26t-64 26q-24 0 -44 -16q-3 -2 -33 -32zM307 525q123 0 199.5 -76t76.5 -197t-76.5 -198t-198.5 -77
q-125 0 -204 76.5t-79 198.5q0 121 78.5 197t203.5 76zM302 330q-36 0 -58 -21t-22 -57q0 -81 80 -81q77 0 77 81q0 35 -21 56.5t-56 21.5z" />
    <glyph glyph-name="odieresis" unicode="&#xf6;" horiz-adv-x="608" 
d="M277 673v-116q0 -10 -7 -10h-177q-8 0 -8 13v113q0 11 7 11h177q8 0 8 -11zM528 673v-116q0 -10 -7 -10h-177q-8 0 -8 13v113q0 11 7 11h177q8 0 8 -11zM307 525q123 0 199.5 -76t76.5 -197t-76.5 -198t-198.5 -77q-125 0 -204 76.5t-79 198.5q0 121 78.5 197t203.5 76z
M302 330q-36 0 -58 -21t-22 -57q0 -81 80 -81q77 0 77 81q0 35 -21 56.5t-56 21.5z" />
    <glyph glyph-name="divide" unicode="&#xf7;" 
d="M47 300q0 154 109.5 263.5t263.5 109.5t263.5 -109.5t109.5 -263.5t-109.5 -263.5t-263.5 -109.5t-263.5 109.5t-109.5 263.5zM507 578l-103 33l-106 -73l82 -13l2 -49l-108 -51l-100 97l10 -104l-48 33l73 -189l193 38l-128 -224l22 -51l48 24l67 220l-26 -218l46 -36
l36 41l-25 215l63 -209l57 -9l16 43l-129 206l193 -22l51 211l-48 -29l-9 78l-65 -109l-127 53l23 54z" />
    <glyph glyph-name="oslash" unicode="&#xf8;" horiz-adv-x="608" 
d="M526 427q57 -71 57 -175q0 -121 -76.5 -198t-198.5 -77q-112 0 -189 63q-18 -17 -50 -48q-6 -5 -13 4t-22 29q-7 7 1 12q18 18 45 42q-55 72 -55 173q0 121 78.5 197t203.5 76q110 0 181 -60l49 49q6 6 13 -3t23 -29q4 -6 -1 -13q-28 -24 -46 -42zM379 293
q-8 -8 -127 -120q22 -10 50 -10q84 0 84 89q0 26 -7 41zM222 207l126 120q-19 11 -46 11q-41 0 -64.5 -23t-23.5 -63q0 -30 8 -45z" />
    <glyph glyph-name="ugrave" unicode="&#xf9;" horiz-adv-x="663" 
d="M357 540q-48 23 -189 91q-7 12 -7 17q0 1 1 2q41 24 130 76q4 4 8 -3q39 -66 103 -171q1 -3 -13.5 -8t-24.5 -5q-5 0 -8 1zM274 218q0 -69 54 -69q33 0 55 35v310q0 11 8 11h203q9 0 9 -13v-479q0 -13 -8 -13h-200q-9 0 -9 13v42q-42 -75 -166 -75q-165 0 -165 180v331
q0 14 10 14h199q10 0 10 -11v-276z" />
    <glyph glyph-name="uacute" unicode="&#xfa;" horiz-adv-x="663" 
d="M517 631q-107 -53 -189 -91q-3 -1 -8 -1q-10 0 -24.5 5t-12.5 8q30 51 102 171q4 6 9 3q45 -26 129 -76q1 -1 1 -2q0 -5 -7 -17zM274 218q0 -69 54 -69q33 0 55 35v310q0 11 8 11h203q9 0 9 -13v-479q0 -13 -8 -13h-200q-9 0 -9 13v42q-42 -75 -166 -75q-165 0 -165 180
v331q0 14 10 14h199q10 0 10 -11v-276z" />
    <glyph glyph-name="ucircumflex" unicode="&#xfb;" horiz-adv-x="663" 
d="M146 561q53 49 167 151q9 6 10 6t9.5 -6.5t81 -73.5t81 -75t8.5 -10q0 -3 -10 -3h-104q-11 0 -68 37q-55 -37 -66 -37h-109q-6 0 -6 3q0 2 6 8zM274 218q0 -69 54 -69q33 0 55 35v310q0 11 8 11h203q9 0 9 -13v-479q0 -13 -8 -13h-200q-9 0 -9 13v42q-42 -75 -166 -75
q-165 0 -165 180v331q0 14 10 14h199q10 0 10 -11v-276z" />
    <glyph glyph-name="udieresis" unicode="&#xfc;" horiz-adv-x="663" 
d="M299 673v-116q0 -10 -7 -10h-177q-8 0 -8 13v113q0 11 7 11h177q8 0 8 -11zM550 673v-116q0 -10 -7 -10h-178q-7 0 -7 13v113q0 11 6 11h178q8 0 8 -11zM274 218q0 -69 54 -69q33 0 55 35v310q0 11 8 11h203q9 0 9 -13v-479q0 -13 -8 -13h-200q-9 0 -9 13v42
q-42 -75 -166 -75q-165 0 -165 180v331q0 14 10 14h199q10 0 10 -11v-276z" />
    <glyph glyph-name="yacute" unicode="&#xfd;" horiz-adv-x="562" 
d="M439 623q-57 -28 -189 -91q-3 -1 -8 -1q-10 0 -24.5 5t-13.5 8q31 51 103 171q3 6 8 3q46 -26 130 -76q1 -1 1 -2q0 -5 -7 -17zM118 -98q23 57 69 163l-202 426q-7 14 5 14h230q11 0 14 -11q18 -48 57 -159l52 159q4 11 12 11h218q10 0 11 -2t-3 -12l-262 -594
q-4 -7 -13 -7h-178q-15 0 -10 12z" />
    <glyph glyph-name="thorn" unicode="&#xfe;" horiz-adv-x="667" 
d="M278 35v-188q0 -13 -8 -13h-201q-8 0 -8 14v818q0 12 7 12h192q9 0 9 -12v-202q14 23 52 38.5t81 15.5q107 0 170 -76q59 -73 59 -190q0 -119 -63.5 -190.5t-166.5 -71.5q-84 0 -123 45zM348 330q-36 0 -58 -21t-22 -57q0 -81 80 -81q77 0 77 81q0 35 -21 56.5t-56 21.5z
" />
    <glyph glyph-name="ydieresis" unicode="&#xff;" horiz-adv-x="562" 
d="M259 673v-127q0 -10 -7 -10h-177q-8 0 -8 13v124q0 11 7 11h177q8 0 8 -11zM510 673v-127q0 -10 -7 -10h-178q-7 0 -7 13v124q0 11 6 11h178q8 0 8 -11zM118 -98q23 57 69 163l-202 426q-7 14 5 14h230q11 0 14 -11q18 -48 57 -159l52 159q4 11 12 11h218q10 0 11 -2
t-3 -12l-262 -594q-4 -7 -13 -7h-178q-15 0 -10 12z" />
    <glyph glyph-name="dotlessi" unicode="&#x131;" horiz-adv-x="343" 
d="M283 493v-482q0 -11 -9 -11h-206q-8 0 -8 14v479q0 12 7 12h207q9 0 9 -12z" />
    <glyph glyph-name="Lslash" unicode="&#x141;" horiz-adv-x="571" 
d="M498 373q-51 -24 -196 -94q0 -51 1 -93h244q7 0 9 -2.5t2 -7.5v-167q0 -9 -10 -9h-468q-10 0 -10 9v156q-9 -7 -28 -12q-13 -9 -19 0q-21 34 -39 89q-3 10 37 29q25 11 49 22v376q0 9 10 9h213q10 0 10 -9v-263l155 75q3 1 22.5 -37.5t26.5 -57.5q3 -7 -9 -13z" />
    <glyph glyph-name="lslash" unicode="&#x142;" horiz-adv-x="340" 
d="M360 353q-2 0 -80 -39v-303q0 -11 -8 -11h-204q-8 0 -8 14v194q-14 -6 -24 -11q-13 -9 -19 0q-21 34 -39 89q0 10 12 16l70 34v350q0 13 7 13h204q9 0 9 -13v-244l40 19q3 0 23 -40q19 -36 26 -55q0 -8 -9 -13z" />
    <glyph glyph-name="OE" unicode="&#x152;" horiz-adv-x="909" 
d="M396 681q35 0 101 -1.5t81 -1.5h286q12 0 12 -14v-132q0 -14 -12 -14h-241v-88h234q12 0 12 -14v-152q0 -13 -12 -13h-234v-84h249q9 0 10.5 -1.5t1.5 -11.5v-140q0 -14 -12 -14h-294q-32 0 -95 -2t-84 -2q-171 0 -270 90q-102 91 -102 252q0 176 107 264q96 79 262 79z
M402 177v323q-138 -20 -138 -163t138 -160z" />
    <glyph glyph-name="oe" unicode="&#x153;" horiz-adv-x="912" 
d="M475 466q64 59 171 59q106 0 176 -66t70 -172q0 -47 -5 -74q-2 -12 -21 -12h-311q2 -30 23 -49q22 -22 60 -22q49 0 90 33q7 6 15 -6q12 -18 72 -113q9 -14 -5 -23q-67 -45 -166 -45q-105 0 -170 58q-52 -58 -166 -58q-132 0 -207.5 76t-75.5 200q0 121 78.5 197
t203.5 76q107 0 168 -59zM555 311h168q-7 65 -87 65q-71 0 -81 -65zM302 337q-36 0 -58 -23t-22 -62q0 -89 80 -89q77 0 77 89q0 85 -77 85z" />
    <glyph glyph-name="Scaron" unicode="&#x160;" horiz-adv-x="641" 
d="M509 863q-132 -124 -167 -151q-6 -6 -10 -6q-1 0 -9 6t-81 74q-71 65 -80.5 74t-9.5 10q0 4 10 4h104q9 0 15 -5q19 -10 53 -46q16 18 52 46q7 5 14 5h109q6 0 6 -4q-1 -2 -6 -7zM38 129q-6 15 4 19l149 56q10 4 12 -4q8 -28 35 -47t60 -19q70 0 70 51q0 41 -87 52
q-9 1 -25 3q-80 7 -132 43q-76 53 -76 160q0 119 75.5 187.5t215.5 68.5q102 0 167 -41q62 -39 76 -106q3 -13 -7 -17l-141 -52q-9 -4 -12 4q-24 57 -91 57q-65 0 -65 -47q0 -22 21 -32t79 -19q11 -1 36 -5q203 -31 203 -206q0 -121 -87 -192q-83 -67 -212 -67
q-100 0 -169.5 40.5t-98.5 112.5z" />
    <glyph glyph-name="scaron" unicode="&#x161;" horiz-adv-x="535" 
d="M445 697q-132 -124 -167 -151q-6 -6 -10 -6q-1 0 -9 6t-81 74q-71 65 -80.5 74t-9.5 10q0 4 10 4h104q9 0 15 -5q19 -10 53 -46q16 18 52 46q7 5 14 5h109q6 0 6 -4q-1 -2 -6 -7zM27 93q-6 8 -5 10q1 1 9 4l124 44q6 2 9 -4q27 -47 80 -47q52 0 52 31q0 28 -67 36
q-7 1 -22 3q-65 5 -109 35q-63 43 -63 126q0 88 66 141t176 53q175 0 210 -110q3 -10 -4 -13l-125 -41q-7 -3 -12 3q-27 41 -70 41q-49 0 -49 -29q0 -16 15 -21q12 -5 60 -11q10 -1 31 -3q174 -24 174 -168q0 -82 -76 -139t-179 -57q-171 0 -225 116z" />
    <glyph glyph-name="Ydieresis" unicode="&#x178;" horiz-adv-x="736" 
d="M363 820v-107q0 -10 -8 -10h-177q-7 0 -7 12v105q0 11 6 11h177q9 0 9 -11zM613 820v-107q0 -10 -7 -10h-177q-7 0 -7 12v105q0 11 6 11h177q8 0 8 -11zM729 665q-89 -181 -225 -449v-203q0 -14 -11 -14h-222q-7 0 -7 14v185q-79 136 -265 466q-5 10 -4 12t10 2h252
q10 0 17 -16q34 -78 111 -245q33 83 96 251q4 10 15 10h227q10 0 10 -2q1 -1 -4 -11z" />
    <glyph glyph-name="Zcaron" unicode="&#x17d;" horiz-adv-x="611" 
d="M483 857q-132 -124 -167 -151q-6 -6 -10 -6q-1 0 -9 6t-81 74q-71 65 -80.5 74t-9.5 10q0 4 10 4h104q9 0 15 -5q19 -10 53 -46q16 18 52 46q7 5 14 5h109q6 0 6 -4q-1 -2 -6 -7zM14 21q91 164 267 486q-93 -2 -245 -6q-11 0 -11 9v155q0 13 18 13h543q5 0 6 -7t-1 -11
q-85 -170 -261 -491q92 2 245 7q14 1 14 -11v-154q0 -11 -11 -11h-560q-5 0 -6 7q-2 8 2 14z" />
    <glyph glyph-name="zcaron" unicode="&#x17e;" horiz-adv-x="505" 
d="M432 683q-132 -124 -167 -151q-6 -6 -10 -6q-1 0 -9 6t-81 74q-71 65 -80.5 74t-9.5 10q0 4 10 4h104q9 0 15 -5q19 -10 53 -46q16 18 52 46q7 5 14 5h109q6 0 6 -4q-1 -2 -6 -7zM6 16q64 127 189 357q-107 -3 -158 -3q-15 0 -15 9v116q0 10 11 10h458q14 0 6 -17
q-61 -124 -201 -347q64 2 178 8q14 1 14 -11v-129q0 -9 -14 -9h-459q-17 0 -9 16z" />
    <glyph glyph-name="florin" unicode="&#x192;" horiz-adv-x="523" 
d="M131 73v178h-85q-8 0 -8 12v134q0 10 8 10h85v70q0 104 42 150q46 51 155 51h135q8 0 8 -10v-132q0 -9 -8 -9h-98v-118h110q9 0 9 -12v-134q0 -10 -9 -10h-110v-201q0 -110 -50.5 -160.5t-160.5 -50.5q-53 0 -113 20q-10 3 -9 15q3 25 12 130q1 17 20 12q10 -3 18 -3
q49 0 49 58z" />
    <glyph glyph-name="circumflex" unicode="&#x2c6;" horiz-adv-x="400" 
d="M24 561q31 31 166 151q12 6 10 6q1 0 10 -7q21 -15 162 -148q8 -8 8 -10q0 -3 -10 -3h-104q-8 0 -15 4q-19 11 -53 47q-16 -17 -52 -47q-7 -4 -13 -4h-109q-7 0 -7 3t7 8z" />
    <glyph glyph-name="caron" unicode="&#x2c7;" horiz-adv-x="400" 
d="M373 697q-132 -124 -167 -151q-6 -6 -10 -6q-1 0 -9 6t-81 74q-71 65 -80.5 74t-9.5 10q0 4 10 4h104q9 0 15 -5q19 -10 53 -46q16 18 52 46q7 5 14 5h109q6 0 6 -4q-1 -2 -6 -7z" />
    <glyph glyph-name="breve" unicode="&#x2d8;" horiz-adv-x="450" 
d="M372 712l52 -52q6 -8 -2 -18q-74 -92 -201 -92q-117 0 -194 92q-9 10 -1 18l51 51q10 9 18 -1q28 -33 47 -44q29 -17 79 -17q52 0 83 15q26 14 50 46q8 11 18 2z" />
    <glyph glyph-name="dotaccent" unicode="&#x2d9;" horiz-adv-x="527" 
d="M366 693v-136q0 -10 -7 -10h-177q-8 0 -8 13v133q0 11 7 11h177q8 0 8 -11z" />
    <glyph glyph-name="ring" unicode="&#x2da;" horiz-adv-x="385" 
d="M194 781q55 0 89.5 -34.5t34.5 -89.5t-34.5 -89.5t-89.5 -34.5q-56 0 -92 34.5t-36 89.5t36 89.5t92 34.5zM191 700q-43 0 -43 -43q0 -44 43 -44t43 44q0 43 -43 43z" />
    <glyph glyph-name="ogonek" unicode="&#x2db;" horiz-adv-x="559" 
d="M136 -113q0 41 27 75q31 37 77 37q18 0 69 1q-23 0 -47 -22t-24 -51q0 -53 52 -53q26 0 36 21q1 0 2 1.5t3 0.5l75 -32q5 -2 4 -10q-26 -79 -124 -79q-150 0 -150 111z" />
    <glyph glyph-name="tilde" unicode="&#x2dc;" horiz-adv-x="534" 
d="M123 545q-5 -4 -12 0q-7 3 -7 11q1 66 38 105t91 39q38 0 76.5 -28t56.5 -28q29 0 50 12q6 4 32 25q2 2 5 2q16 0 13 -16q-5 -27 -33 -67q-41 -59 -94 -59q-38 0 -76 26t-63 26q-24 0 -44 -16q-3 -2 -33 -32z" />
    <glyph glyph-name="hungarumlaut" unicode="&#x2dd;" horiz-adv-x="509" 
d="M268 631q-107 -53 -189 -91q-3 -1 -7 -1q-9 0 -20 5t-9 8q31 51 102 171q4 6 9 3q41 -26 120 -76q1 -1 1 -2q0 -5 -7 -17zM484 631q-107 -53 -189 -91q-3 -1 -6 -1q-10 0 -21 5t-9 8q31 50 103 171q3 6 8 3q41 -27 121 -76q4 -2 -7 -19z" />
    <glyph glyph-name="Delta" unicode="&#x394;" 
d="M47 300q0 154 109.5 263.5t263.5 109.5t263.5 -109.5t109.5 -263.5t-109.5 -263.5t-263.5 -109.5t-263.5 109.5t-109.5 263.5zM507 578l-103 33l-106 -73l82 -13l2 -49l-108 -51l-100 97l10 -104l-48 33l73 -189l193 38l-128 -224l22 -51l48 24l67 220l-26 -218l46 -36
l36 41l-25 215l63 -209l57 -9l16 43l-129 206l193 -22l51 211l-48 -29l-9 78l-65 -109l-127 53l23 54z" />
    <glyph glyph-name="Delta" unicode="&#x2206;" 
d="M47 300q0 154 109.5 263.5t263.5 109.5t263.5 -109.5t109.5 -263.5t-109.5 -263.5t-263.5 -109.5t-263.5 109.5t-109.5 263.5zM507 578l-103 33l-106 -73l82 -13l2 -49l-108 -51l-100 97l10 -104l-48 33l73 -189l193 38l-128 -224l22 -51l48 24l67 220l-26 -218l46 -36
l36 41l-25 215l63 -209l57 -9l16 43l-129 206l193 -22l51 211l-48 -29l-9 78l-65 -109l-127 53l23 54z" />
    <glyph glyph-name="Omega" unicode="&#x3a9;" 
d="M47 300q0 154 109.5 263.5t263.5 109.5t263.5 -109.5t109.5 -263.5t-109.5 -263.5t-263.5 -109.5t-263.5 109.5t-109.5 263.5zM507 578l-103 33l-106 -73l82 -13l2 -49l-108 -51l-100 97l10 -104l-48 33l73 -189l193 38l-128 -224l22 -51l48 24l67 220l-26 -218l46 -36
l36 41l-25 215l63 -209l57 -9l16 43l-129 206l193 -22l51 211l-48 -29l-9 78l-65 -109l-127 53l23 54z" />
    <glyph glyph-name="Omega" unicode="&#x2126;" 
d="M47 300q0 154 109.5 263.5t263.5 109.5t263.5 -109.5t109.5 -263.5t-109.5 -263.5t-263.5 -109.5t-263.5 109.5t-109.5 263.5zM507 578l-103 33l-106 -73l82 -13l2 -49l-108 -51l-100 97l10 -104l-48 33l73 -189l193 38l-128 -224l22 -51l48 24l67 220l-26 -218l46 -36
l36 41l-25 215l63 -209l57 -9l16 43l-129 206l193 -22l51 211l-48 -29l-9 78l-65 -109l-127 53l23 54z" />
    <glyph glyph-name="pi" unicode="&#x3c0;" 
d="M47 300q0 154 109.5 263.5t263.5 109.5t263.5 -109.5t109.5 -263.5t-109.5 -263.5t-263.5 -109.5t-263.5 109.5t-109.5 263.5zM507 578l-103 33l-106 -73l82 -13l2 -49l-108 -51l-100 97l10 -104l-48 33l73 -189l193 38l-128 -224l22 -51l48 24l67 220l-26 -218l46 -36
l36 41l-25 215l63 -209l57 -9l16 43l-129 206l193 -22l51 211l-48 -29l-9 78l-65 -109l-127 53l23 54z" />
    <glyph glyph-name="endash" unicode="&#x2013;" horiz-adv-x="454" 
d="M454 366v-168q0 -12 -14 -12h-427q-14 0 -14 12v168q0 10 1.5 11t12.5 1h427q13 0 14 -2v-10z" />
    <glyph glyph-name="emdash" unicode="&#x2014;" horiz-adv-x="909" 
d="M909 366v-168q0 -12 -15 -12h-881q-14 0 -14 12v168q0 10 1.5 11t12.5 1h881q13 0 15 -2v-10z" />
    <glyph glyph-name="quoteleft" unicode="&#x2018;" horiz-adv-x="266" 
d="M197 368q-39 50 -92 129q-75 113 -104 154q-2 2 -2 14q0 13 5 13h224q8 0 8 -10v-297q0 -4 -18 -5q-17 -2 -21 2z" />
    <glyph glyph-name="quoteright" unicode="&#x2019;" horiz-adv-x="266" 
d="M272 651q-64 -98 -197 -283q-3 -4 -21 -2q-18 1 -18 5v297q0 10 9 10h224q4 0 4 -13t-1 -14z" />
    <glyph glyph-name="quotesinglbase" unicode="&#x201a;" horiz-adv-x="266" 
d="M265 142q-64 -98 -196 -283q-3 -4 -21 -2q-18 1 -18 5v297q0 10 8 10h225q4 0 4 -13q-1 -13 -2 -14z" />
    <glyph glyph-name="quotedblleft" unicode="&#x201c;" horiz-adv-x="529" 
d="M199 368q-40 51 -93 129q-84 125 -105 154q-2 2 -2 14q0 13 5 13h224q8 0 8 -10v-297q0 -4 -17 -5q-16 -2 -20 2zM471 368q-40 51 -93 129q-85 125 -105 154q-1 1 -2 14q0 13 4 13h225q8 0 8 -10v-297q0 -4 -17 -5q-17 -2 -20 2z" />
    <glyph glyph-name="quotedblright" unicode="&#x201d;" horiz-adv-x="529" 
d="M531 651q-65 -97 -198 -283q-4 -4 -21 -2q-17 1 -17 5v297q0 10 9 10h224q4 0 4 -13t-1 -14zM259 651q-65 -97 -198 -283q-4 -4 -20 -2q-17 1 -17 5v297q0 10 8 10h224q5 0 5 -13q0 -12 -2 -14z" />
    <glyph glyph-name="quotedblbase" unicode="&#x201e;" horiz-adv-x="533" 
d="M256 142q-64 -97 -196 -283q-4 -4 -21 -2q-18 1 -18 5v297q0 10 8 10h225q4 0 4 -13q-1 -13 -2 -14zM527 142q-64 -97 -196 -283q-4 -4 -21 -2q-18 1 -18 5v297q0 10 8 10h224q5 0 5 -13q0 -12 -2 -14z" />
    <glyph glyph-name="dagger" unicode="&#x2020;" horiz-adv-x="547" 
d="M194 -151q0 52 -5.5 270.5t-5.5 245.5q-52 -1 -150 -7q-14 -1 -14 12v124q0 9 1.5 10.5t12.5 0.5q67 -3 150 -3q7 131 7 172q0 13 2 15h10h145q12 0 12 -15q0 -77 9 -174q55 0 147 5q13 1 15 -1v-10v-124q0 -13 -15 -12q-96 4 -149 4q0 -27 -6 -236t-6 -277
q0 -14 -11 -14h-138q-8 0 -9.5 1.5t-1.5 12.5z" />
    <glyph glyph-name="daggerdbl" unicode="&#x2021;" horiz-adv-x="547" 
d="M358 365v-152l154 3q13 1 13 -12v-123q0 -10 -1 -11t-12 -1q-88 4 -152 4q-6 -86 -6 -173q0 -13 -1 -15h-10h-137q-12 0 -12 15q0 111 -7 175q-59 0 -149 -6q-13 -1 -14 1v11v123q0 13 14 12q56 -2 153 -3v152l-154 -7q-13 -1 -13 12v124q0 9 1 10t12 1q66 -3 152 -3
q5 70 5 172q0 13 2 15h10h137q11 0 11 -15q0 -102 8 -174q55 0 149 5q13 1 14 -1v-10v-124q0 -13 -14 -12q-52 2 -153 7z" />
    <glyph glyph-name="bullet" unicode="&#x2022;" horiz-adv-x="640" 
d="M23 286q0 122 86.5 209t208.5 87t208.5 -87t86.5 -209t-86.5 -208.5t-208.5 -86.5t-208.5 86.5t-86.5 208.5z" />
    <glyph glyph-name="ellipsis" unicode="&#x2026;" horiz-adv-x="1058" 
d="M288 208v-197q0 -9 -1 -10t-10 -1h-201q-9 0 -10 1t-1 10v197q0 10 1 11t10 1h201q9 0 10 -1.5t1 -10.5zM641 208v-197q0 -9 -1 -10t-10 -1h-201q-10 0 -11 1t-1 10v197q0 10 1 11t11 1h201q9 0 10 -1.5t1 -10.5zM993 208v-197q0 -9 -1 -10t-10 -1h-200q-10 0 -11 1
t-1 10v197q0 10 1 11t11 1h200q9 0 10 -1.5t1 -10.5z" />
    <glyph glyph-name="perthousand" unicode="&#x2030;" horiz-adv-x="1231" 
d="M1020 354q83 0 135.5 -51.5t52.5 -128.5t-52.5 -129t-134.5 -52q-83 0 -137 51.5t-54 129.5q0 76 54 128t136 52zM213 678q82 0 135 -52t53 -129t-52.5 -129t-134.5 -52q-83 0 -137 51.5t-54 129.5q0 77 53.5 129t136.5 52zM613 354q82 0 135 -51.5t53 -128.5t-53 -129
t-135 -52t-136 51.5t-54 129.5q0 76 54 128t136 52zM191 -16q-14 1 -42 20.5t-27 28.5q179 205 334 394q194 236 193 260q14 -4 33 -17t36 -19q-137 -160 -332 -407q-184 -235 -195 -260zM211 549q-20 0 -36 -16t-16 -36t16 -36t36 -16t36 16t16 36t-16 36t-36 16zM610 224
q-20 0 -35.5 -15.5t-15.5 -35.5q0 -21 15.5 -36.5t35.5 -15.5t36 15.5t16 36.5q0 20 -16 35.5t-36 15.5zM1017 224q-20 0 -35.5 -15.5t-15.5 -35.5q0 -21 15.5 -36.5t35.5 -15.5t36 15.5t16 36.5q0 20 -16 35.5t-36 15.5z" />
    <glyph glyph-name="guilsinglleft" unicode="&#x2039;" horiz-adv-x="379" 
d="M27 268q-1 7 -1 14q0 8 1 15l273 271q5 5 11 5q8 0 8 -10v-199q0 -19 -9 -26l-71 -55l71 -56q9 -7 9 -25v-199q0 -11 -9 -11q-5 0 -10 5q-93 93 -273 271z" />
    <glyph glyph-name="guilsinglright" unicode="&#x203a;" horiz-adv-x="379" 
d="M347 297q4 -17 0 -29q-90 -89 -272 -271q-5 -5 -11 -5q-9 0 -9 11v199q0 19 10 25l70 56l-70 55q-10 8 -10 26v199q0 10 9 10q6 0 11 -5z" />
    <glyph glyph-name="fraction" unicode="&#x2044;" horiz-adv-x="367" 
d="M-41 -85q-94 61 -91 66q242 329 533 707q11 15 16 12q43 -20 82 -52q8 -7 0 -18q-233 -336 -526 -705q-9 -12 -14 -10z" />
    <glyph glyph-name="trademark" unicode="&#x2122;" horiz-adv-x="752" 
d="M235 583l3 -239q0 -5 -5 -5h-123q-5 0 -5 5q0 57 3 239l-87 -6q-4 0 -4 4v92q0 5 5 5h296q5 0 5 -5v-92q0 -4 -4 -4zM703 683q10 -152 16 -338q0 -13 -115 -13q-4 0 -4 4l-5 130l-69 -56q-4 -4 -9 0q-21 17 -63 56l-3 -120q0 -7 -7 -7h-99q-4 0 -4 4q2 179 11 336
q2 8 7 4q85 -62 166 -136q111 93 171 137q7 5 7 -1z" />
    <glyph glyph-name="partialdiff" unicode="&#x2202;" 
d="M47 300q0 154 109.5 263.5t263.5 109.5t263.5 -109.5t109.5 -263.5t-109.5 -263.5t-263.5 -109.5t-263.5 109.5t-109.5 263.5zM507 578l-103 33l-106 -73l82 -13l2 -49l-108 -51l-100 97l10 -104l-48 33l73 -189l193 38l-128 -224l22 -51l48 24l67 220l-26 -218l46 -36
l36 41l-25 215l63 -209l57 -9l16 43l-129 206l193 -22l51 211l-48 -29l-9 78l-65 -109l-127 53l23 54z" />
    <glyph glyph-name="product" unicode="&#x220f;" 
d="M47 300q0 154 109.5 263.5t263.5 109.5t263.5 -109.5t109.5 -263.5t-109.5 -263.5t-263.5 -109.5t-263.5 109.5t-109.5 263.5zM507 578l-103 33l-106 -73l82 -13l2 -49l-108 -51l-100 97l10 -104l-48 33l73 -189l193 38l-128 -224l22 -51l48 24l67 220l-26 -218l46 -36
l36 41l-25 215l63 -209l57 -9l16 43l-129 206l193 -22l51 211l-48 -29l-9 78l-65 -109l-127 53l23 54z" />
    <glyph glyph-name="summation" unicode="&#x2211;" 
d="M47 300q0 154 109.5 263.5t263.5 109.5t263.5 -109.5t109.5 -263.5t-109.5 -263.5t-263.5 -109.5t-263.5 109.5t-109.5 263.5zM507 578l-103 33l-106 -73l82 -13l2 -49l-108 -51l-100 97l10 -104l-48 33l73 -189l193 38l-128 -224l22 -51l48 24l67 220l-26 -218l46 -36
l36 41l-25 215l63 -209l57 -9l16 43l-129 206l193 -22l51 211l-48 -29l-9 78l-65 -109l-127 53l23 54z" />
    <glyph glyph-name="radical" unicode="&#x221a;" horiz-adv-x="698" 
d="M352 -39q-25 8 -51 17q-37 14 -44 32q-44 114 -88 168q-61 73 -147 73q-9 0 -9 13q0 15 7 29q32 71 91 192q14 26 34 22q71 -15 135.5 -108t84.5 -208q34 109 111 278q68 152 116 235q4 6 7 13q2 2 9 -1q80 -28 91 -35q8 -5 0 -18q-82 -141 -174 -329
q-101 -207 -160 -364q-4 -12 -13 -9z" />
    <glyph glyph-name="infinity" unicode="&#x221e;" 
d="M47 300q0 154 109.5 263.5t263.5 109.5t263.5 -109.5t109.5 -263.5t-109.5 -263.5t-263.5 -109.5t-263.5 109.5t-109.5 263.5zM507 578l-103 33l-106 -73l82 -13l2 -49l-108 -51l-100 97l10 -104l-48 33l73 -189l193 38l-128 -224l22 -51l48 24l67 220l-26 -218l46 -36
l36 41l-25 215l63 -209l57 -9l16 43l-129 206l193 -22l51 211l-48 -29l-9 78l-65 -109l-127 53l23 54z" />
    <glyph glyph-name="integral" unicode="&#x222b;" 
d="M47 300q0 154 109.5 263.5t263.5 109.5t263.5 -109.5t109.5 -263.5t-109.5 -263.5t-263.5 -109.5t-263.5 109.5t-109.5 263.5zM507 578l-103 33l-106 -73l82 -13l2 -49l-108 -51l-100 97l10 -104l-48 33l73 -189l193 38l-128 -224l22 -51l48 24l67 220l-26 -218l46 -36
l36 41l-25 215l63 -209l57 -9l16 43l-129 206l193 -22l51 211l-48 -29l-9 78l-65 -109l-127 53l23 54z" />
    <glyph glyph-name="approxequal" unicode="&#x2248;" 
d="M47 300q0 154 109.5 263.5t263.5 109.5t263.5 -109.5t109.5 -263.5t-109.5 -263.5t-263.5 -109.5t-263.5 109.5t-109.5 263.5zM507 578l-103 33l-106 -73l82 -13l2 -49l-108 -51l-100 97l10 -104l-48 33l73 -189l193 38l-128 -224l22 -51l48 24l67 220l-26 -218l46 -36
l36 41l-25 215l63 -209l57 -9l16 43l-129 206l193 -22l51 211l-48 -29l-9 78l-65 -109l-127 53l23 54z" />
    <glyph glyph-name="approxequal" unicode="&#x22f2;" 
d="M47 300q0 154 109.5 263.5t263.5 109.5t263.5 -109.5t109.5 -263.5t-109.5 -263.5t-263.5 -109.5t-263.5 109.5t-109.5 263.5zM507 578l-103 33l-106 -73l82 -13l2 -49l-108 -51l-100 97l10 -104l-48 33l73 -189l193 38l-128 -224l22 -51l48 24l67 220l-26 -218l46 -36
l36 41l-25 215l63 -209l57 -9l16 43l-129 206l193 -22l51 211l-48 -29l-9 78l-65 -109l-127 53l23 54z" />
    <glyph glyph-name="notequal" unicode="&#x2260;" 
d="M47 300q0 154 109.5 263.5t263.5 109.5t263.5 -109.5t109.5 -263.5t-109.5 -263.5t-263.5 -109.5t-263.5 109.5t-109.5 263.5zM507 578l-103 33l-106 -73l82 -13l2 -49l-108 -51l-100 97l10 -104l-48 33l73 -189l193 38l-128 -224l22 -51l48 24l67 220l-26 -218l46 -36
l36 41l-25 215l63 -209l57 -9l16 43l-129 206l193 -22l51 211l-48 -29l-9 78l-65 -109l-127 53l23 54z" />
    <glyph glyph-name="lessequal" unicode="&#x2264;" 
d="M47 300q0 154 109.5 263.5t263.5 109.5t263.5 -109.5t109.5 -263.5t-109.5 -263.5t-263.5 -109.5t-263.5 109.5t-109.5 263.5zM507 578l-103 33l-106 -73l82 -13l2 -49l-108 -51l-100 97l10 -104l-48 33l73 -189l193 38l-128 -224l22 -51l48 24l67 220l-26 -218l46 -36
l36 41l-25 215l63 -209l57 -9l16 43l-129 206l193 -22l51 211l-48 -29l-9 78l-65 -109l-127 53l23 54z" />
    <glyph glyph-name="greaterequal" unicode="&#x2265;" 
d="M47 300q0 154 109.5 263.5t263.5 109.5t263.5 -109.5t109.5 -263.5t-109.5 -263.5t-263.5 -109.5t-263.5 109.5t-109.5 263.5zM507 578l-103 33l-106 -73l82 -13l2 -49l-108 -51l-100 97l10 -104l-48 33l73 -189l193 38l-128 -224l22 -51l48 24l67 220l-26 -218l46 -36
l36 41l-25 215l63 -209l57 -9l16 43l-129 206l193 -22l51 211l-48 -29l-9 78l-65 -109l-127 53l23 54z" />
    <glyph glyph-name="lozenge" unicode="&#x25ca;" 
d="M47 300q0 154 109.5 263.5t263.5 109.5t263.5 -109.5t109.5 -263.5t-109.5 -263.5t-263.5 -109.5t-263.5 109.5t-109.5 263.5zM507 578l-103 33l-106 -73l82 -13l2 -49l-108 -51l-100 97l10 -104l-48 33l73 -189l193 38l-128 -224l22 -51l48 24l67 220l-26 -218l46 -36
l36 41l-25 215l63 -209l57 -9l16 43l-129 206l193 -22l51 211l-48 -29l-9 78l-65 -109l-127 53l23 54z" />
    <glyph glyph-name="apple" unicode="&#xf000;" 
d="M47 300q0 154 109.5 263.5t263.5 109.5t263.5 -109.5t109.5 -263.5t-109.5 -263.5t-263.5 -109.5t-263.5 109.5t-109.5 263.5zM507 578l-103 33l-106 -73l82 -13l2 -49l-108 -51l-100 97l10 -104l-48 33l73 -189l193 38l-128 -224l22 -51l48 24l67 220l-26 -218l46 -36
l36 41l-25 215l63 -209l57 -9l16 43l-129 206l193 -22l51 211l-48 -29l-9 78l-65 -109l-127 53l23 54z" />
    <glyph glyph-name="fi" unicode="&#xf001;" horiz-adv-x="685" 
d="M625 680v-129q0 -11 -8 -11h-206q-8 0 -8 13v127q0 13 7 13h206q9 0 9 -13zM625 493v-482q0 -11 -8 -11h-206q-8 0 -8 14v479q0 12 7 12h206q9 0 9 -12zM82 0q-8 0 -8 13v320h-45q-11 0 -11 11v149q0 12 7 12h56v39q0 70 42.5 112.5t123.5 42.5q97 0 139 -72q4 -6 -2 -16
q-10 -24 -30 -52q-5 -12 -12 -5q-15 15 -37 15q-29 0 -29 -36v-22q0 -6 6 -6h77q9 0 9 -8v-150q0 -15 -11 -15h-63v-321q0 -11 -9 -11h-203z" />
    <glyph glyph-name="fl" unicode="&#xf002;" horiz-adv-x="685" 
d="M625 665v-654q0 -11 -8 -11h-206q-8 0 -8 14v651q0 13 7 13h206q9 0 9 -13zM82 0q-8 0 -8 13v320h-45q-11 0 -11 11v149q0 12 7 12h56v39q0 70 42.5 112.5t123.5 42.5q97 0 139 -72q4 -6 -2 -16q-10 -24 -30 -52q-5 -12 -12 -5q-15 15 -37 15q-29 0 -29 -36v-22
q0 -6 6 -6h77q9 0 9 -8v-150q0 -15 -11 -15h-63v-321q0 -11 -9 -11h-203z" />
    <glyph glyph-name="glyph245" horiz-adv-x="280" 
 />
    <glyph glyph-name=".null" horiz-adv-x="909" 
 />
  </font>
</defs>
</svg>
